<svg width="217" height="76" viewBox="0 0 217 76" fill="none" xmlns="http://www.w3.org/2000/svg">
<g filter="url(#filter0_dd)">
<rect x="5" y="4" width="207" height="66" rx="8" fill="#131E2D"/>
</g>
<path d="M85.2891 29.8809C85 30.2949 84.5957 30.6055 84.0762 30.8125C83.5605 31.0156 82.959 31.1172 82.2715 31.1172C81.5762 31.1172 80.959 30.9551 80.4199 30.6309C79.8809 30.3027 79.4629 29.8379 79.166 29.2363C78.873 28.6348 78.7227 27.9375 78.7148 27.1445V26.4004C78.7148 25.1152 79.0137 24.1191 79.6113 23.4121C80.2129 22.7051 81.0566 22.3516 82.1426 22.3516C83.0332 22.3516 83.75 22.5801 84.293 23.0371C84.8359 23.4902 85.168 24.1348 85.2891 24.9707H84.1641C83.9531 23.8418 83.2812 23.2773 82.1484 23.2773C81.3945 23.2773 80.8223 23.543 80.4316 24.0742C80.0449 24.6016 79.8496 25.3672 79.8457 26.3711V27.0684C79.8457 28.0254 80.0645 28.7871 80.502 29.3535C80.9395 29.916 81.5312 30.1973 82.2773 30.1973C82.6992 30.1973 83.0684 30.1504 83.3848 30.0566C83.7012 29.9629 83.9629 29.8047 84.1699 29.582V27.666H82.1953V26.752H85.2891V29.8809ZM90.0309 31.1172C89.1715 31.1172 88.4723 30.8359 87.9332 30.2734C87.3941 29.707 87.1246 28.9512 87.1246 28.0059V27.8066C87.1246 27.1777 87.2437 26.6172 87.482 26.125C87.7242 25.6289 88.0602 25.2422 88.4898 24.9648C88.9234 24.6836 89.3922 24.543 89.8961 24.543C90.7203 24.543 91.3609 24.8145 91.818 25.3574C92.275 25.9004 92.5035 26.6777 92.5035 27.6895V28.1406H88.2086C88.2242 28.7656 88.4059 29.2715 88.7535 29.6582C89.1051 30.041 89.5504 30.2324 90.0895 30.2324C90.4723 30.2324 90.7965 30.1543 91.0621 29.998C91.3277 29.8418 91.5602 29.6348 91.7594 29.377L92.4215 29.8926C91.8902 30.709 91.0934 31.1172 90.0309 31.1172ZM89.8961 25.4336C89.4586 25.4336 89.0914 25.5938 88.7945 25.9141C88.4977 26.2305 88.3141 26.6758 88.2437 27.25H91.4195V27.168C91.3883 26.6172 91.2398 26.1914 90.9742 25.8906C90.7086 25.5859 90.3492 25.4336 89.8961 25.4336ZM95.634 23.125V24.6602H96.8176V25.498H95.634V29.4297C95.634 29.6836 95.6867 29.875 95.7922 30.0039C95.8977 30.1289 96.0773 30.1914 96.3313 30.1914C96.4563 30.1914 96.6281 30.168 96.8469 30.1211V31C96.5617 31.0781 96.2844 31.1172 96.0148 31.1172C95.5305 31.1172 95.1652 30.9707 94.9191 30.6777C94.673 30.3848 94.55 29.9688 94.55 29.4297V25.498H93.3957V24.6602H94.55V23.125H95.634ZM103.043 31H101.959V24.6602H103.043V31ZM101.871 22.9785C101.871 22.8027 101.924 22.6543 102.03 22.5332C102.139 22.4121 102.299 22.3516 102.51 22.3516C102.721 22.3516 102.881 22.4121 102.991 22.5332C103.1 22.6543 103.155 22.8027 103.155 22.9785C103.155 23.1543 103.1 23.3008 102.991 23.418C102.881 23.5352 102.721 23.5938 102.51 23.5938C102.299 23.5938 102.139 23.5352 102.03 23.418C101.924 23.3008 101.871 23.1543 101.871 22.9785ZM106.654 23.125V24.6602H107.838V25.498H106.654V29.4297C106.654 29.6836 106.707 29.875 106.812 30.0039C106.918 30.1289 107.098 30.1914 107.352 30.1914C107.477 30.1914 107.648 30.168 107.867 30.1211V31C107.582 31.0781 107.305 31.1172 107.035 31.1172C106.551 31.1172 106.186 30.9707 105.939 30.6777C105.693 30.3848 105.57 29.9688 105.57 29.4297V25.498H104.416V24.6602H105.57V23.125H106.654ZM112.599 27.7715C112.599 27.1504 112.72 26.5918 112.962 26.0957C113.208 25.5996 113.548 25.2168 113.982 24.9473C114.419 24.6777 114.917 24.543 115.476 24.543C116.339 24.543 117.036 24.8418 117.568 25.4395C118.103 26.0371 118.37 26.832 118.37 27.8242V27.9004C118.37 28.5176 118.251 29.0723 118.013 29.5645C117.779 30.0527 117.441 30.4336 116.999 30.707C116.562 30.9805 116.058 31.1172 115.487 31.1172C114.628 31.1172 113.931 30.8184 113.396 30.2207C112.864 29.623 112.599 28.832 112.599 27.8477V27.7715ZM113.689 27.9004C113.689 28.6035 113.851 29.168 114.175 29.5938C114.503 30.0195 114.941 30.2324 115.487 30.2324C116.038 30.2324 116.476 30.0176 116.8 29.5879C117.124 29.1543 117.286 28.5488 117.286 27.7715C117.286 27.0762 117.12 26.5137 116.788 26.084C116.46 25.6504 116.023 25.4336 115.476 25.4336C114.941 25.4336 114.509 25.6465 114.181 26.0723C113.853 26.498 113.689 27.1074 113.689 27.9004ZM121.155 24.6602L121.19 25.457C121.675 24.8477 122.307 24.543 123.089 24.543C124.429 24.543 125.104 25.2988 125.116 26.8105V31H124.032V26.8047C124.028 26.3477 123.923 26.0098 123.716 25.791C123.513 25.5723 123.194 25.4629 122.761 25.4629C122.409 25.4629 122.1 25.5566 121.835 25.7441C121.569 25.9316 121.362 26.1777 121.214 26.4824V31H120.13V24.6602H121.155Z" fill="white"/>
<path d="M78.336 54L82.844 43.388H82.942L87.45 54H85.574L84.636 51.606H80.926L79.946 54H78.336ZM81.5 50.206H84.09L82.816 47L81.5 50.206ZM93.3231 43.808C94.4897 43.808 95.3951 44.0973 96.0391 44.676C96.6924 45.2547 97.0191 46.0573 97.0191 47.084C97.0191 47.4853 96.9584 47.8867 96.8371 48.288C96.7157 48.6893 96.5151 49.0533 96.2351 49.38C95.9644 49.7067 95.6097 49.968 95.1711 50.164C94.7324 50.36 94.1911 50.458 93.5471 50.458H92.0771V54H90.4391V43.808H93.3231ZM93.5471 48.89C94.0231 48.89 94.3964 48.7873 94.6671 48.582C94.9377 48.3767 95.1244 48.134 95.2271 47.854C95.3391 47.574 95.3951 47.3267 95.3951 47.112C95.3951 46.8973 95.3437 46.6547 95.2411 46.384C95.1477 46.104 94.9704 45.866 94.7091 45.67C94.4477 45.474 94.0744 45.376 93.5891 45.376H92.0771V48.89H93.5471ZM103.132 43.808C104.298 43.808 105.204 44.0973 105.848 44.676C106.501 45.2547 106.828 46.0573 106.828 47.084C106.828 47.4853 106.767 47.8867 106.646 48.288C106.524 48.6893 106.324 49.0533 106.044 49.38C105.773 49.7067 105.418 49.968 104.98 50.164C104.541 50.36 104 50.458 103.356 50.458H101.886V54H100.248V43.808H103.132ZM103.356 48.89C103.832 48.89 104.205 48.7873 104.476 48.582C104.746 48.3767 104.933 48.134 105.036 47.854C105.148 47.574 105.204 47.3267 105.204 47.112C105.204 46.8973 105.152 46.6547 105.05 46.384C104.956 46.104 104.779 45.866 104.518 45.67C104.256 45.474 103.883 45.376 103.398 45.376H101.886V48.89H103.356ZM110.056 43.808H111.694V52.432H116.72V54H110.056V43.808ZM120.125 43.808H126.887V45.376H121.763V48.092H126.327V49.66H121.763V52.432H127.083V54H120.125V43.808ZM141.672 45.88C141.308 45.6933 140.92 45.5347 140.51 45.404C140.108 45.264 139.716 45.194 139.334 45.194C138.83 45.194 138.428 45.306 138.13 45.53C137.84 45.7447 137.696 46.0527 137.696 46.454C137.696 46.734 137.798 46.9813 138.004 47.196C138.209 47.4013 138.47 47.5833 138.788 47.742C139.105 47.9007 139.441 48.0453 139.796 48.176C140.206 48.3253 140.603 48.512 140.986 48.736C141.378 48.96 141.7 49.268 141.952 49.66C142.204 50.0427 142.33 50.556 142.33 51.2C142.33 51.732 142.194 52.222 141.924 52.67C141.653 53.1087 141.266 53.4587 140.762 53.72C140.258 53.9813 139.646 54.112 138.928 54.112C138.293 54.112 137.677 54.014 137.08 53.818C136.492 53.6127 135.969 53.3513 135.512 53.034L136.24 51.76C136.576 52.012 136.977 52.2267 137.444 52.404C137.92 52.5813 138.363 52.67 138.774 52.67C139.063 52.67 139.348 52.6233 139.628 52.53C139.917 52.4367 140.155 52.2827 140.342 52.068C140.538 51.8533 140.636 51.5687 140.636 51.214C140.636 50.9247 140.552 50.6773 140.384 50.472C140.216 50.2667 139.996 50.0893 139.726 49.94C139.464 49.7813 139.175 49.6413 138.858 49.52C138.54 49.3987 138.214 49.2633 137.878 49.114C137.551 48.9647 137.248 48.7827 136.968 48.568C136.688 48.344 136.459 48.0733 136.282 47.756C136.104 47.4387 136.016 47.0467 136.016 46.58C136.016 46.02 136.146 45.5347 136.408 45.124C136.669 44.704 137.028 44.3773 137.486 44.144C137.952 43.9107 138.489 43.78 139.096 43.752C139.814 43.752 140.426 43.8407 140.93 44.018C141.443 44.186 141.896 44.3913 142.288 44.634L141.672 45.88ZM144.953 43.808H151.771V45.376H149.139V54H147.515V45.376H144.953V43.808ZM154.067 48.918C154.067 48.2087 154.202 47.5413 154.473 46.916C154.744 46.2813 155.117 45.726 155.593 45.25C156.069 44.7647 156.62 44.3867 157.245 44.116C157.88 43.836 158.556 43.696 159.275 43.696C159.984 43.696 160.652 43.836 161.277 44.116C161.912 44.3867 162.467 44.7647 162.943 45.25C163.428 45.726 163.806 46.2813 164.077 46.916C164.357 47.5413 164.497 48.2087 164.497 48.918C164.497 49.6367 164.357 50.3087 164.077 50.934C163.806 51.5593 163.428 52.11 162.943 52.586C162.467 53.062 161.912 53.4353 161.277 53.706C160.652 53.9767 159.984 54.112 159.275 54.112C158.556 54.112 157.88 53.9813 157.245 53.72C156.62 53.4493 156.069 53.0807 155.593 52.614C155.117 52.138 154.744 51.5873 154.473 50.962C154.202 50.3273 154.067 49.646 154.067 48.918ZM155.747 48.918C155.747 49.59 155.906 50.2013 156.223 50.752C156.54 51.2933 156.965 51.7273 157.497 52.054C158.038 52.3807 158.645 52.544 159.317 52.544C159.97 52.544 160.558 52.3807 161.081 52.054C161.613 51.7273 162.033 51.2933 162.341 50.752C162.658 50.2013 162.817 49.59 162.817 48.918C162.817 48.2367 162.658 47.6207 162.341 47.07C162.024 46.5193 161.599 46.0807 161.067 45.754C160.535 45.4273 159.938 45.264 159.275 45.264C158.612 45.264 158.015 45.4273 157.483 45.754C156.951 46.0807 156.526 46.524 156.209 47.084C155.901 47.6347 155.747 48.246 155.747 48.918ZM170.793 43.808C171.549 43.808 172.207 43.9387 172.767 44.2C173.337 44.452 173.775 44.8253 174.083 45.32C174.401 45.8053 174.559 46.3933 174.559 47.084C174.559 47.6627 174.433 48.2273 174.181 48.778C173.929 49.3287 173.505 49.758 172.907 50.066L175.385 54H173.495L171.199 50.458C171.143 50.458 171.087 50.458 171.031 50.458H169.561V54H167.923V43.808H170.793ZM171.017 48.89C171.503 48.89 171.881 48.7967 172.151 48.61C172.422 48.414 172.609 48.1807 172.711 47.91C172.823 47.63 172.879 47.3733 172.879 47.14C172.879 46.916 172.828 46.6687 172.725 46.398C172.623 46.118 172.441 45.88 172.179 45.684C171.918 45.4787 171.549 45.376 171.073 45.376H169.561V48.89H171.017ZM178.552 43.808H185.314V45.376H180.19V48.092H184.754V49.66H180.19V52.432H185.51V54H178.552V43.808Z" fill="white"/>
<path d="M55.0951 37.1386C55.0758 33.8599 56.5613 31.3888 59.5612 29.5668C57.8834 27.163 55.3451 25.841 51.999 25.5862C48.8309 25.3362 45.3647 27.4322 44.0955 27.4322C42.7542 27.4322 39.687 25.6727 37.2736 25.6727C32.2931 25.7496 27 29.6437 27 37.5665C27 39.9077 27.4279 42.3259 28.2836 44.8162C29.4278 48.0949 33.5526 56.1282 37.8553 55.9984C40.1053 55.9456 41.6965 54.4024 44.6243 54.4024C47.4655 54.4024 48.9366 55.9984 51.4462 55.9984C55.7873 55.9359 59.518 48.6333 60.6045 45.345C54.7826 42.5999 55.0951 37.3069 55.0951 37.1386ZM50.0424 22.4757C52.4798 19.5816 52.2586 16.9471 52.1865 16C50.0328 16.125 47.5425 17.4663 46.1243 19.1153C44.5618 20.8844 43.6436 23.0718 43.8407 25.5381C46.1675 25.716 48.2924 24.5189 50.0424 22.4757Z" fill="white"/>
<defs>
<filter id="filter0_dd" x="0" y="0" width="217" height="76" filterUnits="userSpaceOnUse" color-interpolation-filters="sRGB">
<feFlood flood-opacity="0" result="BackgroundImageFix"/>
<feColorMatrix in="SourceAlpha" type="matrix" values="0 0 0 0 0 0 0 0 0 0 0 0 0 0 0 0 0 0 127 0"/>
<feOffset dy="1"/>
<feGaussianBlur stdDeviation="2.5"/>
<feColorMatrix type="matrix" values="0 0 0 0 0 0 0 0 0 0 0 0 0 0 0 0 0 0 0.12 0"/>
<feBlend mode="normal" in2="BackgroundImageFix" result="effect1_dropShadow"/>
<feColorMatrix in="SourceAlpha" type="matrix" values="0 0 0 0 0 0 0 0 0 0 0 0 0 0 0 0 0 0 127 0"/>
<feOffset dy="2"/>
<feGaussianBlur stdDeviation="1"/>
<feColorMatrix type="matrix" values="0 0 0 0 0 0 0 0 0 0 0 0 0 0 0 0 0 0 0.14 0"/>
<feBlend mode="normal" in2="effect1_dropShadow" result="effect2_dropShadow"/>
<feBlend mode="normal" in="SourceGraphic" in2="effect2_dropShadow" result="shape"/>
</filter>
</defs>
</svg>
