<svg width="235" height="360" viewBox="0 0 235 360" fill="none" xmlns="http://www.w3.org/2000/svg">
<path fill-rule="evenodd" clip-rule="evenodd" d="M36.0102 1.34911C71.7059 -5.85026 105.879 17.1123 137.074 38.2562C171.262 61.4288 207.703 86.0157 222.939 128.048C238.725 171.597 240.401 225.294 219.628 266.002C199.919 304.627 155.58 311.754 119.909 329.957C92.4961 343.947 65.9151 362.569 36.0102 359.706C7.40984 356.967 -16.3772 336.055 -38.2836 314.809C-58.7037 295.005 -72.0098 269.558 -84.7401 242.597C-100.582 209.046 -130.532 175.728 -121.253 139.093C-111.995 102.546 -68.5207 97.5112 -42.1349 74.4004C-14.7567 50.4203 2.07101 8.19423 36.0102 1.34911Z" fill="#D5F2F2"/>
</svg>
