<svg width="719" height="719" viewBox="0 0 719 719" fill="none" xmlns="http://www.w3.org/2000/svg">
<g clip-path="url(#clip0)">
<path d="M719 719C624.58 719 531.084 700.403 443.851 664.269C356.617 628.136 277.355 575.175 210.59 508.41C143.825 441.644 90.8637 362.382 54.7305 275.149C18.5974 187.916 -3.0766e-05 94.4202 0 -0.00023428L719 0L719 719Z" fill="#C2DFF0"/>
<path d="M719 678C629.964 678 541.799 660.463 459.541 626.39C377.282 592.318 302.54 542.376 239.582 479.418C176.623 416.46 126.682 341.718 92.6096 259.459C58.5369 177.2 41 89.036 41 -0.00022092L719 0L719 678Z" fill="#EBF4FA"/>
</g>
<defs>
<clipPath id="clip0">
<rect width="719" height="719" fill="white"/>
</clipPath>
</defs>
</svg>
