<svg width="390" height="619" viewBox="0 0 390 619" fill="none" xmlns="http://www.w3.org/2000/svg">
<path fill-rule="evenodd" clip-rule="evenodd" d="M222.514 150.966C269.208 120.453 316.912 145.06 366.239 140.847C411.129 137.014 461.196 115.222 498.204 127.423C538.63 140.751 568.008 170.275 575.201 209.739C582.438 249.444 560.644 296.147 537.049 340.541C513.107 385.586 484.886 431.327 439.479 465.097C392.678 499.903 337.486 520.521 285.177 527.861C232.873 535.2 183.404 529.13 148.652 505.902C114.882 483.331 96.9118 445.733 97.7041 402.556C98.4319 362.894 132.149 321.94 152.791 280.33C174.832 235.901 175.968 181.383 222.514 150.966Z" fill="#D5F2F2"/>
</svg>
