<svg width="293" height="408" viewBox="0 0 293 408" fill="none" xmlns="http://www.w3.org/2000/svg">
<path fill-rule="evenodd" clip-rule="evenodd" d="M125.514 27.9664C172.208 -2.54706 219.912 22.0598 269.239 17.8474C314.129 14.014 364.196 -7.77792 401.204 4.42327C441.63 17.7513 471.008 47.2749 478.201 86.7394C485.438 126.444 463.644 173.147 440.049 217.541C416.107 262.586 387.886 308.327 342.479 342.097C295.678 376.903 240.486 397.521 188.177 404.861C135.873 412.2 86.4037 406.13 51.6519 382.902C17.8817 360.331 -0.0881979 322.733 0.704094 279.556C1.43187 239.894 35.1495 198.94 55.7911 157.33C77.8319 112.901 78.968 58.3831 125.514 27.9664Z" fill="#D5F2F2"/>
</svg>
