<svg width="24" height="24" viewBox="0 0 24 24" fill="none" xmlns="http://www.w3.org/2000/svg">
<path d="M13.0942 12.0105L19.2735 5.865C19.5697 5.57175 19.5697 5.097 19.2735 4.8045C18.978 4.51125 18.498 4.51125 18.2025 4.8045L12.0285 10.9448L5.79749 4.713C5.50199 4.41675 5.02199 4.41675 4.72649 4.713C4.43099 5.01 4.43099 5.49075 4.72649 5.787L10.953 12.0143L4.70399 18.2288C4.40849 18.522 4.40849 18.9968 4.70399 19.2893C4.99949 19.5825 5.47949 19.5825 5.77499 19.2893L12.0187 13.08L18.225 19.287C18.5205 19.5833 19.0005 19.5833 19.296 19.287C19.5915 18.99 19.5915 18.5093 19.296 18.213L13.0942 12.0105Z" fill="#666667"/>
</svg>
