<svg width="76" height="101" viewBox="0 0 76 101" fill="none" xmlns="http://www.w3.org/2000/svg">
<path fill-rule="evenodd" clip-rule="evenodd" d="M8.6379 16.7489C8.63779 16.1594 8.46879 15.5823 8.15089 15.0859C7.833 14.5895 7.37953 14.1946 6.84417 13.9479C6.3088 13.7012 5.71396 13.6131 5.13007 13.694C4.54618 13.7748 3.99768 14.0213 3.54952 14.4042C3.10136 14.7871 2.77229 15.2904 2.60129 15.8546C2.43028 16.4187 2.42449 17.02 2.5846 17.5873C2.74471 18.1546 3.06401 18.6641 3.50472 19.0556C3.94542 19.4471 4.48907 19.7041 5.07129 19.7962V17.6408H4.28788V16.7489H5.07129V16.0691C5.07129 15.2962 5.53192 14.8689 6.23643 14.8689C6.46779 14.8721 6.69861 14.8923 6.92703 14.9292V15.6884H6.53787C6.47157 15.6796 6.40415 15.6859 6.34059 15.7067C6.27703 15.7275 6.21896 15.7623 6.17068 15.8086C6.12241 15.8549 6.08516 15.9114 6.06169 15.974C6.03822 16.0367 6.02913 16.1037 6.0351 16.1704V16.749H6.89053L6.75393 17.6409H6.0351V19.7965C6.76073 19.6815 7.42155 19.3114 7.89867 18.7528C8.3758 18.1941 8.63793 17.4835 8.6379 16.7489V16.7489Z" fill="#3F3D56"/>
<path d="M29.712 4.03625L30.2737 3.92391C30.1009 4.12503 29.9131 4.31281 29.712 4.48564C29.7036 4.59784 29.7036 4.7105 29.712 4.82269C28.6335 9.4514 24.6564 7.40668 24.6564 7.40668C26.1057 7.44038 26.2292 6.84494 26.2292 6.84494C25.3866 6.72136 25.2181 6.17086 25.2181 6.17086C25.2937 6.21073 25.3814 6.22132 25.4643 6.20059C25.5472 6.17986 25.6196 6.12927 25.6675 6.05851C25.4203 6.00238 25.2028 5.85625 25.0574 5.64856C24.9121 5.44088 24.8492 5.18653 24.8811 4.93503C25.0433 5.05214 25.2328 5.12564 25.4316 5.14849C25.3304 5.02491 24.4766 4.00255 24.9934 3.47451C24.9934 3.47451 25.6226 4.59799 27.2741 4.6991L27.3864 4.67663C27.3673 4.59572 27.3597 4.5125 27.3639 4.42947C27.3639 4.1166 27.4882 3.81656 27.7095 3.59533C27.9307 3.3741 28.2307 3.24982 28.5436 3.24982C29.33 3.24982 29.4985 3.69921 29.4985 3.69921L30.0603 3.36217C30.049 3.36217 29.9929 3.92391 29.712 4.03625Z" fill="#3F3D56"/>
<path d="M50.2926 13.8839H47.9204C47.4804 13.8852 47.0587 14.0606 46.7476 14.3717C46.4364 14.6829 46.261 15.1045 46.2598 15.5445V17.9167C46.261 18.3568 46.4364 18.7784 46.7476 19.0896C47.0587 19.4007 47.4804 19.5761 47.9204 19.5774H50.2926C50.7326 19.5761 51.1543 19.4007 51.4654 19.0896C51.7766 18.7784 51.9519 18.3568 51.9532 17.9167V15.5445C51.9519 15.1045 51.7766 14.6829 51.4654 14.3717C51.1543 14.0606 50.7326 13.8852 50.2926 13.8839Z" fill="#3F3D56"/>
<path d="M50.6484 15.5446C50.5543 15.5444 50.4641 15.5068 50.3977 15.4402C50.3312 15.3735 50.294 15.2832 50.2941 15.1891C50.2942 15.095 50.3316 15.0048 50.3982 14.9383C50.4648 14.8718 50.555 14.8344 50.6491 14.8344C50.7433 14.8344 50.8335 14.8718 50.9001 14.9383C50.9667 15.0048 51.0041 15.095 51.0042 15.1891C51.0043 15.2832 50.9671 15.3735 50.9006 15.4402C50.8342 15.5068 50.744 15.5444 50.6499 15.5446H50.6484Z" fill="white"/>
<path d="M49.1065 15.7817C49.2942 15.7817 49.4776 15.8374 49.6337 15.9417C49.7897 16.0459 49.9114 16.1941 49.9832 16.3675C50.055 16.5409 50.0738 16.7317 50.0372 16.9158C50.0006 17.0999 49.9102 17.269 49.7775 17.4017C49.6448 17.5344 49.4757 17.6248 49.2916 17.6614C49.1075 17.698 48.9167 17.6792 48.7433 17.6074C48.5699 17.5356 48.4217 17.4139 48.3175 17.2579C48.2132 17.1018 48.1575 16.9184 48.1575 16.7307C48.1575 16.6061 48.1821 16.4827 48.2298 16.3675C48.2775 16.2524 48.3474 16.1478 48.4355 16.0597C48.5236 15.9715 48.6282 15.9016 48.7433 15.854C48.8585 15.8063 48.9819 15.7817 49.1065 15.7817ZM49.1065 15.3073C48.825 15.3073 48.5498 15.3908 48.3157 15.5472C48.0816 15.7036 47.8992 15.9259 47.7915 16.186C47.6837 16.4461 47.6555 16.7323 47.7105 17.0084C47.7654 17.2845 47.9009 17.5381 48.1 17.7371C48.2991 17.9362 48.5527 18.0718 48.8288 18.1267C49.1049 18.1816 49.3911 18.1534 49.6512 18.0457C49.9113 17.938 50.1336 17.7555 50.29 17.5215C50.4464 17.2874 50.5298 17.0122 50.5298 16.7307C50.5298 16.3532 50.3799 15.9911 50.1129 15.7242C49.846 15.4573 49.484 15.3073 49.1065 15.3073V15.3073Z" fill="white"/>
<path d="M70.4469 3.70184C69.7364 3.7019 69.0476 3.94645 68.4961 4.39442C67.9446 4.8424 67.5641 5.46651 67.4184 6.16192C67.2727 6.85734 67.3708 7.5817 67.6962 8.21334C68.0215 8.84498 68.5543 9.34542 69.2051 9.6306C69.1921 9.39259 69.2102 9.15391 69.259 8.92059C69.3184 8.66918 69.6568 7.23396 69.6568 7.23396C69.5892 7.0799 69.5553 6.91318 69.5573 6.74496C69.5573 6.28636 69.8226 5.94378 70.1541 5.94378C70.2132 5.94288 70.2718 5.95465 70.326 5.97831C70.3802 6.00197 70.4287 6.03697 70.4682 6.08095C70.5078 6.12493 70.5374 6.17687 70.5552 6.23327C70.5729 6.28967 70.5784 6.34922 70.5712 6.40791C70.5712 6.69109 70.3903 7.11379 70.2977 7.50609C70.2793 7.57877 70.2782 7.65476 70.2945 7.72793C70.3109 7.80111 70.3442 7.86943 70.3917 7.92737C70.4393 7.98531 70.4999 8.03125 70.5685 8.06149C70.6371 8.09173 70.7119 8.10542 70.7867 8.10145C71.3724 8.10145 71.7675 7.34861 71.7675 6.45626C71.7675 5.77802 71.3103 5.27106 70.4801 5.27106C70.2814 5.26325 70.0832 5.29594 69.8976 5.36713C69.7119 5.43832 69.5427 5.54652 69.4002 5.68517C69.2576 5.82381 69.1448 5.98999 69.0685 6.1736C68.9922 6.35722 68.9541 6.55443 68.9564 6.75325C68.9472 6.97372 69.0201 7.18977 69.1609 7.35966C69.1856 7.38006 69.2032 7.40777 69.2111 7.4388C69.219 7.46983 69.2169 7.50258 69.2051 7.53233C69.1899 7.58897 69.1567 7.72572 69.1415 7.78098C69.1389 7.79769 69.1323 7.81352 69.1223 7.82717C69.1123 7.84082 69.0992 7.85188 69.0841 7.85945C69.0689 7.86701 69.0522 7.87086 69.0353 7.87066C69.0184 7.87047 69.0018 7.86624 68.9868 7.85833C68.5545 7.68152 68.3528 7.2091 68.3528 6.6759C68.3528 5.79736 69.0946 4.74338 70.5643 4.74338C71.7454 4.74338 72.5231 5.59844 72.5231 6.51566C72.5231 7.72986 71.8476 8.63603 70.853 8.63603C70.7049 8.63993 70.5582 8.6067 70.4262 8.53939C70.2943 8.47208 70.1812 8.37281 70.0974 8.25063C70.0974 8.25063 69.9179 8.96341 69.8792 9.10155C69.8077 9.33626 69.7031 9.55954 69.5684 9.7646C69.9939 9.8903 70.4416 9.923 70.8809 9.8605C71.3202 9.798 71.741 9.64174 72.1146 9.40233C72.4883 9.16293 72.806 8.84597 73.0464 8.47295C73.2868 8.09993 73.4441 7.67959 73.5078 7.24042C73.5714 6.80125 73.5399 6.35353 73.4153 5.92762C73.2907 5.50172 73.0759 5.10759 72.7856 4.77198C72.4953 4.43636 72.1362 4.1671 71.7327 3.98246C71.3292 3.79782 70.8907 3.70212 70.4469 3.70185L70.4469 3.70184Z" fill="#3F3D56"/>
<path d="M63.1415 33.8638C62.9991 33.4695 62.7386 33.1285 62.3957 32.8874C62.0527 32.6462 61.6437 32.5165 61.2244 32.5159H19.1858C18.9184 32.5158 18.6536 32.5683 18.4066 32.6706C18.1595 32.7728 17.935 32.9227 17.7458 33.1117C17.5567 33.3007 17.4066 33.5251 17.3042 33.7721C17.2018 34.019 17.149 34.2838 17.1489 34.5512V66.8127C17.1497 67.3526 17.3645 67.8703 17.7464 68.2521C18.1282 68.6339 18.6458 68.8488 19.1858 68.8495H61.2244C61.7644 68.8488 62.2821 68.6339 62.6639 68.2521C63.0457 67.8703 63.2606 67.3526 63.2613 66.8127V34.5527C63.2617 34.3179 63.2212 34.0847 63.1415 33.8638Z" fill="white"/>
<path d="M63.1415 33.8638C62.9991 33.4695 62.7386 33.1285 62.3957 32.8874C62.0527 32.6462 61.6437 32.5165 61.2244 32.5159H19.1858C18.9184 32.5158 18.6536 32.5683 18.4066 32.6706C18.1595 32.7728 17.935 32.9227 17.7458 33.1117C17.5567 33.3007 17.4066 33.5251 17.3042 33.7721C17.2018 34.019 17.149 34.2838 17.1489 34.5512V66.8127C17.1497 67.3526 17.3645 67.8703 17.7464 68.2521C18.1282 68.6339 18.6458 68.8488 19.1858 68.8495H61.2244C61.7644 68.8488 62.2821 68.6339 62.6639 68.2521C63.0457 67.8703 63.2606 67.3526 63.2613 66.8127V34.5527C63.2617 34.3179 63.2212 34.0847 63.1415 33.8638ZM63.0217 66.8127C63.0211 67.2891 62.8316 67.7459 62.4946 68.0829C62.1577 68.4198 61.7009 68.6093 61.2244 68.6099H19.1858C18.7093 68.6093 18.2525 68.4198 17.9156 68.0829C17.5787 67.7459 17.3891 67.2891 17.3886 66.8127V34.5527C17.3891 34.0763 17.5787 33.6195 17.9156 33.2825C18.2525 32.9456 18.7093 32.7561 19.1858 32.7555H61.2244C61.7009 32.7561 62.1577 32.9456 62.4946 33.2825C62.8316 33.6195 63.0211 34.0763 63.0217 34.5527V66.8127Z" fill="#CCCCCC"/>
<path d="M60.019 36.8568V59.3829C60.019 59.5332 59.9593 59.6775 59.8531 59.7838C59.7468 59.8902 59.6026 59.95 59.4522 59.95H21.2124C21.1852 59.9502 21.158 59.9481 21.1311 59.9437C20.9962 59.9243 20.8729 59.8569 20.7836 59.7539C20.6944 59.6509 20.6453 59.5192 20.6453 59.3829V36.8568C20.6452 36.7823 20.6599 36.7086 20.6883 36.6398C20.7168 36.571 20.7586 36.5085 20.8112 36.4559C20.8638 36.4032 20.9263 36.3614 20.9951 36.3329C21.0638 36.3044 21.1376 36.2897 21.212 36.2897H59.4518C59.5263 36.2896 59.6 36.3043 59.6688 36.3327C59.7376 36.3612 59.8001 36.403 59.8528 36.4556C59.9054 36.5082 59.9472 36.5707 59.9757 36.6395C60.0042 36.7082 60.0189 36.782 60.019 36.8564V36.8568Z" fill="#E6E6E6"/>
<path d="M30.2845 49.6832C33.0324 49.6832 35.26 47.4556 35.26 44.7078C35.26 41.9599 33.0324 39.7323 30.2845 39.7323C27.5367 39.7323 25.3091 41.9599 25.3091 44.7078C25.3091 47.4556 27.5367 49.6832 30.2845 49.6832Z" fill="url(#paint0_linear)"/>
<path d="M45.887 60.0403H21.4789C21.4483 60.0407 21.4178 60.0383 21.3877 60.033L32.9316 40.0373C33.002 39.9128 33.1043 39.8092 33.2279 39.7371C33.3515 39.6651 33.492 39.6271 33.6351 39.6271C33.7782 39.6271 33.9187 39.6651 34.0423 39.7371C34.1659 39.8092 34.2681 39.9128 34.3386 40.0373L42.086 53.456L42.4571 54.0981L45.887 60.0403Z" fill="#3F3D56"/>
<path opacity="0.2" d="M45.8871 60.0403H37.5536L41.6445 54.098L41.9389 53.6701L42.0862 53.4561L42.4572 54.098L45.8871 60.0403Z" fill="black"/>
<path d="M59.4772 60.0403H38.3662L42.4571 54.0981L42.7515 53.67L48.0823 45.9263C48.4318 45.4187 49.2725 45.3871 49.6834 45.8305C49.711 45.8608 49.7367 45.8928 49.7602 45.9263L59.4772 60.0403Z" fill="#3F3D56"/>
<path d="M38.8123 98.1542L36.7492 98.1541L35.7678 90.1965L38.8127 90.1966L38.8123 98.1542Z" fill="#FFB8B8"/>
<path d="M39.3384 100.154L32.6863 100.154V100.07C32.6863 99.7296 32.7532 99.3929 32.8834 99.0787C33.0135 98.7646 33.2042 98.4792 33.4446 98.2387C33.6851 97.9983 33.9705 97.8076 34.2846 97.6775C34.5988 97.5474 34.9355 97.4804 35.2755 97.4804H35.2757L39.3386 97.4806L39.3384 100.154Z" fill="#2F2E41"/>
<path d="M46.2166 98.1542L44.1535 98.1541L43.1721 90.1965L46.217 90.1966L46.2166 98.1542Z" fill="#FFB8B8"/>
<path d="M46.7427 100.154L40.0906 100.154V100.07C40.0906 99.7296 40.1575 99.3929 40.2877 99.0787C40.4178 98.7646 40.6085 98.4792 40.8489 98.2387C41.0894 97.9983 41.3748 97.8076 41.6889 97.6775C42.0031 97.5474 42.3398 97.4804 42.6798 97.4804H42.68L46.7429 97.4806L46.7427 100.154Z" fill="#2F2E41"/>
<path d="M43.3963 95.0663L40.5226 74.3801C40.5146 74.3228 40.4872 74.2699 40.4449 74.2304C40.4026 74.1909 40.348 74.1671 40.2903 74.163C40.2325 74.159 40.1752 74.1749 40.1277 74.2081C40.0803 74.2413 40.0458 74.2898 40.0299 74.3454L38.1047 81.0756C37.9591 81.5828 37.9114 82.113 37.9642 82.638L39.5122 94.8011C39.5224 94.9038 39.5115 95.0076 39.4801 95.106C39.4488 95.2044 39.3976 95.2953 39.3298 95.3732C39.262 95.4512 39.179 95.5144 39.0859 95.559C38.9928 95.6037 38.8915 95.6288 38.7883 95.6329L36.8177 95.6968C36.6364 95.704 36.4585 95.6458 36.3165 95.5328C36.1745 95.4198 36.0778 95.2595 36.0441 95.0812L33.5484 81.9305C33.4098 81.2005 33.3803 80.4539 33.4609 79.7153L35.3488 62.3975L44.7522 62.7378L44.7745 62.7827C47.6147 68.4874 47.1561 81.1796 46.7126 93.454L46.6574 94.9889C46.6511 95.1851 46.5685 95.3711 46.4273 95.5074C46.2861 95.6437 46.0973 95.7195 45.901 95.7189L44.1466 95.7194H44.1462C43.9636 95.7187 43.7874 95.6523 43.6497 95.5324C43.512 95.4125 43.422 95.2471 43.3963 95.0663Z" fill="#2F2E41"/>
<path d="M43.0217 45.0835C45.3043 45.0835 47.1548 43.2331 47.1548 40.9504C47.1548 38.6678 45.3043 36.8173 43.0217 36.8173C40.739 36.8173 38.8885 38.6678 38.8885 40.9504C38.8885 43.2331 40.739 45.0835 43.0217 45.0835Z" fill="#FFB8B8"/>
<path d="M35.2073 63.4026C35.1361 63.3173 35.0847 63.2172 35.0567 63.1097C35.0286 63.0021 35.0247 62.8897 35.0451 62.7805L37.3447 50.3883L37.8897 49.2287C38.3436 48.2615 39.0953 47.4649 40.0346 46.9557C40.974 46.4465 42.0516 46.2515 43.1099 46.399C43.8526 46.5005 44.5632 46.7669 45.1895 47.1788C45.8159 47.5907 46.3421 48.1375 46.7295 48.7793C47.117 49.421 47.3558 50.1413 47.4286 50.8874C47.5014 51.6335 47.4062 52.3864 47.15 53.0909L44.669 59.9153L45.0915 62.809C45.1072 62.9166 45.0995 63.0263 45.0691 63.1306C45.0386 63.235 44.986 63.3315 44.915 63.4137C44.8439 63.496 44.7559 63.5619 44.6571 63.6071C44.5582 63.6523 44.4508 63.6758 44.3421 63.6758H35.7896C35.6785 63.6759 35.5686 63.6515 35.468 63.6043C35.3673 63.5571 35.2783 63.4882 35.2073 63.4026Z" fill="url(#paint1_linear)"/>
<path d="M53.8438 70.9347C53.5863 70.8749 53.3451 70.7594 53.1372 70.5963C52.9292 70.4332 52.7595 70.2265 52.6401 69.9908C52.5207 69.755 52.4544 69.4959 52.4459 69.2318C52.4374 68.9676 52.4869 68.7048 52.591 68.4619L45.9268 53.4056L49.739 52.4454L55.091 67.5472C55.4875 67.7491 55.7962 68.0894 55.9586 68.5037C56.121 68.9179 56.1257 69.3774 55.972 69.7949C55.8183 70.2125 55.5167 70.5591 55.1244 70.7692C54.7322 70.9793 54.2765 71.0381 53.8438 70.9347V70.9347Z" fill="#FFB8B8"/>
<path d="M46.1538 56.104C46.0474 56.0564 45.9526 55.9865 45.8758 55.8989C45.799 55.8113 45.742 55.7082 45.7086 55.5966L44.5434 51.6988C44.2911 51.1591 44.263 50.5415 44.4652 49.9811C44.6675 49.4208 45.0836 48.9634 45.6224 48.7093C46.1611 48.4552 46.7787 48.425 47.3397 48.6253C47.9008 48.8257 48.3595 49.2402 48.6154 49.7782L50.8688 53.1812C50.9331 53.2783 50.9757 53.3882 50.9937 53.5033C51.0117 53.6183 51.0048 53.736 50.9732 53.8481C50.9417 53.9602 50.8864 54.0642 50.811 54.1531C50.7357 54.2419 50.6421 54.3134 50.5366 54.3628L46.8288 56.0984C46.7233 56.1478 46.6084 56.1739 46.4919 56.1749C46.3754 56.1758 46.2601 56.1517 46.1538 56.104Z" fill="url(#paint2_linear)"/>
<path d="M26.0439 32.1904C25.9634 32.4421 25.9391 32.7084 25.9727 32.9706C26.0062 33.2327 26.0969 33.4843 26.2382 33.7076C26.3795 33.931 26.5681 34.1206 26.7907 34.2631C27.0132 34.4057 27.2643 34.4977 27.5262 34.5327L37.0456 47.9672L39.8226 45.1845L29.5922 32.8538C29.6218 32.4099 29.4876 31.9704 29.2149 31.6188C28.9423 31.2672 28.5501 31.0278 28.1127 30.9461C27.6753 30.8643 27.2232 30.9458 26.8419 31.1751C26.4606 31.4045 26.1766 31.7657 26.0439 32.1904Z" fill="#FFB8B8"/>
<path d="M35.1946 45.8134L38.5841 43.5175C38.6805 43.4522 38.7899 43.4084 38.9048 43.3892C39.0197 43.3699 39.1374 43.3757 39.2498 43.406C39.3623 43.4364 39.4669 43.4906 39.5565 43.565C39.6461 43.6394 39.7186 43.7323 39.7691 43.8373L41.5381 47.5154C41.8695 48.0107 41.991 48.6173 41.8759 49.202C41.7608 49.7867 41.4186 50.302 40.9242 50.6348C40.4298 50.9675 39.8236 51.0907 39.2385 50.9772C38.6535 50.8637 38.1373 50.5229 37.8031 50.0294L35.0519 47.0325C34.9732 46.9467 34.9138 46.8449 34.878 46.734C34.8421 46.6232 34.8306 46.506 34.8441 46.3903C34.8577 46.2746 34.896 46.1632 34.9565 46.0636C35.0169 45.9641 35.0982 45.8787 35.1946 45.8134V45.8134Z" fill="url(#paint3_linear)"/>
<path d="M23.1959 100.294H58.7028C58.7474 100.294 58.7902 100.277 58.8218 100.245C58.8533 100.214 58.871 100.171 58.871 100.126C58.871 100.081 58.8533 100.039 58.8218 100.007C58.7902 99.9756 58.7474 99.9578 58.7028 99.9578H23.1959C23.1512 99.9578 23.1084 99.9756 23.0769 100.007C23.0453 100.039 23.0276 100.081 23.0276 100.126C23.0276 100.171 23.0453 100.214 23.0769 100.245C23.1084 100.277 23.1512 100.294 23.1959 100.294Z" fill="#CCCCCC"/>
<path d="M5.55323 22.2839C4.45491 22.2839 3.38125 21.9582 2.46803 21.348C1.5548 20.7378 0.843037 19.8705 0.422724 18.8558C0.00241118 17.8411 -0.107567 16.7245 0.106702 15.6473C0.320972 14.5701 0.849864 13.5806 1.62649 12.8039C2.40312 12.0273 3.39261 11.4984 4.46983 11.2841C5.54705 11.0699 6.66361 11.1798 7.67833 11.6001C8.69305 12.0205 9.56034 12.7322 10.1705 13.6454C10.7807 14.5587 11.1064 15.6323 11.1064 16.7306C11.1048 18.2029 10.5192 19.6144 9.47809 20.6555C8.43703 21.6966 7.02552 22.2822 5.55323 22.2839ZM5.55323 11.514C4.52148 11.514 3.51289 11.8199 2.65501 12.3931C1.79713 12.9664 1.1285 13.7811 0.733661 14.7343C0.338822 15.6875 0.235512 16.7364 0.436795 17.7483C0.638078 18.7603 1.13492 19.6898 1.86448 20.4194C2.59404 21.1489 3.52355 21.6458 4.53549 21.8471C5.54742 22.0483 6.59632 21.945 7.54954 21.5502C8.50276 21.1554 9.31748 20.4867 9.8907 19.6289C10.4639 18.771 10.7699 17.7624 10.7699 16.7306C10.7683 15.3476 10.2182 14.0216 9.24022 13.0437C8.26225 12.0657 6.93629 11.5156 5.55323 11.514Z" fill="#3F3D56"/>
<path d="M27.4652 11.1064C26.3669 11.1064 25.2932 10.7807 24.38 10.1705C23.4668 9.56034 22.755 8.69305 22.3347 7.67834C21.9144 6.66362 21.8044 5.54706 22.0187 4.46984C22.233 3.39262 22.7619 2.40313 23.5385 1.6265C24.3151 0.849871 25.3046 0.320977 26.3818 0.106705C27.459 -0.107566 28.5756 0.00240729 29.5903 0.422717C30.605 0.843026 31.4723 1.55479 32.0825 2.46802C32.6927 3.38124 33.0184 4.45489 33.0184 5.55321C33.0167 7.02551 32.4311 8.43702 31.3901 9.47809C30.349 10.5192 28.9375 11.1048 27.4652 11.1064ZM27.4652 0.336561C26.4334 0.336561 25.4249 0.642513 24.567 1.21573C23.7091 1.78894 23.0405 2.60367 22.6456 3.55689C22.2508 4.51011 22.1475 5.559 22.3488 6.57093C22.5501 7.58287 23.0469 8.51238 23.7765 9.24194C24.506 9.97151 25.4356 10.4683 26.4475 10.6696C27.4594 10.8709 28.5083 10.7676 29.4615 10.3728C30.4147 9.97794 31.2295 9.3093 31.8027 8.45143C32.3759 7.59356 32.6819 6.58497 32.6819 5.55321C32.6803 4.17015 32.1302 2.84419 31.1522 1.86622C30.1742 0.888243 28.8483 0.338129 27.4652 0.336561Z" fill="#3F3D56"/>
<path d="M49.1063 22.2839C48.008 22.2839 46.9343 21.9582 46.0211 21.348C45.1079 20.7378 44.3961 19.8705 43.9758 18.8558C43.5555 17.841 43.4455 16.7245 43.6598 15.6473C43.8741 14.57 44.403 13.5806 45.1796 12.8039C45.9562 12.0273 46.9457 11.4984 48.0229 11.2841C49.1002 11.0699 50.2167 11.1798 51.2314 11.6001C52.2461 12.0205 53.1134 12.7322 53.7236 13.6454C54.3338 14.5587 54.6595 15.6323 54.6595 16.7306C54.6579 18.2029 54.0723 19.6145 53.0312 20.6555C51.9901 21.6966 50.5786 22.2822 49.1063 22.2839ZM49.1063 11.514C48.0746 11.514 47.066 11.8199 46.2081 12.3932C45.3502 12.9664 44.6816 13.7811 44.2868 14.7343C43.8919 15.6875 43.7886 16.7364 43.9899 17.7484C44.1912 18.7603 44.688 19.6898 45.4176 20.4194C46.1471 21.1489 47.0767 21.6458 48.0886 21.8471C49.1005 22.0483 50.1494 21.945 51.1026 21.5502C52.0559 21.1554 52.8706 20.4867 53.4438 19.6289C54.017 18.771 54.323 17.7624 54.323 16.7306C54.3214 15.3476 53.7713 14.0216 52.7933 13.0436C51.8153 12.0657 50.4894 11.5156 49.1063 11.514Z" fill="#3F3D56"/>
<path d="M70.4468 12.3502C69.3484 12.3502 68.2748 12.0245 67.3616 11.4143C66.4484 10.8041 65.7366 9.93683 65.3163 8.92211C64.896 7.90739 64.786 6.79083 65.0003 5.71361C65.2145 4.63639 65.7434 3.6469 66.5201 2.87027C67.2967 2.09364 68.2862 1.56475 69.3634 1.35048C70.4406 1.13621 71.5572 1.24618 72.5719 1.66649C73.5866 2.0868 74.4539 2.79857 75.0641 3.71179C75.6743 4.62501 76 5.69867 76 6.79699C75.9983 8.26928 75.4127 9.6808 74.3716 10.7219C73.3306 11.7629 71.9191 12.3485 70.4468 12.3502ZM70.4468 1.58034C69.415 1.58034 68.4064 1.88629 67.5486 2.4595C66.6907 3.03271 66.022 3.84744 65.6272 4.80066C65.2324 5.75388 65.1291 6.80277 65.3303 7.81471C65.5316 8.82664 66.0285 9.75616 66.758 10.4857C67.4876 11.2153 68.4171 11.7121 69.4291 11.9134C70.441 12.1147 71.4899 12.0114 72.4431 11.6165C73.3963 11.2217 74.211 10.5531 74.7843 9.6952C75.3575 8.83733 75.6634 7.82875 75.6634 6.79699C75.6619 5.41393 75.1117 4.08796 74.1338 3.10999C73.1558 2.13202 71.8298 1.5819 70.4468 1.58034Z" fill="#3F3D56"/>
<path d="M41.8705 40.4064C41.0221 41.3745 39.8567 42.445 38.6134 41.9645C37.797 41.6491 37.3457 40.7929 37.4203 39.9209C37.5545 38.3528 38.7746 37.3646 39.9722 36.5399C41.5291 35.4678 43.2718 34.4855 45.1621 34.4826C47.0524 34.4797 49.0611 35.7954 49.2032 37.6804C49.3174 39.1963 48.2593 40.7533 48.8277 42.1632C49.3999 43.5821 51.2503 43.9317 52.7761 43.8201C54.3019 43.7086 55.9557 43.3744 57.2725 44.1532C58.9524 45.1467 59.2311 47.6211 58.3348 49.3548C57.4385 51.0885 55.7039 52.215 53.9755 53.1217C51.6856 54.3229 49.1268 55.3019 46.5664 54.9395C44.0061 54.5772 41.5444 52.4656 41.5962 49.8803C41.618 48.7882 42.0644 47.7555 42.4942 46.7514C42.9241 45.7473 43.3522 44.7027 43.3343 43.6106C43.3194 42.7005 42.9123 41.7438 42.1787 41.2464C42.0464 41.1604 41.9448 41.0346 41.8884 40.8872C41.832 40.7397 41.8238 40.5782 41.865 40.4259L41.8705 40.4064Z" fill="#2F2E41"/>
<defs>
<linearGradient id="paint0_linear" x1="20.4911" y1="44.5503" x2="30.127" y2="54.1862" gradientUnits="userSpaceOnUse">
<stop stop-color="#1DE9B6"/>
<stop offset="1" stop-color="#03A9F4"/>
</linearGradient>
<linearGradient id="paint1_linear" x1="29.0188" y1="54.7392" x2="44.9069" y2="66.1294" gradientUnits="userSpaceOnUse">
<stop stop-color="#1DE9B6"/>
<stop offset="1" stop-color="#03A9F4"/>
</linearGradient>
<linearGradient id="paint2_linear" x1="41.1012" y1="52.213" x2="48.4656" y2="58.6102" gradientUnits="userSpaceOnUse">
<stop stop-color="#1DE9B6"/>
<stop offset="1" stop-color="#03A9F4"/>
</linearGradient>
<linearGradient id="paint3_linear" x1="31.4108" y1="47.0773" x2="38.7879" y2="53.913" gradientUnits="userSpaceOnUse">
<stop stop-color="#1DE9B6"/>
<stop offset="1" stop-color="#03A9F4"/>
</linearGradient>
</defs>
</svg>
