<svg width="152" height="200" viewBox="0 0 152 200" fill="none" xmlns="http://www.w3.org/2000/svg">
<path fill-rule="evenodd" clip-rule="evenodd" d="M17.2252 33.3996C17.225 32.2241 16.8879 31.0733 16.254 30.0834C15.6201 29.0935 14.7158 28.306 13.6482 27.8141C12.5807 27.3221 11.3945 27.1464 10.2301 27.3077C9.06575 27.4689 7.97198 27.9605 7.07829 28.724C6.1846 29.4876 5.5284 30.4913 5.18739 31.6162C4.84638 32.7411 4.83483 33.9402 5.15411 35.0715C5.47339 36.2027 6.11013 37.2188 6.98895 37.9995C7.86777 38.7801 8.95187 39.2926 10.1129 39.4763V35.1782H8.55067V33.3996H10.1129V32.0441C10.1129 30.5027 11.0315 29.6506 12.4363 29.6506C12.8977 29.6571 13.358 29.6973 13.8135 29.7709V31.2848H13.0374C12.9052 31.2673 12.7708 31.2798 12.644 31.3213C12.5173 31.3627 12.4015 31.4322 12.3052 31.5245C12.209 31.6168 12.1347 31.7295 12.0879 31.8544C12.0411 31.9793 12.023 32.1131 12.0349 32.2459V33.3998H13.7407L13.4683 35.1784H12.0349V39.4768C13.4819 39.2477 14.7996 38.5097 15.7511 37.3956C16.7025 36.2816 17.2252 34.8646 17.2252 33.3995V33.3996Z" fill="#3F3D56"/>
<path d="M59.2496 8.04872L60.3697 7.82469C60.0251 8.22575 59.6506 8.60021 59.2496 8.94487C59.2328 9.16859 59.2328 9.39325 59.2496 9.61697C57.0988 18.8472 49.168 14.7698 49.168 14.7698C52.058 14.837 52.3045 13.6496 52.3045 13.6496C50.6242 13.4032 50.2881 12.3054 50.2881 12.3054C50.4389 12.3849 50.6137 12.406 50.779 12.3647C50.9444 12.3234 51.0887 12.2225 51.1843 12.0814C50.6913 11.9694 50.2576 11.678 49.9677 11.2639C49.6778 10.8497 49.5524 10.3425 49.616 9.84101C49.9395 10.0745 50.3175 10.2211 50.7138 10.2667C50.5122 10.0202 48.8095 7.98151 49.8401 6.92854C49.8401 6.92854 51.0947 9.1689 54.388 9.37053L54.612 9.32573C54.5739 9.16437 54.5588 8.99843 54.5672 8.83284C54.5672 8.20895 54.8151 7.61062 55.2562 7.16946C55.6974 6.72831 56.2957 6.48047 56.9196 6.48047C58.4878 6.48047 58.8239 7.37661 58.8239 7.37661L59.9441 6.70451C59.9217 6.70451 59.8097 7.82469 59.2496 8.04872Z" fill="#3F3D56"/>
<path d="M100.29 27.6863H95.5596C94.6821 27.6888 93.8413 28.0385 93.2208 28.659C92.6003 29.2795 92.2506 30.1203 92.248 30.9978V35.7283C92.2506 36.6057 92.6003 37.4466 93.2208 38.067C93.8413 38.6875 94.6821 39.0372 95.5596 39.0398H100.29C101.168 39.0372 102.008 38.6875 102.629 38.067C103.249 37.4465 103.599 36.6057 103.602 35.7283V30.9978C103.599 30.1203 103.249 29.2795 102.629 28.659C102.008 28.0386 101.168 27.6888 100.29 27.6863Z" fill="#3F3D56"/>
<path d="M101 30.9979C100.812 30.9975 100.632 30.9227 100.5 30.7897C100.367 30.6568 100.293 30.4768 100.293 30.2891C100.293 30.1014 100.368 29.9215 100.501 29.7889C100.633 29.6563 100.813 29.5818 101.001 29.5818C101.189 29.5818 101.369 29.6563 101.501 29.7889C101.634 29.9215 101.709 30.1014 101.709 30.2891C101.709 30.4768 101.635 30.6568 101.503 30.7897C101.37 30.9227 101.19 30.9975 101.003 30.9979H101Z" fill="white"/>
<path d="M97.9248 31.4707C98.2991 31.4707 98.6649 31.5817 98.9761 31.7896C99.2873 31.9975 99.5299 32.2931 99.6731 32.6389C99.8163 32.9846 99.8538 33.3651 99.7808 33.7322C99.7078 34.0993 99.5275 34.4365 99.2629 34.7011C98.9982 34.9658 98.6611 35.146 98.294 35.219C97.9269 35.292 97.5464 35.2545 97.2007 35.1113C96.8549 34.9681 96.5593 34.7255 96.3514 34.4143C96.1435 34.1032 96.0325 33.7373 96.0325 33.363C96.0325 33.1145 96.0814 32.8684 96.1765 32.6389C96.2716 32.4093 96.411 32.2007 96.5867 32.0249C96.7625 31.8492 96.9711 31.7098 97.2007 31.6147C97.4302 31.5196 97.6763 31.4707 97.9248 31.4707ZM97.9248 30.5247C97.3634 30.5247 96.8147 30.6911 96.3479 31.003C95.8811 31.3149 95.5173 31.7582 95.3025 32.2768C95.0877 32.7955 95.0314 33.3662 95.141 33.9168C95.2505 34.4674 95.5208 34.9731 95.9178 35.3701C96.3147 35.767 96.8205 36.0373 97.3711 36.1469C97.9216 36.2564 98.4924 36.2002 99.011 35.9853C99.5296 35.7705 99.9729 35.4067 100.285 34.94C100.597 34.4732 100.763 33.9244 100.763 33.363C100.763 32.6103 100.464 31.8883 99.9318 31.356C99.3995 30.8237 98.6776 30.5247 97.9248 30.5247V30.5247Z" fill="white"/>
<path d="M140.48 7.38184C139.064 7.38194 137.69 7.86961 136.59 8.76293C135.49 9.65625 134.732 10.9008 134.441 12.2876C134.151 13.6743 134.346 15.1188 134.995 16.3784C135.644 17.6379 136.706 18.6359 138.004 19.2045C137.978 18.7299 138.014 18.254 138.111 17.7887C138.23 17.2873 138.905 14.4253 138.905 14.4253C138.77 14.1181 138.702 13.7857 138.706 13.4502C138.706 12.5357 139.235 11.8526 139.896 11.8526C140.014 11.8507 140.131 11.8742 140.239 11.9214C140.347 11.9686 140.444 12.0384 140.523 12.1261C140.602 12.2138 140.661 12.3174 140.696 12.4298C140.732 12.5423 140.743 12.661 140.728 12.7781C140.728 13.3428 140.367 14.1857 140.183 14.968C140.146 15.1129 140.144 15.2645 140.177 15.4104C140.209 15.5563 140.275 15.6925 140.37 15.8081C140.465 15.9236 140.586 16.0152 140.723 16.0755C140.86 16.1358 141.009 16.1631 141.158 16.1552C142.326 16.1552 143.114 14.654 143.114 12.8745C143.114 11.522 142.202 10.5111 140.546 10.5111C140.15 10.4955 139.755 10.5607 139.385 10.7026C139.015 10.8446 138.677 11.0604 138.393 11.3368C138.109 11.6133 137.884 11.9447 137.732 12.3108C137.58 12.677 137.504 13.0703 137.508 13.4667C137.49 13.9064 137.635 14.3372 137.916 14.676C137.965 14.7167 138 14.7719 138.016 14.8338C138.032 14.8957 138.028 14.961 138.004 15.0203C137.974 15.1333 137.908 15.406 137.877 15.5162C137.872 15.5495 137.859 15.5811 137.839 15.6083C137.819 15.6355 137.793 15.6576 137.763 15.6726C137.733 15.6877 137.699 15.6954 137.665 15.695C137.632 15.6946 137.599 15.6862 137.569 15.6704C136.707 15.3178 136.304 14.3758 136.304 13.3125C136.304 11.5606 137.784 9.4588 140.715 9.4588C143.07 9.4588 144.621 11.1639 144.621 12.9929C144.621 15.4142 143.274 17.2212 141.29 17.2212C140.995 17.229 140.702 17.1628 140.439 17.0285C140.176 16.8943 139.951 16.6963 139.783 16.4527C139.783 16.4527 139.425 17.8741 139.348 18.1495C139.206 18.6176 138.997 19.0628 138.728 19.4718C139.577 19.7224 140.47 19.7876 141.346 19.663C142.222 19.5384 143.061 19.2268 143.806 18.7494C144.551 18.2719 145.185 17.6399 145.664 16.896C146.143 16.1522 146.457 15.314 146.584 14.4382C146.711 13.5625 146.648 12.6696 146.4 11.8203C146.151 10.971 145.723 10.1851 145.144 9.51582C144.565 8.84655 143.849 8.30961 143.044 7.94142C142.24 7.57322 141.365 7.38238 140.48 7.38184L140.48 7.38184Z" fill="#3F3D56"/>
<path d="M125.912 67.5288C125.628 66.7424 125.109 66.0625 124.425 65.5816C123.741 65.1007 122.926 64.8421 122.09 64.8408H38.2591C37.7259 64.8406 37.1979 64.9454 36.7052 65.1493C36.2125 65.3531 35.7648 65.652 35.3876 66.0289C35.0104 66.4058 34.7112 66.8533 34.5069 67.3458C34.3027 67.8383 34.1975 68.3663 34.1973 68.8995V133.233C34.1988 134.31 34.6272 135.342 35.3886 136.104C36.15 136.865 37.1823 137.293 38.2591 137.295H122.09C123.166 137.293 124.199 136.865 124.96 136.104C125.721 135.342 126.15 134.31 126.151 133.233V68.9026C126.152 68.4343 126.071 67.9694 125.912 67.5288Z" fill="white"/>
<path d="M125.912 67.5288C125.628 66.7424 125.109 66.0625 124.425 65.5816C123.741 65.1007 122.926 64.8421 122.09 64.8408H38.2591C37.7259 64.8406 37.1979 64.9454 36.7052 65.1493C36.2125 65.3531 35.7648 65.652 35.3876 66.0289C35.0104 66.4058 34.7112 66.8533 34.5069 67.3458C34.3027 67.8383 34.1975 68.3663 34.1973 68.8995V133.233C34.1988 134.31 34.6272 135.342 35.3886 136.104C36.15 136.865 37.1823 137.293 38.2591 137.295H122.09C123.166 137.293 124.199 136.865 124.96 136.104C125.721 135.342 126.15 134.31 126.151 133.233V68.9026C126.152 68.4343 126.071 67.9694 125.912 67.5288ZM125.674 133.233C125.672 134.183 125.294 135.094 124.623 135.766C123.951 136.438 123.04 136.816 122.09 136.817H38.2591C37.3089 136.816 36.398 136.438 35.7261 135.766C35.0543 135.094 34.6763 134.183 34.6751 133.233V68.9026C34.6763 67.9524 35.0543 67.0415 35.7261 66.3697C36.398 65.6978 37.3089 65.3198 38.2591 65.3187H122.09C123.04 65.3198 123.951 65.6978 124.623 66.3697C125.294 67.0415 125.672 67.9524 125.674 68.9026V133.233Z" fill="#CCCCCC"/>
<path d="M119.686 73.4971V118.417C119.686 118.717 119.567 119.005 119.355 119.217C119.143 119.429 118.855 119.548 118.556 119.548H42.3004C42.2461 119.548 42.1919 119.544 42.1383 119.535C41.8693 119.497 41.6233 119.362 41.4453 119.157C41.2674 118.952 41.1694 118.689 41.1694 118.417V73.4971C41.1694 73.3487 41.1986 73.2016 41.2553 73.0644C41.3121 72.9273 41.3953 72.8026 41.5003 72.6976C41.6052 72.5926 41.7298 72.5093 41.867 72.4524C42.0041 72.3955 42.1511 72.3663 42.2996 72.3662H118.555C118.703 72.3662 118.85 72.3953 118.987 72.4521C119.125 72.5089 119.249 72.5921 119.354 72.6971C119.459 72.802 119.543 72.9266 119.6 73.0637C119.656 73.2009 119.686 73.3479 119.686 73.4964V73.4971Z" fill="#E6E6E6"/>
<path d="M60.3914 99.0749C65.871 99.0749 70.3131 94.6328 70.3131 89.1532C70.3131 83.6735 65.871 79.2314 60.3914 79.2314C54.9118 79.2314 50.4697 83.6735 50.4697 89.1532C50.4697 94.6328 54.9118 99.0749 60.3914 99.0749Z" fill="url(#paint0_linear)"/>
<path d="M91.5047 119.728H42.8318C42.7708 119.729 42.71 119.724 42.6499 119.714L65.6699 79.8396C65.8104 79.5913 66.0143 79.3847 66.2608 79.241C66.5073 79.0972 66.7875 79.0215 67.0728 79.0215C67.3581 79.0215 67.6383 79.0972 67.8848 79.241C68.1313 79.3847 68.3352 79.5913 68.4756 79.8396L83.925 106.598L84.6651 107.879L91.5047 119.728Z" fill="#3F3D56"/>
<path opacity="0.2" d="M91.5048 119.728H74.8867L83.0444 107.879L83.6317 107.025L83.9253 106.598L84.6652 107.879L91.5048 119.728Z" fill="black"/>
<path d="M118.605 119.728H76.5073L84.6651 107.879L85.2522 107.025L95.8825 91.5829C96.5794 90.5708 98.256 90.5078 99.0754 91.392C99.1304 91.4523 99.1815 91.5161 99.2284 91.5829L118.605 119.728Z" fill="#3F3D56"/>
<path d="M77.3968 195.732L73.2827 195.732L71.3257 179.864L77.3975 179.864L77.3968 195.732Z" fill="#FFB8B8"/>
<path d="M78.4459 199.72L65.1807 199.72V199.552C65.1807 198.874 65.3142 198.202 65.5737 197.576C65.8331 196.95 66.2135 196.38 66.6929 195.901C67.1724 195.421 67.7416 195.041 68.368 194.782C68.9944 194.522 69.6659 194.389 70.3439 194.389H70.3442L78.4462 194.389L78.4459 199.72Z" fill="#2F2E41"/>
<path d="M92.162 195.732L88.0479 195.732L86.0908 179.864L92.1626 179.864L92.162 195.732Z" fill="#FFB8B8"/>
<path d="M93.2111 199.72L79.9458 199.72V199.552C79.9458 198.874 80.0793 198.202 80.3388 197.576C80.5983 196.95 80.9786 196.38 81.4581 195.901C81.9375 195.421 82.5067 195.041 83.1331 194.782C83.7596 194.522 84.431 194.389 85.109 194.389H85.1094L93.2113 194.389L93.2111 199.72Z" fill="#2F2E41"/>
<path d="M86.5379 189.575L80.8075 148.324C80.7916 148.209 80.7369 148.104 80.6525 148.025C80.5682 147.946 80.4593 147.899 80.3442 147.891C80.229 147.883 80.1146 147.914 80.0201 147.981C79.9255 148.047 79.8566 148.144 79.8248 148.255L75.9858 161.675C75.6955 162.687 75.6005 163.744 75.7057 164.791L78.7926 189.046C78.8129 189.251 78.7912 189.458 78.7286 189.654C78.6661 189.85 78.5641 190.031 78.4289 190.187C78.2937 190.342 78.1282 190.468 77.9425 190.557C77.7568 190.646 77.5548 190.696 77.349 190.705L73.4194 190.832C73.0578 190.846 72.7031 190.73 72.42 190.505C72.1368 190.28 71.944 189.96 71.8767 189.604L66.9001 163.38C66.6236 161.924 66.5648 160.436 66.7256 158.963L70.4902 124.429L89.2419 125.107L89.2863 125.197C94.9501 136.573 94.0356 161.883 93.1512 186.359L93.041 189.42C93.0284 189.811 92.8638 190.182 92.5822 190.454C92.3006 190.726 91.924 190.877 91.5326 190.876L88.0341 190.877H88.0334C87.6693 190.876 87.3178 190.743 87.0432 190.504C86.7686 190.265 86.5893 189.935 86.5379 189.575Z" fill="#2F2E41"/>
<path d="M85.7908 89.9024C90.3427 89.9024 94.0327 86.2123 94.0327 81.6604C94.0327 77.1085 90.3427 73.4185 85.7908 73.4185C81.2389 73.4185 77.5488 77.1085 77.5488 81.6604C77.5488 86.2123 81.2389 89.9024 85.7908 89.9024Z" fill="#FFB8B8"/>
<path d="M70.208 126.433C70.0661 126.263 69.9635 126.063 69.9076 125.849C69.8517 125.635 69.8438 125.41 69.8845 125.192L74.4703 100.481L75.5571 98.1686C76.4622 96.2397 77.9611 94.6513 79.8343 93.6359C81.7075 92.6205 83.8565 92.2315 85.9667 92.5258C87.4479 92.7281 88.8649 93.2594 90.1139 94.0807C91.3629 94.9021 92.4122 95.9926 93.1848 97.2723C93.9574 98.552 94.4337 99.9884 94.5788 101.476C94.724 102.964 94.5342 104.465 94.0234 105.87L89.0758 119.479L89.9183 125.25C89.9496 125.464 89.9344 125.683 89.8737 125.891C89.8129 126.099 89.7081 126.291 89.5663 126.455C89.4246 126.619 89.2492 126.751 89.0521 126.841C88.8549 126.931 88.6407 126.978 88.424 126.978H71.3693C71.1476 126.978 70.9285 126.929 70.7278 126.835C70.5271 126.741 70.3496 126.604 70.208 126.433Z" fill="url(#paint1_linear)"/>
<path d="M107.372 141.453C106.858 141.334 106.377 141.103 105.962 140.778C105.548 140.453 105.209 140.041 104.971 139.571C104.733 139.101 104.601 138.584 104.584 138.057C104.567 137.53 104.666 137.006 104.873 136.522L91.584 106.498L99.1862 104.583L109.859 134.698C110.649 135.1 111.265 135.779 111.589 136.605C111.913 137.431 111.922 138.348 111.616 139.18C111.309 140.013 110.708 140.704 109.925 141.123C109.143 141.542 108.235 141.659 107.372 141.453V141.453Z" fill="#FFB8B8"/>
<path d="M92.0366 111.878C91.8246 111.784 91.6355 111.644 91.4823 111.47C91.3291 111.295 91.2154 111.089 91.1489 110.867L88.8254 103.094C88.3222 102.018 88.2661 100.786 88.6694 99.6688C89.0727 98.5513 89.9024 97.6393 90.9769 97.1326C92.0513 96.6258 93.2828 96.5656 94.4016 96.9651C95.5203 97.3646 96.4351 98.1913 96.9455 99.264L101.439 106.05C101.567 106.244 101.652 106.463 101.688 106.692C101.724 106.922 101.71 107.156 101.647 107.38C101.584 107.604 101.474 107.811 101.324 107.988C101.173 108.165 100.987 108.308 100.776 108.406L93.3827 111.867C93.1723 111.966 92.9432 112.018 92.7108 112.02C92.4785 112.022 92.2486 111.974 92.0366 111.878Z" fill="url(#paint2_linear)"/>
<path d="M51.9349 64.1918C51.7744 64.6938 51.7259 65.2248 51.7929 65.7476C51.8598 66.2703 52.0406 66.772 52.3224 67.2173C52.6043 67.6627 52.9803 68.0408 53.4241 68.3251C53.8678 68.6094 54.3685 68.7929 54.8909 68.8627L73.8738 95.6528L79.4115 90.1037L59.0107 65.5148C59.0698 64.6295 58.8022 63.7532 58.2584 63.052C57.7147 62.3509 56.9326 61.8735 56.0604 61.7104C55.1882 61.5474 54.2865 61.7099 53.5262 62.1672C52.7658 62.6245 52.1996 63.3449 51.9349 64.1918Z" fill="#FFB8B8"/>
<path d="M70.1825 91.3579L76.9416 86.7796C77.1339 86.6493 77.352 86.562 77.5811 86.5237C77.8102 86.4853 78.0449 86.4968 78.2691 86.5573C78.4934 86.6178 78.702 86.7259 78.8807 86.8743C79.0594 87.0227 79.204 87.2079 79.3047 87.4172L82.8323 94.7519C83.4932 95.7396 83.7354 96.9491 83.5059 98.1152C83.2764 99.2812 82.5939 100.309 81.608 100.972C80.6221 101.636 79.4133 101.881 78.2466 101.655C77.0799 101.429 76.0506 100.749 75.3843 99.7651L69.898 93.7889C69.741 93.6178 69.6227 93.4148 69.5511 93.1938C69.4796 92.9728 69.4566 92.7389 69.4836 92.5082C69.5106 92.2775 69.587 92.0554 69.7076 91.8568C69.8283 91.6583 69.9902 91.4881 70.1825 91.3579V91.3579Z" fill="url(#paint3_linear)"/>
<path d="M46.2555 200H117.061C117.15 200 117.235 199.965 117.298 199.902C117.361 199.839 117.396 199.753 117.396 199.664C117.396 199.575 117.361 199.49 117.298 199.427C117.235 199.364 117.15 199.329 117.061 199.329H46.2555C46.1665 199.329 46.0811 199.364 46.0182 199.427C45.9553 199.49 45.9199 199.575 45.9199 199.664C45.9199 199.753 45.9553 199.839 46.0182 199.902C46.0811 199.965 46.1665 200 46.2555 200Z" fill="#CCCCCC"/>
<path d="M11.0739 44.437C8.88367 44.437 6.74266 43.7875 4.92157 42.5707C3.10048 41.3539 1.68112 39.6244 0.842967 37.6009C0.00480821 35.5775 -0.214502 33.3509 0.212779 31.2028C0.64006 29.0546 1.69474 27.0815 3.24344 25.5328C4.79214 23.9841 6.76531 22.9294 8.91342 22.5021C11.0615 22.0748 13.2881 22.2941 15.3116 23.1323C17.3351 23.9704 19.0646 25.3898 20.2814 27.2108C21.4982 29.0319 22.1477 31.1729 22.1477 33.3631C22.1443 36.2991 20.9766 39.1138 18.9006 41.1898C16.8245 43.2659 14.0098 44.4336 11.0739 44.437ZM11.0739 22.9605C9.01641 22.9604 7.00515 23.5705 5.29444 24.7136C3.58372 25.8567 2.25038 27.4813 1.46302 29.3822C0.675655 31.283 0.469641 33.3747 0.871026 35.3926C1.27241 37.4105 2.26317 39.2641 3.71801 40.7189C5.17285 42.1738 7.02643 43.1645 9.04435 43.5659C11.0623 43.9673 13.1539 43.7613 15.0548 42.974C16.9556 42.1866 18.5803 40.8533 19.7233 39.1426C20.8664 37.4318 21.4765 35.4206 21.4765 33.3631C21.4734 30.6051 20.3764 27.961 18.4262 26.0108C16.476 24.0606 13.8319 22.9636 11.0739 22.9605Z" fill="#3F3D56"/>
<path d="M54.7691 22.1477C52.5789 22.1477 50.4379 21.4982 48.6169 20.2814C46.7958 19.0646 45.3764 17.3351 44.5383 15.3116C43.7001 13.2881 43.4808 11.0616 43.9081 8.91344C44.3354 6.76533 45.3901 4.79216 46.9388 3.24346C48.4875 1.69475 50.4606 0.640071 52.6087 0.212785C54.7569 -0.214501 56.9834 0.00480045 59.0069 0.842952C61.0304 1.6811 62.7599 3.10046 63.9767 4.92154C65.1935 6.74263 65.843 8.88364 65.843 11.0738C65.8397 14.0098 64.6719 16.8245 62.5959 18.9005C60.5198 20.9766 57.7051 22.1443 54.7691 22.1477ZM54.7691 0.671147C52.7117 0.671147 50.7004 1.28125 48.9897 2.42432C47.279 3.56738 45.9457 5.19205 45.1583 7.0929C44.371 8.99374 44.1649 11.0854 44.5663 13.1033C44.9677 15.1212 45.9585 16.9748 47.4133 18.4296C48.8682 19.8845 50.7218 20.8752 52.7397 21.2766C54.7576 21.678 56.8492 21.472 58.7501 20.6847C60.6509 19.8973 62.2756 18.564 63.4187 16.8533C64.5617 15.1425 65.1718 13.1313 65.1718 11.0738C65.1687 8.31583 64.0717 5.67168 62.1215 3.72148C60.1713 1.77127 57.5271 0.674274 54.7691 0.671147Z" fill="#3F3D56"/>
<path d="M97.9244 44.437C95.7342 44.437 93.5932 43.7875 91.7721 42.5707C89.9511 41.3539 88.5317 39.6244 87.6935 37.6009C86.8554 35.5774 86.6361 33.3509 87.0634 31.2027C87.4907 29.0546 88.5453 27.0815 90.094 25.5328C91.6427 23.9841 93.6159 22.9294 95.764 22.5021C97.9121 22.0748 100.139 22.2941 102.162 23.1323C104.186 23.9704 105.915 25.3898 107.132 27.2109C108.349 29.0319 108.998 31.1729 108.998 33.3631C108.995 36.2991 107.827 39.1138 105.751 41.1899C103.675 43.2659 100.86 44.4336 97.9244 44.437ZM97.9244 22.9605C95.867 22.9605 93.8557 23.5706 92.145 24.7136C90.4343 25.8567 89.1009 27.4814 88.3136 29.3822C87.5262 31.283 87.3202 33.3747 87.7216 35.3926C88.123 37.4105 89.1138 39.2641 90.5686 40.719C92.0235 42.1738 93.877 43.1645 95.895 43.5659C97.9129 43.9673 100.004 43.7613 101.905 42.974C103.806 42.1866 105.431 40.8533 106.574 39.1426C107.717 37.4319 108.327 35.4206 108.327 33.3631C108.324 30.6051 107.227 27.961 105.277 26.0108C103.327 24.0606 100.682 22.9636 97.9244 22.9605Z" fill="#3F3D56"/>
<path d="M140.48 24.6279C138.29 24.6279 136.149 23.9784 134.328 22.7616C132.507 21.5448 131.087 19.8153 130.249 17.7918C129.411 15.7684 129.192 13.5418 129.619 11.3937C130.046 9.24555 131.101 7.27238 132.65 5.72368C134.198 4.17497 136.172 3.1203 138.32 2.69301C140.468 2.26572 142.694 2.48503 144.718 3.32318C146.741 4.16133 148.471 5.58069 149.688 7.40177C150.904 9.22285 151.554 11.3639 151.554 13.5541C151.551 16.49 150.383 19.3047 148.307 21.3808C146.231 23.4568 143.416 24.6246 140.48 24.6279ZM140.48 3.15137C138.423 3.15137 136.411 3.76148 134.701 4.90454C132.99 6.0476 131.657 7.67228 130.869 9.57312C130.082 11.474 129.876 13.5656 130.277 15.5835C130.679 17.6014 131.669 19.455 133.124 20.9099C134.579 22.3647 136.433 23.3555 138.451 23.7569C140.469 24.1582 142.56 23.9522 144.461 23.1649C146.362 22.3775 147.987 21.0442 149.13 19.3335C150.273 17.6228 150.883 15.6115 150.883 13.5541C150.88 10.7961 149.783 8.15191 147.832 6.2017C145.882 4.2515 143.238 3.1545 140.48 3.15137Z" fill="#3F3D56"/>
<path d="M83.4951 80.5755C81.8034 82.5061 79.4794 84.6407 77 83.6827C75.3721 83.0536 74.4722 81.3463 74.6209 79.6074C74.8885 76.4803 77.3216 74.5098 79.7097 72.8652C82.8143 70.7272 86.2895 68.7686 90.059 68.7627C93.8285 68.7569 97.8342 71.3807 98.1175 75.1395C98.3453 78.1623 96.2351 81.2673 97.3687 84.0788C98.5097 86.9083 102.2 87.6053 105.242 87.383C108.285 87.1606 111.583 86.4941 114.209 88.0472C117.559 90.0283 118.114 94.9625 116.327 98.4198C114.54 101.877 111.081 104.123 107.634 105.931C103.068 108.327 97.9651 110.279 92.8594 109.556C87.7537 108.834 82.8449 104.623 82.948 99.4676C82.9916 97.2899 83.8817 95.2307 84.7389 93.2283C85.5961 91.2259 86.4498 89.143 86.4141 86.9652C86.3844 85.1503 85.5726 83.2425 84.1097 82.2506C83.8458 82.079 83.6432 81.8282 83.5308 81.5342C83.4184 81.2402 83.4021 80.9182 83.4841 80.6143L83.4951 80.5755Z" fill="#2F2E41"/>
<defs>
<linearGradient id="paint0_linear" x1="40.8621" y1="88.8391" x2="60.0774" y2="108.054" gradientUnits="userSpaceOnUse">
<stop stop-color="#1DE9B6"/>
<stop offset="1" stop-color="#03A9F4"/>
</linearGradient>
<linearGradient id="paint1_linear" x1="57.8673" y1="109.157" x2="89.5503" y2="131.871" gradientUnits="userSpaceOnUse">
<stop stop-color="#1DE9B6"/>
<stop offset="1" stop-color="#03A9F4"/>
</linearGradient>
<linearGradient id="paint2_linear" x1="81.9611" y1="104.119" x2="96.6467" y2="116.876" gradientUnits="userSpaceOnUse">
<stop stop-color="#1DE9B6"/>
<stop offset="1" stop-color="#03A9F4"/>
</linearGradient>
<linearGradient id="paint3_linear" x1="62.6372" y1="93.8782" x2="77.348" y2="107.51" gradientUnits="userSpaceOnUse">
<stop stop-color="#1DE9B6"/>
<stop offset="1" stop-color="#03A9F4"/>
</linearGradient>
</defs>
</svg>
