<svg width="76" height="101" viewBox="0 0 76 101" fill="none" xmlns="http://www.w3.org/2000/svg">
<path fill-rule="evenodd" clip-rule="evenodd" d="M8.6379 17.3922C8.63779 16.8027 8.46879 16.2256 8.15089 15.7292C7.833 15.2328 7.37953 14.8379 6.84417 14.5912C6.3088 14.3445 5.71396 14.2564 5.13007 14.3373C4.54618 14.4181 3.99768 14.6646 3.54952 15.0475C3.10136 15.4304 2.77229 15.9338 2.60129 16.4979C2.43028 17.062 2.42449 17.6633 2.5846 18.2306C2.74471 18.7979 3.06401 19.3074 3.50472 19.6989C3.94542 20.0904 4.48907 20.3474 5.07129 20.4395V18.2841H4.28788V17.3922H5.07129V16.7125C5.07129 15.9395 5.53192 15.5122 6.23643 15.5122C6.46779 15.5154 6.69861 15.5356 6.92703 15.5725V16.3317H6.53787C6.47157 16.3229 6.40415 16.3292 6.34059 16.35C6.27703 16.3708 6.21896 16.4056 6.17068 16.4519C6.12241 16.4982 6.08516 16.5547 6.06169 16.6173C6.03822 16.68 6.02913 16.7471 6.0351 16.8137V17.3923H6.89053L6.75393 18.2842H6.0351V20.4398C6.76073 20.3248 7.42155 19.9548 7.89867 19.3961C8.3758 18.8374 8.63793 18.1269 8.6379 17.3922V17.3922Z" fill="#3F3D56"/>
<path d="M29.712 4.67956L30.2737 4.56722C30.1009 4.76834 29.9131 4.95612 29.712 5.12896C29.7036 5.24115 29.7036 5.35381 29.712 5.466C28.6335 10.0947 24.6564 8.04999 24.6564 8.04999C26.1057 8.08369 26.2292 7.48825 26.2292 7.48825C25.3866 7.36467 25.2181 6.81417 25.2181 6.81417C25.2937 6.85404 25.3814 6.86463 25.4643 6.8439C25.5472 6.82317 25.6196 6.77258 25.6675 6.70182C25.4203 6.64569 25.2028 6.49956 25.0574 6.29188C24.9121 6.08419 24.8492 5.82984 24.8811 5.57834C25.0433 5.69545 25.2328 5.76895 25.4316 5.7918C25.3304 5.66822 24.4766 4.64586 24.9934 4.11782C24.9934 4.11782 25.6226 5.2413 27.2741 5.34241L27.3864 5.31994C27.3673 5.23903 27.3597 5.15581 27.3639 5.07278C27.3639 4.75991 27.4882 4.45987 27.7095 4.23864C27.9307 4.01741 28.2307 3.89313 28.5436 3.89313C29.33 3.89313 29.4985 4.34252 29.4985 4.34252L30.0603 4.00548C30.049 4.00548 29.9929 4.56722 29.712 4.67956Z" fill="#3F3D56"/>
<path d="M50.2926 14.5272H47.9204C47.4804 14.5285 47.0587 14.7039 46.7476 15.015C46.4364 15.3262 46.261 15.7478 46.2598 16.1879V18.56C46.261 19.0001 46.4364 19.4217 46.7476 19.7329C47.0587 20.044 47.4804 20.2194 47.9204 20.2207H50.2926C50.7326 20.2194 51.1543 20.044 51.4654 19.7329C51.7766 19.4217 51.9519 19.0001 51.9532 18.56V16.1879C51.9519 15.7478 51.7766 15.3262 51.4654 15.015C51.1543 14.7039 50.7326 14.5285 50.2926 14.5272Z" fill="#3F3D56"/>
<path d="M50.6484 16.1879C50.5543 16.1877 50.4641 16.1501 50.3977 16.0835C50.3312 16.0168 50.294 15.9265 50.2941 15.8324C50.2942 15.7383 50.3316 15.6481 50.3982 15.5816C50.4648 15.5151 50.555 15.4777 50.6491 15.4777C50.7433 15.4777 50.8335 15.5151 50.9001 15.5816C50.9667 15.6481 51.0041 15.7383 51.0042 15.8324C51.0043 15.9265 50.9671 16.0168 50.9006 16.0835C50.8342 16.1501 50.744 16.1877 50.6499 16.1879H50.6484Z" fill="white"/>
<path d="M49.1065 16.425C49.2942 16.425 49.4776 16.4807 49.6337 16.585C49.7897 16.6892 49.9114 16.8374 49.9832 17.0108C50.055 17.1842 50.0738 17.375 50.0372 17.5591C50.0006 17.7432 49.9102 17.9123 49.7775 18.045C49.6448 18.1777 49.4757 18.2681 49.2916 18.3047C49.1075 18.3413 48.9167 18.3225 48.7433 18.2507C48.5699 18.1789 48.4217 18.0572 48.3175 17.9012C48.2132 17.7451 48.1575 17.5617 48.1575 17.374C48.1575 17.2494 48.1821 17.126 48.2298 17.0108C48.2775 16.8957 48.3474 16.7911 48.4355 16.703C48.5236 16.6149 48.6282 16.545 48.7433 16.4973C48.8585 16.4496 48.9819 16.425 49.1065 16.425ZM49.1065 15.9506C48.825 15.9506 48.5498 16.0341 48.3157 16.1905C48.0816 16.3469 47.8992 16.5692 47.7915 16.8293C47.6837 17.0894 47.6555 17.3756 47.7105 17.6517C47.7654 17.9278 47.9009 18.1814 48.1 18.3805C48.2991 18.5795 48.5527 18.7151 48.8288 18.77C49.1049 18.8249 49.3911 18.7967 49.6512 18.689C49.9113 18.5813 50.1336 18.3988 50.29 18.1648C50.4464 17.9307 50.5298 17.6555 50.5298 17.374C50.5298 16.9965 50.3799 16.6345 50.1129 16.3675C49.846 16.1006 49.484 15.9506 49.1065 15.9506V15.9506Z" fill="white"/>
<path d="M70.4469 4.34515C69.7364 4.34521 69.0476 4.58976 68.4961 5.03773C67.9446 5.48571 67.5641 6.10982 67.4184 6.80523C67.2727 7.50065 67.3708 8.22501 67.6962 8.85665C68.0215 9.48829 68.5543 9.98873 69.2051 10.2739C69.1921 10.0359 69.2102 9.79722 69.259 9.5639C69.3184 9.31249 69.6568 7.87727 69.6568 7.87727C69.5892 7.72321 69.5553 7.55649 69.5573 7.38827C69.5573 6.92967 69.8226 6.58709 70.1541 6.58709C70.2132 6.58619 70.2718 6.59796 70.326 6.62162C70.3802 6.64528 70.4287 6.68028 70.4682 6.72426C70.5078 6.76824 70.5374 6.82018 70.5552 6.87658C70.5729 6.93298 70.5784 6.99253 70.5712 7.05122C70.5712 7.3344 70.3903 7.7571 70.2977 8.1494C70.2793 8.22208 70.2782 8.29807 70.2945 8.37124C70.3109 8.44442 70.3442 8.51274 70.3917 8.57068C70.4393 8.62862 70.4999 8.67456 70.5685 8.7048C70.6371 8.73504 70.7119 8.74873 70.7867 8.74476C71.3724 8.74476 71.7675 7.99192 71.7675 7.09957C71.7675 6.42133 71.3103 5.91437 70.4801 5.91437C70.2814 5.90656 70.0832 5.93925 69.8976 6.01044C69.7119 6.08163 69.5427 6.18984 69.4002 6.32848C69.2576 6.46712 69.1448 6.6333 69.0685 6.81692C68.9922 7.00053 68.9541 7.19774 68.9564 7.39656C68.9472 7.61703 69.0201 7.83309 69.1609 8.00298C69.1856 8.02337 69.2032 8.05108 69.2111 8.08211C69.219 8.11314 69.2169 8.14589 69.2051 8.17565C69.1899 8.23228 69.1567 8.36903 69.1415 8.42429C69.1389 8.441 69.1323 8.45683 69.1223 8.47048C69.1123 8.48413 69.0992 8.49519 69.0841 8.50276C69.0689 8.51032 69.0522 8.51417 69.0353 8.51398C69.0184 8.51378 69.0018 8.50955 68.9868 8.50164C68.5545 8.32483 68.3528 7.85241 68.3528 7.31921C68.3528 6.44067 69.0946 5.38669 70.5643 5.38669C71.7454 5.38669 72.5231 6.24175 72.5231 7.15897C72.5231 8.37318 71.8476 9.27934 70.853 9.27934C70.7049 9.28324 70.5582 9.25002 70.4262 9.1827C70.2943 9.11539 70.1812 9.01612 70.0974 8.89394C70.0974 8.89394 69.9179 9.60672 69.8792 9.74486C69.8077 9.97957 69.7031 10.2028 69.5684 10.4079C69.9939 10.5336 70.4416 10.5663 70.8809 10.5038C71.3202 10.4413 71.741 10.2851 72.1146 10.0456C72.4883 9.80624 72.806 9.48928 73.0464 9.11626C73.2868 8.74324 73.4441 8.3229 73.5078 7.88373C73.5714 7.44456 73.5399 6.99684 73.4153 6.57093C73.2907 6.14503 73.0759 5.7509 72.7856 5.41529C72.4953 5.07967 72.1362 4.81041 71.7327 4.62577C71.3292 4.44113 70.8907 4.34543 70.4469 4.34516L70.4469 4.34515Z" fill="#3F3D56"/>
<path d="M63.1415 34.5071C62.9991 34.1128 62.7386 33.7718 62.3957 33.5307C62.0527 33.2895 61.6437 33.1598 61.2244 33.1592H19.1858C18.9184 33.1591 18.6536 33.2116 18.4066 33.3139C18.1595 33.4161 17.935 33.566 17.7458 33.755C17.5567 33.944 17.4066 34.1684 17.3042 34.4154C17.2018 34.6624 17.149 34.9271 17.1489 35.1945V67.456C17.1497 67.9959 17.3645 68.5136 17.7464 68.8954C18.1282 69.2772 18.6458 69.4921 19.1858 69.4928H61.2244C61.7644 69.4921 62.2821 69.2772 62.6639 68.8954C63.0457 68.5136 63.2606 67.9959 63.2613 67.456V35.1961C63.2617 34.9612 63.2212 34.7281 63.1415 34.5071Z" fill="white"/>
<path d="M63.1415 34.5071C62.9991 34.1128 62.7386 33.7718 62.3957 33.5307C62.0527 33.2895 61.6437 33.1598 61.2244 33.1592H19.1858C18.9184 33.1591 18.6536 33.2116 18.4066 33.3139C18.1595 33.4161 17.935 33.566 17.7458 33.755C17.5567 33.944 17.4066 34.1684 17.3042 34.4154C17.2018 34.6624 17.149 34.9271 17.1489 35.1945V67.456C17.1497 67.9959 17.3645 68.5136 17.7464 68.8954C18.1282 69.2772 18.6458 69.4921 19.1858 69.4928H61.2244C61.7644 69.4921 62.2821 69.2772 62.6639 68.8954C63.0457 68.5136 63.2606 67.9959 63.2613 67.456V35.1961C63.2617 34.9612 63.2212 34.7281 63.1415 34.5071ZM63.0217 67.456C63.0211 67.9324 62.8316 68.3893 62.4946 68.7262C62.1577 69.0631 61.7009 69.2526 61.2244 69.2532H19.1858C18.7093 69.2526 18.2525 69.0631 17.9156 68.7262C17.5787 68.3892 17.3891 67.9324 17.3886 67.456V35.1961C17.3891 34.7196 17.5787 34.2628 17.9156 33.9258C18.2525 33.5889 18.7093 33.3994 19.1858 33.3988H61.2244C61.7009 33.3994 62.1577 33.5889 62.4946 33.9258C62.8316 34.2628 63.0211 34.7196 63.0217 35.1961V67.456Z" fill="#CCCCCC"/>
<path d="M60.019 37.5001V60.0262C60.019 60.1765 59.9593 60.3208 59.8531 60.4271C59.7468 60.5335 59.6026 60.5933 59.4522 60.5933H21.2124C21.1852 60.5935 21.158 60.5914 21.1311 60.587C20.9962 60.5676 20.8729 60.5002 20.7836 60.3972C20.6944 60.2942 20.6453 60.1625 20.6453 60.0262V37.5001C20.6452 37.4257 20.6599 37.3519 20.6883 37.2831C20.7168 37.2143 20.7586 37.1518 20.8112 37.0992C20.8638 37.0465 20.9263 37.0047 20.9951 36.9762C21.0638 36.9477 21.1376 36.933 21.212 36.933H59.4518C59.5263 36.933 59.6 36.9476 59.6688 36.9761C59.7376 37.0045 59.8001 37.0463 59.8528 37.0989C59.9054 37.1515 59.9472 37.214 59.9757 37.2828C60.0042 37.3515 60.0189 37.4253 60.019 37.4997V37.5001Z" fill="#E6E6E6"/>
<path d="M30.2845 50.3265C33.0324 50.3265 35.26 48.0989 35.26 45.3511C35.26 42.6032 33.0324 40.3756 30.2845 40.3756C27.5367 40.3756 25.3091 42.6032 25.3091 45.3511C25.3091 48.0989 27.5367 50.3265 30.2845 50.3265Z" fill="url(#paint0_linear)"/>
<path d="M45.887 60.6836H21.4789C21.4483 60.684 21.4178 60.6816 21.3877 60.6764L32.9316 40.6807C33.002 40.5561 33.1043 40.4525 33.2279 40.3804C33.3515 40.3084 33.492 40.2704 33.6351 40.2704C33.7782 40.2704 33.9187 40.3084 34.0423 40.3804C34.1659 40.4525 34.2681 40.5561 34.3386 40.6807L42.086 54.0993L42.4571 54.7414L45.887 60.6836Z" fill="#3F3D56"/>
<path opacity="0.2" d="M45.8871 60.6836H37.5536L41.6445 54.7414L41.9389 54.3134L42.0862 54.0994L42.4572 54.7414L45.8871 60.6836Z" fill="black"/>
<path d="M59.4772 60.6836H38.3662L42.4571 54.7414L42.7515 54.3134L48.0823 46.5696C48.4318 46.062 49.2725 46.0304 49.6834 46.4738C49.711 46.5041 49.7367 46.5361 49.7602 46.5696L59.4772 60.6836Z" fill="#3F3D56"/>
<path d="M38.8123 98.7975L36.7492 98.7974L35.7678 90.8398L38.8127 90.84L38.8123 98.7975Z" fill="#FFB8B8"/>
<path d="M39.3384 100.797L32.6863 100.797V100.713C32.6863 100.373 32.7532 100.036 32.8834 99.722C33.0135 99.4079 33.2042 99.1225 33.4446 98.882C33.6851 98.6416 33.9705 98.4509 34.2846 98.3208C34.5988 98.1907 34.9355 98.1237 35.2755 98.1237H35.2757L39.3386 98.1239L39.3384 100.797Z" fill="#2F2E41"/>
<path d="M46.2166 98.7975L44.1535 98.7974L43.1721 90.8398L46.217 90.84L46.2166 98.7975Z" fill="#FFB8B8"/>
<path d="M46.7427 100.797L40.0906 100.797V100.713C40.0906 100.373 40.1575 100.036 40.2877 99.722C40.4178 99.4079 40.6085 99.1225 40.8489 98.882C41.0894 98.6416 41.3748 98.4509 41.6889 98.3208C42.0031 98.1907 42.3398 98.1237 42.6798 98.1237H42.68L46.7429 98.1239L46.7427 100.797Z" fill="#2F2E41"/>
<path d="M43.3963 95.7096L40.5226 75.0234C40.5146 74.9661 40.4872 74.9132 40.4449 74.8737C40.4026 74.8342 40.348 74.8104 40.2903 74.8063C40.2325 74.8023 40.1752 74.8182 40.1277 74.8514C40.0803 74.8846 40.0458 74.9331 40.0299 74.9888L38.1047 81.7189C37.9591 82.2261 37.9114 82.7563 37.9642 83.2813L39.5122 95.4444C39.5224 95.5471 39.5115 95.6509 39.4801 95.7493C39.4488 95.8477 39.3976 95.9386 39.3298 96.0166C39.262 96.0945 39.179 96.1577 39.0859 96.2023C38.9928 96.247 38.8915 96.2721 38.7883 96.2762L36.8177 96.3402C36.6364 96.3473 36.4585 96.2891 36.3165 96.1761C36.1745 96.0631 36.0778 95.9028 36.0441 95.7246L33.5484 82.5738C33.4098 81.8438 33.3803 81.0972 33.4609 80.3586L35.3488 63.0408L44.7522 63.3811L44.7745 63.426C47.6147 69.1307 47.1561 81.823 46.7126 94.0973L46.6574 95.6322C46.6511 95.8284 46.5685 96.0144 46.4273 96.1507C46.2861 96.287 46.0973 96.3629 45.901 96.3622L44.1466 96.3627H44.1462C43.9636 96.362 43.7874 96.2956 43.6497 96.1757C43.512 96.0558 43.422 95.8904 43.3963 95.7096Z" fill="#2F2E41"/>
<path d="M43.0217 45.7269C45.3043 45.7269 47.1548 43.8764 47.1548 41.5937C47.1548 39.3111 45.3043 37.4606 43.0217 37.4606C40.739 37.4606 38.8885 39.3111 38.8885 41.5937C38.8885 43.8764 40.739 45.7269 43.0217 45.7269Z" fill="#FFB8B8"/>
<path d="M35.2073 64.0459C35.1361 63.9606 35.0847 63.8605 35.0567 63.753C35.0286 63.6454 35.0247 63.533 35.0451 63.4238L37.3447 51.0316L37.8897 49.872C38.3436 48.9048 39.0953 48.1082 40.0346 47.599C40.974 47.0898 42.0516 46.8948 43.1099 47.0423C43.8526 47.1438 44.5632 47.4102 45.1895 47.8221C45.8159 48.234 46.3421 48.7808 46.7295 49.4226C47.117 50.0643 47.3558 50.7846 47.4286 51.5307C47.5014 52.2768 47.4062 53.0297 47.15 53.7342L44.669 60.5586L45.0915 63.4524C45.1072 63.5599 45.0995 63.6696 45.0691 63.7739C45.0386 63.8783 44.986 63.9748 44.915 64.0571C44.8439 64.1393 44.7559 64.2052 44.6571 64.2505C44.5582 64.2957 44.4508 64.3191 44.3421 64.3191H35.7896C35.6785 64.3192 35.5686 64.2948 35.468 64.2476C35.3673 64.2004 35.2783 64.1315 35.2073 64.0459Z" fill="url(#paint1_linear)"/>
<path d="M53.8438 71.578C53.5863 71.5182 53.3451 71.4027 53.1372 71.2396C52.9292 71.0765 52.7595 70.8698 52.6401 70.6341C52.5207 70.3983 52.4544 70.1393 52.4459 69.8751C52.4374 69.611 52.4869 69.3482 52.591 69.1052L45.9268 54.0489L49.739 53.0887L55.091 68.1905C55.4875 68.3924 55.7962 68.7327 55.9586 69.147C56.121 69.5613 56.1257 70.0207 55.972 70.4382C55.8183 70.8558 55.5167 71.2024 55.1244 71.4125C54.7322 71.6226 54.2765 71.6814 53.8438 71.578V71.578Z" fill="#FFB8B8"/>
<path d="M46.1538 56.7473C46.0474 56.6997 45.9526 56.6298 45.8758 56.5422C45.799 56.4547 45.742 56.3515 45.7086 56.2399L44.5434 52.3421C44.2911 51.8024 44.263 51.1848 44.4652 50.6244C44.6675 50.0641 45.0836 49.6068 45.6224 49.3526C46.1611 49.0985 46.7787 49.0683 47.3397 49.2686C47.9008 49.469 48.3595 49.8835 48.6154 50.4215L50.8688 53.8245C50.9331 53.9217 50.9757 54.0315 50.9937 54.1466C51.0117 54.2617 51.0048 54.3793 50.9732 54.4914C50.9417 54.6035 50.8864 54.7076 50.811 54.7964C50.7357 54.8852 50.6421 54.9567 50.5366 55.0061L46.8288 56.7417C46.7233 56.7911 46.6084 56.8172 46.4919 56.8182C46.3754 56.8191 46.2601 56.795 46.1538 56.7473Z" fill="url(#paint2_linear)"/>
<path d="M26.0439 32.8337C25.9634 33.0854 25.9391 33.3517 25.9727 33.6139C26.0062 33.876 26.0969 34.1276 26.2382 34.3509C26.3795 34.5743 26.5681 34.7639 26.7907 34.9064C27.0132 35.049 27.2643 35.141 27.5262 35.176L37.0456 48.6105L39.8226 45.8278L29.5922 33.4971C29.6218 33.0532 29.4876 32.6138 29.2149 32.2621C28.9423 31.9105 28.5501 31.6712 28.1127 31.5894C27.6753 31.5076 27.2232 31.5891 26.8419 31.8184C26.4606 32.0478 26.1766 32.409 26.0439 32.8337Z" fill="#FFB8B8"/>
<path d="M35.1946 46.4567L38.5841 44.1608C38.6805 44.0955 38.7899 44.0517 38.9048 44.0325C39.0197 44.0133 39.1374 44.019 39.2498 44.0494C39.3623 44.0797 39.4669 44.1339 39.5565 44.2083C39.6461 44.2827 39.7186 44.3756 39.7691 44.4806L41.5381 48.1587C41.8695 48.654 41.991 49.2606 41.8759 49.8453C41.7608 50.4301 41.4186 50.9453 40.9242 51.2781C40.4298 51.6108 39.8236 51.734 39.2385 51.6205C38.6535 51.507 38.1373 51.1662 37.8031 50.6727L35.0519 47.6758C34.9732 47.59 34.9138 47.4882 34.878 47.3774C34.8421 47.2665 34.8306 47.1493 34.8441 47.0336C34.8577 46.9179 34.896 46.8065 34.9565 46.7069C35.0169 46.6074 35.0982 46.522 35.1946 46.4567V46.4567Z" fill="url(#paint3_linear)"/>
<path d="M23.1959 100.938H58.7028C58.7474 100.938 58.7902 100.92 58.8218 100.888C58.8533 100.857 58.871 100.814 58.871 100.769C58.871 100.725 58.8533 100.682 58.8218 100.65C58.7902 100.619 58.7474 100.601 58.7028 100.601H23.1959C23.1512 100.601 23.1084 100.619 23.0769 100.65C23.0453 100.682 23.0276 100.725 23.0276 100.769C23.0276 100.814 23.0453 100.857 23.0769 100.888C23.1084 100.92 23.1512 100.938 23.1959 100.938Z" fill="#CCCCCC"/>
<path d="M5.55323 22.9272C4.45491 22.9272 3.38125 22.6015 2.46803 21.9913C1.5548 21.3811 0.843037 20.5138 0.422724 19.4991C0.00241118 18.4844 -0.107567 17.3678 0.106702 16.2906C0.320972 15.2134 0.849864 14.2239 1.62649 13.4472C2.40312 12.6706 3.39261 12.1417 4.46983 11.9274C5.54705 11.7132 6.66361 11.8231 7.67833 12.2435C8.69305 12.6638 9.56034 13.3755 10.1705 14.2888C10.7807 15.202 11.1064 16.2756 11.1064 17.374C11.1048 18.8462 10.5192 20.2578 9.47809 21.2988C8.43703 22.3399 7.02552 22.9255 5.55323 22.9272ZM5.55323 12.1573C4.52148 12.1573 3.51289 12.4632 2.65501 13.0365C1.79713 13.6097 1.1285 14.4244 0.733661 15.3776C0.338822 16.3308 0.235512 17.3797 0.436795 18.3917C0.638078 19.4036 1.13492 20.3331 1.86448 21.0627C2.59404 21.7922 3.52355 22.2891 4.53549 22.4904C5.54742 22.6917 6.59632 22.5883 7.54954 22.1935C8.50276 21.7987 9.31748 21.13 9.8907 20.2722C10.4639 19.4143 10.7699 18.4057 10.7699 17.374C10.7683 15.9909 10.2182 14.6649 9.24022 13.687C8.26225 12.709 6.93629 12.1589 5.55323 12.1573Z" fill="#3F3D56"/>
<path d="M27.4652 11.7497C26.3669 11.7497 25.2932 11.424 24.38 10.8139C23.4668 10.2037 22.755 9.33636 22.3347 8.32165C21.9144 7.30693 21.8044 6.19037 22.0187 5.11315C22.233 4.03593 22.7619 3.04644 23.5385 2.26981C24.3151 1.49318 25.3046 0.964288 26.3818 0.750016C27.459 0.535744 28.5756 0.645718 29.5903 1.06603C30.605 1.48634 31.4723 2.19811 32.0825 3.11133C32.6927 4.02455 33.0184 5.0982 33.0184 6.19653C33.0167 7.66882 32.4311 9.08033 31.3901 10.1214C30.349 11.1625 28.9375 11.7481 27.4652 11.7497ZM27.4652 0.979872C26.4334 0.979872 25.4249 1.28582 24.567 1.85904C23.7091 2.43225 23.0405 3.24698 22.6456 4.2002C22.2508 5.15342 22.1475 6.20231 22.3488 7.21424C22.5501 8.22618 23.0469 9.15569 23.7765 9.88525C24.506 10.6148 25.4356 11.1117 26.4475 11.3129C27.4594 11.5142 28.5083 11.4109 29.4615 11.0161C30.4147 10.6212 31.2295 9.95261 31.8027 9.09474C32.3759 8.23687 32.6819 7.22828 32.6819 6.19653C32.6803 4.81346 32.1302 3.4875 31.1522 2.50953C30.1742 1.53155 28.8483 0.98144 27.4652 0.979872Z" fill="#3F3D56"/>
<path d="M49.1063 22.9272C48.008 22.9272 46.9343 22.6015 46.0211 21.9913C45.1079 21.3811 44.3961 20.5138 43.9758 19.4991C43.5555 18.4844 43.4455 17.3678 43.6598 16.2906C43.8741 15.2134 44.403 14.2239 45.1796 13.4472C45.9562 12.6706 46.9457 12.1417 48.0229 11.9274C49.1002 11.7132 50.2167 11.8231 51.2314 12.2435C52.2461 12.6638 53.1134 13.3755 53.7236 14.2888C54.3338 15.202 54.6595 16.2756 54.6595 17.374C54.6579 18.8462 54.0723 20.2578 53.0312 21.2988C51.9901 22.3399 50.5786 22.9255 49.1063 22.9272ZM49.1063 12.1573C48.0746 12.1573 47.066 12.4633 46.2081 13.0365C45.3502 13.6097 44.6816 14.4244 44.2868 15.3776C43.8919 16.3308 43.7886 17.3797 43.9899 18.3917C44.1912 19.4036 44.688 20.3331 45.4176 21.0627C46.1471 21.7922 47.0767 22.2891 48.0886 22.4904C49.1005 22.6917 50.1494 22.5883 51.1026 22.1935C52.0559 21.7987 52.8706 21.13 53.4438 20.2722C54.017 19.4143 54.323 18.4057 54.323 17.374C54.3214 15.9909 53.7713 14.6649 52.7933 13.687C51.8153 12.709 50.4894 12.1589 49.1063 12.1573Z" fill="#3F3D56"/>
<path d="M70.4468 12.9935C69.3484 12.9935 68.2748 12.6678 67.3616 12.0576C66.4484 11.4474 65.7366 10.5801 65.3163 9.56542C64.896 8.5507 64.786 7.43414 65.0003 6.35692C65.2145 5.2797 65.7434 4.29022 66.5201 3.51358C67.2967 2.73695 68.2862 2.20806 69.3634 1.99379C70.4406 1.77952 71.5572 1.88949 72.5719 2.3098C73.5866 2.73011 74.4539 3.44188 75.0641 4.3551C75.6743 5.26832 76 6.34198 76 7.4403C75.9983 8.91259 75.4127 10.3241 74.3716 11.3652C73.3306 12.4062 71.9191 12.9918 70.4468 12.9935ZM70.4468 2.22365C69.415 2.22365 68.4064 2.5296 67.5486 3.10281C66.6907 3.67602 66.022 4.49075 65.6272 5.44397C65.2324 6.39719 65.1291 7.44608 65.3303 8.45802C65.5316 9.46995 66.0285 10.3995 66.758 11.129C67.4876 11.8586 68.4171 12.3554 69.4291 12.5567C70.441 12.758 71.4899 12.6547 72.4431 12.2599C73.3963 11.865 74.211 11.1964 74.7843 10.3385C75.3575 9.48064 75.6634 8.47206 75.6634 7.4403C75.6619 6.05724 75.1117 4.73127 74.1338 3.7533C73.1558 2.77533 71.8298 2.22521 70.4468 2.22365Z" fill="#3F3D56"/>
<path d="M41.8705 41.0497C41.0221 42.0179 39.8567 43.0883 38.6134 42.6079C37.797 42.2924 37.3457 41.4362 37.4203 40.5642C37.5545 38.9961 38.7746 38.0079 39.9722 37.1832C41.5291 36.1111 43.2718 35.1289 45.1621 35.1259C47.0524 35.123 49.0611 36.4387 49.2032 38.3237C49.3174 39.8396 48.2593 41.3966 48.8277 42.8065C49.3999 44.2254 51.2503 44.575 52.7761 44.4635C54.3019 44.3519 55.9557 44.0177 57.2725 44.7965C58.9524 45.79 59.2311 48.2644 58.3348 49.9981C57.4385 51.7318 55.7039 52.8583 53.9755 53.765C51.6856 54.9662 49.1268 55.9452 46.5664 55.5828C44.0061 55.2205 41.5444 53.1089 41.5962 50.5236C41.618 49.4315 42.0644 48.3989 42.4942 47.3947C42.9241 46.3906 43.3522 45.3461 43.3343 44.2539C43.3194 43.3438 42.9123 42.3871 42.1787 41.8897C42.0464 41.8037 41.9448 41.6779 41.8884 41.5305C41.832 41.383 41.8238 41.2216 41.865 41.0692L41.8705 41.0497Z" fill="#2F2E41"/>
<defs>
<linearGradient id="paint0_linear" x1="20.4911" y1="45.1936" x2="30.127" y2="54.8295" gradientUnits="userSpaceOnUse">
<stop stop-color="#1DE9B6"/>
<stop offset="1" stop-color="#03A9F4"/>
</linearGradient>
<linearGradient id="paint1_linear" x1="29.0188" y1="55.3825" x2="44.9069" y2="66.7727" gradientUnits="userSpaceOnUse">
<stop stop-color="#1DE9B6"/>
<stop offset="1" stop-color="#03A9F4"/>
</linearGradient>
<linearGradient id="paint2_linear" x1="41.1012" y1="52.8563" x2="48.4656" y2="59.2535" gradientUnits="userSpaceOnUse">
<stop stop-color="#1DE9B6"/>
<stop offset="1" stop-color="#03A9F4"/>
</linearGradient>
<linearGradient id="paint3_linear" x1="31.4108" y1="47.7206" x2="38.7879" y2="54.5563" gradientUnits="userSpaceOnUse">
<stop stop-color="#1DE9B6"/>
<stop offset="1" stop-color="#03A9F4"/>
</linearGradient>
</defs>
</svg>
