<svg width="148" height="150" viewBox="0 0 148 150" fill="none" xmlns="http://www.w3.org/2000/svg">
<g opacity="0.5">
<path d="M97.2012 60.4824C97.0642 60.4826 96.9329 60.537 96.836 60.6339C96.7392 60.7307 96.6847 60.8621 96.6846 60.999V96.4666C96.6847 96.6036 96.7392 96.7349 96.836 96.8318C96.9329 96.9286 97.0642 96.9831 97.2012 96.9832H146.613C146.75 96.9831 146.882 96.9286 146.978 96.8318C147.075 96.7349 147.13 96.6036 147.13 96.4666V60.999C147.13 60.8621 147.075 60.7307 146.978 60.6339C146.882 60.537 146.75 60.4826 146.613 60.4824H97.2012Z" fill="#E6E6E6"/>
<path d="M143.884 63.6545V88.8607C143.884 89.0288 143.818 89.1901 143.699 89.309C143.58 89.4279 143.418 89.4947 143.25 89.4947H100.462C100.432 89.4951 100.402 89.4925 100.373 89.4869C100.222 89.4656 100.084 89.3905 99.9835 89.2755C99.8835 89.1604 99.8283 89.0131 99.8281 88.8607V63.6545C99.8282 63.4864 99.895 63.3251 100.014 63.2062C100.133 63.0873 100.294 63.0205 100.462 63.0205H143.25C143.418 63.0205 143.58 63.0873 143.699 63.2062C143.818 63.3251 143.884 63.4864 143.884 63.6545Z" fill="white"/>
<path d="M135.015 74.5554C136.285 74.5554 137.314 73.5262 137.314 72.2567C137.314 70.9872 136.285 69.958 135.015 69.958C133.746 69.958 132.717 70.9872 132.717 72.2567C132.717 73.5262 133.746 74.5554 135.015 74.5554Z" fill="#FF6584"/>
<path d="M98.1612 62.5147C98.5797 62.5147 98.919 62.1754 98.919 61.7569C98.919 61.3383 98.5797 60.999 98.1612 60.999C97.7426 60.999 97.4033 61.3383 97.4033 61.7569C97.4033 62.1754 97.7426 62.5147 98.1612 62.5147Z" fill="#3F3D56"/>
<path d="M145.552 62.5147C145.971 62.5147 146.31 62.1754 146.31 61.7569C146.31 61.3383 145.971 60.999 145.552 60.999C145.134 60.999 144.794 61.3383 144.794 61.7569C144.794 62.1754 145.134 62.5147 145.552 62.5147Z" fill="#3F3D56"/>
<path d="M98.1612 96.4666C98.5797 96.4666 98.919 96.1273 98.919 95.7088C98.919 95.2902 98.5797 94.9509 98.1612 94.9509C97.7426 94.9509 97.4033 95.2902 97.4033 95.7088C97.4033 96.1273 97.7426 96.4666 98.1612 96.4666Z" fill="#3F3D56"/>
<path d="M145.552 96.4666C145.971 96.4666 146.31 96.1273 146.31 95.7088C146.31 95.2902 145.971 94.9509 145.552 94.9509C145.134 94.9509 144.794 95.2902 144.794 95.7088C144.794 96.1273 145.134 96.4666 145.552 96.4666Z" fill="#3F3D56"/>
<path d="M113.925 81.2807C115.449 81.2807 116.683 80.046 116.683 78.5228C116.683 76.9997 115.449 75.7649 113.925 75.7649C112.402 75.7649 111.167 76.9997 111.167 78.5228C111.167 80.046 112.402 81.2807 113.925 81.2807Z" fill="url(#paint0_linear)"/>
<path d="M114.191 86.8298H113.626L113.884 78.1074L114.191 86.8298Z" fill="#3F3D56"/>
<path d="M113.934 79.7604L114.54 78.9214L113.926 79.9681L113.859 79.8518L113.934 79.7604Z" fill="#3F3D56"/>
<path d="M113.867 80.6078L113.261 79.7688L113.876 80.8154L113.942 80.6991L113.867 80.6078Z" fill="#3F3D56"/>
<path d="M139.224 81.2807C140.747 81.2807 141.982 80.046 141.982 78.5228C141.982 76.9997 140.747 75.7649 139.224 75.7649C137.701 75.7649 136.466 76.9997 136.466 78.5228C136.466 80.046 137.701 81.2807 139.224 81.2807Z" fill="url(#paint1_linear)"/>
<path d="M139.49 86.8298H138.925L139.183 78.1074L139.49 86.8298Z" fill="#3F3D56"/>
<path d="M139.232 79.7604L139.839 78.9214L139.224 79.9681L139.158 79.8518L139.232 79.7604Z" fill="#3F3D56"/>
<path d="M139.166 80.6078L138.56 79.7688L139.174 80.8154L139.241 80.6991L139.166 80.6078Z" fill="#3F3D56"/>
<path d="M121.915 80.1901C124.164 80.1901 125.988 78.3665 125.988 76.1169C125.988 73.8673 124.164 72.0437 121.915 72.0437C119.665 72.0437 117.841 73.8673 117.841 76.1169C117.841 78.3665 119.665 80.1901 121.915 80.1901Z" fill="url(#paint2_linear)"/>
<path d="M122.307 88.3856H121.473L121.853 75.5034L122.307 88.3856Z" fill="#3F3D56"/>
<path d="M121.927 77.9449L122.823 76.7058L121.915 78.2516L121.816 78.0799L121.927 77.9449Z" fill="#3F3D56"/>
<path d="M121.829 79.1963L120.933 77.957L121.841 79.503L121.939 79.3313L121.829 79.1963Z" fill="#3F3D56"/>
<path d="M131.848 78.6342C134.098 78.6342 135.921 76.8106 135.921 74.561C135.921 72.3114 134.098 70.4878 131.848 70.4878C129.599 70.4878 127.775 72.3114 127.775 74.561C127.775 76.8106 129.599 78.6342 131.848 78.6342Z" fill="url(#paint3_linear)"/>
<path d="M132.24 86.8297H131.406L131.786 73.9475L132.24 86.8297Z" fill="#3F3D56"/>
<path d="M131.86 76.389L132.756 75.1499L131.848 76.6957L131.75 76.524L131.86 76.389Z" fill="#3F3D56"/>
<path d="M131.762 77.6404L130.867 76.4011L131.775 77.9471L131.873 77.7754L131.762 77.6404Z" fill="#3F3D56"/>
<path d="M106.083 78.6342C108.333 78.6342 110.157 76.8106 110.157 74.561C110.157 72.3114 108.333 70.4878 106.083 70.4878C103.834 70.4878 102.01 72.3114 102.01 74.561C102.01 76.8106 103.834 78.6342 106.083 78.6342Z" fill="url(#paint4_linear)"/>
<path d="M106.476 86.8297H105.642L106.023 73.9475L106.476 86.8297Z" fill="#3F3D56"/>
<path d="M106.096 76.389L106.991 75.1499L106.084 76.6957L105.985 76.524L106.096 76.389Z" fill="#3F3D56"/>
<path d="M105.998 77.6404L105.102 76.4011L106.01 77.9471L106.108 77.7754L105.998 77.6404Z" fill="#3F3D56"/>
<path d="M122.142 89.4947H100.462C100.432 89.4951 100.402 89.4925 100.373 89.487C100.222 89.4656 100.084 89.3905 99.9835 89.2755C99.8835 89.1604 99.8283 89.0131 99.8281 88.8607V83.448C101.868 83.1081 103.933 82.9402 106.001 82.9462C113.697 82.9462 120.135 85.1517 121.749 88.1041C121.993 88.5282 122.128 89.0059 122.142 89.4947Z" fill="#3F3D56"/>
<path d="M143.884 87.6335V88.8607C143.884 89.0289 143.818 89.1901 143.699 89.309C143.58 89.4279 143.418 89.4947 143.25 89.4948H119.264C120.035 88.936 120.869 88.4693 121.749 88.1041C124.688 86.8438 128.833 86.0581 133.425 86.0581C137.416 86.0581 141.066 86.6494 143.884 87.6335Z" fill="#3F3D56"/>
<path d="M124.693 0C124.609 0.000116719 124.526 0.0209889 124.451 0.0607787L80.8268 23.2658C80.706 23.3303 80.6157 23.4401 80.5758 23.5711C80.5358 23.7021 80.5494 23.8435 80.6135 23.9645L97.2697 55.2777C97.3342 55.3986 97.444 55.489 97.575 55.529C97.7061 55.5691 97.8476 55.5555 97.9687 55.4913L141.593 32.2863C141.714 32.2218 141.804 32.112 141.844 31.981C141.884 31.85 141.871 31.7085 141.806 31.5875L125.15 0.274357C125.118 0.214317 125.075 0.161166 125.023 0.117983C124.97 0.0747996 124.91 0.0424439 124.845 0.0227905C124.796 0.00773549 124.745 5.49612e-05 124.693 0Z" fill="#E6E6E6"/>
<path d="M123.532 4.14279L135.369 26.3957C135.408 26.4692 135.432 26.5498 135.44 26.6327C135.448 26.7157 135.44 26.7994 135.416 26.8791C135.391 26.9588 135.352 27.033 135.299 27.0973C135.246 27.1616 135.18 27.2148 135.107 27.2539L97.3311 47.3478C97.3043 47.3624 97.2764 47.3745 97.2475 47.3843C97.104 47.436 96.9468 47.4343 96.8045 47.3794C96.6622 47.3245 96.5445 47.2202 96.4729 47.0856L84.6359 24.8327C84.5968 24.7592 84.5725 24.6786 84.5645 24.5956C84.5564 24.5127 84.5649 24.429 84.5892 24.3493C84.6136 24.2696 84.6534 24.1954 84.7064 24.1311C84.7594 24.0668 84.8246 24.0136 84.8982 23.9745L122.674 3.88056C122.747 3.84139 122.828 3.81711 122.911 3.80909C122.994 3.80108 123.078 3.80949 123.157 3.83384C123.237 3.85819 123.311 3.89801 123.375 3.95102C123.44 4.00403 123.493 4.0692 123.532 4.14279Z" fill="white"/>
<path d="M98.284 33.0905C101.359 33.0905 103.851 30.5979 103.851 27.5233C103.851 24.4486 101.359 21.9561 98.284 21.9561C95.2093 21.9561 92.7168 24.4486 92.7168 27.5233C92.7168 30.5979 95.2093 33.0905 98.284 33.0905Z" fill="#FF6584"/>
<path d="M121.754 34.4711L97.6422 47.297C97.6123 47.3135 97.5808 47.3271 97.5483 47.3378L98.445 21.5186C98.4491 21.3585 98.4957 21.2025 98.5799 21.0663C98.6641 20.9302 98.783 20.8188 98.9243 20.7436C99.0657 20.6684 99.2244 20.6321 99.3844 20.6384C99.5444 20.6446 99.6998 20.6933 99.8349 20.7793L114.539 29.9641L115.244 30.4033L121.754 34.4711Z" fill="#3F3D56"/>
<path opacity="0.2" d="M121.754 34.471L113.521 38.85L114.44 30.8303L114.506 30.2527L114.539 29.9639L115.243 30.4032L121.754 34.471Z" fill="black"/>
<path d="M135.18 27.3297L114.325 38.423L115.244 30.4033L115.309 29.8257L116.506 19.3746C116.585 18.6896 117.399 18.2166 118.038 18.4387C118.081 18.4541 118.123 18.4722 118.164 18.4929L135.18 27.3297Z" fill="#3F3D56"/>
<path d="M82.273 24.6981C82.6915 24.6981 83.0308 24.3588 83.0308 23.9402C83.0308 23.5217 82.6915 23.1824 82.273 23.1824C81.8544 23.1824 81.5151 23.5217 81.5151 23.9402C81.5151 24.3588 81.8544 24.6981 82.273 24.6981Z" fill="#3F3D56"/>
<path d="M124.113 2.44222C124.532 2.44222 124.871 2.10292 124.871 1.68437C124.871 1.26582 124.532 0.926514 124.113 0.926514C123.695 0.926514 123.355 1.26582 123.355 1.68437C123.355 2.10292 123.695 2.44222 124.113 2.44222Z" fill="#3F3D56"/>
<path d="M98.2178 54.6732C98.6364 54.6732 98.9757 54.3339 98.9757 53.9153C98.9757 53.4968 98.6364 53.1575 98.2178 53.1575C97.7993 53.1575 97.46 53.4968 97.46 53.9153C97.46 54.3339 97.7993 54.6732 98.2178 54.6732Z" fill="#3F3D56"/>
<path d="M140.058 32.4171C140.476 32.4171 140.816 32.0778 140.816 31.6592C140.816 31.2407 140.476 30.9014 140.058 30.9014C139.639 30.9014 139.3 31.2407 139.3 31.6592C139.3 32.0778 139.639 32.4171 140.058 32.4171Z" fill="#3F3D56"/>
<path d="M135.256 149.983C135.389 150.018 135.53 149.999 135.648 149.93C135.767 149.861 135.853 149.749 135.888 149.616L145.006 115.341C145.042 115.208 145.023 115.067 144.954 114.949C144.885 114.83 144.772 114.744 144.64 114.709L96.8883 102.006C96.7559 101.971 96.6149 101.99 96.4964 102.058C96.3779 102.127 96.2915 102.24 96.2562 102.372L87.1385 136.648C87.121 136.714 87.1167 136.782 87.1256 136.849C87.1346 136.916 87.1568 136.981 87.1908 137.04C87.2248 137.099 87.2701 137.15 87.324 137.191C87.378 137.232 87.4395 137.263 87.505 137.28L135.256 149.983Z" fill="#E6E6E6"/>
<path d="M141.187 117.073L134.708 141.432C134.664 141.594 134.558 141.733 134.413 141.817C134.267 141.901 134.094 141.925 133.932 141.881L92.5817 130.882C92.5526 130.874 92.5243 130.864 92.4972 130.851C92.3568 130.792 92.2426 130.684 92.1755 130.547C92.1084 130.41 92.0929 130.253 92.1319 130.106L98.6118 105.747C98.6551 105.584 98.7611 105.446 98.9066 105.361C99.052 105.277 99.225 105.254 99.3875 105.297L140.738 116.297C140.9 116.34 141.039 116.446 141.123 116.592C141.207 116.737 141.231 116.91 141.187 117.073Z" fill="white"/>
<path d="M135.628 137.971L134.708 141.432C134.664 141.594 134.558 141.733 134.413 141.817C134.267 141.901 134.094 141.924 133.932 141.881L92.5817 130.881C92.5526 130.874 92.5243 130.864 92.4972 130.851C92.3568 130.792 92.2426 130.683 92.1755 130.547C92.1084 130.41 92.0929 130.253 92.1319 130.106L93.0524 126.646L135.628 137.971Z" fill="#3F3D56"/>
<path d="M117.357 135.325L110.779 133.575L110.579 134.327L117.157 136.077L117.357 135.325Z" fill="#CCCCCC"/>
<path d="M102.227 131.3L95.6484 129.55L95.4484 130.302L102.027 132.052L102.227 131.3Z" fill="#CCCCCC"/>
<path d="M132.488 139.35L125.909 137.6L125.709 138.352L132.288 140.102L132.488 139.35Z" fill="#CCCCCC"/>
<path d="M97.4883 104.242C97.9069 104.242 98.2462 103.903 98.2462 103.484C98.2462 103.066 97.9069 102.727 97.4883 102.727C97.0698 102.727 96.7305 103.066 96.7305 103.484C96.7305 103.903 97.0698 104.242 97.4883 104.242Z" fill="#3F3D56"/>
<path d="M143.287 116.425C143.705 116.425 144.045 116.086 144.045 115.668C144.045 115.249 143.705 114.91 143.287 114.91C142.868 114.91 142.529 115.249 142.529 115.668C142.529 116.086 142.868 116.425 143.287 116.425Z" fill="#3F3D56"/>
<path d="M88.7603 137.053C89.1789 137.053 89.5182 136.714 89.5182 136.295C89.5182 135.877 89.1789 135.537 88.7603 135.537C88.3417 135.537 88.0024 135.877 88.0024 136.295C88.0024 136.714 88.3417 137.053 88.7603 137.053Z" fill="#3F3D56"/>
<path d="M134.559 149.236C134.977 149.236 135.316 148.897 135.316 148.478C135.316 148.06 134.977 147.72 134.559 147.72C134.14 147.72 133.801 148.06 133.801 148.478C133.801 148.897 134.14 149.236 134.559 149.236Z" fill="#3F3D56"/>
<path d="M125.46 136.393L129.115 137.367L129.27 136.787L125.614 135.813L125.46 136.393Z" fill="#3F3D56"/>
<path d="M99.1436 128.911L99.8515 129.286L128.517 136.928L128.934 136.396C129.658 135.485 130.114 134.391 130.252 133.236C130.349 132.373 130.259 131.467 129.652 130.922L130.634 122.11L114.78 117.862L107.327 121.179C107.327 121.179 104.446 120.357 102.352 121.896C101.591 122.473 101.022 123.266 100.718 124.172L100.385 125.174L99.1436 128.911Z" fill="url(#paint5_linear)"/>
<path d="M105.478 134.107C107.501 134.107 109.141 132.467 109.141 130.444C109.141 128.421 107.501 126.781 105.478 126.781C103.455 126.781 101.815 128.421 101.815 130.444C101.815 132.467 103.455 134.107 105.478 134.107Z" fill="#3F3D56"/>
<path d="M105.478 132.372C106.543 132.372 107.406 131.509 107.406 130.444C107.406 129.379 106.543 128.516 105.478 128.516C104.414 128.516 103.55 129.379 103.55 130.444C103.55 131.509 104.414 132.372 105.478 132.372Z" fill="#CCCCCC"/>
<path d="M122.945 138.764C124.968 138.764 126.608 137.123 126.608 135.1C126.608 133.077 124.968 131.437 122.945 131.437C120.921 131.437 119.281 133.077 119.281 135.1C119.281 137.123 120.921 138.764 122.945 138.764Z" fill="#3F3D56"/>
<path d="M122.944 137.028C124.009 137.028 124.872 136.165 124.872 135.1C124.872 134.036 124.009 133.172 122.944 133.172C121.879 133.172 121.016 134.036 121.016 135.1C121.016 136.165 121.879 137.028 122.944 137.028Z" fill="#CCCCCC"/>
<path d="M109.919 121.249L118.482 123.531L119.527 123.809L121.292 124.28L121.326 124.151L121.74 122.599L122.205 120.857L121.031 120.544L119.986 120.265L118.134 119.771L117.089 119.493L114.951 118.923L109.919 121.249Z" fill="white"/>
<path d="M122.685 124.652L127.21 125.858L127.447 124.97L127.86 123.418L128.123 122.435L127.461 122.259L126.415 121.979L123.597 121.228L122.685 124.652Z" fill="white"/>
<path d="M119.737 127.782L120.317 127.937L120.611 126.835L120.031 126.68L119.737 127.782Z" fill="#3F3D56"/>
<path d="M111.822 123.434L111.977 122.854L110.874 122.56L110.719 123.14L111.822 123.434Z" fill="#3F3D56"/>
<path d="M111.502 123.001L111.439 122.984C111.117 122.898 110.843 122.688 110.676 122.4C110.509 122.112 110.463 121.769 110.549 121.448C110.635 121.126 110.845 120.852 111.133 120.685C111.421 120.518 111.764 120.472 112.085 120.558L112.149 120.575L111.502 123.001Z" fill="#3F3D56"/>
<path d="M100.385 125.174C100.811 125.338 101.282 125.347 101.714 125.199C102.146 125.05 102.511 124.754 102.747 124.362C102.982 123.971 103.071 123.509 102.999 123.058C102.927 122.606 102.698 122.195 102.352 121.896C101.591 122.474 101.022 123.266 100.718 124.172L100.385 125.174Z" fill="#3F3D56"/>
<path d="M119.985 120.265L121.326 124.151L121.74 122.599L121.031 120.544L119.985 120.265Z" fill="#F2F2F2"/>
<path d="M126.416 121.979L127.448 124.97L127.86 123.418L127.461 122.259L126.416 121.979Z" fill="#F2F2F2"/>
<path d="M117.089 119.493L118.482 123.531L119.527 123.809L118.134 119.771L117.089 119.493Z" fill="#F2F2F2"/>
<path d="M7.78263 60.3533C9.07161 60.3533 10.1165 59.3084 10.1165 58.0194C10.1165 56.7305 9.07161 55.6855 7.78263 55.6855C6.49365 55.6855 5.44873 56.7305 5.44873 58.0194C5.44873 59.3084 6.49365 60.3533 7.78263 60.3533Z" fill="url(#paint6_linear)"/>
<path opacity="0.2" d="M8.76812 55.906C9.18196 56.2808 9.44753 56.7916 9.51653 57.3456C9.58553 57.8996 9.45337 58.46 9.1441 58.9248C8.83483 59.3896 8.36899 59.728 7.83132 59.8784C7.29365 60.0287 6.71987 59.9811 6.21436 59.7441C6.46275 59.9705 6.75714 60.1405 7.07735 60.2424C7.39756 60.3444 7.73604 60.376 8.06959 60.335C8.40313 60.294 8.72388 60.1813 9.00984 60.0048C9.29581 59.8283 9.54025 59.5921 9.72641 59.3123C9.91258 59.0325 10.0361 58.7158 10.0884 58.3838C10.1408 58.0519 10.1208 57.7125 10.0298 57.389C9.93875 57.0655 9.77888 56.7655 9.56113 56.5095C9.34337 56.2536 9.07286 56.0477 8.76812 55.906Z" fill="black"/>
<path d="M67.7834 62.8817C70.9521 62.8817 73.5209 61.8367 73.5209 60.5478C73.5209 59.2588 70.9521 58.2139 67.7834 58.2139C64.6147 58.2139 62.0459 59.2588 62.0459 60.5478C62.0459 61.8367 64.6147 62.8817 67.7834 62.8817Z" fill="#3F3D56"/>
<path opacity="0.2" d="M67.7837 58.2139C67.5867 58.2139 67.3922 58.2179 67.2002 58.2258C70.0949 58.3448 72.3542 59.3389 72.3542 60.5478C72.3542 61.7566 70.0949 62.7508 67.2002 62.8697C67.3921 62.8776 67.5866 62.8816 67.7837 62.8817C70.9524 62.8817 73.5212 61.8367 73.5212 60.5478C73.5212 59.2588 70.9524 58.2139 67.7837 58.2139Z" fill="black"/>
<path d="M75.2712 60.5479H46.4864V57.436C46.4864 57.2813 46.425 57.1329 46.3155 57.0234C46.2061 56.914 46.0577 56.8525 45.903 56.8525H29.9546C29.7999 56.8525 29.6515 56.914 29.5421 57.0234C29.4326 57.1329 29.3712 57.2813 29.3712 57.436V60.5479H12.6449V58.603C12.6449 58.4482 12.5834 58.2998 12.474 58.1904C12.3646 58.081 12.2162 58.0195 12.0614 58.0195H3.50378C3.34903 58.0195 3.20063 58.081 3.0912 58.1904C2.98178 58.2998 2.92031 58.4482 2.92031 58.603V60.5479H0.586405C0.509753 60.5478 0.433836 60.5628 0.362999 60.5921C0.292162 60.6214 0.227801 60.6643 0.1736 60.7185C0.119399 60.7727 0.0764233 60.8371 0.0471372 60.9079C0.0178511 60.9788 0.0028278 61.0547 0.00293021 61.1314V99.4462C0.0028278 99.5229 0.0178511 99.5988 0.0471372 99.6696C0.0764233 99.7405 0.119399 99.8048 0.1736 99.859C0.227801 99.9132 0.292162 99.9562 0.362999 99.9855C0.433836 100.015 0.509753 100.03 0.586405 100.03H75.2712C75.3479 100.03 75.4238 100.015 75.4946 99.9855C75.5654 99.9562 75.6298 99.9132 75.684 99.859C75.7382 99.8048 75.7812 99.7405 75.8105 99.6696C75.8398 99.5988 75.8548 99.5229 75.8547 99.4462V61.1314C75.8548 61.0547 75.8398 60.9788 75.8105 60.9079C75.7812 60.8371 75.7382 60.7727 75.684 60.7185C75.6298 60.6643 75.5654 60.6214 75.4946 60.5921C75.4238 60.5628 75.3479 60.5478 75.2712 60.5479Z" fill="#3F3D56"/>
<path opacity="0.2" d="M75.2683 97.1721H0.583476C0.506824 97.1722 0.430906 97.1572 0.360069 97.1279C0.289233 97.0986 0.224868 97.0556 0.170667 97.0014C0.116466 96.9472 0.0734936 96.8829 0.0442075 96.812C0.0149214 96.7412 -0.000101887 96.6653 5.20039e-07 96.5886V99.3115C-0.000101887 99.3882 0.0149214 99.4641 0.0442075 99.5349C0.0734936 99.6058 0.116466 99.6701 0.170667 99.7243C0.224868 99.7785 0.289233 99.8215 0.360069 99.8508C0.430906 99.8801 0.506824 99.8951 0.583476 99.895H75.2683C75.3449 99.8951 75.4208 99.8801 75.4917 99.8508C75.5625 99.8215 75.6269 99.7785 75.6811 99.7243C75.7353 99.6701 75.7783 99.6058 75.8075 99.5349C75.8368 99.4641 75.8519 99.3882 75.8518 99.3115V96.5886C75.8519 96.6653 75.8368 96.7412 75.8075 96.812C75.7783 96.8829 75.7353 96.9472 75.6811 97.0014C75.6269 97.0556 75.5625 97.0986 75.4917 97.1279C75.4208 97.1572 75.3449 97.1722 75.2683 97.1721Z" fill="black"/>
<path opacity="0.2" d="M75.8547 78.4412H0.00292969V85.8318H75.8547V78.4412Z" fill="black"/>
<path opacity="0.2" d="M75.8547 74.7458H0.00292969V82.1365H75.8547V74.7458Z" fill="black"/>
<path d="M75.8547 76.4961H0.00292969V83.8868H75.8547V76.4961Z" fill="url(#paint7_linear)"/>
<path d="M37.9288 94.9729C46.0924 94.9729 52.7102 88.355 52.7102 80.1915C52.7102 72.028 46.0924 65.4102 37.9288 65.4102C29.7653 65.4102 23.1475 72.028 23.1475 80.1915C23.1475 88.355 29.7653 94.9729 37.9288 94.9729Z" fill="url(#paint8_linear)"/>
<path opacity="0.2" d="M49.3148 70.7656C51.1951 73.9692 51.8003 77.7634 51.0097 81.393C50.2191 85.0226 48.0909 88.2214 45.0485 90.3528C42.0062 92.4842 38.2728 93.3919 34.5915 92.8952C30.9102 92.3986 27.5509 90.5339 25.1821 87.6725C26.2152 89.4329 27.6016 90.9602 29.2541 92.1583C30.9066 93.3563 32.7894 94.1992 34.7837 94.6336C36.778 95.0681 38.8407 95.0848 40.8418 94.6827C42.8429 94.2806 44.7391 93.4684 46.4108 92.2972C48.0824 91.1261 49.4934 89.6214 50.5549 87.8779C51.6163 86.1345 52.3051 84.1902 52.5779 82.1674C52.8507 80.1446 52.7016 78.0872 52.14 76.1249C51.5784 74.1625 50.6165 72.3378 49.3148 70.7656Z" fill="black"/>
<path d="M37.9293 91.1916C44.0045 91.1916 48.9294 86.2667 48.9294 80.1915C48.9294 74.1163 44.0045 69.1914 37.9293 69.1914C31.8541 69.1914 26.9292 74.1163 26.9292 80.1915C26.9292 86.2667 31.8541 91.1916 37.9293 91.1916Z" fill="#3F3D56"/>
<path d="M46.4866 80.1916C46.4883 81.3533 46.252 82.5031 45.7922 83.5699C45.546 84.1453 45.2361 84.6914 44.8684 85.1978C44.1435 86.2035 43.2087 87.0397 42.1288 87.6485C41.0489 88.2573 39.8496 88.6242 38.6139 88.7238C37.3782 88.8233 36.1357 88.6533 34.9722 88.2253C33.8087 87.7973 32.7521 87.1216 31.8755 86.245C30.9989 85.3684 30.3233 84.3118 29.8953 83.1484C29.4673 81.9849 29.2972 80.7423 29.3968 79.5066C29.4964 78.2709 29.8633 77.0716 30.4721 75.9917C31.0809 74.9118 31.917 73.9771 32.9227 73.2522C33.4292 72.8844 33.9752 72.5746 34.5506 72.3283C35.8524 71.7693 37.2726 71.5421 38.6839 71.6672C40.0951 71.7924 41.4532 72.2659 42.6364 73.0453C43.8195 73.8248 44.7906 74.8857 45.4626 76.133C46.1346 77.3803 46.4864 78.7748 46.4866 80.1916Z" fill="white"/>
<path opacity="0.2" d="M46.3956 78.9449C46.0765 76.769 44.9308 74.8 43.1967 73.4475C43.9481 74.6241 44.4003 75.9667 44.5138 77.3581C44.6273 78.7496 44.3986 80.1477 43.8478 81.4305C43.6015 82.0059 43.2916 82.5519 42.9239 83.0584C42.2506 83.9925 41.3956 84.781 40.4102 85.3766C39.4247 85.9723 38.3292 86.3628 37.1892 86.5248C36.0491 86.6868 34.8882 86.6169 33.7758 86.3193C32.6635 86.0217 31.6227 85.5025 30.7158 84.793C31.4663 85.971 32.4939 86.9473 33.7088 87.6365C34.9237 88.3258 36.2888 88.707 37.685 88.747C39.0812 88.7869 40.466 88.4843 41.7182 87.8656C42.9705 87.2469 44.0522 86.331 44.8688 85.1978C45.2366 84.6913 45.5464 84.1453 45.7927 83.5699C46.4178 82.1138 46.6266 80.5127 46.3956 78.9449V78.9449Z" fill="black"/>
</g>
<defs>
<linearGradient id="paint0_linear" x1="108.497" y1="78.4355" x2="113.838" y2="83.7767" gradientUnits="userSpaceOnUse">
<stop stop-color="#1DE9B6"/>
<stop offset="1" stop-color="#03A9F4"/>
</linearGradient>
<linearGradient id="paint1_linear" x1="133.796" y1="78.4355" x2="139.137" y2="83.7767" gradientUnits="userSpaceOnUse">
<stop stop-color="#1DE9B6"/>
<stop offset="1" stop-color="#03A9F4"/>
</linearGradient>
<linearGradient id="paint2_linear" x1="113.897" y1="75.988" x2="121.786" y2="83.8765" gradientUnits="userSpaceOnUse">
<stop stop-color="#1DE9B6"/>
<stop offset="1" stop-color="#03A9F4"/>
</linearGradient>
<linearGradient id="paint3_linear" x1="123.831" y1="74.4321" x2="131.719" y2="82.3206" gradientUnits="userSpaceOnUse">
<stop stop-color="#1DE9B6"/>
<stop offset="1" stop-color="#03A9F4"/>
</linearGradient>
<linearGradient id="paint4_linear" x1="98.066" y1="74.4321" x2="105.955" y2="82.3206" gradientUnits="userSpaceOnUse">
<stop stop-color="#1DE9B6"/>
<stop offset="1" stop-color="#03A9F4"/>
</linearGradient>
<linearGradient id="paint5_linear" x1="83.8969" y1="127.093" x2="100.256" y2="154.113" gradientUnits="userSpaceOnUse">
<stop stop-color="#1DE9B6"/>
<stop offset="1" stop-color="#03A9F4"/>
</linearGradient>
<linearGradient id="paint6_linear" x1="3.18871" y1="57.9456" x2="7.70875" y2="62.4656" gradientUnits="userSpaceOnUse">
<stop stop-color="#1DE9B6"/>
<stop offset="1" stop-color="#03A9F4"/>
</linearGradient>
<linearGradient id="paint7_linear" x1="-36.7223" y1="80.0745" x2="-35.3408" y2="94.2533" gradientUnits="userSpaceOnUse">
<stop stop-color="#1DE9B6"/>
<stop offset="1" stop-color="#03A9F4"/>
</linearGradient>
<linearGradient id="paint8_linear" x1="8.83402" y1="79.7236" x2="37.4609" y2="108.35" gradientUnits="userSpaceOnUse">
<stop stop-color="#1DE9B6"/>
<stop offset="1" stop-color="#03A9F4"/>
</linearGradient>
</defs>
</svg>
