<svg width="99" height="101" viewBox="0 0 99 101" fill="none" xmlns="http://www.w3.org/2000/svg">
<path d="M64.8006 41.2593C64.7093 41.2594 64.6217 41.2957 64.5572 41.3603C64.4926 41.4248 64.4563 41.5124 64.4562 41.6037V65.2487C64.4563 65.34 64.4926 65.4276 64.5572 65.4922C64.6217 65.5567 64.7093 65.5931 64.8006 65.5931H97.742C97.8333 65.5931 97.9208 65.5567 97.9854 65.4922C98.05 65.4276 98.0863 65.34 98.0864 65.2487V41.6037C98.0863 41.5124 98.05 41.4248 97.9854 41.3603C97.9208 41.2957 97.8333 41.2594 97.742 41.2593H64.8006Z" fill="#E6E6E6"/>
<path d="M95.9228 43.3741V60.1782C95.9228 60.2903 95.8783 60.3978 95.799 60.4771C95.7197 60.5563 95.6122 60.6009 95.5001 60.6009H66.9747C66.9547 60.6011 66.9347 60.5994 66.9151 60.5957C66.8144 60.5815 66.7223 60.5314 66.6556 60.4547C66.5889 60.378 66.5521 60.2798 66.552 60.1782V43.3741C66.552 43.262 66.5966 43.1545 66.6758 43.0752C66.7551 42.996 66.8626 42.9514 66.9747 42.9514H95.5001C95.6122 42.9514 95.7197 42.996 95.799 43.0752C95.8783 43.1545 95.9228 43.262 95.9228 43.3741Z" fill="white"/>
<path d="M90.0105 50.6413C90.8568 50.6413 91.5429 49.9552 91.5429 49.1089C91.5429 48.2625 90.8568 47.5764 90.0105 47.5764C89.1641 47.5764 88.478 48.2625 88.478 49.1089C88.478 49.9552 89.1641 50.6413 90.0105 50.6413Z" fill="#F6DBC6"/>
<path d="M65.4407 42.6142C65.7197 42.6142 65.9459 42.388 65.9459 42.109C65.9459 41.83 65.7197 41.6038 65.4407 41.6038C65.1616 41.6038 64.9354 41.83 64.9354 42.109C64.9354 42.388 65.1616 42.6142 65.4407 42.6142Z" fill="#3F3D56"/>
<path d="M97.0348 42.6142C97.3138 42.6142 97.54 42.388 97.54 42.109C97.54 41.83 97.3138 41.6038 97.0348 41.6038C96.7557 41.6038 96.5295 41.83 96.5295 42.109C96.5295 42.388 96.7557 42.6142 97.0348 42.6142Z" fill="#3F3D56"/>
<path d="M65.4407 65.2488C65.7197 65.2488 65.9459 65.0225 65.9459 64.7435C65.9459 64.4645 65.7197 64.2383 65.4407 64.2383C65.1616 64.2383 64.9354 64.4645 64.9354 64.7435C64.9354 65.0225 65.1616 65.2488 65.4407 65.2488Z" fill="#3F3D56"/>
<path d="M97.0348 65.2488C97.3138 65.2488 97.54 65.0225 97.54 64.7435C97.54 64.4645 97.3138 64.2383 97.0348 64.2383C96.7557 64.2383 96.5295 64.4645 96.5295 64.7435C96.5295 65.0225 96.7557 65.2488 97.0348 65.2488Z" fill="#3F3D56"/>
<path d="M75.9503 55.1247C76.9657 55.1247 77.7889 54.3016 77.7889 53.2861C77.7889 52.2707 76.9657 51.4475 75.9503 51.4475C74.9349 51.4475 74.1117 52.2707 74.1117 53.2861C74.1117 54.3016 74.9349 55.1247 75.9503 55.1247Z" fill="url(#paint0_linear)"/>
<path d="M76.1276 58.8241H75.7511L75.9228 53.0092L76.1276 58.8241Z" fill="#3F3D56"/>
<path d="M75.9559 54.1113L76.3602 53.5519L75.9503 54.2498L75.9061 54.1722L75.9559 54.1113Z" fill="#3F3D56"/>
<path d="M75.9115 54.6762L75.5072 54.1169L75.9171 54.8146L75.9614 54.7371L75.9115 54.6762Z" fill="#3F3D56"/>
<path d="M92.816 55.1247C93.8315 55.1247 94.6546 54.3016 94.6546 53.2861C94.6546 52.2707 93.8315 51.4475 92.816 51.4475C91.8006 51.4475 90.9774 52.2707 90.9774 53.2861C90.9774 54.3016 91.8006 55.1247 92.816 55.1247Z" fill="url(#paint1_linear)"/>
<path d="M92.9932 58.8241H92.6167L92.7884 53.0092L92.9932 58.8241Z" fill="#3F3D56"/>
<path d="M92.8216 54.1113L93.2259 53.5519L92.8162 54.2498L92.7719 54.1722L92.8216 54.1113Z" fill="#3F3D56"/>
<path d="M92.7775 54.6762L92.3732 54.1169L92.7829 54.8146L92.8272 54.7371L92.7775 54.6762Z" fill="#3F3D56"/>
<path d="M81.2764 54.3978C82.7761 54.3978 83.9919 53.182 83.9919 51.6823C83.9919 50.1826 82.7761 48.9668 81.2764 48.9668C79.7767 48.9668 78.5609 50.1826 78.5609 51.6823C78.5609 53.182 79.7767 54.3978 81.2764 54.3978Z" fill="url(#paint2_linear)"/>
<path d="M81.5382 59.8614H80.9821L81.2355 51.2733L81.5382 59.8614Z" fill="#3F3D56"/>
<path d="M81.2847 52.901L81.8818 52.0749L81.2765 53.1054L81.2111 52.9909L81.2847 52.901Z" fill="#3F3D56"/>
<path d="M81.2192 53.7353L80.6221 52.9091L81.2273 53.9398L81.2928 53.8253L81.2192 53.7353Z" fill="#3F3D56"/>
<path d="M87.8987 53.3605C89.3984 53.3605 90.6142 52.1448 90.6142 50.645C90.6142 49.1453 89.3984 47.9296 87.8987 47.9296C86.399 47.9296 85.1832 49.1453 85.1832 50.645C85.1832 52.1448 86.399 53.3605 87.8987 53.3605Z" fill="url(#paint3_linear)"/>
<path d="M88.1605 58.8241H87.6044L87.8579 50.236L88.1605 58.8241Z" fill="#3F3D56"/>
<path d="M87.9069 51.8636L88.5039 51.0375L87.8986 52.0681L87.8333 51.9536L87.9069 51.8636Z" fill="#3F3D56"/>
<path d="M87.8413 52.698L87.2443 51.8718L87.8495 52.9024L87.915 52.7879L87.8413 52.698Z" fill="#3F3D56"/>
<path d="M70.7223 53.3605C72.222 53.3605 73.4378 52.1448 73.4378 50.645C73.4378 49.1453 72.222 47.9296 70.7223 47.9296C69.2226 47.9296 68.0068 49.1453 68.0068 50.645C68.0068 52.1448 69.2226 53.3605 70.7223 53.3605Z" fill="url(#paint4_linear)"/>
<path d="M70.9841 58.8241H70.4279L70.6815 50.236L70.9841 58.8241Z" fill="#3F3D56"/>
<path d="M70.7305 51.8636L71.3276 51.0375L70.7223 52.0681L70.6569 51.9536L70.7305 51.8636Z" fill="#3F3D56"/>
<path d="M70.6652 52.698L70.0681 51.8718L70.6734 52.9024L70.7387 52.7879L70.6652 52.698Z" fill="#3F3D56"/>
<path d="M81.428 60.6008H66.9747C66.9547 60.6011 66.9347 60.5994 66.9151 60.5957C66.8144 60.5814 66.7223 60.5314 66.6556 60.4547C66.5889 60.378 66.5521 60.2798 66.552 60.1781V56.5697C67.912 56.3431 69.2887 56.2312 70.6675 56.2351C75.7981 56.2351 80.0899 57.7055 81.1661 59.6738C81.3285 59.9565 81.4185 60.2749 81.428 60.6008Z" fill="#3F3D56"/>
<path d="M95.9228 59.36V60.1782C95.9228 60.2903 95.8783 60.3978 95.799 60.477C95.7197 60.5563 95.6122 60.6008 95.5001 60.6009H79.509C80.0234 60.2283 80.5795 59.9172 81.1661 59.6738C83.1253 58.8336 85.8884 58.3098 88.9497 58.3098C91.6103 58.3098 94.044 58.7039 95.9228 59.36Z" fill="#3F3D56"/>
<path d="M83.1288 0.937683C83.0725 0.937761 83.0171 0.951676 82.9675 0.978202L53.8845 16.4482C53.804 16.4912 53.7438 16.5644 53.7172 16.6517C53.6905 16.7391 53.6996 16.8334 53.7423 16.914L64.8465 37.7895C64.8895 37.8701 64.9627 37.9303 65.05 37.957C65.1374 37.9837 65.2317 37.9747 65.3124 37.9319L94.3953 22.4619C94.4758 22.4189 94.5361 22.3457 94.5627 22.2584C94.5894 22.171 94.5804 22.0767 94.5376 21.996L83.4333 1.12059C83.4122 1.08056 83.3833 1.04513 83.3484 1.01634C83.3135 0.98755 83.2732 0.965979 83.2299 0.952877C83.1971 0.94284 83.1631 0.93772 83.1288 0.937683Z" fill="#E6E6E6"/>
<path d="M82.3549 3.69946L90.2462 18.5347C90.2723 18.5837 90.2884 18.6375 90.2938 18.6928C90.2991 18.7481 90.2935 18.8039 90.2773 18.857C90.2611 18.9102 90.2345 18.9596 90.1992 19.0024C90.1638 19.0453 90.1204 19.0808 90.0713 19.1069L64.8876 32.5028C64.8697 32.5125 64.8511 32.5206 64.8318 32.5271C64.7362 32.5616 64.6313 32.5604 64.5365 32.5239C64.4416 32.4873 64.3631 32.4178 64.3154 32.328L56.4241 17.4928C56.398 17.4437 56.3818 17.39 56.3765 17.3347C56.3711 17.2794 56.3767 17.2236 56.393 17.1704C56.4092 17.1173 56.4357 17.0679 56.4711 17.025C56.5064 16.9822 56.5499 16.9467 56.5989 16.9206L81.7827 3.52464C81.8317 3.49853 81.8854 3.48234 81.9408 3.477C81.9961 3.47165 82.0519 3.47726 82.105 3.49349C82.1581 3.50973 82.2076 3.53628 82.2504 3.57162C82.2933 3.60696 82.3288 3.6504 82.3549 3.69946Z" fill="white"/>
<path d="M65.5226 22.998C67.5724 22.998 69.2341 21.3363 69.2341 19.2865C69.2341 17.2367 67.5724 15.575 65.5226 15.575C63.4728 15.575 61.8112 17.2367 61.8112 19.2865C61.8112 21.3363 63.4728 22.998 65.5226 22.998Z" fill="#F6DBC6"/>
<path d="M81.1694 23.9184L65.0947 32.469C65.0747 32.4799 65.0538 32.4891 65.0321 32.4962L65.6298 15.2834C65.6326 15.1767 65.6637 15.0726 65.7198 14.9819C65.776 14.8911 65.8552 14.8169 65.9494 14.7667C66.0437 14.7166 66.1495 14.6924 66.2562 14.6966C66.3628 14.7007 66.4664 14.7331 66.5565 14.7905L76.3595 20.9137L76.8289 21.2065L81.1694 23.9184Z" fill="#3F3D56"/>
<path opacity="0.2" d="M81.1694 23.9185L75.6812 26.8378L76.2937 21.4913L76.3376 21.1062L76.3595 20.9137L76.8289 21.2066L81.1694 23.9185Z" fill="black"/>
<path d="M90.1197 19.1575L76.2164 26.5531L76.829 21.2065L76.8729 20.8215L77.6709 13.8541C77.7232 13.3974 78.2659 13.0821 78.6918 13.2302C78.7206 13.2404 78.7487 13.2525 78.7759 13.2663L90.1197 19.1575Z" fill="#3F3D56"/>
<path d="M54.8487 17.4031C55.1278 17.4031 55.354 17.1768 55.354 16.8978C55.354 16.6188 55.1278 16.3926 54.8487 16.3926C54.5697 16.3926 54.3435 16.6188 54.3435 16.8978C54.3435 17.1768 54.5697 17.4031 54.8487 17.4031Z" fill="#3F3D56"/>
<path d="M82.7422 2.56577C83.0212 2.56577 83.2474 2.33957 83.2474 2.06053C83.2474 1.7815 83.0212 1.5553 82.7422 1.5553C82.4631 1.5553 82.2369 1.7815 82.2369 2.06053C82.2369 2.33957 82.4631 2.56577 82.7422 2.56577Z" fill="#3F3D56"/>
<path d="M65.4784 37.3864C65.7574 37.3864 65.9836 37.1602 65.9836 36.8812C65.9836 36.6022 65.7574 36.376 65.4784 36.376C65.1993 36.376 64.9731 36.6022 64.9731 36.8812C64.9731 37.1602 65.1993 37.3864 65.4784 37.3864Z" fill="#3F3D56"/>
<path d="M93.3718 22.5492C93.6508 22.5492 93.8771 22.323 93.8771 22.0439C93.8771 21.7649 93.6508 21.5387 93.3718 21.5387C93.0928 21.5387 92.8666 21.7649 92.8666 22.0439C92.8666 22.323 93.0928 22.5492 93.3718 22.5492Z" fill="#3F3D56"/>
<path d="M90.1709 100.926C90.2591 100.95 90.3531 100.937 90.4321 100.891C90.5111 100.845 90.5687 100.77 90.5923 100.682L96.6709 77.8315C96.6944 77.7432 96.6818 77.6492 96.636 77.5702C96.5901 77.4911 96.5148 77.4336 96.4265 77.4101L64.5922 68.9416C64.5039 68.9182 64.4099 68.9307 64.3309 68.9766C64.2519 69.0224 64.1943 69.0977 64.1708 69.186L58.0923 92.0363C58.0806 92.08 58.0777 92.1256 58.0837 92.1705C58.0897 92.2153 58.1045 92.2585 58.1272 92.2977C58.1499 92.3368 58.18 92.3711 58.216 92.3985C58.2519 92.426 58.2929 92.4461 58.3367 92.4577L90.1709 100.926Z" fill="#E6E6E6"/>
<path d="M94.1248 78.9861L89.8049 95.2254C89.7761 95.3338 89.7054 95.4262 89.6084 95.4824C89.5114 95.5386 89.3961 95.5541 89.2877 95.5253L61.721 88.1921C61.7016 88.1872 61.6827 88.1804 61.6647 88.1717C61.5711 88.1321 61.4949 88.0601 61.4502 87.9688C61.4055 87.8775 61.3952 87.7732 61.4212 87.6749L65.7411 71.4356C65.7699 71.3273 65.8406 71.2348 65.9376 71.1786C66.0346 71.1224 66.1499 71.107 66.2582 71.1358L93.825 78.469C93.9333 78.4978 94.0257 78.5685 94.082 78.6655C94.1382 78.7624 94.1536 78.8778 94.1248 78.9861Z" fill="white"/>
<path d="M90.4186 92.9186L89.8049 95.2254C89.7761 95.3337 89.7054 95.4262 89.6084 95.4824C89.5114 95.5386 89.3961 95.554 89.2877 95.5252L61.721 88.192C61.7016 88.1871 61.6827 88.1803 61.6647 88.1717C61.5711 88.1321 61.4949 88.06 61.4502 87.9687C61.4055 87.8775 61.3952 87.7731 61.4212 87.6749L62.0348 85.368L90.4186 92.9186Z" fill="#3F3D56"/>
<path d="M78.2383 91.1543L73.8527 89.9877L73.7193 90.4889L78.1049 91.6555L78.2383 91.1543Z" fill="#CCCCCC"/>
<path d="M68.1514 88.471L63.7657 87.3044L63.6324 87.8056L68.018 88.9722L68.1514 88.471Z" fill="#CCCCCC"/>
<path d="M88.3252 93.8375L83.9396 92.6709L83.8062 93.1721L88.1919 94.3388L88.3252 93.8375Z" fill="#CCCCCC"/>
<path d="M64.9922 70.4325C65.2712 70.4325 65.4974 70.2063 65.4974 69.9273C65.4974 69.6483 65.2712 69.4221 64.9922 69.4221C64.7131 69.4221 64.4869 69.6483 64.4869 69.9273C64.4869 70.2063 64.7131 70.4325 64.9922 70.4325Z" fill="#3F3D56"/>
<path d="M95.5245 78.5546C95.8036 78.5546 96.0298 78.3284 96.0298 78.0494C96.0298 77.7703 95.8036 77.5441 95.5245 77.5441C95.2455 77.5441 95.0193 77.7703 95.0193 78.0494C95.0193 78.3284 95.2455 78.5546 95.5245 78.5546Z" fill="#3F3D56"/>
<path d="M59.1735 92.3064C59.4525 92.3064 59.6787 92.0802 59.6787 91.8011C59.6787 91.5221 59.4525 91.2959 59.1735 91.2959C58.8944 91.2959 58.6682 91.5221 58.6682 91.8011C58.6682 92.0802 58.8944 92.3064 59.1735 92.3064Z" fill="#3F3D56"/>
<path d="M89.7057 100.428C89.9847 100.428 90.2109 100.202 90.2109 99.9232C90.2109 99.6442 89.9847 99.418 89.7057 99.418C89.4266 99.418 89.2004 99.6442 89.2004 99.9232C89.2004 100.202 89.4266 100.428 89.7057 100.428Z" fill="#3F3D56"/>
<path d="M83.6395 91.8663L86.0767 92.516L86.1798 92.1291L83.7427 91.4794L83.6395 91.8663Z" fill="#3F3D56"/>
<path d="M66.0957 86.878L66.5677 87.1282L85.6779 92.2227L85.9563 91.868C86.4388 91.2609 86.7429 90.5316 86.8348 89.7615C86.8996 89.1866 86.8395 88.5822 86.4345 88.2189L87.0891 82.344L76.5199 79.5122L71.551 81.7237C71.551 81.7237 69.6304 81.1756 68.2348 82.2019C67.7275 82.5867 67.3478 83.1152 67.1451 83.7188L66.9231 84.3868L66.0957 86.878Z" fill="url(#paint5_linear)"/>
<path d="M70.3188 90.3425C71.6675 90.3425 72.7609 89.2491 72.7609 87.9003C72.7609 86.5515 71.6675 85.4581 70.3188 85.4581C68.97 85.4581 67.8766 86.5515 67.8766 87.9003C67.8766 89.2491 68.97 90.3425 70.3188 90.3425Z" fill="#3F3D56"/>
<path d="M70.3188 89.1856C71.0287 89.1856 71.6042 88.6102 71.6042 87.9003C71.6042 87.1904 71.0287 86.6149 70.3188 86.6149C69.6089 86.6149 69.0334 87.1904 69.0334 87.9003C69.0334 88.6102 69.6089 89.1856 70.3188 89.1856Z" fill="#CCCCCC"/>
<path d="M81.9629 93.4467C83.3117 93.4467 84.4051 92.3533 84.4051 91.0046C84.4051 89.6558 83.3117 88.5624 81.9629 88.5624C80.6142 88.5624 79.5208 89.6558 79.5208 91.0046C79.5208 92.3533 80.6142 93.4467 81.9629 93.4467Z" fill="#3F3D56"/>
<path d="M81.9628 92.2899C82.6727 92.2899 83.2482 91.7144 83.2482 91.0045C83.2482 90.2947 82.6727 89.7192 81.9628 89.7192C81.253 89.7192 80.6775 90.2947 80.6775 91.0045C80.6775 91.7144 81.253 92.2899 81.9628 92.2899Z" fill="#CCCCCC"/>
<path d="M73.2793 81.7704L78.9878 83.2916L79.6847 83.477L80.8612 83.7909L80.8841 83.7049L81.1601 82.6705L81.47 81.5089L80.6872 81.3006L79.9904 81.1144L78.7562 80.7852L78.0593 80.5998L76.6343 80.2199L73.2793 81.7704Z" fill="white"/>
<path d="M81.7897 84.0388L84.8066 84.843L84.9649 84.2511L85.2401 83.2166L85.4154 82.5611L84.9736 82.4435L84.2768 82.2573L82.3976 81.7566L81.7897 84.0388Z" fill="white"/>
<path d="M79.8248 86.1258L80.2117 86.2289L80.4076 85.4939L80.0208 85.3908L79.8248 86.1258Z" fill="#3F3D56"/>
<path d="M74.5479 83.2269L74.651 82.8401L73.916 82.6441L73.8129 83.031L74.5479 83.2269Z" fill="#3F3D56"/>
<path d="M74.3348 82.9382L74.2923 82.9268C74.0779 82.8697 73.8949 82.7297 73.7837 82.5376C73.6725 82.3456 73.6422 82.1172 73.6993 81.9028C73.7565 81.6884 73.8965 81.5054 74.0885 81.3942C74.2806 81.283 74.5089 81.2526 74.7234 81.3098L74.7659 81.3212L74.3348 82.9382Z" fill="#3F3D56"/>
<path d="M66.9231 84.3869C67.2072 84.4965 67.5209 84.5024 67.809 84.4034C68.097 84.3045 68.3408 84.1071 68.4976 83.846C68.6544 83.5849 68.7139 83.2768 68.6659 82.9761C68.6178 82.6754 68.4651 82.4012 68.2348 82.202C67.7275 82.5867 67.3478 83.1153 67.1451 83.7189L66.9231 84.3869Z" fill="#3F3D56"/>
<path d="M79.9902 81.1144L80.8839 83.7049L81.1599 82.6705L80.687 81.3006L79.9902 81.1144Z" fill="#F2F2F2"/>
<path d="M84.2769 82.2573L84.965 84.2511L85.2401 83.2166L84.9736 82.4435L84.2769 82.2573Z" fill="#F2F2F2"/>
<path d="M78.0591 80.5998L78.9876 83.2916L79.6845 83.477L78.756 80.7852L78.0591 80.5998Z" fill="#F2F2F2"/>
<path d="M5.1885 41.1733C6.04782 41.1733 6.74444 40.4767 6.74444 39.6174C6.74444 38.7581 6.04782 38.0615 5.1885 38.0615C4.32918 38.0615 3.63257 38.7581 3.63257 39.6174C3.63257 40.4767 4.32918 41.1733 5.1885 41.1733Z" fill="url(#paint6_linear)"/>
<path opacity="0.2" d="M5.84533 38.2084C6.12122 38.4582 6.29827 38.7988 6.34427 39.1681C6.39027 39.5375 6.30216 39.9111 6.09598 40.2209C5.8898 40.5308 5.57925 40.7564 5.2208 40.8566C4.86235 40.9568 4.47983 40.9251 4.14282 40.7671C4.30842 40.918 4.50468 41.0313 4.71815 41.0993C4.93163 41.1673 5.15728 41.1884 5.37964 41.161C5.60201 41.1337 5.81584 41.0586 6.00648 40.9409C6.19713 40.8232 6.36009 40.6658 6.4842 40.4792C6.6083 40.2927 6.69063 40.0816 6.72553 39.8603C6.76044 39.6389 6.7471 39.4127 6.68642 39.197C6.62575 38.9814 6.51917 38.7814 6.374 38.6107C6.22883 38.4401 6.04849 38.3028 5.84533 38.2084Z" fill="black"/>
<path d="M45.1891 42.8589C47.3016 42.8589 49.0141 42.1623 49.0141 41.3029C49.0141 40.4436 47.3016 39.747 45.1891 39.747C43.0766 39.747 41.3641 40.4436 41.3641 41.3029C41.3641 42.1623 43.0766 42.8589 45.1891 42.8589Z" fill="#3F3D56"/>
<path opacity="0.2" d="M45.189 39.747C45.0577 39.747 44.9281 39.7497 44.8 39.755C46.7298 39.8343 48.2361 40.497 48.2361 41.3029C48.2361 42.1088 46.7298 42.7716 44.8 42.8509C44.928 42.8562 45.0576 42.8588 45.189 42.8589C47.3015 42.8589 49.014 42.1623 49.014 41.3029C49.014 40.4436 47.3015 39.747 45.189 39.747Z" fill="black"/>
<path d="M50.1809 41.3029H30.9911V39.2283C30.9911 39.1252 30.9501 39.0262 30.8772 38.9533C30.8042 38.8803 30.7053 38.8394 30.6021 38.8394H19.9699C19.8667 38.8394 19.7678 38.8803 19.6948 38.9533C19.6219 39.0262 19.5809 39.1252 19.5809 39.2283V41.3029H8.43005V40.0063C8.43005 39.9031 8.38907 39.8042 8.31612 39.7313C8.24317 39.6583 8.14423 39.6173 8.04106 39.6173H2.33598C2.23281 39.6173 2.13387 39.6583 2.06092 39.7313C1.98798 39.8042 1.94699 39.9031 1.94699 40.0063V41.3029H0.391059C0.339958 41.3028 0.289346 41.3129 0.242122 41.3324C0.194897 41.3519 0.15199 41.3806 0.115855 41.4167C0.0797214 41.4528 0.0510709 41.4957 0.0315469 41.543C0.0120228 41.5902 0.00200727 41.6408 0.00207554 41.6919V67.2351C0.00200727 67.2862 0.0120228 67.3369 0.0315469 67.3841C0.0510709 67.4313 0.0797214 67.4742 0.115855 67.5103C0.15199 67.5465 0.194897 67.5751 0.242122 67.5947C0.289346 67.6142 0.339958 67.6242 0.391059 67.6241H50.1809C50.232 67.6242 50.2826 67.6142 50.3299 67.5947C50.3771 67.5751 50.42 67.5465 50.4561 67.5103C50.4923 67.4742 50.5209 67.4313 50.5404 67.3841C50.56 67.3369 50.57 67.2862 50.5699 67.2351V41.6919C50.57 41.6408 50.56 41.5902 50.5404 41.543C50.5209 41.4957 50.4923 41.4528 50.4561 41.4167C50.42 41.3806 50.3771 41.3519 50.3299 41.3324C50.2826 41.3129 50.232 41.3028 50.1809 41.3029Z" fill="#3F3D56"/>
<path opacity="0.2" d="M50.1789 65.7191H0.388984C0.337882 65.7191 0.287271 65.7091 0.240046 65.6896C0.192822 65.6701 0.149912 65.6414 0.113778 65.6053C0.0776443 65.5691 0.0489957 65.5262 0.0294717 65.479C0.0099476 65.4318 -6.79249e-05 65.3812 3.46693e-07 65.3301V67.1453C-6.79249e-05 67.1964 0.0099476 67.247 0.0294717 67.2943C0.0489957 67.3415 0.0776443 67.3844 0.113778 67.4205C0.149912 67.4567 0.192822 67.4853 0.240046 67.5048C0.287271 67.5244 0.337882 67.5344 0.388984 67.5343H50.1789C50.23 67.5344 50.2806 67.5244 50.3278 67.5048C50.375 67.4853 50.4179 67.4567 50.4541 67.4205C50.4902 67.3844 50.5188 67.3415 50.5384 67.2943C50.5579 67.247 50.5679 67.1964 50.5678 67.1453V65.3301C50.5679 65.3812 50.5579 65.4318 50.5384 65.479C50.5188 65.5262 50.4902 65.5691 50.4541 65.6053C50.4179 65.6414 50.375 65.6701 50.3278 65.6896C50.2806 65.7091 50.23 65.7191 50.1789 65.7191Z" fill="black"/>
<path opacity="0.2" d="M50.5699 53.2318H0.0020752V58.1589H50.5699V53.2318Z" fill="black"/>
<path opacity="0.2" d="M50.5699 50.7682H0.0020752V55.6953H50.5699V50.7682Z" fill="black"/>
<path d="M50.5699 51.9351H0.0020752V56.8622H50.5699V51.9351Z" fill="url(#paint7_linear)"/>
<path d="M25.286 64.2529C30.7284 64.2529 35.1403 59.841 35.1403 54.3987C35.1403 48.9563 30.7284 44.5444 25.286 44.5444C19.8437 44.5444 15.4318 48.9563 15.4318 54.3987C15.4318 59.841 19.8437 64.2529 25.286 64.2529Z" fill="url(#paint8_linear)"/>
<path opacity="0.2" d="M32.8764 48.1147C34.13 50.2505 34.5334 52.7799 34.0063 55.1997C33.4793 57.6194 32.0605 59.7519 30.0322 61.1729C28.004 62.5938 25.5151 63.1989 23.0609 62.8678C20.6067 62.5367 18.3671 61.2936 16.788 59.386C17.4767 60.5596 18.401 61.5778 19.5026 62.3765C20.6043 63.1752 21.8594 63.7371 23.189 64.0268C24.5186 64.3164 25.8937 64.3275 27.2278 64.0595C28.5618 63.7914 29.8259 63.2499 30.9404 62.4691C32.0548 61.6884 32.9955 60.6852 33.7031 59.523C34.4107 58.3607 34.8699 57.0644 35.0518 55.7159C35.2337 54.3674 35.1343 52.9958 34.7599 51.6876C34.3855 50.3794 33.7442 49.1629 32.8764 48.1147Z" fill="black"/>
<path d="M25.286 61.7321C29.3361 61.7321 32.6194 58.4488 32.6194 54.3987C32.6194 50.3486 29.3361 47.0653 25.286 47.0653C21.2359 47.0653 17.9526 50.3486 17.9526 54.3987C17.9526 58.4488 21.2359 61.7321 25.286 61.7321Z" fill="#3F3D56"/>
<path d="M30.9911 54.3987C30.9922 55.1732 30.8347 55.9397 30.5282 56.6509C30.364 57.0345 30.1574 57.3985 29.9123 57.7362C29.429 58.4066 28.8059 58.9641 28.0859 59.3699C27.366 59.7758 26.5665 60.0204 25.7427 60.0868C24.9189 60.1532 24.0905 60.0398 23.3148 59.7545C22.5392 59.4691 21.8348 59.0187 21.2504 58.4343C20.666 57.8499 20.2155 57.1455 19.9302 56.3699C19.6449 55.5942 19.5315 54.7658 19.5979 53.942C19.6643 53.1182 19.9089 52.3187 20.3148 51.5988C20.7206 50.8788 21.2781 50.2557 21.9485 49.7724C22.2862 49.5273 22.6502 49.3207 23.0338 49.1565C23.9016 48.7838 24.8485 48.6324 25.7893 48.7158C26.7301 48.7992 27.6355 49.1149 28.4243 49.6345C29.213 50.1541 29.8604 50.8614 30.3084 51.6929C30.7564 52.5245 30.991 53.4542 30.9911 54.3987Z" fill="white"/>
<path opacity="0.2" d="M30.9302 53.5676C30.7175 52.1171 29.9537 50.8044 28.7976 49.9027C29.2986 50.6871 29.6 51.5822 29.6757 52.5098C29.7513 53.4374 29.5989 54.3695 29.2317 55.2247C29.0675 55.6083 28.8609 55.9723 28.6158 56.31C28.1669 56.9327 27.5969 57.4584 26.94 57.8555C26.283 58.2526 25.5526 58.5129 24.7926 58.6209C24.0326 58.7289 23.2586 58.6823 22.517 58.4839C21.7755 58.2855 21.0816 57.9394 20.4771 57.4664C20.9774 58.2517 21.6625 58.9025 22.4724 59.362C23.2823 59.8215 24.1924 60.0757 25.1232 60.1023C26.054 60.129 26.9771 59.9272 27.812 59.5148C28.6468 59.1023 29.368 58.4917 29.9124 57.7362C30.1575 57.3986 30.3641 57.0346 30.5283 56.651C30.9451 55.6802 31.0842 54.6128 30.9302 53.5676V53.5676Z" fill="black"/>
<defs>
<linearGradient id="paint0_linear" x1="72.3313" y1="53.2279" x2="75.8921" y2="56.7887" gradientUnits="userSpaceOnUse">
<stop stop-color="#1DE9B6"/>
<stop offset="1" stop-color="#03A9F4"/>
</linearGradient>
<linearGradient id="paint1_linear" x1="89.197" y1="53.2279" x2="92.7578" y2="56.7887" gradientUnits="userSpaceOnUse">
<stop stop-color="#1DE9B6"/>
<stop offset="1" stop-color="#03A9F4"/>
</linearGradient>
<linearGradient id="paint2_linear" x1="75.9314" y1="51.5963" x2="81.1904" y2="56.8553" gradientUnits="userSpaceOnUse">
<stop stop-color="#1DE9B6"/>
<stop offset="1" stop-color="#03A9F4"/>
</linearGradient>
<linearGradient id="paint3_linear" x1="82.5537" y1="50.5591" x2="87.8127" y2="55.8181" gradientUnits="userSpaceOnUse">
<stop stop-color="#1DE9B6"/>
<stop offset="1" stop-color="#03A9F4"/>
</linearGradient>
<linearGradient id="paint4_linear" x1="65.3773" y1="50.5591" x2="70.6363" y2="55.8181" gradientUnits="userSpaceOnUse">
<stop stop-color="#1DE9B6"/>
<stop offset="1" stop-color="#03A9F4"/>
</linearGradient>
<linearGradient id="paint5_linear" x1="55.9313" y1="85.6663" x2="66.8374" y2="103.679" gradientUnits="userSpaceOnUse">
<stop stop-color="#1DE9B6"/>
<stop offset="1" stop-color="#03A9F4"/>
</linearGradient>
<linearGradient id="paint6_linear" x1="2.12589" y1="39.5681" x2="5.13925" y2="42.5815" gradientUnits="userSpaceOnUse">
<stop stop-color="#1DE9B6"/>
<stop offset="1" stop-color="#03A9F4"/>
</linearGradient>
<linearGradient id="paint7_linear" x1="-24.4814" y1="54.3206" x2="-23.5604" y2="63.7732" gradientUnits="userSpaceOnUse">
<stop stop-color="#1DE9B6"/>
<stop offset="1" stop-color="#03A9F4"/>
</linearGradient>
<linearGradient id="paint8_linear" x1="5.88947" y1="54.0867" x2="24.9741" y2="73.1713" gradientUnits="userSpaceOnUse">
<stop stop-color="#1DE9B6"/>
<stop offset="1" stop-color="#03A9F4"/>
</linearGradient>
</defs>
</svg>
