<svg width="99" height="100" viewBox="0 0 99 100" fill="none" xmlns="http://www.w3.org/2000/svg">
<path d="M64.8006 40.3217C64.7093 40.3217 64.6217 40.3581 64.5572 40.4226C64.4926 40.4872 64.4563 40.5748 64.4562 40.6661V64.3111C64.4563 64.4024 64.4926 64.49 64.5572 64.5545C64.6217 64.6191 64.7093 64.6554 64.8006 64.6555H97.742C97.8333 64.6554 97.9208 64.6191 97.9854 64.5545C98.05 64.49 98.0863 64.4024 98.0864 64.3111V40.6661C98.0863 40.5748 98.05 40.4872 97.9854 40.4226C97.9208 40.3581 97.8333 40.3217 97.742 40.3217H64.8006Z" fill="#E6E6E6"/>
<path d="M95.9228 42.4365V59.2406C95.9228 59.3527 95.8783 59.4602 95.799 59.5394C95.7197 59.6187 95.6122 59.6632 95.5001 59.6633H66.9747C66.9547 59.6635 66.9347 59.6618 66.9151 59.6581C66.8144 59.6439 66.7223 59.5938 66.6556 59.5171C66.5889 59.4404 66.5521 59.3422 66.552 59.2406V42.4365C66.552 42.3244 66.5966 42.2169 66.6758 42.1376C66.7551 42.0584 66.8626 42.0138 66.9747 42.0138H95.5001C95.6122 42.0138 95.7197 42.0584 95.799 42.1376C95.8783 42.2169 95.9228 42.3244 95.9228 42.4365Z" fill="white"/>
<path d="M90.0105 49.7037C90.8568 49.7037 91.5429 49.0176 91.5429 48.1712C91.5429 47.3249 90.8568 46.6388 90.0105 46.6388C89.1641 46.6388 88.478 47.3249 88.478 48.1712C88.478 49.0176 89.1641 49.7037 90.0105 49.7037Z" fill="#F6DBC6"/>
<path d="M65.4407 41.6766C65.7197 41.6766 65.9459 41.4504 65.9459 41.1714C65.9459 40.8923 65.7197 40.6661 65.4407 40.6661C65.1616 40.6661 64.9354 40.8923 64.9354 41.1714C64.9354 41.4504 65.1616 41.6766 65.4407 41.6766Z" fill="#3F3D56"/>
<path d="M97.0348 41.6766C97.3138 41.6766 97.54 41.4504 97.54 41.1714C97.54 40.8923 97.3138 40.6661 97.0348 40.6661C96.7557 40.6661 96.5295 40.8923 96.5295 41.1714C96.5295 41.4504 96.7557 41.6766 97.0348 41.6766Z" fill="#3F3D56"/>
<path d="M65.4407 64.3111C65.7197 64.3111 65.9459 64.0849 65.9459 63.8059C65.9459 63.5269 65.7197 63.3007 65.4407 63.3007C65.1616 63.3007 64.9354 63.5269 64.9354 63.8059C64.9354 64.0849 65.1616 64.3111 65.4407 64.3111Z" fill="#3F3D56"/>
<path d="M97.0348 64.3111C97.3138 64.3111 97.54 64.0849 97.54 63.8059C97.54 63.5269 97.3138 63.3007 97.0348 63.3007C96.7557 63.3007 96.5295 63.5269 96.5295 63.8059C96.5295 64.0849 96.7557 64.3111 97.0348 64.3111Z" fill="#3F3D56"/>
<path d="M75.9503 54.1871C76.9657 54.1871 77.7889 53.3639 77.7889 52.3485C77.7889 51.3331 76.9657 50.5099 75.9503 50.5099C74.9349 50.5099 74.1117 51.3331 74.1117 52.3485C74.1117 53.3639 74.9349 54.1871 75.9503 54.1871Z" fill="#C6E0F6"/>
<path d="M76.1276 57.8864H75.7511L75.9228 52.0715L76.1276 57.8864Z" fill="#3F3D56"/>
<path d="M75.9559 53.1736L76.3602 52.6143L75.9503 53.3121L75.9061 53.2346L75.9559 53.1736Z" fill="#3F3D56"/>
<path d="M75.9115 53.7386L75.5072 53.1792L75.9171 53.8769L75.9614 53.7994L75.9115 53.7386Z" fill="#3F3D56"/>
<path d="M92.816 54.1871C93.8315 54.1871 94.6546 53.3639 94.6546 52.3485C94.6546 51.3331 93.8315 50.5099 92.816 50.5099C91.8006 50.5099 90.9774 51.3331 90.9774 52.3485C90.9774 53.3639 91.8006 54.1871 92.816 54.1871Z" fill="#C6E0F6"/>
<path d="M92.9932 57.8864H92.6167L92.7884 52.0715L92.9932 57.8864Z" fill="#3F3D56"/>
<path d="M92.8216 53.1736L93.2259 52.6143L92.8162 53.3121L92.7719 53.2346L92.8216 53.1736Z" fill="#3F3D56"/>
<path d="M92.7775 53.7386L92.3732 53.1792L92.7829 53.8769L92.8272 53.7994L92.7775 53.7386Z" fill="#3F3D56"/>
<path d="M81.2764 53.4601C82.7761 53.4601 83.9919 52.2444 83.9919 50.7447C83.9919 49.2449 82.7761 48.0292 81.2764 48.0292C79.7767 48.0292 78.5609 49.2449 78.5609 50.7447C78.5609 52.2444 79.7767 53.4601 81.2764 53.4601Z" fill="#C6E0F6"/>
<path d="M81.5382 58.9237H80.9821L81.2355 50.3356L81.5382 58.9237Z" fill="#3F3D56"/>
<path d="M81.2847 51.9633L81.8818 51.1372L81.2765 52.1678L81.2111 52.0533L81.2847 51.9633Z" fill="#3F3D56"/>
<path d="M81.2192 52.7976L80.6221 51.9714L81.2273 53.0021L81.2928 52.8876L81.2192 52.7976Z" fill="#3F3D56"/>
<path d="M87.8987 52.4228C89.3984 52.4228 90.6142 51.207 90.6142 49.7073C90.6142 48.2076 89.3984 46.9918 87.8987 46.9918C86.399 46.9918 85.1832 48.2076 85.1832 49.7073C85.1832 51.207 86.399 52.4228 87.8987 52.4228Z" fill="#C6E0F6"/>
<path d="M88.1605 57.8864H87.6044L87.8579 49.2983L88.1605 57.8864Z" fill="#3F3D56"/>
<path d="M87.9069 50.9259L88.5039 50.0999L87.8986 51.1304L87.8333 51.0159L87.9069 50.9259Z" fill="#3F3D56"/>
<path d="M87.8413 51.7603L87.2443 50.9341L87.8495 51.9648L87.915 51.8503L87.8413 51.7603Z" fill="#3F3D56"/>
<path d="M70.7223 52.4228C72.222 52.4228 73.4378 51.207 73.4378 49.7073C73.4378 48.2076 72.222 46.9918 70.7223 46.9918C69.2226 46.9918 68.0068 48.2076 68.0068 49.7073C68.0068 51.207 69.2226 52.4228 70.7223 52.4228Z" fill="#C6E0F6"/>
<path d="M70.9841 57.8864H70.4279L70.6815 49.2983L70.9841 57.8864Z" fill="#3F3D56"/>
<path d="M70.7305 50.9259L71.3276 50.0999L70.7223 51.1304L70.6569 51.0159L70.7305 50.9259Z" fill="#3F3D56"/>
<path d="M70.6652 51.7603L70.0681 50.9341L70.6734 51.9648L70.7387 51.8503L70.6652 51.7603Z" fill="#3F3D56"/>
<path d="M81.428 59.6632H66.9747C66.9547 59.6634 66.9347 59.6617 66.9151 59.658C66.8144 59.6437 66.7223 59.5937 66.6556 59.517C66.5889 59.4403 66.5521 59.3421 66.552 59.2405V55.632C67.912 55.4054 69.2887 55.2935 70.6675 55.2975C75.7981 55.2975 80.0899 56.7678 81.1661 58.7361C81.3285 59.0188 81.4185 59.3373 81.428 59.6632Z" fill="#3F3D56"/>
<path d="M95.9228 58.4223V59.2405C95.9228 59.3526 95.8783 59.4601 95.799 59.5394C95.7197 59.6186 95.6122 59.6632 95.5001 59.6632H79.509C80.0234 59.2907 80.5795 58.9795 81.1661 58.7361C83.1253 57.8959 85.8884 57.3721 88.9497 57.3721C91.6103 57.3721 94.044 57.7662 95.9228 58.4223Z" fill="#3F3D56"/>
<path d="M83.1288 0C83.0725 7.78126e-05 83.0171 0.0139926 82.9675 0.0405191L53.8845 15.5105C53.804 15.5535 53.7438 15.6267 53.7172 15.7141C53.6905 15.8014 53.6996 15.8957 53.7423 15.9764L64.8465 36.8518C64.8895 36.9324 64.9627 36.9926 65.05 37.0193C65.1374 37.046 65.2317 37.037 65.3124 36.9942L94.3953 21.5242C94.4758 21.4812 94.5361 21.408 94.5627 21.3207C94.5894 21.2334 94.5804 21.139 94.5376 21.0583L83.4333 0.182905C83.4122 0.142878 83.3833 0.107444 83.3484 0.0786551C83.3135 0.0498664 83.2732 0.0282959 83.2299 0.0151937C83.1971 0.00515699 83.1631 3.66408e-05 83.1288 0Z" fill="#E6E6E6"/>
<path d="M82.3549 2.76178L90.2462 17.597C90.2723 17.6461 90.2884 17.6998 90.2938 17.7551C90.2991 17.8104 90.2935 17.8662 90.2773 17.9193C90.2611 17.9725 90.2345 18.0219 90.1992 18.0648C90.1638 18.1076 90.1204 18.1431 90.0713 18.1692L64.8876 31.5651C64.8697 31.5748 64.8511 31.583 64.8318 31.5895C64.7362 31.6239 64.6313 31.6228 64.5365 31.5862C64.4416 31.5496 64.3631 31.4801 64.3154 31.3903L56.4241 16.5551C56.398 16.506 56.3818 16.4523 56.3765 16.397C56.3711 16.3417 56.3767 16.2859 56.393 16.2328C56.4092 16.1796 56.4357 16.1302 56.4711 16.0873C56.5064 16.0445 56.5499 16.009 56.5989 15.9829L81.7827 2.58696C81.8317 2.56085 81.8854 2.54466 81.9408 2.53931C81.9961 2.53397 82.0519 2.53958 82.105 2.55581C82.1581 2.57205 82.2076 2.59859 82.2504 2.63393C82.2933 2.66927 82.3288 2.71272 82.3549 2.76178Z" fill="white"/>
<path d="M65.5226 22.0603C67.5724 22.0603 69.2341 20.3986 69.2341 18.3488C69.2341 16.299 67.5724 14.6373 65.5226 14.6373C63.4728 14.6373 61.8112 16.299 61.8112 18.3488C61.8112 20.3986 63.4728 22.0603 65.5226 22.0603Z" fill="#F6DBC6"/>
<path d="M81.1694 22.9807L65.0947 31.5313C65.0747 31.5423 65.0538 31.5514 65.0321 31.5585L65.6298 14.3457C65.6326 14.239 65.6637 14.1349 65.7198 14.0442C65.776 13.9534 65.8552 13.8792 65.9494 13.829C66.0437 13.7789 66.1495 13.7547 66.2562 13.7589C66.3628 13.7631 66.4664 13.7955 66.5565 13.8528L76.3595 19.976L76.8289 20.2689L81.1694 22.9807Z" fill="#3F3D56"/>
<path opacity="0.2" d="M81.1694 22.9807L75.6812 25.9L76.2937 20.5536L76.3376 20.1685L76.3595 19.976L76.8289 20.2689L81.1694 22.9807Z" fill="black"/>
<path d="M90.1197 18.2198L76.2164 25.6153L76.829 20.2688L76.8729 19.8837L77.6709 12.9164C77.7232 12.4597 78.2659 12.1443 78.6918 12.2924C78.7206 12.3027 78.7487 12.3147 78.7759 12.3286L90.1197 18.2198Z" fill="#3F3D56"/>
<path d="M54.8487 16.4653C55.1278 16.4653 55.354 16.2391 55.354 15.9601C55.354 15.681 55.1278 15.4548 54.8487 15.4548C54.5697 15.4548 54.3435 15.681 54.3435 15.9601C54.3435 16.2391 54.5697 16.4653 54.8487 16.4653Z" fill="#3F3D56"/>
<path d="M82.7422 1.62803C83.0212 1.62803 83.2474 1.40182 83.2474 1.12279C83.2474 0.843756 83.0212 0.617554 82.7422 0.617554C82.4631 0.617554 82.2369 0.843756 82.2369 1.12279C82.2369 1.40182 82.4631 1.62803 82.7422 1.62803Z" fill="#3F3D56"/>
<path d="M65.4784 36.4488C65.7574 36.4488 65.9836 36.2226 65.9836 35.9436C65.9836 35.6646 65.7574 35.4384 65.4784 35.4384C65.1993 35.4384 64.9731 35.6646 64.9731 35.9436C64.9731 36.2226 65.1993 36.4488 65.4784 36.4488Z" fill="#3F3D56"/>
<path d="M93.3718 21.6114C93.6508 21.6114 93.8771 21.3852 93.8771 21.1062C93.8771 20.8272 93.6508 20.601 93.3718 20.601C93.0928 20.601 92.8666 20.8272 92.8666 21.1062C92.8666 21.3852 93.0928 21.6114 93.3718 21.6114Z" fill="#3F3D56"/>
<path d="M90.1709 99.9885C90.2591 100.012 90.3531 99.9992 90.4321 99.9534C90.5111 99.9076 90.5687 99.8323 90.5923 99.7441L96.6709 76.8937C96.6944 76.8054 96.6818 76.7114 96.636 76.6324C96.5901 76.5534 96.5148 76.4958 96.4265 76.4723L64.5922 68.0038C64.5039 67.9804 64.4099 67.993 64.3309 68.0388C64.2519 68.0846 64.1943 68.16 64.1708 68.2482L58.0923 91.0986C58.0806 91.1423 58.0777 91.1879 58.0837 91.2327C58.0897 91.2776 58.1045 91.3208 58.1272 91.3599C58.1499 91.399 58.18 91.4333 58.216 91.4608C58.2519 91.4883 58.2929 91.5084 58.3367 91.52L90.1709 99.9885Z" fill="#E6E6E6"/>
<path d="M94.1248 78.0485L89.8049 94.2878C89.7761 94.3961 89.7054 94.4886 89.6084 94.5448C89.5114 94.601 89.3961 94.6164 89.2877 94.5876L61.721 87.2545C61.7016 87.2496 61.6827 87.2427 61.6647 87.2341C61.5711 87.1945 61.4949 87.1224 61.4502 87.0312C61.4055 86.9399 61.3952 86.8355 61.4212 86.7373L65.7411 70.498C65.7699 70.3896 65.8406 70.2972 65.9376 70.241C66.0346 70.1848 66.1499 70.1694 66.2582 70.1981L93.825 77.5313C93.9333 77.5602 94.0257 77.6309 94.082 77.7278C94.1382 77.8248 94.1536 77.9402 94.1248 78.0485Z" fill="white"/>
<path d="M90.4186 91.9808L89.8049 94.2876C89.7761 94.396 89.7054 94.4884 89.6084 94.5446C89.5114 94.6009 89.3961 94.6163 89.2877 94.5875L61.721 87.2543C61.7016 87.2494 61.6827 87.2426 61.6647 87.2339C61.5711 87.1943 61.4949 87.1223 61.4502 87.031C61.4055 86.9397 61.3952 86.8354 61.4212 86.7371L62.0348 84.4303L90.4186 91.9808Z" fill="#3F3D56"/>
<path d="M78.2383 90.2166L73.8527 89.0499L73.7193 89.5511L78.1049 90.7178L78.2383 90.2166Z" fill="#CCCCCC"/>
<path d="M68.1514 87.5333L63.7657 86.3667L63.6324 86.8679L68.018 88.0346L68.1514 87.5333Z" fill="#CCCCCC"/>
<path d="M88.3252 92.8999L83.9396 91.7333L83.8062 92.2345L88.1919 93.4011L88.3252 92.8999Z" fill="#CCCCCC"/>
<path d="M64.9922 69.4948C65.2712 69.4948 65.4974 69.2686 65.4974 68.9896C65.4974 68.7106 65.2712 68.4844 64.9922 68.4844C64.7131 68.4844 64.4869 68.7106 64.4869 68.9896C64.4869 69.2686 64.7131 69.4948 64.9922 69.4948Z" fill="#3F3D56"/>
<path d="M95.5245 77.6169C95.8036 77.6169 96.0298 77.3907 96.0298 77.1117C96.0298 76.8326 95.8036 76.6064 95.5245 76.6064C95.2455 76.6064 95.0193 76.8326 95.0193 77.1117C95.0193 77.3907 95.2455 77.6169 95.5245 77.6169Z" fill="#3F3D56"/>
<path d="M59.1735 91.3688C59.4525 91.3688 59.6787 91.1425 59.6787 90.8635C59.6787 90.5845 59.4525 90.3583 59.1735 90.3583C58.8944 90.3583 58.6682 90.5845 58.6682 90.8635C58.6682 91.1425 58.8944 91.3688 59.1735 91.3688Z" fill="#3F3D56"/>
<path d="M89.7057 99.4908C89.9847 99.4908 90.2109 99.2646 90.2109 98.9856C90.2109 98.7066 89.9847 98.4803 89.7057 98.4803C89.4266 98.4803 89.2004 98.7066 89.2004 98.9856C89.2004 99.2646 89.4266 99.4908 89.7057 99.4908Z" fill="#3F3D56"/>
<path d="M83.6395 90.9285L86.0767 91.5782L86.1798 91.1914L83.7427 90.5417L83.6395 90.9285Z" fill="#3F3D56"/>
<path d="M66.0957 85.9404L66.5677 86.1905L85.6779 91.2851L85.9563 90.9304C86.4388 90.3232 86.7429 89.5939 86.8348 88.8239C86.8996 88.249 86.8395 87.6446 86.4345 87.2813L87.0891 81.4064L76.5199 78.5746L71.551 80.786C71.551 80.786 69.6304 80.238 68.2348 81.2643C67.7275 81.649 67.3478 82.1776 67.1451 82.7812L66.9231 83.4491L66.0957 85.9404Z" fill="#C6E0F6"/>
<path d="M70.3188 89.4047C71.6675 89.4047 72.7609 88.3113 72.7609 86.9626C72.7609 85.6138 71.6675 84.5204 70.3188 84.5204C68.97 84.5204 67.8766 85.6138 67.8766 86.9626C67.8766 88.3113 68.97 89.4047 70.3188 89.4047Z" fill="#3F3D56"/>
<path d="M70.3188 88.248C71.0287 88.248 71.6042 87.6725 71.6042 86.9626C71.6042 86.2527 71.0287 85.6772 70.3188 85.6772C69.6089 85.6772 69.0334 86.2527 69.0334 86.9626C69.0334 87.6725 69.6089 88.248 70.3188 88.248Z" fill="#CCCCCC"/>
<path d="M81.9629 92.509C83.3117 92.509 84.4051 91.4156 84.4051 90.0668C84.4051 88.718 83.3117 87.6246 81.9629 87.6246C80.6142 87.6246 79.5208 88.718 79.5208 90.0668C79.5208 91.4156 80.6142 92.509 81.9629 92.509Z" fill="#3F3D56"/>
<path d="M81.9628 91.3522C82.6727 91.3522 83.2482 90.7767 83.2482 90.0669C83.2482 89.357 82.6727 88.7815 81.9628 88.7815C81.253 88.7815 80.6775 89.357 80.6775 90.0669C80.6775 90.7767 81.253 91.3522 81.9628 91.3522Z" fill="#CCCCCC"/>
<path d="M73.2793 80.8327L78.9878 82.3539L79.6847 82.5393L80.8612 82.8532L80.8841 82.7673L81.1601 81.7328L81.47 80.5712L80.6872 80.363L79.9904 80.1768L78.7562 79.8476L78.0593 79.6621L76.6343 79.2822L73.2793 80.8327Z" fill="white"/>
<path d="M81.7897 83.1011L84.8066 83.9054L84.9649 83.3135L85.2401 82.2789L85.4154 81.6235L84.9736 81.5059L84.2768 81.3197L82.3976 80.819L81.7897 83.1011Z" fill="white"/>
<path d="M79.8248 85.1881L80.2117 85.2913L80.4076 84.5563L80.0208 84.4531L79.8248 85.1881Z" fill="#3F3D56"/>
<path d="M74.5479 82.2893L74.651 81.9025L73.916 81.7065L73.8129 82.0934L74.5479 82.2893Z" fill="#3F3D56"/>
<path d="M74.3348 82.0005L74.2923 81.9891C74.0779 81.932 73.8949 81.792 73.7837 81.5999C73.6725 81.4079 73.6422 81.1795 73.6993 80.9651C73.7565 80.7507 73.8965 80.5677 74.0885 80.4565C74.2806 80.3453 74.5089 80.315 74.7234 80.3721L74.7659 80.3835L74.3348 82.0005Z" fill="#3F3D56"/>
<path d="M66.9231 83.4491C67.2072 83.5588 67.5209 83.5646 67.809 83.4657C68.097 83.3668 68.3408 83.1693 68.4976 82.9082C68.6544 82.6471 68.7139 82.3391 68.6659 82.0383C68.6178 81.7376 68.4651 81.4635 68.2348 81.2643C67.7275 81.649 67.3478 82.1776 67.1451 82.7811L66.9231 83.4491Z" fill="#3F3D56"/>
<path d="M79.9902 80.1768L80.8839 82.7673L81.1599 81.7328L80.687 80.3629L79.9902 80.1768Z" fill="#F2F2F2"/>
<path d="M84.2769 81.3197L84.965 83.3135L85.2401 82.2789L84.9736 81.5059L84.2769 81.3197Z" fill="#F2F2F2"/>
<path d="M78.0591 79.6621L78.9876 82.3539L79.6845 82.5393L78.756 79.8475L78.0591 79.6621Z" fill="#F2F2F2"/>
<path d="M5.1885 40.2356C6.04782 40.2356 6.74444 39.539 6.74444 38.6797C6.74444 37.8204 6.04782 37.1238 5.1885 37.1238C4.32918 37.1238 3.63257 37.8204 3.63257 38.6797C3.63257 39.539 4.32918 40.2356 5.1885 40.2356Z" fill="#C6E0F6"/>
<path opacity="0.2" d="M5.84533 37.2706C6.12122 37.5205 6.29827 37.861 6.34427 38.2304C6.39027 38.5997 6.30216 38.9733 6.09598 39.2832C5.8898 39.5931 5.57925 39.8186 5.2208 39.9189C4.86235 40.0191 4.47983 39.9873 4.14282 39.8294C4.30842 39.9803 4.50468 40.0936 4.71815 40.1616C4.93163 40.2296 5.15728 40.2506 5.37964 40.2233C5.60201 40.1959 5.81584 40.1209 6.00648 40.0032C6.19713 39.8855 6.36009 39.728 6.4842 39.5415C6.6083 39.355 6.69063 39.1438 6.72553 38.9225C6.76044 38.7012 6.7471 38.475 6.68642 38.2593C6.62575 38.0436 6.51917 37.8436 6.374 37.673C6.22883 37.5023 6.04849 37.3651 5.84533 37.2706Z" fill="black"/>
<path d="M45.1891 41.9212C47.3016 41.9212 49.0141 41.2246 49.0141 40.3653C49.0141 39.5059 47.3016 38.8093 45.1891 38.8093C43.0766 38.8093 41.3641 39.5059 41.3641 40.3653C41.3641 41.2246 43.0766 41.9212 45.1891 41.9212Z" fill="#3F3D56"/>
<path opacity="0.2" d="M45.189 38.8093C45.0577 38.8093 44.9281 38.812 44.8 38.8173C46.7298 38.8966 48.2361 39.5594 48.2361 40.3653C48.2361 41.1712 46.7298 41.8339 44.8 41.9132C44.928 41.9185 45.0576 41.9211 45.189 41.9212C47.3015 41.9212 49.014 41.2246 49.014 40.3653C49.014 39.5059 47.3015 38.8093 45.189 38.8093Z" fill="black"/>
<path d="M50.1809 40.3653H30.9911V38.2907C30.9911 38.1876 30.9501 38.0886 30.8772 38.0157C30.8042 37.9427 30.7053 37.9017 30.6021 37.9017H19.9699C19.8667 37.9017 19.7678 37.9427 19.6948 38.0157C19.6219 38.0886 19.5809 38.1876 19.5809 38.2907V40.3653H8.43005V39.0687C8.43005 38.9655 8.38907 38.8666 8.31612 38.7936C8.24317 38.7207 8.14423 38.6797 8.04106 38.6797H2.33598C2.23281 38.6797 2.13387 38.7207 2.06092 38.7936C1.98798 38.8666 1.94699 38.9655 1.94699 39.0687V40.3653H0.391059C0.339958 40.3652 0.289346 40.3752 0.242122 40.3948C0.194897 40.4143 0.15199 40.4429 0.115855 40.4791C0.0797214 40.5152 0.0510709 40.5581 0.0315469 40.6053C0.0120228 40.6526 0.00200727 40.7032 0.00207554 40.7543V66.2975C0.00200727 66.3486 0.0120228 66.3992 0.0315469 66.4465C0.0510709 66.4937 0.0797214 66.5366 0.115855 66.5727C0.15199 66.6089 0.194897 66.6375 0.242122 66.657C0.289346 66.6766 0.339958 66.6866 0.391059 66.6865H50.1809C50.232 66.6866 50.2826 66.6766 50.3299 66.657C50.3771 66.6375 50.42 66.6089 50.4561 66.5727C50.4923 66.5366 50.5209 66.4937 50.5404 66.4465C50.56 66.3992 50.57 66.3486 50.5699 66.2975V40.7543C50.57 40.7032 50.56 40.6526 50.5404 40.6053C50.5209 40.5581 50.4923 40.5152 50.4561 40.4791C50.42 40.4429 50.3771 40.4143 50.3299 40.3948C50.2826 40.3752 50.232 40.3652 50.1809 40.3653Z" fill="#3F3D56"/>
<path opacity="0.2" d="M50.1789 64.7814H0.388984C0.337882 64.7815 0.287271 64.7715 0.240046 64.752C0.192822 64.7324 0.149912 64.7038 0.113778 64.6677C0.0776443 64.6315 0.0489957 64.5886 0.0294717 64.5414C0.0099476 64.4942 -6.79249e-05 64.4436 3.46693e-07 64.3925V66.2077C-6.79249e-05 66.2588 0.0099476 66.3094 0.0294717 66.3567C0.0489957 66.4039 0.0776443 66.4468 0.113778 66.4829C0.149912 66.5191 0.192822 66.5477 0.240046 66.5672C0.287271 66.5867 0.337882 66.5968 0.388984 66.5967H50.1789C50.23 66.5968 50.2806 66.5867 50.3278 66.5672C50.375 66.5477 50.4179 66.5191 50.4541 66.4829C50.4902 66.4468 50.5188 66.4039 50.5384 66.3567C50.5579 66.3094 50.5679 66.2588 50.5678 66.2077V64.3925C50.5679 64.4436 50.5579 64.4942 50.5384 64.5414C50.5188 64.5886 50.4902 64.6315 50.4541 64.6677C50.4179 64.7038 50.375 64.7324 50.3278 64.752C50.2806 64.7715 50.23 64.7815 50.1789 64.7814Z" fill="black"/>
<path opacity="0.2" d="M50.5699 52.2941H0.0020752V57.2212H50.5699V52.2941Z" fill="black"/>
<path opacity="0.2" d="M50.5699 49.8304H0.0020752V54.7576H50.5699V49.8304Z" fill="black"/>
<path d="M50.5699 50.9974H0.0020752V55.9246H50.5699V50.9974Z" fill="#C6E0F6"/>
<path d="M25.286 63.3153C30.7284 63.3153 35.1403 58.9034 35.1403 53.4611C35.1403 48.0187 30.7284 43.6068 25.286 43.6068C19.8437 43.6068 15.4318 48.0187 15.4318 53.4611C15.4318 58.9034 19.8437 63.3153 25.286 63.3153Z" fill="#C6E0F6"/>
<path opacity="0.2" d="M32.8764 47.1771C34.13 49.3129 34.5334 51.8423 34.0063 54.262C33.4793 56.6818 32.0605 58.8143 30.0322 60.2352C28.004 61.6562 25.5151 62.2613 23.0609 61.9302C20.6067 61.5991 18.3671 60.356 16.788 58.4484C17.4767 59.6219 18.401 60.6402 19.5026 61.4389C20.6043 62.2376 21.8594 62.7995 23.189 63.0891C24.5186 63.3788 25.8937 63.3899 27.2278 63.1218C28.5618 62.8538 29.8259 62.3123 30.9404 61.5315C32.0548 60.7507 32.9955 59.7476 33.7031 58.5853C34.4107 57.4231 34.8699 56.1268 35.0518 54.7783C35.2337 53.4298 35.1343 52.0582 34.7599 50.75C34.3855 49.4417 33.7442 48.2252 32.8764 47.1771Z" fill="black"/>
<path d="M25.286 60.7943C29.3361 60.7943 32.6194 57.5111 32.6194 53.461C32.6194 49.4108 29.3361 46.1276 25.286 46.1276C21.2359 46.1276 17.9526 49.4108 17.9526 53.461C17.9526 57.5111 21.2359 60.7943 25.286 60.7943Z" fill="#3F3D56"/>
<path d="M30.9911 53.461C30.9922 54.2354 30.8347 55.0019 30.5282 55.7132C30.364 56.0968 30.1574 56.4608 29.9123 56.7984C29.429 57.4689 28.8059 58.0263 28.0859 58.4322C27.366 58.8381 26.5665 59.0827 25.7427 59.149C24.9189 59.2154 24.0905 59.102 23.3148 58.8167C22.5392 58.5314 21.8348 58.081 21.2504 57.4966C20.666 56.9122 20.2155 56.2078 19.9302 55.4321C19.6449 54.6565 19.5315 53.8281 19.5979 53.0043C19.6643 52.1805 19.9089 51.381 20.3148 50.661C20.7206 49.9411 21.2781 49.3179 21.9485 48.8347C22.2862 48.5895 22.6502 48.3829 23.0338 48.2188C23.9016 47.846 24.8485 47.6946 25.7893 47.778C26.7301 47.8615 27.6355 48.1772 28.4243 48.6968C29.213 49.2164 29.8604 49.9237 30.3084 50.7552C30.7564 51.5867 30.991 52.5164 30.9911 53.461Z" fill="white"/>
<path opacity="0.2" d="M30.9302 52.6299C30.7175 51.1793 29.9537 49.8666 28.7976 48.965C29.2986 49.7494 29.6 50.6444 29.6757 51.5721C29.7513 52.4997 29.5989 53.4318 29.2317 54.287C29.0675 54.6706 28.8609 55.0346 28.6158 55.3722C28.1669 55.9949 27.5969 56.5206 26.94 56.9177C26.283 57.3148 25.5526 57.5752 24.7926 57.6831C24.0326 57.7911 23.2586 57.7445 22.517 57.5461C21.7755 57.3478 21.0816 57.0017 20.4771 56.5286C20.9774 57.3139 21.6625 57.9648 22.4724 58.4243C23.2823 58.8838 24.1924 59.138 25.1232 59.1646C26.054 59.1912 26.9771 58.9895 27.812 58.577C28.6468 58.1646 29.368 57.5539 29.9124 56.7985C30.1575 56.4608 30.3641 56.0968 30.5283 55.7132C30.9451 54.7425 31.0842 53.6751 30.9302 52.6299V52.6299Z" fill="black"/>
</svg>
