<svg width="120" height="120" viewBox="0 0 120 120" fill="none" xmlns="http://www.w3.org/2000/svg">
<g filter="url(#filter0_ddd)">
<rect x="20.0001" y="10.0002" width="79.6752" height="79.6752" rx="39.8376" fill="#395BA7"/>
</g>
<path fill-rule="evenodd" clip-rule="evenodd" d="M65.8747 41.8523C65.7581 44.4171 65.7581 50.2462 65.7581 50.2462C65.7581 50.2462 72.2866 50.2462 75.0846 50.2462H77.2996C76.8333 54.2099 76.2504 58.1737 75.784 62.0209H65.8747V88.8345C62.8435 89.6506 59.6959 90.0003 56.315 90.0003C55.3824 90.0003 54.4497 90.0003 53.6336 89.8838V62.0209H43.6077V50.2462H53.6336V49.3135C53.6336 46.9819 53.6336 44.6503 53.6336 42.2021C53.6336 40.6865 53.7502 39.171 53.9834 37.6554C54.5663 34.0414 56.315 31.0103 59.2295 28.9118C61.7943 27.0465 64.8254 26.2305 67.9731 26.2305C70.0716 26.2305 72.17 26.2305 74.1519 26.347C75.3177 26.4636 76.367 26.5802 77.5328 26.6968V37.1891H76.7167C74.7348 37.1891 72.6364 37.1891 70.6545 37.1891C67.8565 37.3057 65.8747 38.3549 65.7581 41.8523H65.8747Z" fill="#FEFEFE"/>
<defs>
<filter id="filter0_ddd" x="0.00012207" y="0.000244141" width="119.675" height="119.675" filterUnits="userSpaceOnUse" color-interpolation-filters="sRGB">
<feFlood flood-opacity="0" result="BackgroundImageFix"/>
<feColorMatrix in="SourceAlpha" type="matrix" values="0 0 0 0 0 0 0 0 0 0 0 0 0 0 0 0 0 0 127 0"/>
<feOffset/>
<feGaussianBlur stdDeviation="0.5"/>
<feColorMatrix type="matrix" values="0 0 0 0 0 0 0 0 0 0 0 0 0 0 0 0 0 0 0.04 0"/>
<feBlend mode="normal" in2="BackgroundImageFix" result="effect1_dropShadow"/>
<feColorMatrix in="SourceAlpha" type="matrix" values="0 0 0 0 0 0 0 0 0 0 0 0 0 0 0 0 0 0 127 0"/>
<feOffset dy="2"/>
<feGaussianBlur stdDeviation="3"/>
<feColorMatrix type="matrix" values="0 0 0 0 0 0 0 0 0 0 0 0 0 0 0 0 0 0 0.04 0"/>
<feBlend mode="normal" in2="effect1_dropShadow" result="effect2_dropShadow"/>
<feColorMatrix in="SourceAlpha" type="matrix" values="0 0 0 0 0 0 0 0 0 0 0 0 0 0 0 0 0 0 127 0"/>
<feOffset dy="10"/>
<feGaussianBlur stdDeviation="10"/>
<feColorMatrix type="matrix" values="0 0 0 0 0 0 0 0 0 0 0 0 0 0 0 0 0 0 0.04 0"/>
<feBlend mode="normal" in2="effect2_dropShadow" result="effect3_dropShadow"/>
<feBlend mode="normal" in="SourceGraphic" in2="effect3_dropShadow" result="shape"/>
</filter>
</defs>
</svg>
