<svg width="80" height="80" viewBox="0 0 80 80" fill="none" xmlns="http://www.w3.org/2000/svg">
<path d="M40 80C62.0914 80 80 62.0914 80 40C80 17.9086 62.0914 0 40 0C17.9086 0 0 17.9086 0 40C0 62.0914 17.9086 80 40 80Z" fill="#2F84C7"/>
<path d="M45.4505 29.0711H48.4389V23.8677C46.9932 23.7085 45.5396 23.6312 44.0852 23.6361C39.7774 23.6361 36.8262 26.3449 36.8262 31.3255V35.9129H32.075V41.7302H36.8175V56.3662H42.6456V41.7302H47.2068L47.9299 35.9129H42.6435V31.9022C42.6435 30.2202 43.0978 29.0624 45.4396 29.0624L45.4505 29.0711Z" fill="white"/>
</svg>
