<svg width="11" height="19" viewBox="0 0 11 19" fill="none" xmlns="http://www.w3.org/2000/svg">
<path d="M7.78643 0.375C6.5598 0.375 5.38341 0.862275 4.51606 1.72963C3.6487 2.59699 3.16143 3.77337 3.16143 5V7.575H0.686426C0.562162 7.575 0.461426 7.67574 0.461426 7.8V11.2C0.461426 11.3243 0.562162 11.425 0.686426 11.425H3.16143V18.4C3.16143 18.5243 3.26216 18.625 3.38643 18.625H6.78643C6.91069 18.625 7.01143 18.5243 7.01143 18.4V11.425H9.50835C9.61159 11.425 9.70159 11.3547 9.72663 11.2546L10.5766 7.85457C10.6121 7.71256 10.5047 7.575 10.3583 7.575H7.01143V5C7.01143 4.79446 7.09308 4.59733 7.23842 4.45199C7.38376 4.30665 7.58088 4.225 7.78643 4.225H10.3864C10.5107 4.225 10.6114 4.12426 10.6114 4V0.6C10.6114 0.475736 10.5107 0.375 10.3864 0.375H7.78643Z" fill="white"/>
</svg>
