<svg width="217" height="76" viewBox="0 0 217 76" fill="none" xmlns="http://www.w3.org/2000/svg">
<g filter="url(#filter0_dd)">
<rect x="5" y="4" width="207" height="66" rx="8" fill="#131E2D"/>
</g>
<path d="M85.2891 29.8809C85 30.2949 84.5957 30.6055 84.0762 30.8125C83.5605 31.0156 82.959 31.1172 82.2715 31.1172C81.5762 31.1172 80.959 30.9551 80.4199 30.6309C79.8809 30.3027 79.4629 29.8379 79.166 29.2363C78.873 28.6348 78.7227 27.9375 78.7148 27.1445V26.4004C78.7148 25.1152 79.0137 24.1191 79.6113 23.4121C80.2129 22.7051 81.0566 22.3516 82.1426 22.3516C83.0332 22.3516 83.75 22.5801 84.293 23.0371C84.8359 23.4902 85.168 24.1348 85.2891 24.9707H84.1641C83.9531 23.8418 83.2812 23.2773 82.1484 23.2773C81.3945 23.2773 80.8223 23.543 80.4316 24.0742C80.0449 24.6016 79.8496 25.3672 79.8457 26.3711V27.0684C79.8457 28.0254 80.0645 28.7871 80.502 29.3535C80.9395 29.916 81.5312 30.1973 82.2773 30.1973C82.6992 30.1973 83.0684 30.1504 83.3848 30.0566C83.7012 29.9629 83.9629 29.8047 84.1699 29.582V27.666H82.1953V26.752H85.2891V29.8809ZM90.0309 31.1172C89.1715 31.1172 88.4723 30.8359 87.9332 30.2734C87.3941 29.707 87.1246 28.9512 87.1246 28.0059V27.8066C87.1246 27.1777 87.2437 26.6172 87.482 26.125C87.7242 25.6289 88.0602 25.2422 88.4898 24.9648C88.9234 24.6836 89.3922 24.543 89.8961 24.543C90.7203 24.543 91.3609 24.8145 91.818 25.3574C92.275 25.9004 92.5035 26.6777 92.5035 27.6895V28.1406H88.2086C88.2242 28.7656 88.4059 29.2715 88.7535 29.6582C89.1051 30.041 89.5504 30.2324 90.0895 30.2324C90.4723 30.2324 90.7965 30.1543 91.0621 29.998C91.3277 29.8418 91.5602 29.6348 91.7594 29.377L92.4215 29.8926C91.8902 30.709 91.0934 31.1172 90.0309 31.1172ZM89.8961 25.4336C89.4586 25.4336 89.0914 25.5938 88.7945 25.9141C88.4977 26.2305 88.3141 26.6758 88.2437 27.25H91.4195V27.168C91.3883 26.6172 91.2398 26.1914 90.9742 25.8906C90.7086 25.5859 90.3492 25.4336 89.8961 25.4336ZM95.634 23.125V24.6602H96.8176V25.498H95.634V29.4297C95.634 29.6836 95.6867 29.875 95.7922 30.0039C95.8977 30.1289 96.0773 30.1914 96.3313 30.1914C96.4563 30.1914 96.6281 30.168 96.8469 30.1211V31C96.5617 31.0781 96.2844 31.1172 96.0148 31.1172C95.5305 31.1172 95.1652 30.9707 94.9191 30.6777C94.673 30.3848 94.55 29.9688 94.55 29.4297V25.498H93.3957V24.6602H94.55V23.125H95.634ZM103.043 31H101.959V24.6602H103.043V31ZM101.871 22.9785C101.871 22.8027 101.924 22.6543 102.03 22.5332C102.139 22.4121 102.299 22.3516 102.51 22.3516C102.721 22.3516 102.881 22.4121 102.991 22.5332C103.1 22.6543 103.155 22.8027 103.155 22.9785C103.155 23.1543 103.1 23.3008 102.991 23.418C102.881 23.5352 102.721 23.5938 102.51 23.5938C102.299 23.5938 102.139 23.5352 102.03 23.418C101.924 23.3008 101.871 23.1543 101.871 22.9785ZM106.654 23.125V24.6602H107.838V25.498H106.654V29.4297C106.654 29.6836 106.707 29.875 106.812 30.0039C106.918 30.1289 107.098 30.1914 107.352 30.1914C107.477 30.1914 107.648 30.168 107.867 30.1211V31C107.582 31.0781 107.305 31.1172 107.035 31.1172C106.551 31.1172 106.186 30.9707 105.939 30.6777C105.693 30.3848 105.57 29.9688 105.57 29.4297V25.498H104.416V24.6602H105.57V23.125H106.654ZM112.599 27.7715C112.599 27.1504 112.72 26.5918 112.962 26.0957C113.208 25.5996 113.548 25.2168 113.982 24.9473C114.419 24.6777 114.917 24.543 115.476 24.543C116.339 24.543 117.036 24.8418 117.568 25.4395C118.103 26.0371 118.37 26.832 118.37 27.8242V27.9004C118.37 28.5176 118.251 29.0723 118.013 29.5645C117.779 30.0527 117.441 30.4336 116.999 30.707C116.562 30.9805 116.058 31.1172 115.487 31.1172C114.628 31.1172 113.931 30.8184 113.396 30.2207C112.864 29.623 112.599 28.832 112.599 27.8477V27.7715ZM113.689 27.9004C113.689 28.6035 113.851 29.168 114.175 29.5938C114.503 30.0195 114.941 30.2324 115.487 30.2324C116.038 30.2324 116.476 30.0176 116.8 29.5879C117.124 29.1543 117.286 28.5488 117.286 27.7715C117.286 27.0762 117.12 26.5137 116.788 26.084C116.46 25.6504 116.023 25.4336 115.476 25.4336C114.941 25.4336 114.509 25.6465 114.181 26.0723C113.853 26.498 113.689 27.1074 113.689 27.9004ZM121.155 24.6602L121.19 25.457C121.675 24.8477 122.307 24.543 123.089 24.543C124.429 24.543 125.104 25.2988 125.116 26.8105V31H124.032V26.8047C124.028 26.3477 123.923 26.0098 123.716 25.791C123.513 25.5723 123.194 25.4629 122.761 25.4629C122.409 25.4629 122.1 25.5566 121.835 25.7441C121.569 25.9316 121.362 26.1777 121.214 26.4824V31H120.13V24.6602H121.155Z" fill="white"/>
<path d="M87.506 53.062C87.3287 53.23 87.0487 53.3933 86.666 53.552C86.2833 53.7107 85.8633 53.846 85.406 53.958C84.958 54.0607 84.5333 54.112 84.132 54.112C83.04 54.112 82.0927 53.8973 81.29 53.468C80.4873 53.0293 79.8667 52.4367 79.428 51.69C78.9893 50.9433 78.77 50.094 78.77 49.142C78.77 48.2553 78.91 47.4713 79.19 46.79C79.47 46.1087 79.8527 45.5393 80.338 45.082C80.8233 44.6247 81.3787 44.2793 82.004 44.046C82.6387 43.8127 83.306 43.696 84.006 43.696C84.622 43.696 85.1913 43.766 85.714 43.906C86.2367 44.046 86.6893 44.2233 87.072 44.438L86.54 45.95C86.3533 45.8473 86.12 45.7493 85.84 45.656C85.5693 45.5533 85.2893 45.474 85 45.418C84.7107 45.362 84.4493 45.334 84.216 45.334C83.0587 45.334 82.1393 45.656 81.458 46.3C80.786 46.944 80.45 47.8447 80.45 49.002C80.45 49.702 80.6087 50.3133 80.926 50.836C81.2433 51.3587 81.6773 51.7647 82.228 52.054C82.788 52.3433 83.4367 52.488 84.174 52.488C84.4913 52.488 84.7993 52.46 85.098 52.404C85.3967 52.348 85.6533 52.2593 85.868 52.138V50.444H83.95V48.876H87.506V53.062ZM90.602 48.918C90.602 48.2087 90.7374 47.5413 91.008 46.916C91.2787 46.2813 91.652 45.726 92.128 45.25C92.604 44.7647 93.1547 44.3867 93.78 44.116C94.4147 43.836 95.0914 43.696 95.81 43.696C96.5194 43.696 97.1867 43.836 97.812 44.116C98.4467 44.3867 99.002 44.7647 99.478 45.25C99.9634 45.726 100.341 46.2813 100.612 46.916C100.892 47.5413 101.032 48.2087 101.032 48.918C101.032 49.6367 100.892 50.3087 100.612 50.934C100.341 51.5593 99.9634 52.11 99.478 52.586C99.002 53.062 98.4467 53.4353 97.812 53.706C97.1867 53.9767 96.5194 54.112 95.81 54.112C95.0914 54.112 94.4147 53.9813 93.78 53.72C93.1547 53.4493 92.604 53.0807 92.128 52.614C91.652 52.138 91.2787 51.5873 91.008 50.962C90.7374 50.3273 90.602 49.646 90.602 48.918ZM92.282 48.918C92.282 49.59 92.4407 50.2013 92.758 50.752C93.0754 51.2933 93.5 51.7273 94.032 52.054C94.5734 52.3807 95.18 52.544 95.852 52.544C96.5054 52.544 97.0934 52.3807 97.616 52.054C98.148 51.7273 98.568 51.2933 98.876 50.752C99.1934 50.2013 99.352 49.59 99.352 48.918C99.352 48.2367 99.1934 47.6207 98.876 47.07C98.5587 46.5193 98.134 46.0807 97.602 45.754C97.07 45.4273 96.4727 45.264 95.81 45.264C95.1474 45.264 94.55 45.4273 94.018 45.754C93.486 46.0807 93.0614 46.524 92.744 47.084C92.436 47.6347 92.282 48.246 92.282 48.918ZM103.829 48.918C103.829 48.2087 103.964 47.5413 104.235 46.916C104.505 46.2813 104.879 45.726 105.355 45.25C105.831 44.7647 106.381 44.3867 107.007 44.116C107.641 43.836 108.318 43.696 109.037 43.696C109.746 43.696 110.413 43.836 111.039 44.116C111.673 44.3867 112.229 44.7647 112.705 45.25C113.19 45.726 113.568 46.2813 113.839 46.916C114.119 47.5413 114.259 48.2087 114.259 48.918C114.259 49.6367 114.119 50.3087 113.839 50.934C113.568 51.5593 113.19 52.11 112.705 52.586C112.229 53.062 111.673 53.4353 111.039 53.706C110.413 53.9767 109.746 54.112 109.037 54.112C108.318 54.112 107.641 53.9813 107.007 53.72C106.381 53.4493 105.831 53.0807 105.355 52.614C104.879 52.138 104.505 51.5873 104.235 50.962C103.964 50.3273 103.829 49.646 103.829 48.918ZM105.509 48.918C105.509 49.59 105.667 50.2013 105.985 50.752C106.302 51.2933 106.727 51.7273 107.259 52.054C107.8 52.3807 108.407 52.544 109.079 52.544C109.732 52.544 110.32 52.3807 110.843 52.054C111.375 51.7273 111.795 51.2933 112.103 50.752C112.42 50.2013 112.579 49.59 112.579 48.918C112.579 48.2367 112.42 47.6207 112.103 47.07C111.785 46.5193 111.361 46.0807 110.829 45.754C110.297 45.4273 109.699 45.264 109.037 45.264C108.374 45.264 107.777 45.4273 107.245 45.754C106.713 46.0807 106.288 46.524 105.971 47.084C105.663 47.6347 105.509 48.246 105.509 48.918ZM125.791 53.062C125.614 53.23 125.334 53.3933 124.951 53.552C124.568 53.7107 124.148 53.846 123.691 53.958C123.243 54.0607 122.818 54.112 122.417 54.112C121.325 54.112 120.378 53.8973 119.575 53.468C118.772 53.0293 118.152 52.4367 117.713 51.69C117.274 50.9433 117.055 50.094 117.055 49.142C117.055 48.2553 117.195 47.4713 117.475 46.79C117.755 46.1087 118.138 45.5393 118.623 45.082C119.108 44.6247 119.664 44.2793 120.289 44.046C120.924 43.8127 121.591 43.696 122.291 43.696C122.907 43.696 123.476 43.766 123.999 43.906C124.522 44.046 124.974 44.2233 125.357 44.438L124.825 45.95C124.638 45.8473 124.405 45.7493 124.125 45.656C123.854 45.5533 123.574 45.474 123.285 45.418C122.996 45.362 122.734 45.334 122.501 45.334C121.344 45.334 120.424 45.656 119.743 46.3C119.071 46.944 118.735 47.8447 118.735 49.002C118.735 49.702 118.894 50.3133 119.211 50.836C119.528 51.3587 119.962 51.7647 120.513 52.054C121.073 52.3433 121.722 52.488 122.459 52.488C122.776 52.488 123.084 52.46 123.383 52.404C123.682 52.348 123.938 52.2593 124.153 52.138V50.444H122.235V48.876H125.791V53.062ZM129.517 43.808H131.155V52.432H136.181V54H129.517V43.808ZM139.586 43.808H146.348V45.376H141.224V48.092H145.788V49.66H141.224V52.432H146.544V54H139.586V43.808ZM158.669 43.808C159.835 43.808 160.741 44.0973 161.385 44.676C162.038 45.2547 162.365 46.0573 162.365 47.084C162.365 47.4853 162.304 47.8867 162.183 48.288C162.061 48.6893 161.861 49.0533 161.581 49.38C161.31 49.7067 160.955 49.968 160.517 50.164C160.078 50.36 159.537 50.458 158.893 50.458H157.423V54H155.785V43.808H158.669ZM158.893 48.89C159.369 48.89 159.742 48.7873 160.013 48.582C160.283 48.3767 160.47 48.134 160.573 47.854C160.685 47.574 160.741 47.3267 160.741 47.112C160.741 46.8973 160.689 46.6547 160.587 46.384C160.493 46.104 160.316 45.866 160.055 45.67C159.793 45.474 159.42 45.376 158.935 45.376H157.423V48.89H158.893ZM165.593 43.808H167.231V52.432H172.257V54H165.593V43.808ZM174.598 54L179.106 43.388H179.204L183.712 54H181.836L180.898 51.606H177.188L176.208 54H174.598ZM177.762 50.206H180.352L179.078 47L177.762 50.206ZM188.063 50.696L184.297 43.808H186.299L188.931 48.834L191.507 43.808H193.509L189.687 50.696V54H188.063V50.696Z" fill="white"/>
<path d="M54.6145 43.1611C59.3619 40.5544 62.9607 38.5681 63.2709 38.4137C64.2632 37.886 65.288 36.4893 63.2709 35.4044C62.6196 35.0632 59.1132 33.1388 54.6145 30.657L48.3779 36.9554L54.6145 43.1609V43.1611Z" fill="#FFD900"/>
<path d="M48.3781 36.9553L28.5203 56.9691C28.9864 57.0308 29.5126 56.9072 30.133 56.5662C31.4355 55.8532 45.2436 48.3125 54.6147 43.1625L48.3781 36.9553Z" fill="#F43249"/>
<path d="M48.378 36.9554L54.6145 30.688C54.6145 30.688 31.5296 18.0896 30.1329 17.3459C29.6066 17.0342 29.0169 16.9416 28.4893 17.0342L48.378 36.9554Z" fill="#00EE76"/>
<path d="M48.378 36.9554L28.4893 17.0342C27.6821 17.2208 27 17.9339 27 19.3924V54.6109C27 55.9458 27.5278 56.9072 28.5202 57L48.378 36.9554Z" fill="#00D3FF"/>
<defs>
<filter id="filter0_dd" x="0" y="0" width="217" height="76" filterUnits="userSpaceOnUse" color-interpolation-filters="sRGB">
<feFlood flood-opacity="0" result="BackgroundImageFix"/>
<feColorMatrix in="SourceAlpha" type="matrix" values="0 0 0 0 0 0 0 0 0 0 0 0 0 0 0 0 0 0 127 0"/>
<feOffset dy="1"/>
<feGaussianBlur stdDeviation="2.5"/>
<feColorMatrix type="matrix" values="0 0 0 0 0 0 0 0 0 0 0 0 0 0 0 0 0 0 0.12 0"/>
<feBlend mode="normal" in2="BackgroundImageFix" result="effect1_dropShadow"/>
<feColorMatrix in="SourceAlpha" type="matrix" values="0 0 0 0 0 0 0 0 0 0 0 0 0 0 0 0 0 0 127 0"/>
<feOffset dy="2"/>
<feGaussianBlur stdDeviation="1"/>
<feColorMatrix type="matrix" values="0 0 0 0 0 0 0 0 0 0 0 0 0 0 0 0 0 0 0.14 0"/>
<feBlend mode="normal" in2="effect1_dropShadow" result="effect2_dropShadow"/>
<feBlend mode="normal" in="SourceGraphic" in2="effect2_dropShadow" result="shape"/>
</filter>
</defs>
</svg>
