<svg id="artwork" xmlns="http://www.w3.org/2000/svg" xmlns:xlink="http://www.w3.org/1999/xlink" viewBox="0 0 137.25 42.13">
  <defs>
    <linearGradient id="linear-gradient" x1="22.92" y1="189.67" x2="6.14" y2="172.88" gradientTransform="matrix(1, 0, 0, -1, 0, 199.5)" gradientUnits="userSpaceOnUse">
      <stop offset="0" stop-color="#00a0ff"/>
      <stop offset="0.01" stop-color="#00a1ff"/>
      <stop offset="0.26" stop-color="#00beff"/>
      <stop offset="0.51" stop-color="#00d2ff"/>
      <stop offset="0.76" stop-color="#00dfff"/>
      <stop offset="1" stop-color="#00e3ff"/>
    </linearGradient>
    <linearGradient id="linear-gradient-2" x1="34.96" y1="178.37" x2="10.76" y2="178.37" gradientTransform="matrix(1, 0, 0, -1, 0, 199.5)" gradientUnits="userSpaceOnUse">
      <stop offset="0" stop-color="#ffe000"/>
      <stop offset="0.41" stop-color="#ffbd00"/>
      <stop offset="0.78" stop-color="orange"/>
      <stop offset="1" stop-color="#ff9c00"/>
    </linearGradient>
    <linearGradient id="linear-gradient-3" x1="25.95" y1="176.08" x2="3.19" y2="153.32" gradientTransform="matrix(1, 0, 0, -1, 0, 199.5)" gradientUnits="userSpaceOnUse">
      <stop offset="0" stop-color="#ff3a44"/>
      <stop offset="1" stop-color="#c31162"/>
    </linearGradient>
    <linearGradient id="linear-gradient-4" x1="8.42" y1="198.2" x2="18.58" y2="188.04" gradientTransform="matrix(1, 0, 0, -1, 0, 199.5)" gradientUnits="userSpaceOnUse">
      <stop offset="0" stop-color="#32a071"/>
      <stop offset="0.07" stop-color="#2da771"/>
      <stop offset="0.48" stop-color="#15cf74"/>
      <stop offset="0.8" stop-color="#06e775"/>
      <stop offset="1" stop-color="#00f076"/>
    </linearGradient>
  </defs>
  <g>
    <rect x="-8.88" y="-8.88" width="155" height="60" style="fill: #fff;fill-opacity: 0"/>
    <rect x="1.13" y="1.12" width="135" height="40" rx="5"/>
    <path d="M131.13,1.92a4.21,4.21,0,0,1,4.2,4.21v30a4.21,4.21,0,0,1-4.2,4.2H6.13a4.21,4.21,0,0,1-4.2-4.2v-30a4.21,4.21,0,0,1,4.2-4.21h125m0-.79H6.13a5,5,0,0,0-5,5v30a5,5,0,0,0,5,5h125a5,5,0,0,0,5-5v-30a5,5,0,0,0-5-5Z" style="fill: #a6a6a6"/>
    <g>
      <path d="M48.54,11.37a2.69,2.69,0,0,1-.74,2,2.93,2.93,0,0,1-2.21.89,3.09,3.09,0,0,1-3.11-3.14A3.09,3.09,0,0,1,45.59,8a3.09,3.09,0,0,1,1.24.25,2.43,2.43,0,0,1,.93.67l-.52.53a2.06,2.06,0,0,0-1.65-.71,2.32,2.32,0,0,0-2.33,2.39,2.3,2.3,0,0,0,.7,1.74,2.39,2.39,0,0,0,3.31,0,1.84,1.84,0,0,0,.5-1.21H45.59v-.72H48.5A2.28,2.28,0,0,1,48.54,11.37Z" style="fill: #fff;stroke: #fff;stroke-miterlimit: 10;stroke-width: 0.2px"/>
      <path d="M53.15,8.86H50.42v1.9h2.46v.73H50.42v1.9h2.73v.73h-3.5v-6h3.5Z" style="fill: #fff;stroke: #fff;stroke-miterlimit: 10;stroke-width: 0.2px"/>
      <path d="M56.4,14.12h-.77V8.86H54V8.12h4.12v.74H56.4Z" style="fill: #fff;stroke: #fff;stroke-miterlimit: 10;stroke-width: 0.2px"/>
      <path d="M61.06,14.12v-6h.77v6Z" style="fill: #fff;stroke: #fff;stroke-miterlimit: 10;stroke-width: 0.2px"/>
      <path d="M65.25,14.12h-.77V8.86H62.81V8.12h4.12v.74H65.25Z" style="fill: #fff;stroke: #fff;stroke-miterlimit: 10;stroke-width: 0.2px"/>
      <path d="M74.73,13.35a3.11,3.11,0,0,1-4.4,0,3.25,3.25,0,0,1,0-4.45,3.11,3.11,0,0,1,4.4,0,3.08,3.08,0,0,1,.89,2.22A3.09,3.09,0,0,1,74.73,13.35Zm-3.83-.5a2.21,2.21,0,0,0,1.63.67,2.18,2.18,0,0,0,1.63-.67,2.34,2.34,0,0,0,.67-1.73,2.34,2.34,0,0,0-.67-1.72,2.18,2.18,0,0,0-1.63-.67,2.21,2.21,0,0,0-1.63.67,2.37,2.37,0,0,0-.66,1.72A2.38,2.38,0,0,0,70.9,12.85Z" style="fill: #fff;stroke: #fff;stroke-miterlimit: 10;stroke-width: 0.2px"/>
      <path d="M76.7,14.12v-6h.94l2.91,4.67h0l0-1.15V8.12h.78v6h-.81l-3-4.89h0l0,1.16v3.73Z" style="fill: #fff;stroke: #fff;stroke-miterlimit: 10;stroke-width: 0.2px"/>
    </g>
    <path d="M69.26,22.88a4.25,4.25,0,1,0,4.27,4.25A4.19,4.19,0,0,0,69.26,22.88Zm0,6.83a2.59,2.59,0,1,1,2.4-2.58A2.46,2.46,0,0,1,69.26,29.71ZM60,22.88a4.25,4.25,0,1,0,4.27,4.25A4.19,4.19,0,0,0,60,22.88Zm0,6.83a2.59,2.59,0,1,1,2.4-2.58A2.46,2.46,0,0,1,60,29.71ZM48.87,24.18V26h4.32a3.77,3.77,0,0,1-1,2.27,4.39,4.39,0,0,1-3.33,1.32,4.8,4.8,0,0,1,0-9.6,4.57,4.57,0,0,1,3.25,1.29L53.4,20a6.31,6.31,0,0,0-4.53-1.82,6.61,6.61,0,1,0,0,13.21,6,6,0,0,0,4.61-1.85A6,6,0,0,0,55,25.31a5.46,5.46,0,0,0-.1-1.13Zm45.31,1.4a4,4,0,0,0-3.64-2.7,4,4,0,0,0-4,4.25,4.17,4.17,0,0,0,4.23,4.25,4.25,4.25,0,0,0,3.54-1.88l-1.45-1a2.42,2.42,0,0,1-2.09,1.18,2.18,2.18,0,0,1-2.07-1.29l5.69-2.35ZM88.38,27a2.33,2.33,0,0,1,2.22-2.48,1.65,1.65,0,0,1,1.58.9Zm-4.63,4.13h1.87V18.62H83.75Zm-3.06-7.3h-.06a3,3,0,0,0-2.24-.95,4.25,4.25,0,0,0,0,8.5,2.93,2.93,0,0,0,2.24-1h.06V31c0,1.63-.87,2.5-2.27,2.5A2.36,2.36,0,0,1,76.28,32l-1.63.68a4.05,4.05,0,0,0,3.77,2.51c2.19,0,4-1.29,4-4.43V23.13H80.69Zm-2.14,5.88a2.59,2.59,0,0,1,0-5.16,2.4,2.4,0,0,1,2.27,2.6A2.38,2.38,0,0,1,78.55,29.71Zm24.38-11.09H98.46V31.13h1.87V26.39h2.6a3.89,3.89,0,1,0,0-7.77Zm0,6h-2.65V20.36H103a2.15,2.15,0,1,1,0,4.29Zm11.53-1.8a3.51,3.51,0,0,0-3.33,1.92l1.66.69a1.76,1.76,0,0,1,1.7-.92,1.8,1.8,0,0,1,2,1.61v.13a4.21,4.21,0,0,0-2-.48c-1.79,0-3.6,1-3.6,2.81a2.89,2.89,0,0,0,3.1,2.75,2.63,2.63,0,0,0,2.38-1.22h.07v1h1.8V26.31C118.31,24.09,116.65,22.85,114.51,22.85Zm-.22,6.85c-.62,0-1.47-.3-1.47-1.06,0-1,1.06-1.33,2-1.33a3.36,3.36,0,0,1,1.71.42A2.27,2.27,0,0,1,114.29,29.7Zm10.58-6.57-2.14,5.42h-.07l-2.21-5.42h-2l3.32,7.57-1.89,4.22h1.94l5.13-11.79Zm-16.81,8h1.87V18.62h-1.87Z" style="fill: #fff"/>
    <g>
      <path d="M11.56,8.66a2,2,0,0,0-.46,1.41V32.18a2,2,0,0,0,.46,1.41l.07.07L24,21.27V21L11.63,8.59Z" style="fill: url(#linear-gradient)"/>
      <path d="M28.15,25.4,24,21.27V21l4.13-4.13.1,0,4.89,2.78c1.4.8,1.4,2.1,0,2.89l-4.89,2.78Z" style="fill: url(#linear-gradient-2)"/>
      <path d="M28.25,25.35,24,21.13,11.56,33.59a1.62,1.62,0,0,0,2.08.06l14.61-8.3" style="fill: url(#linear-gradient-3)"/>
      <path d="M28.25,16.9,13.64,8.6a1.63,1.63,0,0,0-2.08.06L24,21.13Z" style="fill: url(#linear-gradient-4)"/>
      <g>
        <path d="M28.15,25.26,13.64,33.5a1.66,1.66,0,0,1-2,0h0l-.07.08h0l.07.07h0a1.68,1.68,0,0,0,2,0l14.61-8.3Z" style="isolation: isolate;opacity: 0.2"/>
        <path d="M11.56,33.44A2,2,0,0,1,11.1,32v.14a2,2,0,0,0,.46,1.41l.07-.08Z" style="isolation: isolate;opacity: 0.12"/>
      </g>
      <path d="M33.14,22.42l-5,2.84.1.09,4.89-2.78a1.76,1.76,0,0,0,1-1.44h0A1.87,1.87,0,0,1,33.14,22.42Z" style="isolation: isolate;opacity: 0.12"/>
      <path d="M13.64,8.75l19.5,11.08a1.87,1.87,0,0,1,1,1.3h0a1.76,1.76,0,0,0-1-1.45L13.64,8.6c-1.4-.79-2.54-.13-2.54,1.47v.14C11.1,8.61,12.24,8,13.64,8.75Z" style="fill: #fff;isolation: isolate;opacity: 0.25"/>
    </g>
  </g>
</svg>
