<svg width="18" height="17" viewBox="0 0 18 17" fill="none" xmlns="http://www.w3.org/2000/svg">
<path d="M12.0526 5.73682C13.3089 5.73682 14.5138 6.23588 15.4021 7.12421C16.2904 8.01254 16.7895 9.21737 16.7895 10.4737V16H13.6316V10.4737C13.6316 10.0549 13.4652 9.65328 13.1691 9.35717C12.873 9.06106 12.4714 8.89471 12.0526 8.89471C11.6339 8.89471 11.2323 9.06106 10.9362 9.35717C10.64 9.65328 10.4737 10.0549 10.4737 10.4737V16H7.3158V10.4737C7.3158 9.21737 7.81485 8.01254 8.70319 7.12421C9.59152 6.23588 10.7963 5.73682 12.0526 5.73682V5.73682Z" stroke="white" stroke-width="2" stroke-linecap="round" stroke-linejoin="round"/>
<path d="M4.15789 6.52637H1V16.0001H4.15789V6.52637Z" stroke="white" stroke-width="2" stroke-linecap="round" stroke-linejoin="round"/>
<path d="M2.57895 4.15789C3.45098 4.15789 4.15789 3.45098 4.15789 2.57895C4.15789 1.70692 3.45098 1 2.57895 1C1.70692 1 1 1.70692 1 2.57895C1 3.45098 1.70692 4.15789 2.57895 4.15789Z" stroke="white" stroke-width="2" stroke-linecap="round" stroke-linejoin="round"/>
</svg>
