<svg width="17" height="17" viewBox="0 0 17 17" fill="none" xmlns="http://www.w3.org/2000/svg">
<path d="M12.25 1H4.75C2.67893 1 1 2.67893 1 4.75V12.25C1 14.3211 2.67893 16 4.75 16H12.25C14.3211 16 16 14.3211 16 12.25V4.75C16 2.67893 14.3211 1 12.25 1Z" stroke="white" stroke-width="2" stroke-linecap="round" stroke-linejoin="round"/>
<path d="M11.5 8.02748C11.5926 8.65167 11.486 9.28914 11.1953 9.84924C10.9047 10.4093 10.4449 10.8635 9.88124 11.1472C9.3176 11.4309 8.67886 11.5297 8.05586 11.4294C7.43287 11.3292 6.85734 11.035 6.41115 10.5889C5.96496 10.1427 5.67082 9.56714 5.57058 8.94414C5.47033 8.32115 5.56907 7.6824 5.85277 7.11876C6.13647 6.55512 6.59066 6.09529 7.15076 5.80466C7.71086 5.51404 8.34834 5.40742 8.97252 5.49998C9.60922 5.5944 10.1987 5.89108 10.6538 6.34621C11.1089 6.80134 11.4056 7.39079 11.5 8.02748Z" stroke="white" stroke-width="2" stroke-linecap="round" stroke-linejoin="round"/>
<path d="M12.625 4.375H12.6325" stroke="white" stroke-width="2" stroke-linecap="round" stroke-linejoin="round"/>
</svg>
