<svg width="19" height="19" viewBox="0 0 19 19" fill="none" xmlns="http://www.w3.org/2000/svg">
<path d="M9.26923 6.33257C7.4743 6.33257 6.01923 7.78764 6.01923 9.58257C6.01923 11.3775 7.4743 12.8326 9.26923 12.8326C11.0642 12.8326 12.5192 11.3775 12.5192 9.58257C12.5192 7.78764 11.0642 6.33257 9.26923 6.33257Z" fill="white"/>
<path fill-rule="evenodd" clip-rule="evenodd" d="M4.03876 0.664034C7.48688 0.278655 11.0516 0.278655 14.4997 0.664034C16.3981 0.876208 17.9293 2.37199 18.1521 4.27704C18.5644 7.80204 18.5644 11.3631 18.1521 14.8881C17.9293 16.7931 16.3981 18.2889 14.4997 18.5011C11.0516 18.8865 7.48689 18.8865 4.03876 18.5011C2.14037 18.2889 0.609173 16.7931 0.386359 14.8881C-0.0259219 11.3631 -0.0259219 7.80204 0.386359 4.27704C0.609173 2.37199 2.14037 0.876208 4.03876 0.664034ZM14.2692 3.58257C13.7169 3.58257 13.2692 4.03028 13.2692 4.58257C13.2692 5.13485 13.7169 5.58257 14.2692 5.58257C14.8215 5.58257 15.2692 5.13485 15.2692 4.58257C15.2692 4.03028 14.8215 3.58257 14.2692 3.58257ZM4.51923 9.58257C4.51923 6.95921 6.64587 4.83257 9.26923 4.83257C11.8926 4.83257 14.0192 6.95921 14.0192 9.58257C14.0192 12.2059 11.8926 14.3326 9.26923 14.3326C6.64587 14.3326 4.51923 12.2059 4.51923 9.58257Z" fill="white"/>
</svg>
