<svg width="80" height="80" viewBox="0 0 80 80" fill="none" xmlns="http://www.w3.org/2000/svg">
<path d="M40 80C62.0914 80 80 62.0914 80 40C80 17.9086 62.0914 0 40 0C17.9086 0 0 17.9086 0 40C0 62.0914 17.9086 80 40 80Z" fill="url(#paint0_radial)"/>
<path d="M56.3309 33.2585C56.305 31.9012 56.0479 30.5582 55.5707 29.2872C55.1496 28.1999 54.5062 27.2124 53.6816 26.3879C52.8571 25.5634 51.8697 24.92 50.7824 24.4988C49.5118 24.0227 48.1697 23.7656 46.8131 23.7386C45.0656 23.6556 44.5042 23.6359 40.0609 23.6359C35.6177 23.6359 35.0607 23.6556 33.3153 23.732C31.9587 23.7584 30.6164 24.0155 29.3461 24.4922C28.2587 24.9133 27.2712 25.5567 26.4466 26.3812C25.6221 27.2057 24.9787 28.1932 24.5577 29.2806C24.0814 30.5511 23.8244 31.8932 23.7975 33.2498C23.7145 34.9974 23.6948 35.5588 23.6948 40.002C23.6948 44.4453 23.7145 45.0023 23.7909 46.7477C23.8169 48.1051 24.074 49.4481 24.5511 50.7191C24.9723 51.8064 25.6157 52.7939 26.4402 53.6184C27.2647 54.4429 28.2522 55.0863 29.3395 55.5075C30.6107 55.9838 31.9536 56.2409 33.3109 56.2677C35.0585 56.3441 35.6112 56.3638 40.0544 56.3638C44.4976 56.3638 45.0547 56.3441 46.8 56.2677C48.1567 56.2413 49.4989 55.9843 50.7693 55.5075C51.8569 55.0869 52.8447 54.4437 53.6692 53.6191C54.4938 52.7945 55.137 51.8067 55.5576 50.7191C56.0343 49.4479 56.2921 48.1051 56.32 46.7477C56.3965 45.0001 56.4161 44.4453 56.4161 40.002C56.4161 35.5588 56.4074 35.0039 56.3309 33.2585ZM53.3841 46.621C53.3728 47.6581 53.1821 48.6854 52.8205 49.6574C52.5477 50.3631 52.1305 51.0039 51.5956 51.5389C51.0607 52.0738 50.4198 52.491 49.7141 52.7638C48.7419 53.1244 47.7146 53.3144 46.6777 53.3252C44.952 53.4016 44.4321 53.4213 40.0675 53.4213C35.7029 53.4213 35.1765 53.4016 33.4551 53.3252C32.4181 53.315 31.3907 53.1251 30.4187 52.7638C29.714 52.4925 29.074 52.0765 28.5401 51.5426C28.0061 51.0086 27.5901 50.3687 27.3189 49.664C26.9583 48.6917 26.7684 47.6645 26.7575 46.6276C26.681 44.9018 26.6614 44.3841 26.6614 40.0173C26.6614 35.6505 26.681 35.1263 26.7575 33.4071C26.7676 32.3701 26.9576 31.3427 27.3189 30.3707C27.5795 29.659 27.9994 29.0164 28.5466 28.492C29.0738 27.9499 29.7157 27.5327 30.4252 27.2709C31.3974 26.9097 32.4246 26.719 33.4616 26.7073C35.1874 26.6308 35.7073 26.6112 40.0719 26.6112C44.4365 26.6112 44.9629 26.6308 46.6843 26.7073C47.7214 26.7184 48.7487 26.909 49.7207 27.2709C50.4309 27.5313 51.073 27.9487 51.5994 28.492C52.1411 29.0196 52.5582 29.6614 52.8205 30.3707C53.1814 31.3429 53.3721 32.3701 53.3841 33.4071C53.4605 35.1328 53.4802 35.6505 53.4802 40.0173C53.4802 44.3841 53.4605 44.8887 53.3841 46.621Z" fill="white"/>
<path d="M40.061 31.5963C38.398 31.5963 36.7724 32.0894 35.3897 33.0133C34.007 33.9372 32.9294 35.2503 32.293 36.7867C31.6566 38.3231 31.4901 40.0137 31.8145 41.6447C32.1389 43.2757 32.9397 44.7739 34.1156 45.9497C35.2915 47.1256 36.7897 47.9264 38.4207 48.2508C40.0517 48.5753 41.7423 48.4088 43.2787 47.7724C44.815 47.136 46.1282 46.0583 47.0521 44.6756C47.9759 43.2929 48.4691 41.6673 48.4691 40.0043C48.4685 37.7746 47.5825 35.6363 46.0058 34.0596C44.4291 32.4829 42.2908 31.5969 40.061 31.5963ZM40.061 45.4568C38.9809 45.4568 37.925 45.1365 37.0269 44.5364C36.1289 43.9363 35.4289 43.0834 35.0155 42.0855C34.6022 41.0876 34.494 39.9895 34.7047 38.9302C34.9155 37.8708 35.4356 36.8977 36.1994 36.134C36.9631 35.3702 37.9362 34.8501 38.9956 34.6393C40.055 34.4286 41.153 34.5368 42.1509 34.9501C43.1488 35.3635 44.0017 36.0634 44.6018 36.9615C45.2019 37.8596 45.5222 38.9155 45.5222 39.9956C45.5222 41.444 44.9468 42.8331 43.9227 43.8573C42.8985 44.8814 41.5094 45.4568 40.061 45.4568Z" fill="white"/>
<path d="M50.7628 31.2618C50.7628 31.6507 50.6475 32.0308 50.4314 32.3541C50.2154 32.6774 49.9083 32.9294 49.5491 33.0782C49.1898 33.227 48.7946 33.2659 48.4132 33.1901C48.0318 33.1142 47.6815 32.927 47.4065 32.652C47.1316 32.3771 46.9443 32.0268 46.8685 31.6454C46.7926 31.264 46.8316 30.8687 46.9804 30.5095C47.1292 30.1502 47.3812 29.8432 47.7045 29.6271C48.0278 29.4111 48.4079 29.2958 48.7967 29.2958C49.3182 29.2958 49.8182 29.5029 50.1869 29.8716C50.5556 30.2403 50.7628 30.7404 50.7628 31.2618Z" fill="white"/>
<defs>
<radialGradient id="paint0_radial" cx="0" cy="0" r="1" gradientUnits="userSpaceOnUse" gradientTransform="translate(-8.74132 -28.0398) rotate(38.4801) scale(166.782)">
<stop stop-color="#ECEF39"/>
<stop offset="0.241206" stop-color="#F4713C"/>
<stop offset="0.488797" stop-color="#ED2981"/>
<stop offset="1" stop-color="#3252AC"/>
</radialGradient>
</defs>
</svg>
