<svg width="181" height="100" viewBox="0 0 181 100" fill="none" xmlns="http://www.w3.org/2000/svg">
<g opacity="0.5">
<path d="M47.2701 31.3266C52.9726 31.3266 57.5954 26.7038 57.5954 21.0013C57.5954 15.2988 52.9726 10.676 47.2701 10.676C41.5676 10.676 36.9448 15.2988 36.9448 21.0013C36.9448 26.7038 41.5676 31.3266 47.2701 31.3266Z" fill="#FF6584"/>
<path d="M79.6492 52.8201H28.9964C28.933 52.821 28.8696 52.8159 28.8071 52.8051L52.7635 11.3092C52.9098 11.0507 53.1219 10.8358 53.3784 10.6862C53.6349 10.5366 53.9265 10.4578 54.2235 10.4578C54.5204 10.4578 54.812 10.5366 55.0685 10.6862C55.325 10.8358 55.5372 11.0507 55.6834 11.3092L71.7611 39.1562L72.5314 40.4887L79.6492 52.8201Z" fill="#3F3D56"/>
<path opacity="0.2" d="M79.6491 52.8198H62.355L70.8446 40.4883L71.4556 39.6L71.7611 39.156L72.5314 40.4883L79.6491 52.8198Z" fill="black"/>
<path d="M107.852 52.82H64.0415L72.5311 40.4885L73.1421 39.6002L84.2048 23.5299C84.93 22.4767 86.6748 22.4111 87.5275 23.3313C87.5848 23.394 87.638 23.4604 87.6868 23.5299L107.852 52.82Z" fill="#3F3D56"/>
<path d="M120.712 45.9935C122.431 45.9935 123.824 44.6005 123.824 42.8821C123.824 41.1638 122.431 39.7708 120.712 39.7708C118.994 39.7708 117.601 41.1638 117.601 42.8821C117.601 44.6005 118.994 45.9935 120.712 45.9935Z" fill="url(#paint0_linear)"/>
<path d="M121.012 52.2538H120.375L120.665 42.4136L121.012 52.2538Z" fill="#3F3D56"/>
<path d="M120.721 44.2784L121.406 43.3318L120.712 44.5127L120.637 44.3815L120.721 44.2784Z" fill="#3F3D56"/>
<path d="M120.647 45.2343L119.962 44.2878L120.656 45.4686L120.731 45.3374L120.647 45.2343Z" fill="#3F3D56"/>
<path d="M149.253 45.9935C150.972 45.9935 152.365 44.6005 152.365 42.8821C152.365 41.1638 150.972 39.7708 149.253 39.7708C147.535 39.7708 146.142 41.1638 146.142 42.8821C146.142 44.6005 147.535 45.9935 149.253 45.9935Z" fill="url(#paint1_linear)"/>
<path d="M149.553 52.2538H148.916L149.206 42.4136L149.553 52.2538Z" fill="#3F3D56"/>
<path d="M149.263 44.2784L149.947 43.3318L149.253 44.5127L149.178 44.3815L149.263 44.2784Z" fill="#3F3D56"/>
<path d="M149.188 45.2343L148.503 44.2878L149.197 45.4686L149.272 45.3374L149.188 45.2343Z" fill="#3F3D56"/>
<path d="M129.726 43.008C132.263 43.008 134.321 40.9507 134.321 38.4128C134.321 35.875 132.263 33.8176 129.726 33.8176C127.188 33.8176 125.13 35.875 125.13 38.4128C125.13 40.9507 127.188 43.008 129.726 43.008Z" fill="url(#paint2_linear)"/>
<path d="M130.168 52.2536H129.227L129.656 37.7205L130.168 52.2536Z" fill="#3F3D56"/>
<path d="M129.739 40.4747L130.75 39.0769L129.726 40.8209L129.615 40.627L129.739 40.4747Z" fill="#3F3D56"/>
<path d="M129.628 41.8868L128.618 40.489L129.642 42.2328L129.753 42.0391L129.628 41.8868Z" fill="#3F3D56"/>
<path d="M140.932 43.008C143.469 43.008 145.527 40.9507 145.527 38.4128C145.527 35.875 143.469 33.8176 140.932 33.8176C138.394 33.8176 136.336 35.875 136.336 38.4128C136.336 40.9507 138.394 43.008 140.932 43.008Z" fill="url(#paint3_linear)"/>
<path d="M141.374 52.2536H140.433L140.862 37.7205L141.374 52.2536Z" fill="#3F3D56"/>
<path d="M140.945 40.4747L141.956 39.0769L140.931 40.8209L140.821 40.627L140.945 40.4747Z" fill="#3F3D56"/>
<path d="M140.835 41.8868L139.824 40.489L140.849 42.2328L140.959 42.0391L140.835 41.8868Z" fill="#3F3D56"/>
<path d="M111.865 43.008C114.403 43.008 116.46 40.9507 116.46 38.4128C116.46 35.875 114.403 33.8176 111.865 33.8176C109.327 33.8176 107.27 35.875 107.27 38.4128C107.27 40.9507 109.327 43.008 111.865 43.008Z" fill="url(#paint4_linear)"/>
<path d="M112.308 52.2536H111.367L111.796 37.7205L112.308 52.2536Z" fill="#3F3D56"/>
<path d="M111.879 40.4747L112.89 39.0769L111.866 40.8209L111.755 40.627L111.879 40.4747Z" fill="#3F3D56"/>
<path d="M111.769 41.8868L110.758 40.489L111.783 42.2328L111.893 42.0391L111.769 41.8868Z" fill="#3F3D56"/>
<path d="M166.231 100H16.2689C14.3795 100 12.5086 99.628 10.763 98.905C9.01742 98.1819 7.43136 97.1222 6.09535 95.7861C4.75935 94.4501 3.69957 92.8641 2.97653 91.1185C2.25349 89.3729 1.88135 87.502 1.88135 85.6126C1.88135 83.7232 2.25349 81.8523 2.97653 80.1068C3.69957 78.3612 4.75935 76.7751 6.09535 75.4391C7.43136 74.1031 9.01742 73.0433 10.763 72.3203C12.5086 71.5973 14.3795 71.2251 16.2689 71.2251H165.899C167.367 71.2251 168.774 70.6421 169.812 69.6043C170.85 68.5666 171.433 67.1591 171.433 65.6915C171.433 64.2239 170.85 62.8163 169.812 61.7786C168.774 60.7408 167.367 60.1578 165.899 60.1578H11.2886V51.304H165.899C169.715 51.304 173.374 52.8198 176.072 55.518C178.771 58.2161 180.286 61.8757 180.286 65.6915C180.286 69.5073 178.771 73.1668 176.072 75.865C173.374 78.5632 169.715 80.079 165.899 80.079H16.2689C14.8012 80.079 13.3937 80.662 12.356 81.6998C11.3182 82.7375 10.7352 84.145 10.7352 85.6126C10.7352 87.0803 11.3182 88.4878 12.356 89.5255C13.3937 90.5633 14.8012 91.1463 16.2689 91.1463H166.231V100Z" fill="#E6E6E6"/>
<path d="M23.684 55.5095H16.8223V55.9522H23.684V55.5095Z" fill="white"/>
<path d="M43.1625 55.5095H36.3008V55.9522H43.1625V55.5095Z" fill="white"/>
<path d="M62.641 55.5095H55.7793V55.9522H62.641V55.5095Z" fill="white"/>
<path d="M82.1196 55.5095H75.2578V55.9522H82.1196V55.5095Z" fill="white"/>
<path d="M101.598 55.5095H94.7363V55.9522H101.598V55.5095Z" fill="white"/>
<path d="M121.077 55.5095H114.215V55.9522H121.077V55.5095Z" fill="white"/>
<path d="M140.555 55.5095H133.693V55.9522H140.555V55.5095Z" fill="white"/>
<path d="M160.033 55.5095H153.171V55.9522H160.033V55.5095Z" fill="white"/>
<path d="M23.684 75.4304H16.8223V75.8731H23.684V75.4304Z" fill="white"/>
<path d="M43.1625 75.4304H36.3008V75.8731H43.1625V75.4304Z" fill="white"/>
<path d="M62.641 75.4304H55.7793V75.8731H62.641V75.4304Z" fill="white"/>
<path d="M82.1196 75.4304H75.2578V75.8731H82.1196V75.4304Z" fill="white"/>
<path d="M101.598 75.4304H94.7363V75.8731H101.598V75.4304Z" fill="white"/>
<path d="M121.077 75.4304H114.215V75.8731H121.077V75.4304Z" fill="white"/>
<path d="M140.555 75.4304H133.693V75.8731H140.555V75.4304Z" fill="white"/>
<path d="M160.033 75.4304H153.171V75.8731H160.033V75.4304Z" fill="white"/>
<path d="M23.684 95.3518H16.8223V95.7945H23.684V95.3518Z" fill="white"/>
<path d="M43.1625 95.3518H36.3008V95.7945H43.1625V95.3518Z" fill="white"/>
<path d="M62.641 95.3518H55.7793V95.7945H62.641V95.3518Z" fill="white"/>
<path d="M82.1196 95.3518H75.2578V95.7945H82.1196V95.3518Z" fill="white"/>
<path d="M101.598 95.3518H94.7363V95.7945H101.598V95.3518Z" fill="white"/>
<path d="M121.077 95.3518H114.215V95.7945H121.077V95.3518Z" fill="white"/>
<path d="M140.555 95.3518H133.693V95.7945H140.555V95.3518Z" fill="white"/>
<path d="M160.033 95.3518H153.171V95.7945H160.033V95.3518Z" fill="white"/>
<path d="M120.388 17.5696C121.108 17.5689 121.818 17.7521 122.448 18.102H118.333C118.961 17.7523 119.668 17.569 120.388 17.5696Z" fill="#E6E6E6"/>
<path d="M112.402 17.0369C113.606 17.0355 114.781 17.4075 115.765 18.1016H109.043C110.026 17.4083 111.199 17.0363 112.402 17.0369Z" fill="#E6E6E6"/>
<path d="M67.1662 10.2976C67.3122 7.71523 68.3706 5.26867 70.1527 3.39411C71.9349 1.51955 74.3248 0.338841 76.8965 0.0624928C79.4682 -0.213856 82.0544 0.432119 84.1941 1.88525C86.3338 3.33837 87.8879 5.5042 88.5793 7.99657C88.7115 7.99183 88.8436 7.98651 88.977 7.98651C91.3349 7.98695 93.6293 8.75081 95.5169 10.1638C97.4045 11.5769 98.7838 13.5631 99.4486 15.8253C101.011 15.1388 102.757 14.9899 104.413 15.4018C106.069 15.8138 107.542 16.7634 108.601 18.1019H74.5568C73.5637 18.1047 72.5801 17.907 71.6651 17.5208C70.7501 17.1346 69.9225 16.5677 69.2317 15.854C68.5409 15.1404 68.0013 14.2947 67.645 13.3677C67.2888 12.4406 67.1233 11.4511 67.1584 10.4586C67.1606 10.405 67.1632 10.3513 67.1662 10.2976Z" fill="#E6E6E6"/>
<path d="M122.872 25.5378C122.151 25.5372 121.442 25.7204 120.812 26.0702H124.927C124.298 25.7205 123.591 25.5372 122.872 25.5378Z" fill="#E6E6E6"/>
<path d="M130.858 25.0056C129.654 25.0042 128.479 25.3762 127.495 26.0704H134.216C133.234 25.377 132.06 25.0051 130.858 25.0056Z" fill="#E6E6E6"/>
<path d="M176.093 18.2661C175.947 15.6837 174.889 13.2372 173.107 11.3626C171.325 9.48806 168.935 8.30735 166.363 8.031C163.791 7.75465 161.205 8.40062 159.065 9.85375C156.926 11.3069 155.372 13.4727 154.68 15.9651C154.548 15.9603 154.416 15.955 154.283 15.955C151.925 15.9555 149.63 16.7193 147.743 18.1323C145.855 19.5454 144.476 21.5316 143.811 23.7938C142.248 23.1073 140.502 22.9584 138.846 23.3703C137.19 23.7823 135.717 24.7319 134.659 26.0704H168.703C169.696 26.0732 170.679 25.8755 171.594 25.4893C172.509 25.1031 173.337 24.5362 174.028 23.8225C174.719 23.1089 175.258 22.2632 175.614 21.3362C175.971 20.4091 176.136 19.4196 176.101 18.427C176.099 18.3735 176.096 18.3198 176.093 18.2661Z" fill="#E6E6E6"/>
<path d="M153.397 93.8126L157.354 93.8147L157.354 93.1866L153.397 93.1845L153.397 93.8126Z" fill="#3F3D56"/>
<path d="M124.79 93.3264L125.606 93.5152L156.632 93.5318L156.911 92.8818C157.397 91.7668 157.564 90.5385 157.393 89.334C157.259 88.4363 156.925 87.5443 156.164 87.1568L154.787 77.9865L137.622 77.9558L130.981 83.3122C130.981 83.3122 127.849 83.2559 126.147 85.3747C125.533 86.1625 125.17 87.1169 125.106 88.1137L125.039 89.2159L124.79 93.3264Z" fill="url(#paint5_linear)"/>
<path d="M131.604 97.0043C133.719 97.0043 135.435 95.289 135.435 93.1732C135.435 91.0573 133.719 89.342 131.604 89.342C129.488 89.342 127.772 91.0573 127.772 93.1732C127.772 95.289 129.488 97.0043 131.604 97.0043Z" fill="#3F3D56"/>
<path d="M131.604 95.1895C132.717 95.1895 133.62 94.2867 133.62 93.1731C133.62 92.0595 132.717 91.1567 131.604 91.1567C130.49 91.1567 129.587 92.0595 129.587 93.1731C129.587 94.2867 130.49 95.1895 131.604 95.1895Z" fill="#CCCCCC"/>
<path d="M150.508 97.0143C152.624 97.0143 154.339 95.299 154.339 93.1832C154.339 91.0673 152.624 89.3521 150.508 89.3521C148.392 89.3521 146.677 91.0673 146.677 93.1832C146.677 95.299 148.392 97.0143 150.508 97.0143Z" fill="#3F3D56"/>
<path d="M150.508 95.1995C151.622 95.1995 152.524 94.2967 152.524 93.1831C152.524 92.0695 151.622 91.1667 150.508 91.1667C149.394 91.1667 148.492 92.0695 148.492 93.1831C148.492 94.2967 149.394 95.1995 150.508 95.1995Z" fill="#CCCCCC"/>
<path d="M133.62 82.6862L142.887 82.6901H144.019L145.929 82.6915V82.5521L145.93 80.8724L145.931 78.9865H144.661L143.529 78.9853L141.525 78.9838H140.394L138.08 78.9824L133.62 82.6862Z" fill="white"/>
<path d="M147.437 82.693L152.334 82.6957L152.336 81.7346V80.0549L152.337 78.9907H151.62L150.489 78.9893L147.438 78.988L147.437 82.693Z" fill="white"/>
<path d="M145.299 86.6486L145.927 86.6489L145.927 85.4556L145.299 85.4553L145.299 86.6486Z" fill="#3F3D56"/>
<path d="M136.131 84.3827L136.131 83.7546L134.938 83.754L134.937 84.3821L136.131 84.3827Z" fill="#3F3D56"/>
<path d="M135.691 84.0308L135.622 84.0307C135.449 84.0306 135.279 83.9966 135.12 83.9305C134.96 83.8645 134.816 83.7677 134.694 83.6458C134.572 83.5238 134.475 83.3791 134.41 83.2198C134.344 83.0605 134.31 82.8898 134.31 82.7174C134.31 82.545 134.344 82.3743 134.41 82.2151C134.476 82.0559 134.573 81.9113 134.695 81.7894C134.817 81.6676 134.962 81.571 135.121 81.5051C135.28 81.4392 135.451 81.4054 135.623 81.4055L135.692 81.4055L135.691 84.0308Z" fill="#3F3D56"/>
<path d="M125.039 89.216C125.514 89.2676 125.992 89.15 126.389 88.8839C126.785 88.6177 127.076 88.2201 127.208 87.761C127.34 87.3019 127.306 86.8109 127.112 86.3744C126.918 85.9379 126.576 85.5839 126.146 85.3748C125.533 86.1626 125.17 87.117 125.106 88.1138L125.039 89.216Z" fill="#3F3D56"/>
<path d="M143.529 78.9854L145.929 82.5522L145.93 80.8725L144.661 78.9866L143.529 78.9854Z" fill="#F2F2F2"/>
<path d="M150.489 78.9893L152.336 81.7346V80.0549L151.62 78.9907L150.489 78.9893Z" fill="#F2F2F2"/>
<path d="M140.394 78.9841L142.887 82.6903H144.019L141.525 78.9841H140.394Z" fill="#F2F2F2"/>
<path d="M10.1819 63.2564C15.8053 63.2564 20.3639 58.6978 20.3639 53.0745C20.3639 47.4512 15.8053 42.8926 10.1819 42.8926C4.55861 42.8926 0 47.4512 0 53.0745C0 58.6978 4.55861 63.2564 10.1819 63.2564Z" fill="#3F3D56"/>
<path d="M10.2242 56.14L5.12876 51.0446C4.96301 50.8785 4.86999 50.6534 4.87012 50.4187C4.87025 50.184 4.96352 49.959 5.12946 49.7931C5.29539 49.6272 5.52041 49.5339 5.75507 49.5338C5.98974 49.5336 6.21485 49.6267 6.38097 49.7924L10.1394 53.5509L22.1329 39.8742C22.2878 39.698 22.5063 39.5905 22.7404 39.5753C22.9745 39.5602 23.2051 39.6385 23.3815 39.7932C23.5578 39.9479 23.6656 40.1662 23.6811 40.4003C23.6967 40.6344 23.6186 40.8651 23.4642 41.0417L10.2242 56.14Z" fill="url(#paint6_linear)"/>
</g>
<defs>
<linearGradient id="paint0_linear" x1="114.588" y1="42.7836" x2="120.614" y2="48.8093" gradientUnits="userSpaceOnUse">
<stop stop-color="#1DE9B6"/>
<stop offset="1" stop-color="#03A9F4"/>
</linearGradient>
<linearGradient id="paint1_linear" x1="143.129" y1="42.7836" x2="149.155" y2="48.8093" gradientUnits="userSpaceOnUse">
<stop stop-color="#1DE9B6"/>
<stop offset="1" stop-color="#03A9F4"/>
</linearGradient>
<linearGradient id="paint2_linear" x1="120.681" y1="38.2674" x2="129.58" y2="47.1669" gradientUnits="userSpaceOnUse">
<stop stop-color="#1DE9B6"/>
<stop offset="1" stop-color="#03A9F4"/>
</linearGradient>
<linearGradient id="paint3_linear" x1="131.887" y1="38.2674" x2="140.786" y2="47.1669" gradientUnits="userSpaceOnUse">
<stop stop-color="#1DE9B6"/>
<stop offset="1" stop-color="#03A9F4"/>
</linearGradient>
<linearGradient id="paint4_linear" x1="102.82" y1="38.2674" x2="111.72" y2="47.1668" gradientUnits="userSpaceOnUse">
<stop stop-color="#1DE9B6"/>
<stop offset="1" stop-color="#03A9F4"/>
</linearGradient>
<linearGradient id="paint5_linear" x1="108.972" y1="85.4973" x2="120.691" y2="110.076" gradientUnits="userSpaceOnUse">
<stop stop-color="#1DE9B6"/>
<stop offset="1" stop-color="#03A9F4"/>
</linearGradient>
<linearGradient id="paint6_linear" x1="-4.23859" y1="47.5945" x2="11.6747" y2="65.6656" gradientUnits="userSpaceOnUse">
<stop stop-color="#1DE9B6"/>
<stop offset="1" stop-color="#03A9F4"/>
</linearGradient>
</defs>
</svg>
