<svg width="20" height="20" viewBox="0 0 20 20" fill="none" xmlns="http://www.w3.org/2000/svg">
<path d="M2.73633 0.375C1.56272 0.375 0.611328 1.32639 0.611328 2.5C0.611328 3.6736 1.56272 4.625 2.73633 4.625C3.90993 4.625 4.86133 3.6736 4.86133 2.5C4.86133 1.32639 3.90993 0.375 2.73633 0.375Z" fill="white"/>
<path d="M0.736328 6.375C0.667293 6.375 0.611328 6.43096 0.611328 6.5V19.5C0.611328 19.569 0.667293 19.625 0.736328 19.625H4.73633C4.80536 19.625 4.86133 19.569 4.86133 19.5V6.5C4.86133 6.43096 4.80536 6.375 4.73633 6.375H0.736328Z" fill="white"/>
<path d="M7.23633 6.375C7.16729 6.375 7.11133 6.43096 7.11133 6.5V19.5C7.11133 19.569 7.16729 19.625 7.23633 19.625H11.2363C11.3054 19.625 11.3613 19.569 11.3613 19.5V12.5C11.3613 12.0027 11.5589 11.5258 11.9105 11.1742C12.2621 10.8225 12.739 10.625 13.2363 10.625C13.7336 10.625 14.2105 10.8225 14.5622 11.1742C14.9138 11.5258 15.1113 12.0027 15.1113 12.5V19.5C15.1113 19.569 15.1673 19.625 15.2363 19.625H19.2363C19.3054 19.625 19.3613 19.569 19.3613 19.5V10.8802C19.3613 8.4535 17.2507 6.55499 14.8362 6.7745C14.0915 6.84219 13.3553 7.02731 12.6678 7.32194L11.3613 7.88186V6.5C11.3613 6.43096 11.3054 6.375 11.2363 6.375H7.23633Z" fill="white"/>
</svg>
