<svg width="142" height="55" viewBox="0 0 142 55" fill="none" xmlns="http://www.w3.org/2000/svg">
<path d="M71.6801 15.2122H85.3361V19.0206H75.6246V23.2915H84.2207V27.0999H75.6246V31.4252H85.7169V35.2336H71.6801V15.2122ZM101.25 35.2336H96.653L93.9054 31.67L91.4028 35.2336H87.6215L92.0284 29.249L87.4855 23.3459H92.1644L94.7759 26.7735L96.8162 23.3459H100.597L96.5169 29.0313L101.25 35.2336ZM110.945 35.5601C110.274 35.5601 109.603 35.4422 108.932 35.2064C108.279 34.9525 107.726 34.5989 107.272 34.1455V40.9463H103.491V23.0739H106.755L107.082 24.4884C107.698 23.9988 108.378 23.5907 109.122 23.2643C109.884 22.9197 110.745 22.7474 111.706 22.7474C112.812 22.7474 113.801 23.0104 114.671 23.5363C115.542 24.0441 116.222 24.7877 116.712 25.767C117.219 26.7282 117.473 27.8888 117.473 29.249C117.473 30.591 117.192 31.7335 116.63 32.6766C116.068 33.6196 115.297 34.3359 114.318 34.8256C113.338 35.3153 112.214 35.5601 110.945 35.5601ZM110.183 32.5677C110.799 32.5677 111.362 32.4317 111.869 32.1597C112.395 31.8877 112.812 31.5068 113.121 31.0172C113.447 30.5094 113.61 29.9381 113.61 29.3034C113.61 28.2878 113.302 27.4808 112.686 26.8823C112.069 26.2657 111.325 25.9574 110.455 25.9574C109.693 25.9574 109.058 26.1115 108.551 26.4198C108.043 26.71 107.626 27.1543 107.299 27.7528V30.6635C107.499 31.2439 107.852 31.7063 108.36 32.0509C108.886 32.3955 109.494 32.5677 110.183 32.5677ZM120.466 13.7704H124.275V35.2336H120.466V13.7704ZM127.272 29.1402C127.272 27.9251 127.553 26.837 128.115 25.8758C128.696 24.9146 129.503 24.162 130.536 23.6179C131.57 23.0557 132.758 22.7746 134.1 22.7746C135.46 22.7746 136.639 23.0557 137.636 23.6179C138.634 24.162 139.395 24.9146 139.921 25.8758C140.465 26.837 140.737 27.9251 140.737 29.1402C140.737 30.3552 140.465 31.4524 139.921 32.4317C139.395 33.3929 138.634 34.1546 137.636 34.7168C136.639 35.279 135.442 35.5601 134.045 35.5601C132.74 35.5601 131.57 35.3062 130.536 34.7984C129.521 34.2906 128.723 33.5561 128.142 32.5949C127.562 31.6338 127.272 30.4822 127.272 29.1402ZM131.108 29.1674C131.108 30.1104 131.38 30.8993 131.924 31.534C132.468 32.1506 133.157 32.4589 133.991 32.4589C134.88 32.4589 135.587 32.1506 136.113 31.534C136.639 30.8993 136.902 30.1104 136.902 29.1674C136.902 28.2243 136.639 27.4445 136.113 26.8279C135.587 26.1932 134.88 25.8758 133.991 25.8758C133.157 25.8758 132.468 26.1932 131.924 26.8279C131.38 27.4445 131.108 28.2243 131.108 29.1674Z" fill="white"/>
<path d="M37.4774 51.5972L37.1913 51.714C36.7106 51.8962 36.1775 52.0779 35.5796 52.2601L35.4887 52.286L35.4238 52.2341C35.3836 52.1993 35.34 52.1687 35.2936 52.1428C35.2263 52.1045 35.1618 52.0616 35.1005 52.0143C35.1001 52.0139 35.0993 52.0134 35.0988 52.013C33.1232 50.7132 31.3427 49.4653 29.653 48.2568C27.7552 46.8662 26.1828 45.6183 24.8177 44.3834C24.8939 44.3586 24.9723 44.3412 25.0518 44.3315C25.1167 44.3185 25.195 44.3055 25.2729 44.2925C26.2997 44.0718 27.4952 43.7339 28.5873 43.409C28.6522 43.3956 28.7171 43.3696 28.795 43.3566C28.8599 43.3436 28.9122 43.3177 28.9771 43.3047C29.8996 44.3185 30.7577 45.2284 31.5504 46.0601C33.3954 47.957 35.2785 49.7367 37.1624 51.3217C37.1633 51.3225 37.1645 51.3233 37.1654 51.3242C37.188 51.3495 37.2142 51.3714 37.2433 51.3891L37.3216 51.467L37.4774 51.5972Z" fill="white"/>
<path d="M41.5325 16.2831C41.5132 16.3023 41.4902 16.322 41.4676 16.3417C41.4446 16.361 41.422 16.3802 41.4023 16.3999V16.4003L41.3893 16.4133C41.3444 16.4554 41.2967 16.4944 41.2465 16.5301C40.4538 17.2579 39.5698 17.9987 38.6729 18.7269C38.6227 18.7626 38.575 18.8017 38.5301 18.8437H38.5171C38.4781 18.8827 38.4262 18.9216 38.3869 18.9606L38.27 18.8308L38.257 18.8178C38.2305 18.7799 38.2001 18.7449 38.1662 18.7135C38.1546 18.7028 38.1457 18.6894 38.1402 18.6746C37.6071 18.064 37.0222 17.4271 36.4246 16.8162L36.3203 16.7119C36.3073 16.6989 36.2944 16.6859 36.2814 16.6859C36.2294 16.634 36.1905 16.5821 36.1516 16.5431C35.7487 16.1403 35.4238 15.8283 35.1248 15.5423C32.7333 13.2677 30.4197 11.3314 28.0282 9.62872C26.105 8.2585 24.0788 7.03896 21.9676 5.98099C21.9647 5.97931 21.9614 5.97806 21.9584 5.97638C21.9309 5.97369 21.9042 5.96481 21.8806 5.95042L21.7503 5.88509L21.5167 5.76826V5.75528L21.8935 5.61249C22.5822 5.32951 23.285 5.08212 23.999 4.8713L24.0509 4.84534H24.0639L24.1158 4.8713C24.196 4.89598 24.2742 4.92649 24.3499 4.96259C24.4398 4.99046 24.5279 5.02374 24.6137 5.06225C24.6167 5.06382 24.6198 5.06521 24.6229 5.06644C26.3126 5.70335 27.9503 6.40518 29.4838 7.11999C32.8242 8.69281 35.5666 10.4604 37.8802 12.5139C38.4781 13.034 39.0631 13.5926 39.6737 14.2165C39.7126 14.2555 39.752 14.2944 39.7909 14.3334C39.8039 14.3464 39.8039 14.3464 39.8169 14.3593C39.8558 14.3987 39.8948 14.4506 39.9337 14.4896C40.3755 14.9443 40.8047 15.4255 41.2725 15.9711C41.2725 15.9711 41.2854 15.9841 41.2984 15.9971C41.3374 16.049 41.3763 16.0884 41.4157 16.1403V16.1533C41.4546 16.1922 41.4936 16.2441 41.5325 16.2831Z" fill="white"/>
<path d="M48.2263 29.2937C48.1811 29.356 48.1287 29.4126 48.0701 29.4624V29.4754C48.0261 29.5307 47.9784 29.5829 47.9273 29.6316C47.8253 29.7626 47.7169 29.8884 47.6023 30.0085C47.4096 30.2114 47.2274 30.424 47.0563 30.6454L46.0425 31.7501L45.9127 31.9059L45.7569 32.062H45.7565C45.7407 31.9952 45.719 31.9299 45.6916 31.8669C45.6758 31.8002 45.6541 31.735 45.6267 31.6722C45.6159 31.6367 45.6028 31.6018 45.5877 31.5679C45.3017 30.7233 44.9898 29.9046 44.6259 29.0856C44.6099 29.0273 44.5882 28.9708 44.561 28.9168C44.536 28.8536 44.5056 28.7926 44.4701 28.7347C43.5273 26.5209 42.3691 24.4051 41.0125 22.4178C40.4246 21.5281 39.7913 20.6692 39.1151 19.8446C39.166 19.8049 39.2137 19.7614 39.2579 19.7144C39.2968 19.6884 39.3358 19.6365 39.3881 19.5975C39.6218 19.3894 39.8817 19.1684 40.1678 18.9346C40.7135 18.4539 41.3244 17.9468 41.9354 17.3748L42.0652 17.245C42.1101 17.1986 42.1579 17.1553 42.2084 17.1152C42.9835 18.1241 43.7037 19.174 44.3658 20.2604C45.5373 22.1829 46.5169 24.216 47.2904 26.3302C47.3062 26.397 47.3279 26.4623 47.3553 26.5253C47.3846 26.5874 47.4064 26.6528 47.4202 26.72C47.6672 27.3959 47.8883 28.0977 48.0831 28.8125C48.096 28.8255 48.096 28.8385 48.096 28.8645C48.1253 28.9357 48.1471 29.0098 48.161 29.0856C48.187 29.1535 48.2088 29.223 48.2263 29.2937Z" fill="white"/>
<path d="M41.4676 16.3417C41.4446 16.3609 41.422 16.3806 41.4023 16.4003V16.3999C41.422 16.3802 41.4446 16.3609 41.4676 16.3417Z" fill="#C9C9C9"/>
<path d="M42.1305 15.7241C41.9353 15.9192 41.7272 16.1014 41.5325 16.2831C41.5132 16.3024 41.4902 16.3221 41.4676 16.3418C41.4446 16.361 41.4219 16.3803 41.4023 16.4V16.4004L41.3893 16.4134C41.3443 16.4555 41.2966 16.4945 41.2465 16.5302C40.4538 17.258 39.5698 17.9988 38.6728 18.727C38.6227 18.7627 38.575 18.8017 38.53 18.8438H38.5171C38.4781 18.8827 38.4262 18.9217 38.3868 18.9606C38.1272 19.1558 37.8672 19.3635 37.6201 19.5586L37.4773 19.4288L37.4514 19.4024C37.677 19.1601 37.9157 18.9301 38.1662 18.7136C38.203 18.6681 38.2468 18.6286 38.296 18.5967C38.3479 18.5448 38.4002 18.5059 38.4392 18.4669C38.6079 18.3237 38.7771 18.1809 38.9459 18.0247C39.0242 17.9598 39.115 17.8819 39.2059 17.804C39.765 17.3359 40.3889 16.8032 40.9994 16.2312C41.046 16.1913 41.0896 16.1479 41.1297 16.1014C41.1803 16.0615 41.228 16.018 41.2725 15.9712C41.4546 15.7894 41.6363 15.6073 41.8055 15.4255L41.8574 15.4645L42.0002 15.6073L42.1305 15.7241Z" fill="#C9C9C9"/>
<path d="M17.747 29.1895V29.1899C17.6206 29.2175 17.4937 29.2447 17.3672 29.2715C17.3036 29.2849 17.2403 29.2983 17.1771 29.3113C17.1185 29.3239 17.0594 29.336 17.0008 29.3482C16.9933 29.3498 16.9858 29.3515 16.9782 29.3528C17.0341 29.3411 17.0901 29.3294 17.1462 29.3178C17.1593 29.315 17.1724 29.3123 17.1856 29.3095C17.2774 29.29 17.3695 29.2705 17.4619 29.251L17.747 29.1895Z" fill="#C9C9C9"/>
<path d="M18.683 28.9298L18.1374 29.0726L17.9552 29.1246L17.7601 29.1765L17.7471 29.1895L17.4619 29.251C17.3669 29.2711 17.272 29.2912 17.1772 29.3113C17.1106 29.3251 17.0444 29.339 16.9783 29.3528C16.8547 29.3783 16.7312 29.4039 16.6081 29.4286C16.2136 29.5086 15.8211 29.5867 15.4306 29.6631C15.2744 29.6936 15.1189 29.7242 14.9641 29.7548C14.8866 29.7699 14.8091 29.7853 14.7321 29.8004C14.6668 29.8134 14.6149 29.8264 14.5499 29.8394C14.4838 29.8461 14.4185 29.8591 14.3548 29.8783C14.1082 29.9177 13.8741 29.9696 13.64 30.0085L13.614 29.6446L13.5881 29.3457C13.7572 29.3327 13.939 29.3067 14.1082 29.2937C14.1861 29.2807 14.238 29.2807 14.3029 29.2678C14.3678 29.2548 14.4331 29.2548 14.485 29.2418C15.5508 29.0986 16.6814 28.8515 17.4875 28.6568C17.5524 28.6438 17.6173 28.6309 17.6692 28.6179C17.7326 28.5946 17.7979 28.5771 17.8644 28.5655C18.2802 28.4617 18.5402 28.3838 18.5402 28.3838L18.5792 28.5655L18.6311 28.7477L18.683 28.9298Z" fill="#C9C9C9"/>
<path d="M45.7576 32.062L45.7564 32.0632V32.062H45.7576Z" fill="#C9C9C9"/>
<path d="M48.707 28.6568L48.5382 28.8904C48.447 29.0206 48.3301 29.1634 48.2263 29.2937C48.1811 29.356 48.1287 29.4126 48.0701 29.4624V29.4754C48.0261 29.5307 47.9784 29.5828 47.9273 29.6316C47.8253 29.7626 47.7169 29.8884 47.6023 30.0085C47.4096 30.2114 47.2274 30.424 47.0563 30.6454L46.0425 31.7501L45.9127 31.9058L45.7569 32.062H45.7565V32.0625L45.4839 32.361C45.3277 32.5298 45.1589 32.686 44.9898 32.8417L44.7297 32.5817L44.6648 32.5298C44.6778 32.5168 45.0547 32.1269 45.5877 31.5679C45.6388 31.5193 45.6865 31.4672 45.7305 31.4121C45.7824 31.3602 45.8218 31.3083 45.8737 31.2559C46.4583 30.6454 47.1735 29.8653 47.7975 29.1505C47.8418 29.0915 47.8895 29.0352 47.9403 28.9817V28.9687C47.9914 28.92 48.0391 28.8678 48.0831 28.8125C48.2003 28.6827 48.3042 28.5399 48.408 28.4227L48.421 28.4357L48.5642 28.5529L48.707 28.6568Z" fill="#C9C9C9"/>
<path d="M29.4189 42.2389C29.2874 42.2829 29.1539 42.3266 29.0186 42.37C28.8833 42.4131 28.7464 42.4558 28.6073 42.4969C28.5148 42.5241 28.4214 42.5507 28.3272 42.5768C28.2695 42.6062 28.2083 42.628 28.145 42.6417C28.1061 42.6547 28.0931 42.6547 28.0542 42.6677C28.0282 42.6677 27.9893 42.6937 27.9503 42.6937C26.8063 43.0316 25.6497 43.3306 24.5057 43.5776C24.4333 43.5997 24.3596 43.617 24.285 43.6296C24.2331 43.6426 24.1937 43.6555 24.1552 43.6685C24.1158 43.6685 24.0899 43.6815 24.0509 43.6815C23.9081 43.7204 23.7649 43.7468 23.6221 43.7728L23.5832 43.4089L23.5702 43.2138V43.071C23.5962 43.071 23.6351 43.0576 23.687 43.0576C23.7519 43.0446 23.8302 43.0446 23.9081 43.0316C24.6749 42.9278 25.8834 42.6547 27.4951 42.2C27.5605 42.174 27.6254 42.161 27.6903 42.1351H27.7033C27.7621 42.1117 27.8231 42.0943 27.8854 42.0831C28.3012 41.9529 28.743 41.8231 29.2108 41.6799L29.2891 41.888L29.354 42.0697L29.4189 42.2389Z" fill="#C9C9C9"/>
<path d="M29.8962 4.07155C28.1104 4.23326 26.344 4.5643 24.6208 5.06022C24.6183 5.06106 24.6162 5.06148 24.6137 5.06232C24.5199 5.09079 24.419 5.1201 24.3256 5.14858C24.2519 5.17077 24.1778 5.19297 24.1041 5.21516C24.0819 5.22228 24.0672 5.22982 24.045 5.23735C23.5141 5.39941 22.9827 5.58408 22.422 5.79806C22.3483 5.82737 22.267 5.86422 22.1858 5.89395C22.1414 5.90861 22.0899 5.9308 22.0384 5.953C22.017 5.9597 21.989 5.97394 21.9676 5.98105C21.9667 5.98158 21.9657 5.982 21.9647 5.98231C19.4044 7.02291 17.0951 8.42446 15.0955 10.1585C14.5717 10.6162 14.0771 11.0806 13.6052 11.5605L13.601 11.5647V11.5651C13.5432 11.622 13.4858 11.6802 13.4281 11.7447C13.3615 11.8113 13.2953 11.8775 13.2363 11.9441C12.8301 12.3645 12.454 12.8 12.0851 13.2351C12.0185 13.3163 11.9524 13.3975 11.8933 13.4788C11.8213 13.5655 11.756 13.645 11.6907 13.7313C11.6894 13.733 11.6877 13.7351 11.6865 13.7367C11.066 14.5243 10.4991 15.3526 9.9897 16.2161C8.53621 18.6432 7.54754 21.1005 7.06808 23.5351C6.67094 25.4056 6.48774 27.3152 6.52202 29.2271V29.2313C6.51826 29.2952 6.51826 29.3592 6.52202 29.4231V29.4671C6.52084 29.514 6.52322 29.5609 6.52914 29.6074C6.52914 29.7033 6.52914 29.792 6.53668 29.8804C6.54422 30.1978 6.56642 30.4779 6.58107 30.7288C6.58819 30.7954 6.58819 30.8619 6.59573 30.9206C6.60326 30.9796 6.60326 31.0387 6.61039 31.0977V31.0998H6.61079C6.86917 33.9322 7.59235 36.6097 8.75773 39.059C9.59147 40.8223 10.5651 42.4308 11.6718 43.862C11.6722 43.8625 11.6727 43.8633 11.6731 43.8637C11.7102 43.9227 11.7518 43.9789 11.7974 44.0316C11.8343 44.0836 11.8787 44.1426 11.9226 44.1941C12.122 44.4449 12.3284 44.6882 12.5277 44.9319C12.5792 44.991 12.6312 45.0425 12.6827 45.1015C12.7346 45.1606 12.7861 45.2196 12.8376 45.2716C12.8619 45.2984 12.8862 45.3256 12.9105 45.3524C13.0189 45.4726 13.1278 45.5919 13.2363 45.7066C15.0289 47.6325 17.1909 49.3292 19.6699 50.7681L19.515 51.1001C16.9255 50.1559 14.4758 48.6873 12.2325 46.7468C11.753 46.3264 11.2882 45.8909 10.8456 45.4261C10.8364 45.4181 10.8272 45.4097 10.8184 45.401C10.7702 45.3561 10.7259 45.3063 10.676 45.2565C10.6241 45.205 10.5726 45.1459 10.5211 45.0869C10.3364 44.8951 10.1593 44.6958 9.9897 44.4965C9.93819 44.4374 9.8938 44.3859 9.85695 44.3344C9.8021 44.2851 9.75483 44.2279 9.71667 44.1648C9.71625 44.164 9.71541 44.1635 9.715 44.1627C8.62899 42.8749 7.68237 41.4757 6.89095 39.9886C5.52582 37.5167 4.62592 34.7354 4.20508 31.7174L4.07234 30.6404C4.05014 30.4411 4.04302 30.2347 4.03548 30.0353L3.99864 29.246C3.98397 28.9801 3.97644 28.7075 3.97644 28.4416L4.0133 27.3495C4.03548 25.8591 4.28632 24.3834 4.54469 22.9965C5.1347 20.2299 6.25653 17.5147 7.88674 14.9176C9.12665 13.0215 10.5357 11.3465 12.0927 9.92233C12.0937 9.92146 12.0947 9.92048 12.0956 9.9194C12.168 9.85449 12.2334 9.78874 12.3066 9.73054C12.3803 9.66396 12.4465 9.60491 12.5202 9.54629C12.7861 9.30258 13.0663 9.07394 13.3468 8.85996C13.4095 8.8037 13.4761 8.75193 13.5461 8.70502C13.6085 8.64915 13.6747 8.59766 13.7442 8.55092C13.7446 8.5505 13.7446 8.55008 13.745 8.55008C13.753 8.53848 13.7631 8.52852 13.7748 8.52077C15.7993 6.96936 18.0616 5.75591 20.4739 4.92747C21.1381 4.69884 21.8315 4.49951 22.5476 4.32238C24.3797 3.86827 26.26 3.63781 28.1475 3.63605C28.7304 3.63605 29.3058 3.65824 29.8887 3.70263L29.8962 4.07155Z" fill="#C9C9C9"/>
<path d="M28.3273 42.5769C28.2696 42.6062 28.2084 42.6281 28.1451 42.6418C28.1062 42.6548 28.0932 42.6548 28.0542 42.6678C28.0283 42.6678 27.9893 42.6937 27.9504 42.6937C26.8064 43.0316 25.6498 43.3306 24.5057 43.5777C24.4334 43.5997 24.3597 43.617 24.2851 43.6296C24.2331 43.6426 24.1938 43.6556 24.1553 43.6686C24.1159 43.6686 24.0899 43.6815 24.051 43.6815C24.025 43.6686 24.012 43.6426 23.9861 43.6166C23.9526 43.5897 23.9222 43.5592 23.8952 43.5258C23.8429 43.4739 23.7908 43.4218 23.739 43.3696C23.6798 43.3209 23.6235 43.2689 23.5703 43.2138C23.141 42.798 22.7122 42.3558 22.2705 41.888C22.1897 41.7834 22.0982 41.6875 21.9974 41.602C21.979 41.5623 21.9525 41.527 21.9195 41.4982C21.9066 41.4852 21.8936 41.4592 21.8806 41.4463C21.8294 41.3975 21.7815 41.3453 21.7374 41.2901C19.7034 39.0417 17.9128 36.5846 16.3954 33.9598C15.7849 32.8807 15.2258 31.789 14.7321 30.6974C14.7934 30.6942 14.8542 30.6855 14.9138 30.6714C14.9788 30.6584 15.0307 30.6584 15.109 30.6454C16.2786 30.4503 17.4875 30.1773 18.2153 29.9955C18.2817 29.9843 18.3468 29.9669 18.41 29.9436C18.4753 29.9306 18.5402 29.9176 18.5922 29.9047C18.969 30.5675 19.3719 31.217 19.8011 31.8929C21.2307 34.1416 22.9853 36.4422 25.3248 39.1586L25.8315 39.7436L25.9098 39.8345C25.9228 39.8475 25.9358 39.8734 25.9617 39.8864C26.0038 39.9313 26.0429 39.9791 26.0786 40.0292C26.6246 40.6531 27.2092 41.316 27.8855 42.0832C27.9454 42.1448 28.0017 42.2098 28.0542 42.2779C28.0877 42.3048 28.1181 42.3353 28.1451 42.3688C28.1581 42.3817 28.1711 42.4081 28.197 42.4341C28.2494 42.486 28.2883 42.5379 28.3273 42.5769Z" fill="white"/>
<path d="M52.9573 22.5221V22.6259L52.9313 22.6649C52.9053 22.7298 52.866 22.7817 52.84 22.834C52.7889 22.9102 52.7382 22.9869 52.6872 23.0631C52.6863 23.0648 52.6851 23.066 52.6842 23.0677C52.6323 23.1326 52.5804 23.2109 52.528 23.2888L50.6307 26.1221L48.7069 28.6568L48.5382 28.8904C48.4469 29.0206 48.3301 29.1634 48.2262 29.2937C48.1811 29.356 48.1286 29.4126 48.07 29.4624V29.4754C48.026 29.5307 47.9783 29.5828 47.9272 29.6316C47.8253 29.7626 47.7168 29.8884 47.6023 30.0085C47.4096 30.2114 47.2273 30.424 47.0562 30.6454L46.0424 31.7501L45.9126 31.9058L45.7568 32.062L45.7564 32.0625L45.4838 32.361C45.3276 32.5298 45.1589 32.686 44.9897 32.8417C44.5869 33.2186 44.184 33.5955 43.7678 33.9594C42.8063 34.9213 41.6753 35.7533 40.5836 36.546L40.1288 36.871C37.7244 38.5736 34.9686 40.0685 31.9272 41.316C31.1345 41.6409 30.2899 41.9529 29.4189 42.2389C29.2874 42.2829 29.1539 42.3266 29.0186 42.37C28.8833 42.4131 28.7464 42.4558 28.6073 42.4969C28.5148 42.5241 28.4214 42.5508 28.3272 42.5769C28.2695 42.6062 28.2083 42.628 28.145 42.6418C28.1061 42.6547 28.0931 42.6547 28.0542 42.6677C28.0282 42.6677 27.9893 42.6937 27.9503 42.6937C26.8063 43.0316 25.6497 43.3306 24.5057 43.5777C24.4333 43.5997 24.3596 43.617 24.285 43.6296C24.2331 43.6426 24.1937 43.6556 24.1552 43.6685C24.1158 43.6685 24.0899 43.6815 24.0509 43.6815C23.9521 43.7029 23.803 43.7347 23.6221 43.7728C20.6821 44.3888 17.2772 45.1028 13.3929 45.3272C13.2304 45.3364 13.0696 45.3448 12.9105 45.3523C12.1798 45.3863 11.4805 45.4009 10.8184 45.4009C7.54128 45.4013 5.18665 45.0458 4.56815 44.9487C3.02657 44.7057 1.50107 44.3698 0 43.9428C3.21708 44.414 6.4799 44.4879 9.71501 44.1627C9.75184 44.1618 9.7886 44.159 9.82514 44.1543C9.86115 44.1497 9.89675 44.143 9.93569 44.1367C9.96165 44.1367 10.0006 44.1237 10.04 44.1237C10.069 44.1131 10.1 44.1087 10.1308 44.1107C10.5077 44.0584 10.8846 43.9935 11.2614 43.9286C11.3268 43.9156 11.4047 43.9156 11.4696 43.9026C11.4986 43.892 11.5296 43.8876 11.5604 43.8896C11.5965 43.8754 11.6345 43.8667 11.6731 43.8637H11.6777C12.3795 43.7468 13.0684 43.6166 13.7572 43.4738C16.466 42.9375 19.1329 42.2077 21.7373 41.29C21.8042 41.2744 21.8695 41.2526 21.9325 41.2251C21.9455 41.2251 21.9844 41.2121 21.9974 41.2121C22.0349 41.1918 22.074 41.1745 22.1142 41.1602C23.1933 40.7833 24.3239 40.3541 25.4676 39.8864C25.5329 39.8604 25.5978 39.8345 25.6497 39.8085C25.6627 39.8085 25.6887 39.7955 25.7016 39.7955C25.7435 39.7749 25.7869 39.7575 25.8314 39.7436C27.2874 39.1326 28.8079 38.4438 30.3288 37.703L32.2521 36.7022C32.4213 36.6109 32.5905 36.533 32.7722 36.4422C33.227 36.2211 33.7081 35.9874 34.1499 35.7144L34.5398 35.4673C35.0209 35.1813 35.5146 34.8823 36.0217 34.6093L36.3203 34.4405C36.5284 34.3237 36.7495 34.2065 36.9442 34.0766L37.8542 33.4787L40.1289 32.0101L41.7666 30.8142C42.2343 30.4633 42.7151 30.1123 43.1962 29.7874L44.47 28.7347L44.6258 28.6178L44.782 28.4876L44.8859 28.4097C45.0676 28.2539 45.2627 28.0977 45.4449 27.9549C45.8218 27.656 46.2116 27.357 46.5625 27.019L46.9913 26.6162L47.1345 26.473L47.2903 26.3302L48.967 24.7314L49.7078 23.9387L51.2153 22.288C51.5277 21.9501 51.8132 21.5862 52.0992 21.2223L52.1901 21.105L52.1918 21.1033L52.3333 20.9363L52.4631 20.7671H52.4761L52.5674 21.092C52.7232 21.5602 52.84 22.0409 52.9573 22.5221Z" fill="white"/>
<path d="M18.1373 29.0726L17.9552 29.1245L17.76 29.1764L17.7471 29.1894V29.1898C17.652 29.2103 17.5569 29.2307 17.4619 29.251C17.4301 29.2581 17.3987 29.2648 17.3672 29.2715C17.3036 29.2849 17.2404 29.2983 17.1771 29.3113C17.1185 29.3238 17.0595 29.336 17.0008 29.3481C16.9933 29.3498 16.9858 29.3515 16.9782 29.3527C16.8547 29.3783 16.7312 29.4038 16.6081 29.4285C16.2136 29.5085 15.8211 29.5867 15.4305 29.663C15.2748 29.6936 15.1193 29.7242 14.964 29.7547C14.8866 29.7698 14.8091 29.7853 14.7321 29.8004C14.6667 29.8134 14.6148 29.8263 14.5499 29.8393C14.4838 29.846 14.4184 29.8591 14.3548 29.8783C14.3296 29.8234 14.308 29.767 14.2899 29.7095C14.2639 29.6446 14.2379 29.5797 14.212 29.5273C14.173 29.4495 14.1471 29.3716 14.1081 29.2937C13.8481 28.6308 13.601 27.9809 13.3799 27.318C13.3669 27.2661 13.3414 27.2142 13.328 27.1488C13.302 27.0969 13.289 27.032 13.2631 26.9671C13.0294 26.2393 12.8213 25.5111 12.6392 24.7703C11.8724 21.677 11.5345 18.3756 11.6383 14.9703C11.6383 14.5285 11.6643 14.1257 11.6907 13.7358V13.7312C11.6911 13.6286 11.7037 13.5261 11.7037 13.4239C11.7181 13.3335 11.7268 13.2423 11.7296 13.1509C11.7277 13.1326 11.7323 13.1142 11.7426 13.0989C11.7945 12.189 11.8854 11.3314 12.0022 10.5253C12.0156 10.4214 12.0286 10.3306 12.0416 10.2393V10.2263C12.0546 10.1484 12.0675 10.0835 12.0805 10.0056C12.0785 9.97885 12.0829 9.95198 12.0935 9.92731C12.0944 9.92472 12.0951 9.92206 12.0956 9.91936C13.0336 6.6129 13.9716 3.30645 14.9096 0C14.4289 2.80186 14.0404 5.65173 13.7442 8.54963V8.55088C13.7354 8.63756 13.7266 8.72382 13.7178 8.80967C13.7071 8.86099 13.7027 8.91346 13.7049 8.96586C13.7079 8.99676 13.7035 9.02793 13.6919 9.05673C13.6529 9.77154 13.614 10.4214 13.614 11.0324C13.6038 11.1229 13.5994 11.2139 13.601 11.305V11.565C13.601 12.6827 13.64 13.8137 13.7442 14.9054C14.0188 17.9552 14.6871 20.9567 15.7324 23.8348C15.9665 24.4713 16.2136 25.1083 16.4996 25.7452C16.5256 25.8101 16.5515 25.8624 16.5775 25.9273C16.5935 25.9814 16.6153 26.0336 16.6424 26.0831C17.0193 26.9152 17.4091 27.7468 17.8643 28.5655C17.8893 28.6287 17.9197 28.6897 17.9552 28.7476C17.9804 28.8066 18.0108 28.8632 18.046 28.9168C18.0714 28.9715 18.102 29.0237 18.1373 29.0726V29.0726Z" fill="white"/>
<path d="M55.7788 28.6484L55.7344 29.7401C55.7122 31.2158 55.4614 32.699 55.2034 34.0783C54.6205 36.8379 53.4916 39.5531 51.861 42.1502C51.1337 43.2675 50.3225 44.3279 49.4343 45.3222L49.4335 45.323C49.3713 45.4028 49.3047 45.4791 49.2342 45.5517C49.168 45.6254 49.1014 45.6991 49.0277 45.7732C48.8062 46.0165 48.5704 46.2598 48.3343 46.4959C48.2739 46.5587 48.2099 46.6179 48.1425 46.6731C48.0848 46.736 48.0231 46.7952 47.9578 46.8502L47.9532 46.8548C47.3283 47.4587 46.6672 48.0238 45.9733 48.547C43.6223 50.3461 40.9542 51.6877 38.108 52.5021C37.5397 52.6641 37.0163 52.7898 36.5217 52.8928C34.895 53.2453 33.2353 53.4234 31.5709 53.4242C31.0026 53.4242 30.4348 53.402 29.8665 53.3651L29.859 52.9962C31.6321 52.8342 33.386 52.5058 35.0976 52.0151C35.0984 52.0147 35.0997 52.0147 35.1005 52.0142C35.1738 51.9925 35.2533 51.9703 35.3266 51.9485C35.3706 51.9338 35.4225 51.9192 35.4665 51.9041C35.4971 51.8978 35.5269 51.8879 35.5553 51.8748C35.7692 51.8082 35.9832 51.7421 36.1821 51.6755C36.3593 51.6164 36.5293 51.5574 36.6913 51.5059C36.7152 51.4942 36.7398 51.4843 36.765 51.4761C36.8316 51.4544 36.8982 51.4246 36.9644 51.4024C37.0012 51.3878 37.0309 51.3807 37.0603 51.3656C37.0967 51.3509 37.126 51.3367 37.1624 51.3216C37.1628 51.3216 37.1633 51.3212 37.1637 51.3212C39.9747 50.2588 42.5053 48.776 44.6526 46.9168C45.8381 45.886 46.9264 44.7485 47.9038 43.5186C47.9046 43.5174 47.9055 43.5165 47.9063 43.5153C47.9725 43.4416 48.0244 43.3825 48.0834 43.3088V43.3013C48.1425 43.2276 48.194 43.1539 48.2455 43.0798C48.6073 42.615 48.9394 42.143 49.2492 41.6632C49.3154 41.5673 49.3744 41.5082 49.441 41.4052V41.3608C49.5072 41.2649 49.5662 41.169 49.6253 41.066C49.6399 41.0438 49.6546 41.0212 49.6692 40.9978C49.699 40.9504 49.7287 40.901 49.758 40.8516C51.219 38.4095 52.2006 35.9527 52.6801 33.5398C53.4179 30.0721 53.4179 26.4571 52.6872 23.0631C52.6725 22.9819 52.6579 22.8931 52.6357 22.8123C52.621 22.7457 52.6063 22.6791 52.5913 22.6129L52.5842 22.5686C52.5842 22.561 52.5766 22.5464 52.5766 22.5392C52.4954 22.2072 52.4146 21.8751 52.3182 21.543C52.2965 21.4693 52.2814 21.4028 52.2592 21.3366C52.2446 21.2922 52.237 21.2478 52.2223 21.2039C52.2152 21.1741 52.2006 21.1373 52.193 21.1075C52.1926 21.1063 52.1922 21.1046 52.1918 21.1034C51.8695 20.05 51.4729 19.0208 51.0051 18.0234C49.7877 15.4414 48.2828 13.2057 46.5265 11.3758L46.4834 11.3331L46.4821 11.3318C46.4453 11.2874 46.4009 11.243 46.3569 11.1986C46.3125 11.1471 46.2682 11.1028 46.2242 11.0588C45.9583 10.7782 45.6853 10.5052 45.4051 10.2468C45.3645 10.2014 45.3201 10.1595 45.2724 10.1216C45.2318 10.0727 45.1855 10.0287 45.1346 9.99056C45.1338 9.99014 45.1329 9.9893 45.1321 9.98888C43.6489 8.61622 41.9667 7.39179 40.1075 6.30723L40.2624 5.97516C42.2988 6.72012 44.2468 7.7829 46.0764 9.16269C46.0768 9.1631 46.0772 9.16311 46.0776 9.16352C46.1308 9.19982 46.1821 9.23881 46.2313 9.28035C46.2852 9.31069 46.3349 9.348 46.3791 9.39132C46.6446 9.59023 46.903 9.79709 47.1609 10.0257C47.2151 10.0585 47.2648 10.0982 47.3087 10.1438C47.3527 10.1807 47.397 10.2175 47.4415 10.2544L47.4432 10.256C47.4721 10.2849 47.5081 10.3063 47.5374 10.3356C49.6697 12.1949 51.4699 14.475 52.8719 17.0942C53.2708 17.8198 53.6256 18.5687 53.9342 19.3371L54.2885 20.2223C54.8824 21.8888 55.3027 23.6121 55.5426 25.365L55.6829 26.442C55.7051 26.7226 55.7199 26.9956 55.7273 27.2611L55.7566 27.8586C55.7641 28.117 55.7788 28.3825 55.7788 28.6484Z" fill="#C9C9C9"/>
<path d="M52.5394 3.15778C50.9899 5.62559 49.2888 7.99495 47.4461 10.2522C47.4453 10.2535 47.444 10.2548 47.4432 10.256C47.4051 10.3025 47.3674 10.349 47.3293 10.3955L47.3163 10.4084C47.2742 10.4487 47.2351 10.4921 47.1995 10.5383L46.7313 11.0454C46.6924 11.0973 46.6534 11.1362 46.6145 11.1882H46.6015C46.5657 11.2384 46.5266 11.2862 46.4847 11.3314C46.4842 11.3318 46.4838 11.3326 46.4834 11.333C46.094 11.7484 45.7041 12.1764 45.3147 12.5918C44.2619 13.6965 43.1962 14.7496 42.1305 15.7241C41.9354 15.9192 41.7272 16.1013 41.5325 16.2831C41.5133 16.3023 41.4902 16.322 41.4676 16.3417C41.4618 16.3467 41.4563 16.3513 41.4505 16.3564C41.4333 16.371 41.417 16.3857 41.4023 16.4003L41.3893 16.4133C41.3444 16.4554 41.2967 16.4944 41.2465 16.5302C40.4538 17.2579 39.5698 17.9987 38.6729 18.7269C38.6227 18.7626 38.575 18.8017 38.5301 18.8437H38.5171C38.4782 18.8827 38.4262 18.9216 38.3869 18.9606C38.1272 19.1557 37.8672 19.3634 37.6201 19.5586C35.3589 21.2872 33.0583 22.8076 30.7317 24.0685C29.8088 24.5756 28.8469 25.0433 27.9244 25.4981C27.4562 25.7062 27.0144 25.9273 26.5593 26.161C25.0518 26.7979 23.5313 27.3829 22.2185 27.89L19.9828 28.5655L18.683 28.9298L18.1374 29.0726L17.9552 29.1245L17.7601 29.1764L17.7471 29.1894V29.1898C17.6206 29.2174 17.4937 29.2447 17.3673 29.2715C17.3036 29.2849 17.2404 29.2983 17.1772 29.3112C17.1185 29.3238 17.0595 29.336 17.0009 29.3481C16.9933 29.3498 16.9858 29.3514 16.9782 29.3527C16.8547 29.3782 16.7312 29.4038 16.6081 29.4285C16.2136 29.5085 15.8211 29.5866 15.4305 29.663C15.2744 29.6936 15.1189 29.7241 14.9641 29.7547C14.8866 29.7698 14.8091 29.7853 14.7321 29.8004C14.6667 29.8133 14.6148 29.8263 14.5499 29.8393C14.4838 29.846 14.4184 29.859 14.3548 29.8782C14.1081 29.9176 13.8741 29.9695 13.64 30.0085C13.4842 30.0474 13.3414 30.0604 13.1982 30.0993C12.3532 30.2555 11.4826 30.3724 10.6375 30.4892C9.97466 30.5935 9.31177 30.6843 8.6489 30.8012C7.97429 30.918 7.28544 31.0218 6.61083 31.0997H6.61042C6.60999 31.1002 6.60958 31.1002 6.60875 31.1002C6.5564 31.1002 6.46553 29.2413 6.51745 29.2283C6.51913 29.2279 6.52039 29.2275 6.52206 29.2271C8.69119 28.6036 10.821 27.8632 12.4444 27.2791L13.2631 26.9671L13.4453 26.9022L13.614 26.8373L16.1487 25.8754L16.3304 25.8101L16.4996 25.7452L16.6554 25.6932L18.7089 24.8486L20.7885 24.0425L21.5686 23.7176C22.6603 23.2628 23.7779 22.7947 24.8956 22.3659L28.9118 20.5334C31.4854 19.2725 33.9288 17.9338 36.1516 16.5431C36.2064 16.5131 36.2585 16.4783 36.3073 16.4393C36.3203 16.4393 36.3337 16.4263 36.3467 16.4263C36.3856 16.3869 36.4376 16.374 36.4765 16.335C37.5163 15.6985 38.4652 15.0616 39.3747 14.4377C39.427 14.3987 39.479 14.3593 39.5179 14.3334C39.5246 14.3329 39.531 14.33 39.5358 14.3253C39.5405 14.3205 39.5434 14.3142 39.5439 14.3074C39.592 14.2848 39.6359 14.254 39.6737 14.2166C41.1297 13.2157 42.5333 12.137 43.8721 11.0324C44.3009 10.694 44.7167 10.3565 45.1329 9.9922L45.1346 9.99053C45.1785 9.94443 45.2256 9.90161 45.2757 9.86239H45.2887C45.3276 9.82344 45.3796 9.7845 45.4185 9.74556C45.5228 9.65469 45.6268 9.56368 45.7305 9.47253L45.7954 9.40763L45.9386 9.29038L45.9646 9.26441C45.9968 9.23552 46.0446 9.19364 46.0776 9.16349C46.079 9.16265 46.0802 9.16166 46.0814 9.16056C48.2903 7.19411 50.443 5.19318 52.5394 3.15778Z" fill="white"/>
<path d="M49.6692 40.9978C49.6583 42.5727 49.5666 44.0203 49.4347 45.3193C49.4347 45.3201 49.4343 45.3214 49.4343 45.3222C48.9798 48.5736 47.7936 51.6795 45.965 54.4061C47.279 51.6441 47.8259 49.0968 47.9532 46.8548V46.8531C47.9582 46.766 47.9625 46.6794 47.9662 46.5931V46.3331C47.9662 45.5274 47.9532 44.7866 47.9272 44.0714V43.7988C47.9272 43.7335 47.9143 43.6685 47.9143 43.5907C47.9159 43.5662 47.9124 43.5416 47.9038 43.5186C47.9031 43.5166 47.9023 43.5146 47.9013 43.5128C47.823 42.0698 47.6931 40.757 47.5114 39.4836C47.2135 37.3394 46.7439 35.2227 46.1073 33.1537C46.1597 33.1018 46.2118 33.0499 46.2635 32.9979C46.3155 32.9456 46.3544 32.9067 46.4063 32.8547C46.8745 32.348 47.5633 31.6332 48.2262 30.8791C48.3302 30.7664 48.4342 30.6538 48.5382 30.5411C49.0706 32.8931 49.4168 35.2833 49.5738 37.6896C49.6487 38.8445 49.6768 39.9492 49.6692 40.9978Z" fill="white"/>
</svg>
