<svg width="172" height="60" viewBox="0 0 172 60" fill="none" xmlns="http://www.w3.org/2000/svg">
<path d="M41.3304 56.902L41.015 57.0308C40.4849 57.2317 39.897 57.4321 39.2375 57.633L39.1373 57.6616L39.0657 57.6044C39.0214 57.566 38.9733 57.5322 38.9221 57.5037C38.8479 57.4614 38.7768 57.4141 38.7092 57.3619C38.7088 57.3615 38.7078 57.361 38.7074 57.3605C36.5286 55.9271 34.565 54.5509 32.7016 53.2181C30.6087 51.6845 28.8746 50.3083 27.3691 48.9464C27.4531 48.9191 27.5396 48.8999 27.6273 48.8892C27.6989 48.8749 27.7852 48.8605 27.8711 48.8462C29.0035 48.6029 30.3219 48.2302 31.5263 47.8718C31.5979 47.857 31.6695 47.8284 31.7554 47.8141C31.8269 47.7998 31.8847 47.7711 31.9563 47.7568C32.9736 48.8749 33.9198 49.8784 34.794 50.7955C36.8288 52.8875 38.9055 54.8502 40.9832 56.5981C40.9841 56.599 40.9855 56.5999 40.9864 56.6009C41.0113 56.6288 41.0403 56.6529 41.0723 56.6724L41.1586 56.7583L41.3304 56.902Z" fill="url(#paint0_linear)"/>
<path d="M45.8023 17.9575C45.7811 17.9787 45.7557 18.0004 45.7307 18.0221C45.7053 18.0434 45.6804 18.0646 45.6587 18.0863V18.0868L45.6444 18.1011C45.5948 18.1475 45.5422 18.1906 45.4869 18.23C44.6127 19.0326 43.6378 19.8495 42.6487 20.6526C42.5934 20.692 42.5407 20.735 42.4912 20.7814H42.4769C42.4339 20.8244 42.3767 20.8673 42.3332 20.9103L42.2044 20.7671L42.1901 20.7528C42.1609 20.711 42.1273 20.6725 42.0899 20.6378C42.0771 20.626 42.0672 20.6112 42.0612 20.5949C41.4734 19.9215 40.8282 19.2191 40.1692 18.5454L40.0542 18.4304C40.0399 18.4161 40.0256 18.4017 40.0113 18.4017C39.954 18.3445 39.9111 18.2872 39.8681 18.2443C39.4239 17.8 39.0655 17.456 38.7358 17.1406C36.0984 14.632 33.5469 12.4966 30.9096 10.6189C28.7886 9.10785 26.5541 7.76292 24.2259 6.59616C24.2226 6.59432 24.2189 6.59293 24.2157 6.59109C24.1853 6.58812 24.1559 6.57833 24.1298 6.56245L23.9862 6.49041L23.7285 6.36157V6.34725L24.1441 6.18978C24.9036 5.87771 25.6786 5.60488 26.4661 5.37238L26.5233 5.34375H26.5377L26.5949 5.37238C26.6833 5.3996 26.7696 5.43325 26.8531 5.47305C26.9522 5.5038 27.0493 5.5405 27.144 5.58296C27.1473 5.58469 27.1507 5.58624 27.1542 5.58758C29.0176 6.28999 30.8237 7.06397 32.5148 7.85227C36.1986 9.58681 39.223 11.5361 41.7745 13.8008C42.4339 14.3743 43.0791 14.9904 43.7524 15.6785C43.7953 15.7214 43.8387 15.7644 43.8817 15.8073C43.896 15.8216 43.896 15.8216 43.9103 15.836C43.9533 15.8794 43.9962 15.9366 44.0391 15.9796C44.5263 16.4811 44.9997 17.0117 45.5155 17.6134C45.5155 17.6134 45.5298 17.6278 45.5442 17.6421C45.5871 17.6993 45.6301 17.7427 45.6735 17.8V17.8143C45.7164 17.8573 45.7594 17.9145 45.8023 17.9575Z" fill="url(#paint1_linear)"/>
<path d="M53.1847 32.3057C53.1349 32.3744 53.077 32.4368 53.0124 32.4918V32.5061C52.9639 32.567 52.9113 32.6246 52.8549 32.6784C52.7425 32.8228 52.6229 32.9615 52.4966 33.094C52.2841 33.3178 52.0831 33.5522 51.8944 33.7964L50.7764 35.0146L50.6332 35.1864L50.4614 35.3587H50.4609C50.4435 35.285 50.4196 35.2129 50.3894 35.1435C50.372 35.0699 50.348 34.998 50.3178 34.9287C50.3058 34.8896 50.2915 34.8512 50.2748 34.8137C49.9594 33.8823 49.6154 32.9795 49.2141 32.0762C49.1965 32.0119 49.1725 31.9495 49.1425 31.8901C49.115 31.8203 49.0814 31.7531 49.0423 31.6892C48.0025 29.2478 46.7253 26.9144 45.2291 24.7228C44.5809 23.7416 43.8825 22.7944 43.1367 21.885C43.1928 21.8413 43.2455 21.7933 43.2942 21.7414C43.3371 21.7128 43.3801 21.6555 43.4378 21.6126C43.6955 21.3831 43.9821 21.1394 44.2977 20.8815C44.8994 20.3514 45.5732 19.7921 46.247 19.1613L46.3901 19.0182C46.4396 18.967 46.4923 18.9192 46.5481 18.875C47.4029 19.9876 48.1971 21.1455 48.9273 22.3436C50.2192 24.4638 51.2995 26.7059 52.1525 29.0375C52.17 29.1112 52.1939 29.1832 52.2241 29.2527C52.2565 29.3211 52.2805 29.3932 52.2957 29.4674C52.5682 30.2128 52.812 30.9868 53.0267 31.7751C53.041 31.7894 53.041 31.8037 53.041 31.8323C53.0733 31.9109 53.0973 31.9926 53.1126 32.0762C53.1414 32.1511 53.1654 32.2277 53.1847 32.3057Z" fill="url(#paint2_linear)"/>
<path d="M45.7312 18.022C45.7058 18.0432 45.6809 18.0649 45.6592 18.0866V18.0862C45.6809 18.0645 45.7058 18.0432 45.7312 18.022Z" fill="#007AC1"/>
<path d="M46.462 17.341C46.2468 17.5562 46.0172 17.7571 45.8025 17.9575C45.7813 17.9787 45.7559 18.0004 45.7309 18.0221C45.7055 18.0434 45.6806 18.0646 45.6589 18.0863V18.0868L45.6446 18.1011C45.595 18.1475 45.5424 18.1906 45.4871 18.23C44.6129 19.0326 43.638 19.8495 42.6488 20.6526C42.5935 20.692 42.5409 20.735 42.4914 20.7814H42.477C42.4341 20.8244 42.3768 20.8673 42.3334 20.9103C42.0471 21.1255 41.7603 21.3545 41.4879 21.5697L41.3304 21.4266L41.3018 21.3975C41.5507 21.1302 41.8138 20.8767 42.0901 20.6378C42.1307 20.5876 42.179 20.5441 42.2332 20.509C42.2905 20.4517 42.3482 20.4088 42.3911 20.3658C42.5773 20.2079 42.7638 20.0504 42.9499 19.8781C43.0363 19.8066 43.1365 19.7207 43.2367 19.6348C43.8532 19.1185 44.5413 18.5311 45.2146 17.9002C45.266 17.8562 45.314 17.8083 45.3582 17.7571C45.4141 17.713 45.4668 17.665 45.5157 17.6135C45.7166 17.413 45.917 17.2121 46.1036 17.0117L46.1609 17.0547L46.3183 17.2121L46.462 17.341Z" fill="#007AC1"/>
<path d="M19.5715 32.1904V32.1909C19.432 32.2214 19.2921 32.2514 19.1527 32.2809C19.0825 32.2957 19.0127 32.3105 18.943 32.3248C18.8783 32.3387 18.8132 32.3521 18.7486 32.3655C18.7403 32.3673 18.732 32.3691 18.7236 32.3705C18.7852 32.3577 18.847 32.3448 18.9089 32.3319C18.9234 32.3289 18.9378 32.3259 18.9523 32.3228C19.0536 32.3013 19.1552 32.2798 19.257 32.2583L19.5715 32.1904Z" fill="#007AC1"/>
<path d="M20.6041 31.9044L20.0024 32.0619L19.8015 32.1192L19.5863 32.1764L19.572 32.1908L19.2575 32.2586C19.1527 32.2808 19.048 32.303 18.9435 32.3251C18.8701 32.3404 18.7971 32.3556 18.7241 32.3709C18.5879 32.399 18.4517 32.4272 18.3159 32.4544C17.8809 32.5427 17.448 32.6289 17.0173 32.7131C16.845 32.7468 16.6736 32.7805 16.5028 32.8142C16.4174 32.8308 16.332 32.8479 16.247 32.8645C16.175 32.8788 16.1177 32.8932 16.0461 32.9075C15.9732 32.9149 15.9011 32.9293 15.8309 32.9504C15.5589 32.9938 15.3008 33.0511 15.0426 33.0941L15.014 32.6927L14.9854 32.363C15.1719 32.3487 15.3723 32.3201 15.5589 32.3057C15.6448 32.2914 15.7021 32.2914 15.7737 32.2771C15.8452 32.2628 15.9173 32.2628 15.9745 32.2485C17.1498 32.0906 18.3967 31.8181 19.2857 31.6033C19.3573 31.589 19.4288 31.5747 19.4861 31.5604C19.556 31.5347 19.628 31.5154 19.7013 31.5027C20.1599 31.3881 20.4467 31.3022 20.4467 31.3022L20.4896 31.5027L20.5469 31.7036L20.6041 31.9044Z" fill="#007AC1"/>
<path d="M50.4621 35.3584L50.4609 35.3596V35.3584H50.4621Z" fill="#007AC1"/>
<path d="M53.7146 31.6029L53.5285 31.8606C53.4279 32.0042 53.299 32.1617 53.1845 32.3053C53.1347 32.374 53.0769 32.4365 53.0122 32.4914V32.5057C52.9637 32.5666 52.9111 32.6242 52.8548 32.678C52.7423 32.8224 52.6227 32.9611 52.4964 33.0936C52.2839 33.3174 52.0829 33.5518 51.8942 33.796L50.7762 35.0142L50.633 35.186L50.4612 35.3583H50.4608V35.3587L50.1601 35.688C49.9879 35.8741 49.8018 36.0464 49.6152 36.2182L49.3284 35.9314L49.2568 35.8741C49.2712 35.8598 49.6868 35.4299 50.2747 34.8133C50.331 34.7597 50.3836 34.7023 50.4321 34.6416C50.4894 34.5843 50.5328 34.527 50.5901 34.4693C51.2348 33.796 52.0235 32.9356 52.7116 32.1473C52.7605 32.0824 52.8131 32.0202 52.8691 31.9612V31.9469C52.9254 31.8931 52.978 31.8356 53.0266 31.7747C53.1559 31.6315 53.2704 31.474 53.3849 31.3447L53.3992 31.359L53.5572 31.4884L53.7146 31.6029Z" fill="#007AC1"/>
<path d="M32.4442 46.5818C32.2992 46.6303 32.152 46.6785 32.0027 46.7264C31.8535 46.774 31.7025 46.8211 31.5492 46.8663C31.4471 46.8963 31.3442 46.9257 31.2402 46.9545C31.1766 46.9869 31.1091 47.011 31.0394 47.0261C30.9964 47.0404 30.9821 47.0404 30.9392 47.0547C30.9105 47.0547 30.8676 47.0834 30.8246 47.0834C29.563 47.456 28.2875 47.7858 27.0258 48.0582C26.946 48.0825 26.8647 48.1016 26.7824 48.1155C26.7252 48.1298 26.6818 48.1441 26.6393 48.1584C26.5959 48.1584 26.5672 48.1728 26.5243 48.1728C26.3668 48.2157 26.2089 48.2448 26.0514 48.2734L26.0085 47.8721L25.9941 47.6569V47.4995C26.0228 47.4995 26.0657 47.4847 26.123 47.4847C26.1946 47.4704 26.2809 47.4704 26.3668 47.456C27.2124 47.3415 28.5452 47.0404 30.3226 46.5389C30.3947 46.5103 30.4663 46.496 30.5378 46.4673H30.5522C30.6171 46.4416 30.6843 46.4224 30.753 46.4101C31.2116 46.2664 31.6988 46.1233 32.2147 45.9653L32.301 46.1949L32.3726 46.3953L32.4442 46.5818Z" fill="#007AC1"/>
<path d="M32.9705 4.49005C31.0011 4.66838 29.0531 5.03346 27.1527 5.58037C27.1499 5.58129 27.1476 5.58176 27.1449 5.58268C27.0414 5.61408 26.9301 5.64641 26.8271 5.67781C26.7459 5.70229 26.6641 5.72676 26.5828 5.75124C26.5584 5.75909 26.5422 5.7674 26.5177 5.77571C25.9322 5.95443 25.3461 6.15809 24.7278 6.39407C24.6465 6.4264 24.5569 6.46703 24.4673 6.49982C24.4184 6.51599 24.3616 6.54046 24.3048 6.56494C24.2812 6.57233 24.2503 6.58803 24.2267 6.59588C24.2257 6.59645 24.2246 6.59692 24.2235 6.59727C21.4 7.74485 18.8532 9.29051 16.648 11.2028C16.0703 11.7076 15.5249 12.2197 15.0045 12.749L14.9999 12.7536V12.754C14.9361 12.8169 14.8729 12.881 14.8091 12.9522C14.7357 13.0256 14.6628 13.0986 14.5976 13.172C14.1497 13.6356 13.735 14.1159 13.3281 14.5957C13.2547 14.6853 13.1817 14.7749 13.1166 14.8645C13.0372 14.9601 12.9652 15.0478 12.8931 15.143C12.8917 15.1448 12.8899 15.1471 12.8885 15.149C12.2042 16.0175 11.579 16.931 11.0173 17.8833C9.41433 20.5599 8.32401 23.2698 7.79525 25.9547C7.35728 28.0176 7.15525 30.1236 7.19306 32.2321V32.2367C7.1889 32.3071 7.1889 32.3777 7.19306 32.4482V32.4967C7.19175 32.5484 7.19438 32.6001 7.2009 32.6514C7.2009 32.7571 7.2009 32.855 7.20921 32.9525C7.21753 33.3025 7.24201 33.6115 7.25817 33.8881C7.26603 33.9615 7.26602 34.0349 7.27433 34.0996C7.28264 34.1647 7.28264 34.2298 7.2905 34.2949V34.2972H7.29095C7.57589 37.4209 8.37343 40.3737 9.65863 43.0748C10.5781 45.0194 11.6518 46.7932 12.8723 48.3717C12.8728 48.3721 12.8733 48.3731 12.8737 48.3735C12.9147 48.4386 12.9605 48.5005 13.0109 48.5587C13.0515 48.616 13.1005 48.6811 13.149 48.7379C13.3688 49.0145 13.5964 49.2828 13.8163 49.5516C13.8731 49.6167 13.9303 49.6735 13.9871 49.7386C14.0444 49.8037 14.1012 49.8689 14.158 49.9261C14.1848 49.9557 14.2116 49.9857 14.2384 50.0152C14.358 50.1478 14.478 50.2794 14.5976 50.4059C16.5746 52.5298 18.9589 54.401 21.6928 55.9878L21.5219 56.354C18.6661 55.3126 15.9646 53.6931 13.4907 51.5531C12.9619 51.0894 12.4493 50.6091 11.9612 50.0965C11.951 50.0877 11.9409 50.0785 11.9312 50.0688C11.8781 50.0194 11.8291 49.9644 11.7742 49.9095C11.7169 49.8527 11.6601 49.7876 11.6033 49.7225C11.3996 49.511 11.2043 49.2911 11.0173 49.0713C10.9605 49.0062 10.9115 48.9494 10.8709 48.8926C10.8104 48.8382 10.7582 48.7752 10.7162 48.7056C10.7157 48.7046 10.7148 48.7042 10.7143 48.7033C9.51666 47.283 8.4727 45.74 7.59991 44.1C6.09442 41.3739 5.102 38.3066 4.63789 34.9784L4.4915 33.7906C4.46702 33.5708 4.45917 33.3432 4.45085 33.1233L4.41022 32.2528C4.39405 31.9596 4.38574 31.659 4.38574 31.3657L4.42639 30.1613C4.45085 28.5178 4.72748 26.8904 5.01241 25.3609C5.66309 22.3097 6.90027 19.3154 8.69808 16.4513C10.0655 14.3602 11.6194 12.513 13.3364 10.9424C13.3376 10.9414 13.3387 10.9403 13.3397 10.9391C13.4196 10.8676 13.4916 10.7951 13.5724 10.7309C13.6537 10.6574 13.7267 10.5923 13.8079 10.5277C14.1012 10.2589 14.4101 10.0068 14.7196 9.77078C14.7887 9.70874 14.8622 9.65165 14.9394 9.59991C15.0082 9.53829 15.0812 9.48151 15.1578 9.42997C15.1583 9.42951 15.1583 9.42905 15.1587 9.42905C15.1675 9.41625 15.1786 9.40527 15.1915 9.39672C17.4242 7.6858 19.9191 6.34758 22.5795 5.43397C23.3119 5.18183 24.0766 4.96201 24.8663 4.76666C26.8868 4.26586 28.9605 4.01171 31.042 4.00977C31.6849 4.00977 32.3194 4.03424 32.9622 4.08319L32.9705 4.49005Z" fill="#007AC1"/>
<path d="M31.24 46.9546C31.1764 46.987 31.1089 47.0111 31.0391 47.0262C30.9962 47.0405 30.9819 47.0405 30.9389 47.0548C30.9103 47.0548 30.8673 47.0835 30.8244 47.0835C29.5627 47.4562 28.2872 47.7859 27.0256 48.0583C26.9458 48.0826 26.8645 48.1017 26.7822 48.1156C26.725 48.1299 26.6816 48.1442 26.6391 48.1586C26.5956 48.1586 26.567 48.1729 26.5241 48.1729C26.4954 48.1586 26.4811 48.1299 26.4525 48.1013C26.4156 48.0716 26.382 48.038 26.3523 48.0011C26.2946 47.9438 26.2371 47.8864 26.18 47.8288C26.1147 47.7752 26.0526 47.7178 25.9939 47.657C25.5206 47.1985 25.0477 46.7108 24.5605 46.195C24.4715 46.0795 24.3705 45.9738 24.2594 45.8795C24.2391 45.8358 24.2098 45.7968 24.1735 45.765C24.1592 45.7507 24.1449 45.7221 24.1305 45.7078C24.0741 45.654 24.0213 45.5964 23.9726 45.5355C21.7295 43.0559 19.7548 40.3463 18.0814 37.4516C17.408 36.2615 16.7915 35.0576 16.2471 33.8537C16.3146 33.8502 16.3817 33.8406 16.4475 33.8251C16.5191 33.8107 16.5763 33.8107 16.6627 33.7964C17.9525 33.5812 19.2857 33.2801 20.0884 33.0797C20.1616 33.0673 20.2335 33.0482 20.3031 33.0224C20.3751 33.0081 20.4467 32.9938 20.504 32.9795C20.9196 33.7105 21.3639 34.4268 21.8372 35.1721C23.4138 37.652 25.3488 40.1892 27.9289 43.1849L28.4877 43.8301L28.574 43.9303C28.5883 43.9446 28.6027 43.9732 28.6313 43.9875C28.6777 44.0371 28.7207 44.0897 28.7601 44.145C29.3623 44.8331 30.007 45.5641 30.7528 46.4102C30.8189 46.4781 30.881 46.5498 30.9389 46.6249C30.9758 46.6546 31.0094 46.6882 31.0391 46.7251C31.0534 46.7394 31.0678 46.7685 31.0964 46.7972C31.1541 46.8544 31.1971 46.9117 31.24 46.9546Z" fill="url(#paint3_linear)"/>
<path d="M58.4022 24.8378V24.9523L58.3735 24.9952C58.3449 25.0668 58.3015 25.1241 58.2728 25.1818C58.2165 25.2659 58.1606 25.3504 58.1043 25.4344C58.1034 25.4363 58.102 25.4376 58.1011 25.4395C58.0438 25.5111 57.9865 25.5974 57.9288 25.6833L55.8364 28.8079L53.7148 31.6032L53.5287 31.8609C53.4281 32.0045 53.2992 32.162 53.1847 32.3056C53.1349 32.3743 53.0771 32.4368 53.0124 32.4917V32.506C52.9639 32.567 52.9113 32.6245 52.855 32.6783C52.7425 32.8227 52.6229 32.9614 52.4966 33.0939C52.2841 33.3177 52.0831 33.5521 51.8944 33.7963L50.7764 35.0146L50.6332 35.1863L50.4614 35.3586L50.461 35.3591L50.1603 35.6883C49.9881 35.8744 49.802 36.0467 49.6154 36.2185C49.1711 36.6341 48.7269 37.0497 48.2678 37.451C47.2075 38.5118 45.9602 39.4294 44.7563 40.3036L44.2548 40.662C41.6031 42.5397 38.5639 44.1883 35.2099 45.564C34.3357 45.9224 33.4042 46.2664 32.4436 46.5818C32.2986 46.6303 32.1515 46.6785 32.0022 46.7264C31.853 46.774 31.702 46.8211 31.5487 46.8663C31.4466 46.8963 31.3436 46.9257 31.2397 46.9545C31.1761 46.9869 31.1086 47.011 31.0388 47.0261C30.9959 47.0404 30.9816 47.0404 30.9386 47.0547C30.91 47.0547 30.867 47.0834 30.8241 47.0834C29.5624 47.456 28.2869 47.7858 27.0253 48.0582C26.9455 48.0825 26.8642 48.1016 26.7819 48.1155C26.7246 48.1298 26.6812 48.1441 26.6388 48.1584C26.5953 48.1584 26.5667 48.1728 26.5238 48.1728C26.4148 48.1963 26.2504 48.2314 26.0509 48.2734C22.8085 48.9528 19.0536 49.7401 14.7699 49.9877C14.5907 49.9978 14.4134 50.0071 14.2379 50.0154C13.4321 50.0528 12.6608 50.0689 11.9307 50.0689C8.31665 50.0694 5.71992 49.6773 5.03783 49.5702C3.33775 49.3022 1.65541 48.9318 0 48.4609C3.54785 48.9806 7.14615 49.062 10.7139 48.7034C10.7545 48.7024 10.795 48.6993 10.8353 48.6941C10.875 48.6891 10.9143 48.6817 10.9572 48.6747C10.9859 48.6747 11.0288 48.6604 11.0722 48.6604C11.1043 48.6487 11.1384 48.6438 11.1724 48.6461C11.5881 48.5884 12.0037 48.5168 12.4193 48.4452C12.4914 48.4309 12.5772 48.4309 12.6488 48.4166C12.6809 48.4049 12.715 48.4 12.7491 48.4023C12.7888 48.3866 12.8307 48.3769 12.8733 48.3736H12.8783C13.6523 48.2448 14.412 48.1012 15.1717 47.9437C18.159 47.3522 21.1001 46.5474 23.9723 45.5354C24.046 45.5181 24.1181 45.4941 24.1875 45.4638C24.2018 45.4638 24.2448 45.4495 24.2591 45.4495C24.3005 45.4271 24.3435 45.4079 24.3879 45.3922C25.578 44.9766 26.8249 44.5033 28.086 43.9874C28.1581 43.9588 28.2297 43.9302 28.2869 43.9015C28.3013 43.9015 28.3299 43.8872 28.3442 43.8872C28.3904 43.8644 28.4382 43.8453 28.4874 43.83C30.093 43.1562 31.7699 42.3965 33.4471 41.5796L35.5682 40.4759C35.7548 40.3752 35.9414 40.2893 36.1418 40.1891C36.6433 39.9453 37.1739 39.6876 37.6611 39.3865L38.0911 39.114C38.6217 38.7986 39.1661 38.4689 39.7254 38.1678L40.0546 37.9817C40.2842 37.8528 40.528 37.7235 40.7427 37.5803L41.7463 36.9209L44.2548 35.3013L46.0609 33.9824C46.5767 33.5954 47.1069 33.2084 47.6375 32.8501L49.0423 31.6891L49.2141 31.5603L49.3863 31.4166L49.5009 31.3307C49.7013 31.159 49.9165 30.9867 50.1174 30.8292C50.533 30.4995 50.963 30.1698 51.3499 29.7971L51.8228 29.3528L51.9808 29.1949L52.1526 29.0374L54.0016 27.2743L54.8186 26.4001L56.4811 24.5796C56.8256 24.2069 57.1405 23.8056 57.4559 23.4043L57.5561 23.275L57.558 23.2732L57.7141 23.0889L57.8572 22.9023H57.8716L57.9722 23.2607C58.144 23.777 58.2728 24.3071 58.4022 24.8378Z" fill="url(#paint4_linear)"/>
<path d="M20.0019 32.0617L19.801 32.119L19.5858 32.1763L19.5715 32.1906V32.191C19.4667 32.2137 19.3618 32.2361 19.257 32.2585C19.2219 32.2663 19.1873 32.2737 19.1526 32.2811C19.0824 32.2959 19.0127 32.3106 18.943 32.325C18.8783 32.3388 18.8132 32.3522 18.7485 32.3656C18.7402 32.3674 18.7319 32.3693 18.7236 32.3707C18.5874 32.3989 18.4511 32.427 18.3154 32.4543C17.8803 32.5425 17.4475 32.6287 17.0168 32.7129C16.845 32.7466 16.6735 32.7803 16.5023 32.814C16.4169 32.8306 16.3314 32.8477 16.2465 32.8644C16.1744 32.8787 16.1172 32.893 16.0456 32.9073C15.9727 32.9147 15.9006 32.9291 15.8304 32.9502C15.8027 32.8898 15.7788 32.8276 15.7588 32.7641C15.7302 32.6926 15.7016 32.621 15.6729 32.5633C15.63 32.4774 15.6013 32.3915 15.5584 32.3056C15.2716 31.5745 14.9992 30.8578 14.7553 30.1268C14.741 30.0695 14.7128 30.0122 14.6981 29.9402C14.6694 29.8829 14.6551 29.8114 14.6265 29.7398C14.3688 28.9372 14.1393 28.1341 13.9384 27.3172C13.0928 23.9058 12.7201 20.2649 12.8347 16.5095C12.8347 16.0223 12.8633 15.5781 12.8924 15.1481V15.143C12.8929 15.0299 12.9067 14.9168 12.9067 14.8041C12.9227 14.7044 12.9322 14.6039 12.9353 14.503C12.9332 14.4828 12.9383 14.4625 12.9497 14.4457C13.0069 13.4422 13.1071 12.4964 13.236 11.6075C13.2508 11.4929 13.2651 11.3927 13.2794 11.2921V11.2777C13.2937 11.1918 13.308 11.1203 13.3223 11.0344C13.3201 11.0048 13.325 10.9752 13.3367 10.948C13.3376 10.9451 13.3384 10.9422 13.339 10.9392C14.3734 7.29282 15.4078 3.64641 16.4423 0C15.9121 3.08994 15.4837 6.23283 15.1571 9.42867V9.43006C15.1474 9.52565 15.1377 9.62078 15.128 9.71545C15.1161 9.77205 15.1113 9.82992 15.1137 9.88771C15.1171 9.92178 15.1121 9.95616 15.0994 9.98792C15.0564 10.7762 15.0135 11.4929 15.0135 12.1667C15.0022 12.2665 14.9974 12.3669 14.9992 12.4673V12.7541C14.9992 13.9867 15.0421 15.234 15.1571 16.4379C15.4599 19.8013 16.1969 23.1114 17.3497 26.2855C17.6079 26.9874 17.8803 27.6898 18.1958 28.3922C18.2244 28.4638 18.253 28.5215 18.2817 28.5931C18.2993 28.6528 18.3233 28.7103 18.3532 28.7649C18.7689 29.6825 19.1988 30.5997 19.7008 31.5025C19.7283 31.5722 19.7618 31.6394 19.801 31.7034C19.8288 31.7684 19.8623 31.8309 19.9012 31.8899C19.9292 31.9503 19.9629 32.0078 20.0019 32.0617Z" fill="url(#paint5_linear)"/>
<path d="M61.5135 31.5938L61.4646 32.7977C61.4401 34.4251 61.1635 36.0608 60.879 37.582C60.2362 40.6253 58.9911 43.6196 57.1929 46.4837C56.3908 47.716 55.4962 48.8854 54.5167 49.9819L54.5158 49.9828C54.4472 50.0708 54.3738 50.155 54.296 50.235C54.223 50.3163 54.1496 50.3975 54.0683 50.4793C53.824 50.7476 53.564 51.0159 53.3035 51.2764C53.237 51.3456 53.1664 51.4108 53.092 51.4717C53.0284 51.5411 52.9604 51.6063 52.8884 51.667L52.8833 51.6721C52.1942 52.3381 51.465 52.9613 50.6999 53.5383C48.1071 55.5224 45.1647 57.0019 42.0258 57.9C41.3991 58.0787 40.8219 58.2173 40.2765 58.3309C38.4825 58.7197 36.6522 58.9161 34.8166 58.9169C34.1899 58.9169 33.5637 58.8924 32.937 58.8518L32.9287 58.445C34.8841 58.2663 36.8184 57.9041 38.7059 57.3629C38.7068 57.3625 38.7082 57.3625 38.7091 57.362C38.7899 57.338 38.8777 57.3135 38.9585 57.2895C39.007 57.2734 39.0642 57.2572 39.1127 57.2406C39.1465 57.2336 39.1794 57.2227 39.2106 57.2082C39.4466 57.1348 39.6826 57.0619 39.902 56.9884C40.0973 56.9233 40.2848 56.8582 40.4635 56.8014C40.4898 56.7885 40.517 56.7776 40.5448 56.7686C40.6182 56.7446 40.6916 56.7118 40.7646 56.6873C40.8053 56.6712 40.838 56.6633 40.8704 56.6467C40.9105 56.6305 40.9429 56.6148 40.983 56.5982C40.9835 56.5982 40.984 56.5977 40.9844 56.5977C44.0845 55.4261 46.8752 53.7909 49.2433 51.7405C50.5507 50.6037 51.7509 49.3492 52.8288 47.9929C52.8297 47.9915 52.8306 47.9906 52.8316 47.9892C52.9045 47.908 52.9618 47.8428 53.0269 47.7616V47.7533C53.092 47.672 53.1488 47.5907 53.2056 47.509C53.6046 46.9963 53.9708 46.4759 54.3126 45.9467C54.3855 45.8409 54.4507 45.7758 54.5241 45.6622V45.6132C54.5971 45.5075 54.6622 45.4017 54.7273 45.2881C54.7434 45.2637 54.7596 45.2387 54.7758 45.2129C54.8086 45.1607 54.8413 45.1062 54.8737 45.0517C56.4849 42.3584 57.5674 39.649 58.0961 36.9881C58.9098 33.1639 58.9098 29.1772 58.104 25.4342C58.0878 25.3446 58.0717 25.2467 58.0472 25.1576C58.031 25.0842 58.0149 25.0107 57.9982 24.9378L57.9904 24.8888C57.9904 24.8805 57.9821 24.8644 57.9821 24.8565C57.8925 24.4903 57.8034 24.1241 57.6971 23.7579C57.6731 23.6766 57.6565 23.6032 57.632 23.5302C57.6159 23.4813 57.6076 23.4323 57.5914 23.3838C57.5835 23.351 57.5674 23.3104 57.5591 23.2776C57.5586 23.2762 57.5581 23.2744 57.5577 23.273C57.2022 22.1113 56.7649 20.9763 56.2489 19.8764C54.9065 17.0289 53.2467 14.5633 51.3099 12.5453L51.2624 12.4981L51.261 12.4968C51.2203 12.4478 51.1714 12.3989 51.1229 12.3499C51.0739 12.2931 51.025 12.2442 50.9765 12.1957C50.6833 11.8863 50.3822 11.5852 50.0732 11.3002C50.0284 11.2501 49.9795 11.2039 49.9268 11.1621C49.882 11.1082 49.831 11.0597 49.7749 11.0176C49.774 11.0171 49.773 11.0162 49.7721 11.0158C48.1364 9.50196 46.2813 8.15164 44.2309 6.95557L44.4018 6.58936C46.6475 7.41091 48.7959 8.58297 50.8135 10.1046C50.814 10.1051 50.8144 10.1051 50.8149 10.1055C50.8735 10.1456 50.9301 10.1886 50.9844 10.2344C51.0438 10.2678 51.0987 10.309 51.1474 10.3568C51.4402 10.5761 51.7251 10.8042 52.0096 11.0564C52.0693 11.0925 52.1241 11.1363 52.1726 11.1866C52.2211 11.2273 52.2699 11.2679 52.319 11.3085L52.3208 11.3104C52.3527 11.3423 52.3924 11.3658 52.4247 11.3981C54.7762 13.4485 56.7615 15.9631 58.3077 18.8517C58.7476 19.6518 59.1389 20.4778 59.4793 21.3251L59.8699 22.3013C60.525 24.1392 60.9885 26.0397 61.253 27.9728L61.4078 29.1605C61.4322 29.4699 61.4485 29.771 61.4567 30.0638L61.489 30.7228C61.4973 31.0077 61.5135 31.3005 61.5135 31.5938Z" fill="#007AC1"/>
<path d="M57.9407 3.48242C56.2319 6.20396 54.356 8.81694 52.3238 11.3063C52.3229 11.3077 52.3215 11.3091 52.3206 11.3105C52.2786 11.3617 52.237 11.413 52.195 11.4643L52.1807 11.4786C52.1342 11.523 52.0911 11.5709 52.0518 11.6217L51.5355 12.181C51.4926 12.2382 51.4496 12.2812 51.4067 12.3385H51.3923C51.3528 12.3938 51.3098 12.4466 51.2635 12.4964C51.2631 12.4969 51.2626 12.4978 51.2621 12.4982C50.8326 12.9563 50.4027 13.4283 49.9732 13.8864C48.8123 15.1047 47.637 16.2661 46.4617 17.3407C46.2465 17.5559 46.017 17.7568 45.8022 17.9572C45.781 17.9785 45.7556 18.0002 45.7306 18.0219C45.7242 18.0274 45.7182 18.0325 45.7117 18.0381C45.6928 18.0542 45.6748 18.0704 45.6586 18.0865L45.6443 18.1009C45.5947 18.1473 45.5421 18.1903 45.4868 18.2297C44.6126 19.0323 43.6377 19.8493 42.6485 20.6523C42.5932 20.6917 42.5406 20.7348 42.4911 20.7812H42.4768C42.4338 20.8241 42.3765 20.8671 42.3331 20.91C42.0468 21.1252 41.76 21.3543 41.4876 21.5695C38.9938 23.4758 36.4567 25.1526 33.8909 26.5431C32.8731 27.1024 31.8123 27.6182 30.7949 28.1197C30.2786 28.3492 29.7914 28.5931 29.2895 28.8508C27.627 29.5532 25.9501 30.1983 24.5024 30.7575L22.0368 31.5024L20.6034 31.9042L20.0016 32.0617L19.8007 32.1189L19.5855 32.1762L19.5712 32.1905V32.191C19.4318 32.2215 19.2918 32.2515 19.1524 32.281C19.0822 32.2958 19.0124 32.3106 18.9427 32.3249C18.8781 32.3388 18.8129 32.3522 18.7483 32.3655C18.74 32.3674 18.7317 32.3692 18.7234 32.3706C18.5871 32.3988 18.4509 32.427 18.3151 32.4542C17.8801 32.5424 17.4472 32.6286 17.0165 32.7128C16.8443 32.7465 16.6728 32.7802 16.5021 32.814C16.4166 32.8306 16.3312 32.8477 16.2462 32.8643C16.1742 32.8786 16.1169 32.8929 16.0453 32.9072C15.9724 32.9146 15.9003 32.929 15.8302 32.9502C15.5581 32.9936 15.3 33.0509 15.0418 33.0938C14.8701 33.1368 14.7126 33.1511 14.5547 33.194C13.6227 33.3663 12.6626 33.4951 11.7307 33.624C10.9997 33.739 10.2686 33.8392 9.53761 33.968C8.79364 34.0969 8.03397 34.2114 7.29 34.2973H7.28955C7.28907 34.2977 7.28862 34.2977 7.2877 34.2977C7.22997 34.2977 7.12975 32.2478 7.18701 32.2335C7.18886 32.233 7.19025 32.2326 7.1921 32.2321C9.58425 31.5445 11.933 30.728 13.7234 30.0838L14.6262 29.7397L14.8271 29.6681L15.0132 29.5966L17.8085 28.5358L18.0089 28.4638L18.1955 28.3922L18.3673 28.3349L20.632 27.4035L22.9253 26.5145L23.7857 26.1561C24.9896 25.6546 26.2221 25.1383 27.4547 24.6654L31.8839 22.6446C34.7221 21.2541 37.4168 19.7777 39.868 18.244C39.9285 18.2109 39.986 18.1726 40.0398 18.1295C40.0541 18.1295 40.0689 18.1152 40.0832 18.1152C40.1262 18.0718 40.1834 18.0574 40.2264 18.0145C41.373 17.3126 42.4195 16.6102 43.4225 15.9221C43.4803 15.8791 43.5375 15.8357 43.5805 15.8071C43.5879 15.8066 43.5949 15.8034 43.6002 15.7981C43.6054 15.7929 43.6086 15.7859 43.6091 15.7784C43.6622 15.7535 43.7106 15.7196 43.7523 15.6782C45.3579 14.5745 46.9059 13.3849 48.3823 12.1667C48.8552 11.7935 49.3138 11.4213 49.7728 11.0195L49.7747 11.0177C49.823 10.9669 49.875 10.9196 49.9303 10.8764H49.9446C49.9875 10.8334 50.0448 10.7905 50.0877 10.7475C50.2028 10.6473 50.3174 10.547 50.4318 10.4464L50.5034 10.3749L50.6613 10.2456L50.6899 10.2169C50.7255 10.1851 50.7782 10.1389 50.8146 10.1056C50.8161 10.1047 50.8175 10.1036 50.8188 10.1024C53.2548 7.93376 55.6288 5.7271 57.9407 3.48242Z" fill="url(#paint6_linear)"/>
<path d="M54.7765 45.2129C54.7645 46.9497 54.6634 48.5462 54.5179 49.9787C54.5179 49.9796 54.5175 49.981 54.5175 49.9819C54.0162 53.5677 52.7081 56.9929 50.6914 59.9999C52.1406 56.9538 52.7437 54.1447 52.8841 51.6721V51.6703C52.8896 51.5742 52.8944 51.4787 52.8984 51.3835V51.0967C52.8984 50.2082 52.8841 49.3913 52.8554 48.6025V48.3019C52.8554 48.2299 52.8411 48.1583 52.8411 48.0724C52.843 48.0454 52.839 48.0183 52.8296 47.9929C52.8288 47.9907 52.8279 47.9886 52.8268 47.9865C52.7404 46.3951 52.5973 44.9473 52.3968 43.543C52.0683 41.1784 51.5505 38.8441 50.8484 36.5623C50.9062 36.5051 50.9636 36.4478 51.0207 36.3906C51.0779 36.3328 51.1209 36.2899 51.1782 36.2326C51.6944 35.6738 52.4541 34.8855 53.1852 34.0538C53.2998 33.9296 53.4145 33.8054 53.5292 33.6812C54.1163 36.2749 54.4982 38.9109 54.6712 41.5646C54.7539 42.8383 54.7849 44.0565 54.7765 45.2129Z" fill="url(#paint7_linear)"/>
<path d="M88.5537 14.448H104.618V18.928H93.1937V23.952H103.306V28.432H93.1937V33.52H105.066V38H88.5537V14.448ZM123.338 38H117.93L114.698 33.808L111.754 38H107.306L112.49 30.96L107.146 24.016H112.65L115.722 28.048L118.122 24.016H122.57L117.77 30.704L123.338 38ZM134.742 38.384C133.953 38.384 133.163 38.2453 132.374 37.968C131.606 37.6693 130.955 37.2533 130.422 36.72V44.72H125.974V23.696H129.814L130.198 25.36C130.923 24.784 131.723 24.304 132.598 23.92C133.494 23.5147 134.507 23.312 135.638 23.312C136.939 23.312 138.102 23.6213 139.126 24.24C140.15 24.8373 140.95 25.712 141.526 26.864C142.123 27.9947 142.422 29.36 142.422 30.96C142.422 32.5387 142.091 33.8827 141.43 34.992C140.769 36.1013 139.862 36.944 138.71 37.52C137.558 38.096 136.235 38.384 134.742 38.384ZM133.846 34.864C134.571 34.864 135.233 34.704 135.83 34.384C136.449 34.064 136.939 33.616 137.302 33.04C137.686 32.4427 137.878 31.7707 137.878 31.024C137.878 29.8293 137.515 28.88 136.79 28.176C136.065 27.4507 135.19 27.088 134.166 27.088C133.27 27.088 132.523 27.2693 131.926 27.632C131.329 27.9733 130.838 28.496 130.454 29.2V32.624C130.689 33.3067 131.105 33.8507 131.702 34.256C132.321 34.6613 133.035 34.864 133.846 34.864ZM145.943 12.752H150.423V38H145.943V12.752ZM153.948 30.832C153.948 29.4027 154.279 28.1227 154.94 26.992C155.623 25.8613 156.572 24.976 157.788 24.336C159.004 23.6747 160.402 23.344 161.98 23.344C163.58 23.344 164.967 23.6747 166.14 24.336C167.314 24.976 168.21 25.8613 168.828 26.992C169.468 28.1227 169.788 29.4027 169.788 30.832C169.788 32.2613 169.468 33.552 168.828 34.704C168.21 35.8347 167.314 36.7307 166.14 37.392C164.967 38.0533 163.559 38.384 161.916 38.384C160.38 38.384 159.004 38.0853 157.788 37.488C156.594 36.8907 155.655 36.0267 154.972 34.896C154.29 33.7653 153.948 32.4107 153.948 30.832ZM158.46 30.864C158.46 31.9733 158.78 32.9013 159.42 33.648C160.06 34.3733 160.871 34.736 161.852 34.736C162.898 34.736 163.73 34.3733 164.348 33.648C164.967 32.9013 165.276 31.9733 165.276 30.864C165.276 29.7547 164.967 28.8373 164.348 28.112C163.73 27.3653 162.898 26.992 161.852 26.992C160.871 26.992 160.06 27.3653 159.42 28.112C158.78 28.8373 158.46 29.7547 158.46 30.864Z" fill="#3B3B3B"/>
<defs>
<linearGradient id="paint0_linear" x1="20.6095" y1="52.5525" x2="29.6621" y2="65.3126" gradientUnits="userSpaceOnUse">
<stop stop-color="#1DE9B6"/>
<stop offset="1" stop-color="#03A9F4"/>
</linearGradient>
<linearGradient id="paint1_linear" x1="13.041" y1="12.8806" x2="27.2398" y2="33.015" gradientUnits="userSpaceOnUse">
<stop stop-color="#1DE9B6"/>
<stop offset="1" stop-color="#03A9F4"/>
</linearGradient>
<linearGradient id="paint2_linear" x1="38.2718" y1="26.8559" x2="52.4597" y2="35.5044" gradientUnits="userSpaceOnUse">
<stop stop-color="#1DE9B6"/>
<stop offset="1" stop-color="#03A9F4"/>
</linearGradient>
<linearGradient id="paint3_linear" x1="8.9879" y1="40.3357" x2="23.699" y2="54.8527" gradientUnits="userSpaceOnUse">
<stop stop-color="#1DE9B6"/>
<stop offset="1" stop-color="#03A9F4"/>
</linearGradient>
<linearGradient id="paint4_linear" x1="-28.2767" y1="36.0556" x2="-8.15647" y2="79.3096" gradientUnits="userSpaceOnUse">
<stop stop-color="#1DE9B6"/>
<stop offset="1" stop-color="#03A9F4"/>
</linearGradient>
<linearGradient id="paint5_linear" x1="9.3345" y1="15.9536" x2="22.6221" y2="18.852" gradientUnits="userSpaceOnUse">
<stop stop-color="#1DE9B6"/>
<stop offset="1" stop-color="#03A9F4"/>
</linearGradient>
<linearGradient id="paint6_linear" x1="-17.4119" y1="18.4023" x2="9.05908" y2="62.0154" gradientUnits="userSpaceOnUse">
<stop stop-color="#1DE9B6"/>
<stop offset="1" stop-color="#03A9F4"/>
</linearGradient>
<linearGradient id="paint7_linear" x1="48.7129" y1="46.4239" x2="56.4407" y2="47.6238" gradientUnits="userSpaceOnUse">
<stop stop-color="#1DE9B6"/>
<stop offset="1" stop-color="#03A9F4"/>
</linearGradient>
</defs>
</svg>
