<svg width="172" height="60" viewBox="0 0 172 60" fill="none" xmlns="http://www.w3.org/2000/svg">
<path d="M41.3307 56.9022L41.0153 57.031C40.4851 57.2319 39.8972 57.4324 39.2378 57.6332L39.1376 57.6619L39.066 57.6046C39.0217 57.5662 38.9736 57.5325 38.9224 57.5039C38.8482 57.4617 38.777 57.4143 38.7095 57.3622C38.709 57.3617 38.7081 57.3612 38.7076 57.3608C36.5288 55.9273 34.5652 54.5511 32.7019 53.2184C30.609 51.6847 28.8749 50.3086 27.3694 48.9467C27.4534 48.9193 27.5398 48.9002 27.6275 48.8894C27.6991 48.8751 27.7855 48.8608 27.8714 48.8465C29.0037 48.6031 30.3222 48.2304 31.5266 47.8721C31.5981 47.8573 31.6697 47.8287 31.7556 47.8143C31.8272 47.8 31.8849 47.7714 31.9565 47.7571C32.9739 48.8751 33.9201 49.8786 34.7943 50.7958C36.829 52.8877 38.9057 54.8504 40.9834 56.5983C40.9843 56.5993 40.9857 56.6002 40.9866 56.6011C41.0116 56.6291 41.0405 56.6532 41.0725 56.6727L41.1589 56.7586L41.3307 56.9022Z" fill="url(#paint0_linear)"/>
<path d="M45.8028 17.9572C45.7816 17.9785 45.7562 18.0002 45.7312 18.0219C45.7058 18.0431 45.6809 18.0644 45.6592 18.0861V18.0865L45.6449 18.1009C45.5953 18.1473 45.5427 18.1903 45.4874 18.2297C44.6132 19.0323 43.6383 19.8493 42.6492 20.6523C42.5938 20.6917 42.5412 20.7348 42.4917 20.7812H42.4774C42.4344 20.8241 42.3771 20.8671 42.3337 20.91L42.2049 20.7669L42.1906 20.7525C42.1613 20.7108 42.1278 20.6722 42.0904 20.6376C42.0775 20.6257 42.0677 20.611 42.0617 20.5946C41.4739 19.9213 40.8287 19.2189 40.1697 18.5451L40.0547 18.4301C40.0404 18.4158 40.0261 18.4015 40.0118 18.4015C39.9545 18.3442 39.9116 18.287 39.8686 18.244C39.4244 17.7998 39.066 17.4557 38.7363 17.1403C36.0989 14.6318 33.5474 12.4964 30.9101 10.6187C28.7891 9.1076 26.5546 7.76267 24.2264 6.59592C24.2231 6.59407 24.2194 6.59269 24.2162 6.59084C24.1858 6.58787 24.1564 6.57809 24.1303 6.56221L23.9867 6.49017L23.729 6.36132V6.34701L24.1446 6.18953C24.9041 5.87746 25.6791 5.60464 26.4666 5.37214L26.5238 5.34351H26.5382L26.5954 5.37214C26.6838 5.39936 26.7701 5.433 26.8536 5.47281C26.9527 5.50355 27.0498 5.54026 27.1445 5.58272C27.1478 5.58445 27.1512 5.58599 27.1547 5.58734C29.0181 6.28974 30.8242 7.06373 32.5153 7.85203C36.1991 9.58657 39.2235 11.5358 41.7749 13.8005C42.4344 14.3741 43.0795 14.9901 43.7529 15.6782C43.7958 15.7212 43.8392 15.7641 43.8822 15.8071C43.8965 15.8214 43.8965 15.8214 43.9108 15.8357C43.9537 15.8791 43.9967 15.9364 44.0396 15.9793C44.5268 16.4809 45.0002 17.0115 45.516 17.6132C45.516 17.6132 45.5303 17.6275 45.5447 17.6418C45.5876 17.6991 45.6306 17.7425 45.674 17.7998V17.8141C45.7169 17.857 45.7599 17.9143 45.8028 17.9572Z" fill="url(#paint1_linear)"/>
<path d="M53.1847 32.3057C53.1349 32.3744 53.077 32.4368 53.0124 32.4918V32.5061C52.9639 32.567 52.9113 32.6246 52.8549 32.6784C52.7425 32.8228 52.6229 32.9615 52.4966 33.094C52.2841 33.3178 52.0831 33.5522 51.8944 33.7964L50.7764 35.0146L50.6332 35.1864L50.4614 35.3587H50.4609C50.4435 35.285 50.4196 35.2129 50.3894 35.1435C50.372 35.0699 50.348 34.998 50.3178 34.9287C50.3058 34.8896 50.2915 34.8512 50.2748 34.8137C49.9594 33.8823 49.6154 32.9795 49.2141 32.0762C49.1965 32.0119 49.1725 31.9495 49.1425 31.8901C49.115 31.8203 49.0814 31.7531 49.0423 31.6892C48.0025 29.2478 46.7253 26.9144 45.2291 24.7228C44.5809 23.7416 43.8825 22.7944 43.1367 21.885C43.1928 21.8413 43.2455 21.7933 43.2942 21.7414C43.3371 21.7128 43.3801 21.6555 43.4378 21.6126C43.6955 21.3831 43.9821 21.1394 44.2977 20.8815C44.8994 20.3514 45.5732 19.7921 46.247 19.1613L46.3901 19.0182C46.4396 18.967 46.4923 18.9192 46.5481 18.875C47.4029 19.9876 48.1971 21.1455 48.9273 22.3436C50.2192 24.4638 51.2995 26.7059 52.1525 29.0375C52.17 29.1112 52.1939 29.1832 52.2241 29.2527C52.2565 29.3211 52.2805 29.3932 52.2957 29.4674C52.5682 30.2128 52.812 30.9868 53.0267 31.7751C53.041 31.7894 53.041 31.8037 53.041 31.8323C53.0733 31.9109 53.0973 31.9926 53.1126 32.0762C53.1414 32.1511 53.1654 32.2277 53.1847 32.3057Z" fill="url(#paint2_linear)"/>
<path d="M45.7312 18.022C45.7058 18.0432 45.6809 18.0649 45.6592 18.0866V18.0862C45.6809 18.0645 45.7058 18.0432 45.7312 18.022Z" fill="#007AC1"/>
<path d="M46.4622 17.3407C46.247 17.5559 46.0175 17.7568 45.8028 17.9573C45.7815 17.9785 45.7561 18.0002 45.7312 18.0219C45.7058 18.0431 45.6808 18.0644 45.6591 18.0861V18.0866L45.6448 18.1009C45.5952 18.1473 45.5426 18.1903 45.4873 18.2297C44.6131 19.0323 43.6383 19.8493 42.6491 20.6523C42.5938 20.6917 42.5412 20.7348 42.4916 20.7812H42.4773C42.4343 20.8241 42.3771 20.8671 42.3337 20.91C42.0473 21.1252 41.7606 21.3543 41.4881 21.5695L41.3306 21.4263L41.302 21.3972C41.5509 21.13 41.814 20.8764 42.0903 20.6376C42.131 20.5874 42.1793 20.5439 42.2335 20.5087C42.2907 20.4515 42.3484 20.4085 42.3914 20.3656C42.5775 20.2076 42.7641 20.0502 42.9502 19.8779C43.0365 19.8063 43.1367 19.7204 43.237 19.6345C43.8535 19.1182 44.5416 18.5308 45.2149 17.9C45.2663 17.8559 45.3143 17.8081 45.3585 17.7568C45.4144 17.7128 45.467 17.6648 45.516 17.6132C45.7168 17.4128 45.9173 17.2119 46.1038 17.0115L46.1611 17.0544L46.3186 17.2119L46.4622 17.3407Z" fill="#007AC1"/>
<path d="M19.5718 32.1907V32.1911C19.4323 32.2216 19.2924 32.2516 19.1529 32.2812C19.0827 32.296 19.013 32.3107 18.9432 32.3251C18.8786 32.3389 18.8135 32.3523 18.7488 32.3657C18.7405 32.3675 18.7322 32.3694 18.7239 32.3708C18.7855 32.3579 18.8472 32.345 18.9091 32.3322C18.9236 32.3292 18.9381 32.3261 18.9526 32.3231C19.0539 32.3016 19.1554 32.2801 19.2573 32.2586L19.5718 32.1907Z" fill="#007AC1"/>
<path d="M20.6039 31.9044L20.0022 32.0619L19.8013 32.1192L19.5861 32.1764L19.5718 32.1908L19.2573 32.2586C19.1524 32.2808 19.0478 32.303 18.9432 32.3251C18.8698 32.3404 18.7968 32.3556 18.7239 32.3709C18.5876 32.399 18.4514 32.4272 18.3156 32.4544C17.8806 32.5427 17.4478 32.6289 17.017 32.7131C16.8448 32.7468 16.6733 32.7805 16.5026 32.8142C16.4172 32.8308 16.3317 32.8479 16.2468 32.8645C16.1747 32.8788 16.1175 32.8932 16.0459 32.9075C15.9729 32.9149 15.9009 32.9293 15.8307 32.9504C15.5587 32.9938 15.3005 33.0511 15.0424 33.0941L15.0137 32.6927L14.9851 32.363C15.1717 32.3487 15.3721 32.3201 15.5587 32.3057C15.6446 32.2914 15.7018 32.2914 15.7734 32.2771C15.845 32.2628 15.917 32.2628 15.9743 32.2485C17.1496 32.0906 18.3965 31.8181 19.2854 31.6033C19.357 31.589 19.4286 31.5747 19.4859 31.5604C19.5557 31.5347 19.6277 31.5154 19.7011 31.5027C20.1596 31.3881 20.4464 31.3022 20.4464 31.3022L20.4894 31.5027L20.5466 31.7036L20.6039 31.9044Z" fill="#007AC1"/>
<path d="M50.4621 35.3584L50.4609 35.3596V35.3584H50.4621Z" fill="#007AC1"/>
<path d="M53.7149 31.6031L53.5288 31.8608C53.4281 32.0044 53.2993 32.1619 53.1847 32.3055C53.1349 32.3742 53.0771 32.4367 53.0125 32.4916V32.506C52.964 32.5669 52.9113 32.6244 52.855 32.6782C52.7426 32.8227 52.623 32.9614 52.4966 33.0938C52.2841 33.3176 52.0832 33.552 51.8945 33.7962L50.7764 35.0145L50.6333 35.1863L50.4615 35.3585H50.461V35.359L50.1604 35.6883C49.9881 35.8744 49.802 36.0466 49.6155 36.2184L49.3287 35.9316L49.2571 35.8744C49.2714 35.86 49.687 35.4301 50.2749 34.8136C50.3312 34.76 50.3838 34.7026 50.4324 34.6418C50.4896 34.5845 50.5331 34.5273 50.5903 34.4695C51.235 33.7962 52.0238 32.9359 52.7118 32.1476C52.7608 32.0826 52.8133 32.0205 52.8693 31.9615V31.9472C52.9257 31.8934 52.9783 31.8358 53.0268 31.7749C53.1561 31.6318 53.2706 31.4743 53.3852 31.345L53.3995 31.3593L53.5574 31.4886L53.7149 31.6031Z" fill="#007AC1"/>
<path d="M32.4437 46.5818C32.2987 46.6303 32.1515 46.6785 32.0022 46.7264C31.853 46.774 31.702 46.8211 31.5487 46.8663C31.4466 46.8963 31.3437 46.9257 31.2398 46.9545C31.1761 46.9869 31.1086 47.011 31.0389 47.0261C30.9959 47.0404 30.9816 47.0404 30.9387 47.0547C30.91 47.0547 30.8671 47.0834 30.8241 47.0834C29.5625 47.456 28.287 47.7858 27.0253 48.0582C26.9455 48.0825 26.8642 48.1016 26.782 48.1155C26.7247 48.1298 26.6813 48.1441 26.6388 48.1584C26.5954 48.1584 26.5668 48.1728 26.5238 48.1728C26.3663 48.2157 26.2084 48.2448 26.0509 48.2734L26.008 47.8721L25.9937 47.6569V47.4995C26.0223 47.4995 26.0652 47.4847 26.1225 47.4847C26.1941 47.4704 26.2804 47.4704 26.3663 47.456C27.2119 47.3415 28.5447 47.0404 30.3221 46.5389C30.3942 46.5103 30.4658 46.496 30.5374 46.4673H30.5517C30.6166 46.4416 30.6839 46.4224 30.7526 46.4101C31.2111 46.2664 31.6983 46.1233 32.2142 45.9653L32.3005 46.1949L32.3721 46.3953L32.4437 46.5818Z" fill="#007AC1"/>
<path d="M32.97 4.49005C31.0006 4.66838 29.0526 5.03346 27.1522 5.58037C27.1495 5.58129 27.1471 5.58176 27.1444 5.58268C27.0409 5.61408 26.9296 5.64641 26.8267 5.67781C26.7454 5.70229 26.6636 5.72676 26.5824 5.75124C26.5579 5.75909 26.5417 5.7674 26.5172 5.77571C25.9317 5.95443 25.3456 6.15809 24.7273 6.39407C24.646 6.4264 24.5564 6.46703 24.4668 6.49982C24.4179 6.51599 24.3611 6.54046 24.3043 6.56494C24.2807 6.57233 24.2498 6.58803 24.2262 6.59588C24.2252 6.59645 24.2241 6.59692 24.223 6.59727C21.3995 7.74485 18.8527 9.29051 16.6476 11.2028C16.0698 11.7076 15.5244 12.2197 15.004 12.749L14.9994 12.7536V12.754C14.9356 12.8169 14.8724 12.881 14.8087 12.9522C14.7352 13.0256 14.6623 13.0986 14.5972 13.172C14.1492 13.6356 13.7345 14.1159 13.3276 14.5957C13.2542 14.6853 13.1813 14.7749 13.1161 14.8645C13.0367 14.9601 12.9647 15.0478 12.8926 15.143C12.8912 15.1448 12.8894 15.1471 12.888 15.149C12.2037 16.0175 11.5786 16.931 11.0168 17.8833C9.41384 20.5599 8.32353 23.2698 7.79476 25.9547C7.35679 28.0176 7.15476 30.1236 7.19257 32.2321V32.2367C7.18841 32.3071 7.18841 32.3777 7.19257 32.4482V32.4967C7.19127 32.5484 7.19389 32.6001 7.20041 32.6514C7.20041 32.7571 7.20041 32.855 7.20872 32.9525C7.21704 33.3025 7.24152 33.6115 7.25768 33.8881C7.26554 33.9615 7.26554 34.0349 7.27385 34.0996C7.28216 34.1647 7.28216 34.2298 7.29001 34.2949V34.2972H7.29046C7.57541 37.4209 8.37294 40.3737 9.65814 43.0748C10.5776 45.0194 11.6513 46.7932 12.8718 48.3717C12.8723 48.3721 12.8728 48.3731 12.8732 48.3735C12.9142 48.4386 12.9601 48.5005 13.0104 48.5587C13.051 48.616 13.1 48.6811 13.1485 48.7379C13.3683 49.0145 13.596 49.2828 13.8158 49.5516C13.8726 49.6167 13.9298 49.6735 13.9866 49.7386C14.0439 49.8037 14.1007 49.8689 14.1575 49.9261C14.1843 49.9557 14.2111 49.9857 14.2379 50.0152C14.3575 50.1478 14.4775 50.2794 14.5972 50.4059C16.5741 52.5298 18.9584 54.401 21.6923 55.9878L21.5215 56.354C18.6656 55.3126 15.9641 53.6931 13.4902 51.5531C12.9614 51.0894 12.4488 50.6091 11.9607 50.0965C11.9505 50.0877 11.9404 50.0785 11.9307 50.0688C11.8776 50.0194 11.8286 49.9644 11.7737 49.9095C11.7164 49.8527 11.6596 49.7876 11.6028 49.7225C11.3992 49.511 11.2038 49.2911 11.0168 49.0713C10.96 49.0062 10.911 48.9494 10.8704 48.8926C10.8099 48.8382 10.7578 48.7752 10.7157 48.7056C10.7152 48.7046 10.7143 48.7042 10.7138 48.7033C9.51617 47.283 8.47222 45.74 7.59942 44.1C6.09393 41.3739 5.10151 38.3066 4.6374 34.9784L4.49101 33.7906C4.46653 33.5708 4.45868 33.3432 4.45036 33.1233L4.40973 32.2528C4.39356 31.9596 4.38525 31.659 4.38525 31.3657L4.4259 30.1613C4.45036 28.5178 4.727 26.8904 5.01193 25.3609C5.6626 22.3097 6.89978 19.3154 8.69759 16.4513C10.065 14.3602 11.619 12.513 13.336 10.9424C13.3371 10.9414 13.3382 10.9403 13.3392 10.9391C13.4191 10.8676 13.4911 10.7951 13.5719 10.7309C13.6532 10.6574 13.7262 10.5923 13.8075 10.5277C14.1007 10.2589 14.4097 10.0068 14.7191 9.77078C14.7882 9.70874 14.8617 9.65165 14.9389 9.59991C15.0077 9.53829 15.0807 9.48151 15.1573 9.42997C15.1578 9.42951 15.1578 9.42905 15.1582 9.42905C15.167 9.41625 15.1781 9.40527 15.191 9.39672C17.4237 7.6858 19.9186 6.34758 22.579 5.43397C23.3114 5.18183 24.0761 4.96201 24.8658 4.76666C26.8863 4.26586 28.96 4.01171 31.0416 4.00977C31.6844 4.00977 32.3189 4.03424 32.9617 4.08319L32.97 4.49005Z" fill="#007AC1"/>
<path d="M31.2398 46.9546C31.1762 46.987 31.1087 47.0111 31.0389 47.0262C30.9959 47.0405 30.9816 47.0405 30.9387 47.0548C30.9101 47.0548 30.8671 47.0835 30.8242 47.0835C29.5625 47.4562 28.287 47.7859 27.0253 48.0583C26.9455 48.0826 26.8642 48.1017 26.782 48.1156C26.7247 48.1299 26.6813 48.1442 26.6388 48.1586C26.5954 48.1586 26.5668 48.1729 26.5238 48.1729C26.4952 48.1586 26.4809 48.1299 26.4523 48.1013C26.4154 48.0716 26.3818 48.038 26.352 48.0011C26.2943 47.9438 26.2369 47.8864 26.1798 47.8288C26.1145 47.7752 26.0524 47.7178 25.9937 47.657C25.5203 47.1985 25.0474 46.7108 24.5602 46.195C24.4712 46.0795 24.3703 45.9738 24.2591 45.8795C24.2388 45.8358 24.2096 45.7968 24.1732 45.765C24.1589 45.7507 24.1446 45.7221 24.1303 45.7078C24.0738 45.654 24.021 45.5964 23.9724 45.5355C21.7293 43.0559 19.7546 40.3463 18.0811 37.4516C17.4078 36.2615 16.7913 35.0576 16.2468 33.8537C16.3144 33.8502 16.3814 33.8406 16.4472 33.8251C16.5188 33.8107 16.5761 33.8107 16.6625 33.7964C17.9523 33.5812 19.2855 33.2801 20.0881 33.0797C20.1613 33.0673 20.2332 33.0482 20.3029 33.0224C20.3749 33.0081 20.4465 32.9938 20.5037 32.9795C20.9194 33.7105 21.3636 34.4268 21.837 35.1721C23.4136 37.652 25.3485 40.1892 27.9286 43.1849L28.4874 43.8301L28.5738 43.9303C28.5881 43.9446 28.6024 43.9732 28.631 43.9875C28.6775 44.0371 28.7205 44.0897 28.7599 44.145C29.3621 44.8331 30.0068 45.5641 30.7526 46.4102C30.8187 46.4781 30.8808 46.5498 30.9387 46.6249C30.9756 46.6546 31.0092 46.6882 31.0389 46.7251C31.0532 46.7394 31.0675 46.7685 31.0962 46.7972C31.1539 46.8544 31.1968 46.9117 31.2398 46.9546Z" fill="url(#paint3_linear)"/>
<path d="M58.4022 24.8378V24.9523L58.3735 24.9952C58.3449 25.0668 58.3015 25.1241 58.2728 25.1818C58.2165 25.2659 58.1606 25.3504 58.1043 25.4344C58.1034 25.4363 58.102 25.4376 58.1011 25.4395C58.0438 25.5111 57.9865 25.5974 57.9288 25.6833L55.8364 28.8079L53.7148 31.6032L53.5287 31.8609C53.4281 32.0045 53.2992 32.162 53.1847 32.3056C53.1349 32.3743 53.0771 32.4368 53.0124 32.4917V32.506C52.9639 32.567 52.9113 32.6245 52.855 32.6783C52.7425 32.8227 52.6229 32.9614 52.4966 33.0939C52.2841 33.3177 52.0831 33.5521 51.8944 33.7963L50.7764 35.0146L50.6332 35.1863L50.4614 35.3586L50.461 35.3591L50.1603 35.6883C49.9881 35.8744 49.802 36.0467 49.6154 36.2185C49.1711 36.6341 48.7269 37.0497 48.2678 37.451C47.2075 38.5118 45.9602 39.4294 44.7563 40.3036L44.2548 40.662C41.6031 42.5397 38.5639 44.1883 35.2099 45.564C34.3357 45.9224 33.4042 46.2664 32.4436 46.5818C32.2986 46.6303 32.1515 46.6785 32.0022 46.7264C31.853 46.774 31.702 46.8211 31.5487 46.8663C31.4466 46.8963 31.3436 46.9257 31.2397 46.9545C31.1761 46.9869 31.1086 47.011 31.0388 47.0261C30.9959 47.0404 30.9816 47.0404 30.9386 47.0547C30.91 47.0547 30.867 47.0834 30.8241 47.0834C29.5624 47.456 28.2869 47.7858 27.0253 48.0582C26.9455 48.0825 26.8642 48.1016 26.7819 48.1155C26.7246 48.1298 26.6812 48.1441 26.6388 48.1584C26.5953 48.1584 26.5667 48.1728 26.5238 48.1728C26.4148 48.1963 26.2504 48.2314 26.0509 48.2734C22.8085 48.9528 19.0536 49.7401 14.7699 49.9877C14.5907 49.9978 14.4134 50.0071 14.2379 50.0154C13.4321 50.0528 12.6608 50.0689 11.9307 50.0689C8.31665 50.0694 5.71992 49.6773 5.03783 49.5702C3.33775 49.3022 1.65541 48.9318 0 48.4609C3.54785 48.9806 7.14615 49.062 10.7139 48.7034C10.7545 48.7024 10.795 48.6993 10.8353 48.6941C10.875 48.6891 10.9143 48.6817 10.9572 48.6747C10.9859 48.6747 11.0288 48.6604 11.0722 48.6604C11.1043 48.6487 11.1384 48.6438 11.1724 48.6461C11.5881 48.5884 12.0037 48.5168 12.4193 48.4452C12.4914 48.4309 12.5772 48.4309 12.6488 48.4166C12.6809 48.4049 12.715 48.4 12.7491 48.4023C12.7888 48.3866 12.8307 48.3769 12.8733 48.3736H12.8783C13.6523 48.2448 14.412 48.1012 15.1717 47.9437C18.159 47.3522 21.1001 46.5474 23.9723 45.5354C24.046 45.5181 24.1181 45.4941 24.1875 45.4638C24.2018 45.4638 24.2448 45.4495 24.2591 45.4495C24.3005 45.4271 24.3435 45.4079 24.3879 45.3922C25.578 44.9766 26.8249 44.5033 28.086 43.9874C28.1581 43.9588 28.2297 43.9302 28.2869 43.9015C28.3013 43.9015 28.3299 43.8872 28.3442 43.8872C28.3904 43.8644 28.4382 43.8453 28.4874 43.83C30.093 43.1562 31.7699 42.3965 33.4471 41.5796L35.5682 40.4759C35.7548 40.3752 35.9414 40.2893 36.1418 40.1891C36.6433 39.9453 37.1739 39.6876 37.6611 39.3865L38.0911 39.114C38.6217 38.7986 39.1661 38.4689 39.7254 38.1678L40.0546 37.9817C40.2842 37.8528 40.528 37.7235 40.7427 37.5803L41.7463 36.9209L44.2548 35.3013L46.0609 33.9824C46.5767 33.5954 47.1069 33.2084 47.6375 32.8501L49.0423 31.6891L49.2141 31.5603L49.3863 31.4166L49.5009 31.3307C49.7013 31.159 49.9165 30.9867 50.1174 30.8292C50.533 30.4995 50.963 30.1698 51.3499 29.7971L51.8228 29.3528L51.9808 29.1949L52.1526 29.0374L54.0016 27.2743L54.8186 26.4001L56.4811 24.5796C56.8256 24.2069 57.1405 23.8056 57.4559 23.4043L57.5561 23.275L57.558 23.2732L57.7141 23.0889L57.8572 22.9023H57.8716L57.9722 23.2607C58.144 23.777 58.2728 24.3071 58.4022 24.8378Z" fill="url(#paint4_linear)"/>
<path d="M20.0021 32.0617L19.8012 32.119L19.586 32.1763L19.5717 32.1906V32.191C19.4669 32.2137 19.3621 32.2361 19.2572 32.2585C19.2221 32.2663 19.1875 32.2737 19.1529 32.2811C19.0827 32.2959 19.0129 32.3106 18.9432 32.325C18.8786 32.3388 18.8134 32.3522 18.7488 32.3656C18.7405 32.3674 18.7322 32.3693 18.7238 32.3707C18.5876 32.3989 18.4514 32.427 18.3156 32.4543C17.8806 32.5425 17.4477 32.6287 17.017 32.7129C16.8452 32.7466 16.6737 32.7803 16.5026 32.814C16.4171 32.8306 16.3317 32.8477 16.2467 32.8644C16.1747 32.8787 16.1174 32.893 16.0458 32.9073C15.9729 32.9147 15.9008 32.9291 15.8306 32.9502C15.8029 32.8898 15.779 32.8276 15.7591 32.7641C15.7304 32.6926 15.7018 32.621 15.6732 32.5633C15.6302 32.4774 15.6016 32.3915 15.5586 32.3056C15.2719 31.5745 14.9994 30.8578 14.7556 30.1268C14.7412 30.0695 14.7131 30.0122 14.6983 29.9402C14.6697 29.8829 14.6553 29.8114 14.6267 29.7398C14.369 28.9372 14.1395 28.1341 13.9386 27.3172C13.0931 23.9058 12.7204 20.2649 12.8349 16.5095C12.8349 16.0223 12.8635 15.5781 12.8926 15.1481V15.143C12.8931 15.0299 12.907 14.9168 12.907 14.8041C12.9229 14.7044 12.9325 14.6039 12.9356 14.503C12.9335 14.4828 12.9385 14.4625 12.9499 14.4457C13.0072 13.4422 13.1074 12.4964 13.2362 11.6075C13.251 11.4929 13.2653 11.3927 13.2796 11.2921V11.2777C13.2939 11.1918 13.3083 11.1203 13.3226 11.0344C13.3203 11.0048 13.3252 10.9752 13.3369 10.948C13.3379 10.9451 13.3387 10.9422 13.3392 10.9392C14.3736 7.29282 15.4081 3.64641 16.4425 0C15.9124 3.08994 15.484 6.23283 15.1573 9.42867V9.43006C15.1476 9.52565 15.1379 9.62078 15.1282 9.71545C15.1164 9.77205 15.1115 9.82992 15.1139 9.88771C15.1173 9.92178 15.1124 9.95616 15.0996 9.98792C15.0567 10.7762 15.0137 11.4929 15.0137 12.1667C15.0024 12.2665 14.9977 12.3669 14.9994 12.4673V12.7541C14.9994 13.9867 15.0423 15.234 15.1573 16.4379C15.4601 19.8013 16.1971 23.1114 17.35 26.2855C17.6081 26.9874 17.8806 27.6898 18.196 28.3922C18.2246 28.4638 18.2533 28.5215 18.2819 28.5931C18.2996 28.6528 18.3236 28.7103 18.3535 28.7649C18.7691 29.6825 19.199 30.5997 19.701 31.5025C19.7285 31.5722 19.7621 31.6394 19.8012 31.7034C19.829 31.7684 19.8626 31.8309 19.9015 31.8899C19.9294 31.9503 19.9631 32.0078 20.0021 32.0617Z" fill="url(#paint5_linear)"/>
<path d="M61.5138 31.594L61.4648 32.7979C61.4403 34.4253 61.1637 36.0611 60.8792 37.5822C60.2364 40.6255 58.9914 43.6199 57.1931 46.484C56.391 47.7162 55.4964 48.8856 54.5169 49.9822L54.516 49.9831C54.4474 50.0711 54.374 50.1553 54.2962 50.2352C54.2232 50.3165 54.1498 50.3978 54.0685 50.4795C53.8242 50.7478 53.5642 51.0161 53.3038 51.2766C53.2372 51.3459 53.1666 51.4111 53.0923 51.4719C53.0286 51.5413 52.9606 51.6066 52.8886 51.6673L52.8835 51.6724C52.1944 52.3383 51.4653 52.9615 50.7001 53.5385C48.1073 55.5226 45.165 57.0022 42.026 57.9003C41.3994 58.079 40.8221 58.2175 40.2767 58.3311C38.4827 58.7199 36.6524 58.9164 34.8168 58.9172C34.1901 58.9172 33.5639 58.8927 32.9373 58.8521L32.929 58.4452C34.8844 58.2666 36.8186 57.9043 38.7061 57.3632C38.7071 57.3627 38.7084 57.3627 38.7094 57.3623C38.7902 57.3383 38.8779 57.3138 38.9587 57.2898C39.0072 57.2736 39.0645 57.2574 39.113 57.2408C39.1467 57.2338 39.1796 57.223 39.2109 57.2085C39.4469 57.1351 39.6829 57.0621 39.9022 56.9887C40.0976 56.9236 40.285 56.8584 40.4638 56.8016C40.49 56.7888 40.5172 56.7778 40.545 56.7689C40.6185 56.7448 40.6919 56.712 40.7649 56.6876C40.8055 56.6714 40.8383 56.6636 40.8706 56.6469C40.9108 56.6308 40.9431 56.6151 40.9833 56.5984C40.9838 56.5984 40.9842 56.598 40.9847 56.598C44.0848 55.4264 46.8755 53.7911 49.2436 51.7407C50.5509 50.6039 51.7511 49.3495 52.829 47.9932C52.83 47.9918 52.8309 47.9909 52.8318 47.9895C52.9048 47.9082 52.962 47.8431 53.0272 47.7618V47.7535C53.0923 47.6722 53.1491 47.5909 53.2059 47.5092C53.6049 46.9966 53.9711 46.4761 54.3128 45.9469C54.3858 45.8412 54.4509 45.776 54.5243 45.6624V45.6135C54.5973 45.5077 54.6624 45.402 54.7275 45.2884C54.7437 45.2639 54.7598 45.239 54.776 45.2131C54.8088 45.1609 54.8416 45.1064 54.8739 45.0519C56.4851 42.3587 57.5676 39.6493 58.0964 36.9884C58.9101 33.1642 58.9101 29.1774 58.1042 25.4345C58.0881 25.3449 58.0719 25.247 58.0474 25.1578C58.0313 25.0844 58.0151 25.011 57.9985 24.938L57.9906 24.8891C57.9906 24.8808 57.9823 24.8646 57.9823 24.8568C57.8927 24.4905 57.8036 24.1243 57.6974 23.7581C57.6734 23.6768 57.6567 23.6034 57.6323 23.5304C57.6161 23.4815 57.6078 23.4325 57.5916 23.3841C57.5838 23.3513 57.5676 23.3106 57.5593 23.2778C57.5588 23.2765 57.5584 23.2746 57.5579 23.2732C57.2025 22.1115 56.7651 20.9765 56.2492 19.8766C54.9067 17.0292 53.247 14.5636 51.3102 12.5455L51.2626 12.4984L51.2612 12.497C51.2206 12.4481 51.1716 12.3991 51.1231 12.3502C51.0742 12.2934 51.0252 12.2444 50.9768 12.1959C50.6835 11.8865 50.3824 11.5854 50.0735 11.3005C50.0287 11.2504 49.9797 11.2042 49.9271 11.1624C49.8823 11.1084 49.8313 11.0599 49.7751 11.0178C49.7742 11.0174 49.7733 11.0165 49.7724 11.016C48.1367 9.5022 46.2816 8.15188 44.2312 6.95581L44.402 6.5896C46.6478 7.41115 48.7961 8.58321 50.8137 10.1049C50.8142 10.1053 50.8147 10.1053 50.8151 10.1058C50.8738 10.1458 50.9303 10.1888 50.9846 10.2346C51.0441 10.2681 51.0989 10.3092 51.1476 10.357C51.4404 10.5764 51.7253 10.8045 52.0098 11.0566C52.0696 11.0928 52.1244 11.1365 52.1728 11.1869C52.2213 11.2275 52.2701 11.2681 52.3192 11.3088L52.3211 11.3106C52.3529 11.3425 52.3926 11.366 52.425 11.3984C54.7765 13.4488 56.7618 15.9633 58.3079 18.8519C58.7479 19.652 59.1391 20.478 59.4795 21.3253L59.8702 22.3016C60.5252 24.1394 60.9887 26.04 61.2533 27.973L61.408 29.1608C61.4325 29.4702 61.4488 29.7713 61.457 30.0641L61.4893 30.7231C61.4976 31.008 61.5138 31.3008 61.5138 31.594Z" fill="#007AC1"/>
<path d="M57.9412 3.48267C56.2324 6.20421 54.3565 8.81719 52.3243 11.3066C52.3234 11.308 52.322 11.3093 52.3211 11.3107C52.279 11.362 52.2375 11.4132 52.1955 11.4645L52.1811 11.4788C52.1347 11.5233 52.0916 11.5711 52.0523 11.622L51.536 12.1812C51.4931 12.2385 51.4501 12.2814 51.4072 12.3387H51.3928C51.3533 12.3941 51.3103 12.4468 51.264 12.4966C51.2635 12.4971 51.2631 12.498 51.2626 12.4985C50.8331 12.9566 50.4032 13.4286 49.9737 13.8867C48.8127 15.1049 47.6375 16.2663 46.4622 17.341C46.247 17.5562 46.0174 17.7571 45.8027 17.9575C45.7815 17.9787 45.7561 18.0004 45.7311 18.0221C45.7247 18.0277 45.7187 18.0328 45.7122 18.0383C45.6933 18.0545 45.6753 18.0706 45.6591 18.0868L45.6448 18.1011C45.5952 18.1475 45.5426 18.1906 45.4873 18.2299C44.6131 19.0326 43.6382 19.8495 42.649 20.6526C42.5937 20.692 42.5411 20.735 42.4916 20.7814H42.4772C42.4343 20.8244 42.377 20.8673 42.3336 20.9103C42.0473 21.1255 41.7605 21.3545 41.488 21.5697C38.9943 23.476 36.4571 25.1529 33.8914 26.5434C32.8735 27.1026 31.8128 27.6184 30.7954 28.12C30.2791 28.3495 29.7919 28.5933 29.29 28.851C27.6275 29.5534 25.9506 30.1985 24.5029 30.7578L22.0373 31.5027L20.6038 31.9044L20.0021 32.0619L19.8012 32.1192L19.586 32.1764L19.5717 32.1908V32.1912C19.4323 32.2217 19.2923 32.2517 19.1529 32.2813C19.0827 32.2961 19.0129 32.3108 18.9432 32.3252C18.8786 32.339 18.8134 32.3524 18.7488 32.3658C18.7405 32.3676 18.7322 32.3695 18.7238 32.3709C18.5876 32.399 18.4514 32.4272 18.3156 32.4545C17.8806 32.5427 17.4477 32.6289 17.017 32.7131C16.8448 32.7468 16.6733 32.7805 16.5026 32.8142C16.4171 32.8308 16.3317 32.8479 16.2467 32.8645C16.1747 32.8789 16.1174 32.8932 16.0458 32.9075C15.9729 32.9149 15.9008 32.9293 15.8306 32.9504C15.5586 32.9938 15.3005 33.0511 15.0423 33.0941C14.8705 33.137 14.7131 33.1513 14.5551 33.1943C13.6232 33.3665 12.6631 33.4954 11.7312 33.6242C11.0002 33.7392 10.2691 33.8394 9.5381 33.9683C8.79412 34.0971 8.03446 34.2116 7.29048 34.2975H7.29003C7.28956 34.298 7.28911 34.298 7.28818 34.298C7.23046 34.298 7.13024 32.248 7.1875 32.2337C7.18935 32.2333 7.19074 32.2328 7.19259 32.2323C9.58474 31.5447 11.9335 30.7282 13.7239 30.084L14.6267 29.74L14.8276 29.6684L15.0137 29.5968L17.809 28.536L18.0094 28.464L18.196 28.3924L18.3678 28.3352L20.6325 27.4037L22.9258 26.5147L23.7862 26.1564C24.9901 25.6548 26.2226 25.1385 27.4552 24.6657L31.8844 22.6448C34.7226 21.2543 37.4172 19.7779 39.8685 18.2443C39.929 18.2111 39.9864 18.1728 40.0403 18.1297C40.0546 18.1297 40.0694 18.1154 40.0837 18.1154C40.1266 18.072 40.1839 18.0577 40.2269 18.0147C41.3735 17.3128 42.42 16.6104 43.423 15.9223C43.4807 15.8794 43.538 15.8359 43.581 15.8073C43.5884 15.8068 43.5954 15.8036 43.6006 15.7984C43.6059 15.7931 43.6091 15.7861 43.6096 15.7787C43.6627 15.7537 43.7111 15.7198 43.7527 15.6785C45.3584 14.5748 46.9064 13.3851 48.3828 12.1669C48.8557 11.7938 49.3143 11.4216 49.7733 11.0198L49.7751 11.0179C49.8235 10.9671 49.8755 10.9199 49.9308 10.8766H49.9451C49.988 10.8337 50.0453 10.7907 50.0882 10.7478C50.2032 10.6476 50.3179 10.5472 50.4323 10.4467L50.5039 10.3751L50.6618 10.2458L50.6904 10.2172C50.726 10.1853 50.7786 10.1391 50.8151 10.1059C50.8166 10.1049 50.818 10.1039 50.8193 10.1026C53.2553 7.934 55.6293 5.72735 57.9412 3.48267Z" fill="url(#paint6_linear)"/>
<path d="M54.7761 45.2129C54.764 46.9497 54.6629 48.5462 54.5174 49.9787C54.5174 49.9796 54.517 49.981 54.517 49.9819C54.0158 53.5677 52.7076 56.9929 50.6909 59.9999C52.1401 56.9538 52.7432 54.1447 52.8836 51.6721V51.6703C52.8891 51.5742 52.8939 51.4787 52.8979 51.3835V51.0967C52.8979 50.2082 52.8836 49.3913 52.8549 48.6025V48.3019C52.8549 48.2299 52.8406 48.1583 52.8406 48.0724C52.8425 48.0454 52.8385 48.0183 52.8291 47.9929C52.8283 47.9907 52.8274 47.9886 52.8263 47.9865C52.74 46.3951 52.5968 44.9473 52.3964 43.543C52.0678 41.1784 51.55 38.8441 50.8479 36.5623C50.9057 36.5051 50.9631 36.4478 51.0202 36.3906C51.0775 36.3328 51.1204 36.2899 51.1777 36.2326C51.694 35.6738 52.4536 34.8855 53.1847 34.0538C53.2993 33.9296 53.414 33.8054 53.5287 33.6812C54.1158 36.2749 54.4977 38.9109 54.6708 41.5646C54.7534 42.8383 54.7844 44.0565 54.7761 45.2129Z" fill="url(#paint7_linear)"/>
<path d="M88.5537 14.448H104.618V18.928H93.1937V23.952H103.306V28.432H93.1937V33.52H105.066V38H88.5537V14.448ZM123.338 38H117.93L114.698 33.808L111.754 38H107.306L112.49 30.96L107.146 24.016H112.65L115.722 28.048L118.122 24.016H122.57L117.77 30.704L123.338 38ZM134.742 38.384C133.953 38.384 133.163 38.2453 132.374 37.968C131.606 37.6693 130.955 37.2533 130.422 36.72V44.72H125.974V23.696H129.814L130.198 25.36C130.923 24.784 131.723 24.304 132.598 23.92C133.494 23.5147 134.507 23.312 135.638 23.312C136.939 23.312 138.102 23.6213 139.126 24.24C140.15 24.8373 140.95 25.712 141.526 26.864C142.123 27.9947 142.422 29.36 142.422 30.96C142.422 32.5387 142.091 33.8827 141.43 34.992C140.769 36.1013 139.862 36.944 138.71 37.52C137.558 38.096 136.235 38.384 134.742 38.384ZM133.846 34.864C134.571 34.864 135.233 34.704 135.83 34.384C136.449 34.064 136.939 33.616 137.302 33.04C137.686 32.4427 137.878 31.7707 137.878 31.024C137.878 29.8293 137.515 28.88 136.79 28.176C136.065 27.4507 135.19 27.088 134.166 27.088C133.27 27.088 132.523 27.2693 131.926 27.632C131.329 27.9733 130.838 28.496 130.454 29.2V32.624C130.689 33.3067 131.105 33.8507 131.702 34.256C132.321 34.6613 133.035 34.864 133.846 34.864ZM145.943 12.752H150.423V38H145.943V12.752ZM153.948 30.832C153.948 29.4027 154.279 28.1227 154.94 26.992C155.623 25.8613 156.572 24.976 157.788 24.336C159.004 23.6747 160.402 23.344 161.98 23.344C163.58 23.344 164.967 23.6747 166.14 24.336C167.314 24.976 168.21 25.8613 168.828 26.992C169.468 28.1227 169.788 29.4027 169.788 30.832C169.788 32.2613 169.468 33.552 168.828 34.704C168.21 35.8347 167.314 36.7307 166.14 37.392C164.967 38.0533 163.559 38.384 161.916 38.384C160.38 38.384 159.004 38.0853 157.788 37.488C156.594 36.8907 155.655 36.0267 154.972 34.896C154.29 33.7653 153.948 32.4107 153.948 30.832ZM158.46 30.864C158.46 31.9733 158.78 32.9013 159.42 33.648C160.06 34.3733 160.871 34.736 161.852 34.736C162.898 34.736 163.73 34.3733 164.348 33.648C164.967 32.9013 165.276 31.9733 165.276 30.864C165.276 29.7547 164.967 28.8373 164.348 28.112C163.73 27.3653 162.898 26.992 161.852 26.992C160.871 26.992 160.06 27.3653 159.42 28.112C158.78 28.8373 158.46 29.7547 158.46 30.864Z" fill="#3B3B3B"/>
<defs>
<linearGradient id="paint0_linear" x1="20.6097" y1="52.5527" x2="29.6623" y2="65.3128" gradientUnits="userSpaceOnUse">
<stop stop-color="#1DE9B6"/>
<stop offset="1" stop-color="#03A9F4"/>
</linearGradient>
<linearGradient id="paint1_linear" x1="13.0415" y1="12.8804" x2="27.2403" y2="33.0148" gradientUnits="userSpaceOnUse">
<stop stop-color="#1DE9B6"/>
<stop offset="1" stop-color="#03A9F4"/>
</linearGradient>
<linearGradient id="paint2_linear" x1="38.2718" y1="26.8559" x2="52.4597" y2="35.5044" gradientUnits="userSpaceOnUse">
<stop stop-color="#1DE9B6"/>
<stop offset="1" stop-color="#03A9F4"/>
</linearGradient>
<linearGradient id="paint3_linear" x1="8.98766" y1="40.3357" x2="23.6988" y2="54.8527" gradientUnits="userSpaceOnUse">
<stop stop-color="#1DE9B6"/>
<stop offset="1" stop-color="#03A9F4"/>
</linearGradient>
<linearGradient id="paint4_linear" x1="-28.2767" y1="36.0556" x2="-8.15647" y2="79.3096" gradientUnits="userSpaceOnUse">
<stop stop-color="#1DE9B6"/>
<stop offset="1" stop-color="#03A9F4"/>
</linearGradient>
<linearGradient id="paint5_linear" x1="9.33474" y1="15.9536" x2="22.6223" y2="18.852" gradientUnits="userSpaceOnUse">
<stop stop-color="#1DE9B6"/>
<stop offset="1" stop-color="#03A9F4"/>
</linearGradient>
<linearGradient id="paint6_linear" x1="-17.4114" y1="18.4026" x2="9.05956" y2="62.0157" gradientUnits="userSpaceOnUse">
<stop stop-color="#1DE9B6"/>
<stop offset="1" stop-color="#03A9F4"/>
</linearGradient>
<linearGradient id="paint7_linear" x1="48.7124" y1="46.4239" x2="56.4402" y2="47.6238" gradientUnits="userSpaceOnUse">
<stop stop-color="#1DE9B6"/>
<stop offset="1" stop-color="#03A9F4"/>
</linearGradient>
</defs>
</svg>
