<svg width="61" height="61" viewBox="0 0 61 61" fill="none" xmlns="http://www.w3.org/2000/svg">
<rect width="61" height="61" rx="30.5" fill="url(#paint0_linear)"/>
<path d="M37.0739 50.6549L36.8263 50.756C36.41 50.9138 35.9484 51.0712 35.4305 51.2289L35.3519 51.2514L35.2957 51.2064C35.2609 51.1763 35.2231 51.1498 35.1829 51.1274C35.1246 51.0942 35.0688 51.057 35.0157 51.016C35.0154 51.0157 35.0146 51.0153 35.0143 51.0149C33.3034 49.8894 31.7616 48.8088 30.2985 47.7623C28.6551 46.558 27.2935 45.4774 26.1113 44.4081C26.1773 44.3866 26.2452 44.3716 26.314 44.3631C26.3702 44.3519 26.438 44.3406 26.5055 44.3294C27.3946 44.1383 28.4299 43.8457 29.3756 43.5643C29.4318 43.5527 29.488 43.5302 29.5554 43.519C29.6117 43.5077 29.657 43.4852 29.7132 43.474C30.512 44.3519 31.255 45.1399 31.9415 45.86C33.5391 47.5027 35.1698 49.0438 36.8012 50.4163C36.802 50.417 36.803 50.4177 36.8038 50.4184C36.8234 50.4404 36.8461 50.4593 36.8712 50.4746L36.939 50.5421L37.0739 50.6549Z" fill="white"/>
<path d="M40.5866 20.0748C40.5699 20.0914 40.5499 20.1085 40.5304 20.1255C40.5104 20.1422 40.4908 20.1589 40.4738 20.1759V20.1763L40.4625 20.1875C40.4236 20.224 40.3823 20.2578 40.3389 20.2887C39.6525 20.9189 38.887 21.5604 38.1103 22.191C38.0668 22.2219 38.0255 22.2557 37.9866 22.2922H37.9754C37.9416 22.3259 37.8967 22.3596 37.8626 22.3933L37.7614 22.2809L37.7502 22.2697C37.7272 22.2369 37.7009 22.2066 37.6715 22.1794C37.6614 22.1701 37.6537 22.1585 37.649 22.1457C37.1874 21.617 36.6808 21.0654 36.1634 20.5364L36.0731 20.4461C36.0618 20.4348 36.0506 20.4236 36.0394 20.4236C35.9944 20.3786 35.9607 20.3337 35.927 20.3C35.5781 19.9511 35.2967 19.681 35.0378 19.4333C32.9669 17.4636 30.9635 15.7868 28.8926 14.3124C27.2272 13.1259 25.4726 12.0699 23.6444 11.1537C23.6419 11.1523 23.639 11.1512 23.6365 11.1497C23.6126 11.1474 23.5895 11.1397 23.569 11.1272L23.4562 11.0707L23.2539 10.9695V10.9583L23.5803 10.8346C24.1766 10.5896 24.7852 10.3753 25.4035 10.1928L25.4484 10.1703H25.4597L25.5047 10.1928C25.5741 10.2141 25.6418 10.2406 25.7074 10.2718C25.7852 10.296 25.8615 10.3248 25.9358 10.3581C25.9384 10.3595 25.9411 10.3607 25.9438 10.3617C27.4069 10.9133 28.8251 11.521 30.153 12.14C33.0456 13.502 35.4204 15.0326 37.4238 16.8109C37.9416 17.2612 38.4482 17.745 38.9769 18.2853C39.0106 18.319 39.0447 18.3527 39.0784 18.3864C39.0897 18.3977 39.0897 18.3977 39.1009 18.4089C39.1347 18.443 39.1684 18.488 39.2021 18.5217C39.5846 18.9155 39.9563 19.3321 40.3614 19.8046C40.3614 19.8046 40.3726 19.8159 40.3839 19.8271C40.4176 19.8721 40.4513 19.9061 40.4854 19.9511V19.9624C40.5191 19.9961 40.5528 20.041 40.5866 20.0748Z" fill="white"/>
<path d="M46.3829 31.3412C46.3439 31.3952 46.2984 31.4442 46.2477 31.4874V31.4986C46.2096 31.5464 46.1683 31.5916 46.124 31.6339C46.0358 31.7473 45.9419 31.8562 45.8427 31.9602C45.6758 32.1359 45.518 32.32 45.3698 32.5117L44.4919 33.4683L44.3795 33.6032L44.2446 33.7385H44.2442C44.2306 33.6806 44.2117 33.624 44.188 33.5695C44.1744 33.5117 44.1556 33.4553 44.1318 33.4009C44.1225 33.3701 44.1112 33.34 44.0981 33.3106C43.8504 32.5792 43.5803 31.8703 43.2652 31.161C43.2514 31.1105 43.2326 31.0616 43.209 31.0149C43.1874 30.9601 43.161 30.9073 43.1303 30.8571C42.3138 28.9401 41.311 27.108 40.1362 25.3871C39.6271 24.6166 39.0787 23.8729 38.4932 23.1588C38.5372 23.1244 38.5785 23.0867 38.6168 23.046C38.6505 23.0236 38.6843 22.9786 38.7296 22.9449C38.9319 22.7647 39.157 22.5733 39.4048 22.3709C39.8773 21.9546 40.4063 21.5154 40.9354 21.0201L41.0478 20.9077C41.0866 20.8676 41.1281 20.83 41.1718 20.7953C41.843 21.6689 42.4666 22.5781 43.04 23.5189C44.0544 25.1837 44.9027 26.9442 45.5725 28.775C45.5862 28.8329 45.605 28.8894 45.6287 28.944C45.6541 28.9977 45.673 29.0543 45.6849 29.1126C45.8989 29.6979 46.0903 30.3056 46.2589 30.9246C46.2702 30.9358 46.2702 30.9471 46.2702 30.9695C46.2955 31.0312 46.3144 31.0954 46.3264 31.161C46.349 31.2198 46.3679 31.28 46.3829 31.3412Z" fill="white"/>
<path d="M40.5302 20.1256C40.5103 20.1423 40.4907 20.1593 40.4736 20.1764V20.176C40.4907 20.159 40.5103 20.1423 40.5302 20.1256Z" fill="white"/>
<path d="M41.1036 19.5907C40.9346 19.7597 40.7544 19.9174 40.5858 20.0748C40.5691 20.0915 40.5492 20.1085 40.5296 20.1256C40.5097 20.1422 40.4901 20.1589 40.473 20.176V20.1763L40.4618 20.1876C40.4229 20.224 40.3816 20.2578 40.3381 20.2887C39.6517 20.919 38.8862 21.5604 38.1095 22.191C38.0661 22.2219 38.0248 22.2557 37.9858 22.2922H37.9746C37.9409 22.3259 37.8959 22.3596 37.8618 22.3934C37.637 22.5623 37.4118 22.7422 37.1979 22.9112L37.0742 22.7988L37.0518 22.7759C37.2472 22.5661 37.4538 22.367 37.6707 22.1794C37.7027 22.14 37.7406 22.1059 37.7832 22.0782C37.8281 22.0333 37.8734 21.9996 37.9072 21.9658C38.0533 21.8418 38.1998 21.7182 38.3459 21.5829C38.4137 21.5267 38.4924 21.4593 38.5711 21.3918C39.0552 20.9864 39.5955 20.5252 40.1242 20.0298C40.1645 19.9952 40.2022 19.9577 40.237 19.9174C40.2808 19.8828 40.3222 19.8452 40.3606 19.8046C40.5184 19.6473 40.6757 19.4895 40.8222 19.3322L40.8672 19.3659L40.9908 19.4895L41.1036 19.5907Z" fill="white"/>
<path d="M19.989 31.251V31.2513C19.8795 31.2753 19.7696 31.2988 19.6601 31.322C19.605 31.3337 19.5502 31.3453 19.4955 31.3565C19.4447 31.3674 19.3936 31.3779 19.3428 31.3884C19.3363 31.3899 19.3298 31.3913 19.3232 31.3924C19.3716 31.3823 19.4201 31.3722 19.4687 31.3621C19.4801 31.3597 19.4914 31.3573 19.5028 31.3549C19.5823 31.3381 19.6621 31.3212 19.7421 31.3043L19.989 31.251Z" fill="white"/>
<path d="M20.7996 31.0262L20.3272 31.1498L20.1694 31.1948L20.0004 31.2398L19.9892 31.251L19.7422 31.3043C19.6599 31.3217 19.5777 31.3391 19.4957 31.3565C19.438 31.3685 19.3807 31.3805 19.3234 31.3924C19.2165 31.4146 19.1095 31.4367 19.0029 31.4581C18.6613 31.5273 18.3214 31.595 17.9832 31.6611C17.8479 31.6876 17.7133 31.7141 17.5792 31.7405C17.5122 31.7536 17.4451 31.767 17.3784 31.7801C17.3218 31.7913 17.2768 31.8026 17.2206 31.8138C17.1633 31.8196 17.1068 31.8309 17.0516 31.8475C16.8381 31.8816 16.6354 31.9266 16.4327 31.9603L16.4102 31.6452L16.3877 31.3863C16.5342 31.375 16.6916 31.3526 16.8381 31.3413C16.9055 31.3301 16.9505 31.3301 17.0067 31.3188C17.0629 31.3076 17.1195 31.3076 17.1644 31.2963C18.0873 31.1723 19.0663 30.9584 19.7644 30.7898C19.8206 30.7785 19.8768 30.7673 19.9217 30.756C19.9766 30.7359 20.0332 30.7207 20.0907 30.7107C20.4508 30.6208 20.676 30.5533 20.676 30.5533L20.7097 30.7107L20.7547 30.8685L20.7996 31.0262Z" fill="white"/>
<path d="M46.7992 30.7897L46.653 30.9921C46.574 31.1049 46.4728 31.2285 46.3829 31.3413C46.3438 31.3952 46.2984 31.4443 46.2476 31.4874V31.4987C46.2095 31.5465 46.1682 31.5917 46.124 31.6339C46.0357 31.7473 45.9418 31.8563 45.8426 31.9603C45.6757 32.136 45.5179 32.3201 45.3697 32.5118L44.4918 33.4684L44.3794 33.6033L44.2445 33.7385H44.2442V33.7389L44.0081 33.9974C43.8729 34.1436 43.7267 34.2788 43.5802 34.4137L43.355 34.1885L43.2988 34.1436C43.3101 34.1323 43.6364 33.7947 44.098 33.3106C44.1423 33.2685 44.1836 33.2235 44.2217 33.1757C44.2667 33.1308 44.3007 33.0858 44.3457 33.0405C44.8519 32.5118 45.4713 31.8362 46.0116 31.2173C46.05 31.1662 46.0913 31.1175 46.1352 31.0711V31.0599C46.1794 31.0177 46.2208 30.9725 46.2589 30.9246C46.3604 30.8122 46.4503 30.6886 46.5403 30.587L46.5515 30.5983L46.6755 30.6998L46.7992 30.7897Z" fill="white"/>
<path d="M30.0959 42.5511C29.982 42.5892 29.8665 42.627 29.7492 42.6646C29.6321 42.702 29.5135 42.7389 29.3932 42.7745C29.313 42.798 29.2322 42.8211 29.1506 42.8437C29.1006 42.8692 29.0476 42.8881 28.9928 42.8999C28.9591 42.9112 28.9479 42.9112 28.9141 42.9224C28.8917 42.9224 28.8579 42.9449 28.8242 42.9449C27.8335 43.2375 26.832 43.4964 25.8413 43.7104C25.7787 43.7294 25.7148 43.7445 25.6502 43.7554C25.6053 43.7666 25.5712 43.7778 25.5378 43.7891C25.5037 43.7891 25.4813 43.8003 25.4475 43.8003C25.3239 43.834 25.1999 43.8569 25.0762 43.8794L25.0425 43.5643L25.0312 43.3953V43.2716C25.0537 43.2716 25.0875 43.26 25.1324 43.26C25.1886 43.2488 25.2564 43.2488 25.3239 43.2375C25.9878 43.1476 27.0343 42.9112 28.43 42.5174C28.4866 42.4949 28.5428 42.4837 28.599 42.4612H28.6103C28.6612 42.441 28.7141 42.4259 28.768 42.4162C29.1281 42.3034 29.5106 42.191 29.9157 42.067L29.9835 42.2472L30.0397 42.4046L30.0959 42.5511Z" fill="white"/>
<path d="M30.5096 9.50017C28.9632 9.6402 27.4336 9.92686 25.9414 10.3563C25.9392 10.357 25.9374 10.3574 25.9352 10.3581C25.854 10.3828 25.7666 10.4082 25.6857 10.4328C25.6219 10.452 25.5577 10.4713 25.4939 10.4905C25.4747 10.4966 25.462 10.5032 25.4428 10.5097C24.983 10.65 24.5228 10.8099 24.0373 10.9952C23.9735 11.0206 23.9031 11.0525 23.8328 11.0783C23.7943 11.091 23.7497 11.1102 23.7051 11.1294C23.6866 11.1352 23.6624 11.1475 23.6439 11.1537C23.643 11.1541 23.6422 11.1545 23.6413 11.1548C21.4243 12.0559 19.4245 13.2696 17.693 14.7711C17.2394 15.1675 16.8111 15.5696 16.4024 15.9852L16.3988 15.9888V15.9892C16.3488 16.0385 16.2991 16.0889 16.249 16.1447C16.1914 16.2024 16.1341 16.2597 16.083 16.3173C15.7312 16.6814 15.4056 17.0585 15.0861 17.4353C15.0285 17.5056 14.9712 17.576 14.9201 17.6463C14.8577 17.7214 14.8011 17.7903 14.7446 17.865C14.7435 17.8664 14.742 17.8682 14.7409 17.8697C14.2036 18.5517 13.7127 19.2689 13.2716 20.0167C12.013 22.1185 11.1568 24.2463 10.7416 26.3545C10.3977 27.9743 10.2391 29.6279 10.2688 31.2836V31.2872C10.2655 31.3425 10.2655 31.398 10.2688 31.4533V31.4913C10.2678 31.5319 10.2698 31.5725 10.275 31.6128C10.275 31.6959 10.275 31.7727 10.2815 31.8492C10.288 32.1241 10.3072 32.3667 10.3199 32.5839C10.3261 32.6416 10.3261 32.6992 10.3326 32.75C10.3391 32.8011 10.3391 32.8522 10.3453 32.9034V32.9052H10.3457C10.5694 35.3579 11.1956 37.6765 12.2048 39.7974C12.9268 41.3244 13.7698 42.7172 14.7282 43.9566C14.7286 43.957 14.729 43.9577 14.7293 43.9581C14.7615 44.0092 14.7975 44.0578 14.837 44.1035C14.8689 44.1484 14.9074 44.1996 14.9454 44.2442C15.118 44.4614 15.2968 44.6721 15.4694 44.8831C15.514 44.9342 15.559 44.9788 15.6036 45.03C15.6486 45.0811 15.6932 45.1322 15.7378 45.1772C15.7588 45.2004 15.7798 45.224 15.8009 45.2472C15.8948 45.3512 15.9891 45.4546 16.083 45.5539C17.6353 47.2216 19.5075 48.6909 21.6542 49.9369L21.52 50.2244C19.2776 49.4067 17.1563 48.135 15.2138 46.4547C14.7986 46.0906 14.3961 45.7135 14.0128 45.311C14.0048 45.3041 13.9968 45.2968 13.9892 45.2892C13.9475 45.2504 13.9091 45.2073 13.8659 45.1641C13.821 45.1195 13.7764 45.0684 13.7318 45.0173C13.5719 44.8512 13.4185 44.6786 13.2716 44.506C13.227 44.4548 13.1886 44.4102 13.1567 44.3656C13.1092 44.3229 13.0682 44.2734 13.0352 44.2188C13.0348 44.2181 13.0341 44.2177 13.0337 44.217C12.0933 43.1018 11.2736 41.8902 10.5883 40.6024C9.40613 38.4619 8.62687 36.0534 8.26244 33.44L8.14749 32.5074C8.12827 32.3348 8.12211 32.156 8.11558 31.9834L8.08367 31.2999C8.07098 31.0696 8.06445 30.8336 8.06445 30.6033L8.09637 29.6576C8.11558 28.3671 8.33279 27.0892 8.55652 25.8882C9.06744 23.4924 10.0389 21.1412 11.4506 18.8923C12.5243 17.2503 13.7445 15.7999 15.0927 14.5666C15.0936 14.5659 15.0945 14.565 15.0952 14.5641C15.1579 14.5079 15.2145 14.451 15.278 14.4006C15.3418 14.3429 15.3991 14.2918 15.4629 14.241C15.6932 14.03 15.9357 13.832 16.1787 13.6467C16.233 13.598 16.2907 13.5531 16.3513 13.5125C16.4053 13.4641 16.4626 13.4195 16.5228 13.3791C16.5232 13.3787 16.5232 13.3783 16.5235 13.3783C16.5304 13.3683 16.5391 13.3597 16.5493 13.353C18.3024 12.0095 20.2615 10.9587 22.3504 10.2414C22.9255 10.0434 23.526 9.87076 24.1461 9.71737C25.7326 9.32414 27.3609 9.12458 28.9953 9.12305C29.5001 9.12305 29.9983 9.14227 30.5031 9.1807L30.5096 9.50017Z" fill="white"/>
<path d="M29.1516 42.8438C29.1016 42.8693 29.0486 42.8881 28.9938 42.9C28.9601 42.9113 28.9489 42.9113 28.9152 42.9225C28.8927 42.9225 28.8589 42.945 28.8252 42.945C27.8346 43.2376 26.833 43.4965 25.8424 43.7105C25.7797 43.7295 25.7158 43.7446 25.6513 43.7554C25.6063 43.7667 25.5722 43.7779 25.5388 43.7892C25.5048 43.7892 25.4823 43.8004 25.4485 43.8004C25.4261 43.7892 25.4148 43.7667 25.3923 43.7442C25.3634 43.7209 25.337 43.6945 25.3137 43.6655C25.2683 43.6206 25.2232 43.5755 25.1784 43.5303C25.1271 43.4881 25.0783 43.4431 25.0323 43.3954C24.6606 43.0353 24.2893 42.6524 23.9067 42.2473C23.8368 42.1567 23.7576 42.0737 23.6703 41.9997C23.6543 41.9653 23.6314 41.9347 23.6028 41.9097C23.5916 41.8985 23.5804 41.876 23.5691 41.8648C23.5248 41.8225 23.4833 41.7774 23.4451 41.7295C21.6838 39.7825 20.1332 37.6549 18.8192 35.3819C18.2905 34.4475 17.8064 33.5021 17.3789 32.5568C17.4319 32.554 17.4846 32.5465 17.5363 32.5343C17.5925 32.5231 17.6374 32.5231 17.7053 32.5118C18.718 32.3428 19.7649 32.1064 20.3951 31.949C20.4526 31.9393 20.5091 31.9243 20.5638 31.9041C20.6203 31.8928 20.6765 31.8816 20.7215 31.8704C21.0478 32.4444 21.3967 33.0068 21.7684 33.5921C23.0063 35.5393 24.5257 37.5315 26.5516 39.8838L26.9904 40.3904L27.0582 40.4691C27.0694 40.4803 27.0807 40.5028 27.1032 40.514C27.1396 40.5529 27.1734 40.5942 27.2043 40.6377C27.6772 41.178 28.1834 41.752 28.769 42.4163C28.8209 42.4697 28.8697 42.526 28.9151 42.5849C28.9441 42.6083 28.9705 42.6346 28.9938 42.6636C29.0051 42.6748 29.0163 42.6977 29.0388 42.7202C29.0841 42.7651 29.1179 42.8101 29.1516 42.8438Z" fill="white"/>
<path d="M50.4792 25.4774V25.5673L50.4568 25.601C50.4343 25.6572 50.4002 25.7022 50.3777 25.7475C50.3335 25.8135 50.2896 25.8799 50.2454 25.9459C50.2446 25.9473 50.2435 25.9484 50.2428 25.9498C50.1979 26.006 50.1529 26.0739 50.1076 26.1413L48.4646 28.5948L46.7987 30.7897L46.6526 30.992C46.5735 31.1048 46.4723 31.2284 46.3824 31.3412C46.3433 31.3951 46.2979 31.4442 46.2472 31.4873V31.4986C46.2091 31.5464 46.1677 31.5916 46.1235 31.6338C46.0352 31.7473 45.9413 31.8562 45.8421 31.9602C45.6753 32.1359 45.5174 32.32 45.3693 32.5117L44.4914 33.4683L44.379 33.6032L44.2441 33.7385L44.2437 33.7388L44.0077 33.9974C43.8724 34.1435 43.7263 34.2788 43.5798 34.4137C43.2309 34.74 42.8821 35.0664 42.5217 35.3815C41.6891 36.2144 40.7097 36.9349 39.7643 37.6214L39.3705 37.9027C37.2884 39.3771 34.902 40.6717 32.2683 41.7519C31.5819 42.0333 30.8505 42.3034 30.0963 42.5511C29.9824 42.5892 29.8669 42.627 29.7496 42.6646C29.6325 42.702 29.5139 42.7389 29.3935 42.7745C29.3134 42.798 29.2325 42.8211 29.1509 42.8437C29.101 42.8692 29.048 42.8881 28.9932 42.8999C28.9595 42.9112 28.9482 42.9112 28.9145 42.9224C28.892 42.9224 28.8583 42.9449 28.8246 42.9449C27.8339 43.2375 26.8324 43.4964 25.8417 43.7104C25.779 43.7294 25.7152 43.7445 25.6506 43.7554C25.6056 43.7666 25.5716 43.7778 25.5382 43.7891C25.5041 43.7891 25.4816 43.8003 25.4479 43.8003C25.3623 43.8188 25.2332 43.8464 25.0766 43.8794C22.5307 44.4128 19.5822 45.031 16.2186 45.2254C16.0779 45.2334 15.9387 45.2406 15.8009 45.2472C15.1681 45.2765 14.5626 45.2892 13.9893 45.2892C11.1514 45.2896 9.11245 44.9817 8.57687 44.8976C7.24194 44.6872 5.92094 44.3963 4.62109 44.0266C7.40692 44.4346 10.2323 44.4986 13.0338 44.217C13.0657 44.2162 13.0975 44.2138 13.1291 44.2097C13.1603 44.2057 13.1912 44.1999 13.2249 44.1945C13.2473 44.1945 13.2811 44.1832 13.3152 44.1832C13.3403 44.174 13.3671 44.1702 13.3938 44.172C13.7202 44.1267 14.0466 44.0705 14.3729 44.0143C14.4295 44.003 14.4969 44.003 14.5531 43.9918C14.5783 43.9826 14.6051 43.9787 14.6318 43.9805C14.663 43.9682 14.6959 43.9606 14.7294 43.9581H14.7333C15.3411 43.8569 15.9376 43.7441 16.5341 43.6205C18.8798 43.156 21.1891 42.5241 23.4445 41.7294C23.5024 41.7158 23.5589 41.697 23.6134 41.6732C23.6247 41.6732 23.6584 41.662 23.6696 41.662C23.7021 41.6444 23.736 41.6293 23.7708 41.617C24.7053 41.2907 25.6843 40.919 26.6746 40.5139C26.7312 40.4915 26.7874 40.469 26.8324 40.4465C26.8436 40.4465 26.8661 40.4353 26.8773 40.4353C26.9136 40.4174 26.9512 40.4023 26.9897 40.3903C28.2506 39.8612 29.5672 39.2647 30.8842 38.6233L32.5497 37.7566C32.6962 37.6776 32.8427 37.6101 33.0001 37.5314C33.3939 37.34 33.8105 37.1376 34.1931 36.9012L34.5307 36.6873C34.9473 36.4396 35.3749 36.1807 35.814 35.9443L36.0725 35.7981C36.2528 35.697 36.4442 35.5954 36.6128 35.483L37.4008 34.9652L39.3705 33.6935L40.7887 32.6579C41.1938 32.354 41.6101 32.0501 42.0267 31.7687L43.1298 30.8571L43.2647 30.756L43.3999 30.6432L43.4898 30.5757C43.6472 30.4408 43.8162 30.3056 43.9739 30.1819C44.3003 29.923 44.6379 29.6641 44.9418 29.3715L45.3131 29.0227L45.4371 28.8986L45.572 28.775L47.0239 27.3905L47.6654 26.7041L48.9708 25.2747C49.2413 24.982 49.4886 24.6669 49.7363 24.3518L49.8149 24.2503L49.8164 24.2488L49.939 24.1041L50.0514 23.9576H50.0626L50.1417 24.239C50.2766 24.6444 50.3777 25.0607 50.4792 25.4774Z" fill="white"/>
<path d="M20.3273 31.1498L20.1695 31.1948L20.0005 31.2397L19.9893 31.251V31.2513C19.907 31.2691 19.8247 31.2867 19.7424 31.3043C19.7148 31.3104 19.6876 31.3162 19.6604 31.322C19.6053 31.3336 19.5505 31.3452 19.4958 31.3565C19.445 31.3674 19.3939 31.3779 19.3431 31.3884C19.3366 31.3898 19.3301 31.3913 19.3235 31.3924C19.2166 31.4145 19.1096 31.4366 19.003 31.458C18.6614 31.5273 18.3215 31.595 17.9833 31.6611C17.8484 31.6876 17.7138 31.714 17.5794 31.7405C17.5123 31.7535 17.4452 31.767 17.3785 31.78C17.3219 31.7913 17.2769 31.8025 17.2207 31.8137C17.1635 31.8196 17.1069 31.8308 17.0518 31.8475C17.03 31.8 17.0112 31.7512 16.9956 31.7013C16.9731 31.6451 16.9506 31.5889 16.9281 31.5436C16.8944 31.4761 16.8719 31.4087 16.8382 31.3413C16.613 30.7672 16.3991 30.2045 16.2076 29.6304C16.1963 29.5855 16.1742 29.5405 16.1626 29.4839C16.1401 29.439 16.1289 29.3828 16.1064 29.3266C15.9041 28.6963 15.7239 28.0658 15.5661 27.4243C14.9022 24.7456 14.6095 21.8868 14.6995 18.938C14.6995 18.5554 14.722 18.2066 14.7448 17.869V17.865C14.7452 17.7762 14.756 17.6873 14.756 17.5989C14.7686 17.5206 14.7761 17.4416 14.7785 17.3624C14.7769 17.3466 14.7808 17.3307 14.7898 17.3175C14.8347 16.5295 14.9134 15.7869 15.0146 15.0888C15.0262 14.9989 15.0374 14.9202 15.0487 14.8412V14.8299C15.0599 14.7625 15.0711 14.7063 15.0824 14.6388C15.0806 14.6156 15.0845 14.5924 15.0936 14.571C15.0944 14.5688 15.095 14.5665 15.0954 14.5641C15.9077 11.7009 16.72 8.8377 17.5322 5.97449C17.1159 8.40075 16.7796 10.8686 16.5231 13.378V13.3791C16.5154 13.4542 16.5078 13.5289 16.5002 13.6032C16.4909 13.6476 16.4871 13.6931 16.489 13.7384C16.4916 13.7652 16.4878 13.7922 16.4777 13.8171C16.444 14.4361 16.4103 14.9989 16.4103 15.528C16.4014 15.6063 16.3977 15.6852 16.3991 15.764V15.9892C16.3991 16.957 16.4328 17.9364 16.5231 18.8818C16.7608 21.5228 17.3395 24.1218 18.2448 26.6142C18.4475 27.1654 18.6614 27.7169 18.9091 28.2684C18.9316 28.3247 18.954 28.37 18.9765 28.4262C18.9904 28.473 19.0093 28.5182 19.0327 28.5611C19.3591 29.2816 19.6967 30.0017 20.0908 30.7107C20.1124 30.7654 20.1388 30.8182 20.1695 30.8684C20.1913 30.9195 20.2177 30.9685 20.2482 31.0149C20.2702 31.0623 20.2967 31.1075 20.3273 31.1498Z" fill="white"/>
<path d="M52.9227 30.7825L52.8843 31.7278C52.8651 33.0057 52.6478 34.2901 52.4245 35.4845C51.9197 37.8742 50.9421 40.2254 49.5301 42.4743C48.9003 43.4419 48.1978 44.3601 47.4287 45.2211L47.428 45.2218C47.3741 45.2909 47.3165 45.357 47.2554 45.4198C47.1981 45.4837 47.1404 45.5475 47.0766 45.6117C46.8848 45.8223 46.6806 46.033 46.4761 46.2375C46.4239 46.2919 46.3684 46.3431 46.3101 46.3909C46.2601 46.4454 46.2067 46.4966 46.1501 46.5443L46.1461 46.5483C45.605 47.0712 45.0325 47.5606 44.4317 48.0136C42.3958 49.5716 40.0854 50.7333 37.6207 51.4385C37.1286 51.5789 36.6754 51.6876 36.2471 51.7768C34.8384 52.0821 33.4013 52.2364 31.9599 52.237C31.4678 52.237 30.9761 52.2178 30.4841 52.1859L30.4775 51.8664C32.013 51.7262 33.5318 51.4417 35.0139 51.0168C35.0146 51.0164 35.0157 51.0164 35.0164 51.0161C35.0799 50.9972 35.1487 50.978 35.2122 50.9592C35.2503 50.9465 35.2952 50.9338 35.3333 50.9207C35.3598 50.9152 35.3856 50.9067 35.4102 50.8953C35.5955 50.8377 35.7808 50.7804 35.953 50.7227C36.1064 50.6716 36.2536 50.6205 36.394 50.5759C36.4146 50.5658 36.4359 50.5572 36.4578 50.5501C36.5155 50.5313 36.5731 50.5055 36.6304 50.4863C36.6623 50.4736 36.6881 50.4674 36.7134 50.4544C36.745 50.4417 36.7704 50.4294 36.8019 50.4163C36.8023 50.4163 36.8026 50.416 36.803 50.416C39.2372 49.496 41.4285 48.212 43.288 46.602C44.3146 45.7093 45.257 44.7243 46.1034 43.6593C46.1041 43.6583 46.1048 43.6575 46.1055 43.6564C46.1628 43.5926 46.2078 43.5415 46.2589 43.4777V43.4711C46.3101 43.4073 46.3547 43.3435 46.3993 43.2793C46.7126 42.8768 47.0001 42.4681 47.2684 42.0526C47.3257 41.9695 47.3769 41.9184 47.4345 41.8292V41.7908C47.4918 41.7077 47.5429 41.6247 47.5941 41.5355C47.6068 41.5163 47.6195 41.4967 47.6321 41.4764C47.6579 41.4354 47.6836 41.3926 47.709 41.3498C48.9742 39.2351 49.8242 37.1076 50.2393 35.0182C50.8783 32.0154 50.8783 28.8849 50.2455 25.9459C50.2328 25.8756 50.2201 25.7987 50.2009 25.7287C50.1882 25.6711 50.1755 25.6134 50.1625 25.5561L50.1563 25.5177C50.1563 25.5112 50.1498 25.4985 50.1498 25.4923C50.0794 25.2047 50.0094 24.9172 49.926 24.6296C49.9072 24.5658 49.8941 24.5082 49.8749 24.4509C49.8622 24.4124 49.8557 24.374 49.843 24.3359C49.8368 24.3102 49.8242 24.2783 49.8176 24.2525C49.8173 24.2514 49.8169 24.25 49.8165 24.2489C49.5374 23.3367 49.194 22.4455 48.7889 21.5819C47.7348 19.346 46.4315 17.41 44.9107 15.8253L44.8734 15.7883L44.8723 15.7873C44.8404 15.7488 44.8019 15.7104 44.7639 15.6719C44.7254 15.6273 44.687 15.5889 44.6489 15.5508C44.4187 15.3079 44.1822 15.0715 43.9396 14.8477C43.9045 14.8084 43.866 14.7721 43.8247 14.7393C43.7895 14.6969 43.7495 14.6588 43.7054 14.6258C43.7047 14.6254 43.7039 14.6247 43.7032 14.6244C42.4188 13.4357 40.9622 12.3754 39.3522 11.4362L39.4864 11.1487C41.2498 11.7938 42.9366 12.7141 44.5209 13.9089C44.5213 13.9093 44.5216 13.9093 44.522 13.9096C44.5681 13.9411 44.6125 13.9748 44.6551 14.0108C44.7018 14.0371 44.7448 14.0694 44.7831 14.1069C45.013 14.2791 45.2367 14.4583 45.4601 14.6563C45.507 14.6846 45.5501 14.719 45.5881 14.7585C45.6262 14.7904 45.6645 14.8223 45.703 14.8542L45.7045 14.8557C45.7295 14.8807 45.7607 14.8992 45.7861 14.9246C47.6325 16.5346 49.1914 18.5091 50.4054 20.7772C50.7509 21.4055 51.0581 22.0541 51.3254 22.7194L51.6322 23.4859C52.1465 24.929 52.5104 26.4214 52.7182 27.9392L52.8397 28.8719C52.8589 29.1148 52.8717 29.3513 52.8781 29.5812L52.9035 30.0986C52.91 30.3223 52.9227 30.5522 52.9227 30.7825Z" fill="white"/>
<path d="M50.1169 8.70898C48.7751 10.846 47.3021 12.8977 45.7064 14.8524C45.7057 14.8535 45.7046 14.8546 45.7039 14.8557C45.6709 14.8959 45.6383 14.9362 45.6053 14.9764L45.594 14.9877C45.5575 15.0226 45.5237 15.0601 45.4928 15.1001L45.0874 15.5392C45.0537 15.5842 45.02 15.6179 44.9863 15.6629H44.975C44.944 15.7063 44.9102 15.7478 44.8739 15.7869C44.8735 15.7872 44.8731 15.788 44.8728 15.7883C44.5355 16.148 44.1979 16.5186 43.8607 16.8783C42.9491 17.8349 42.0263 18.7469 41.1034 19.5907C40.9344 19.7597 40.7542 19.9174 40.5856 20.0748C40.5689 20.0915 40.549 20.1085 40.5294 20.1256C40.5243 20.1299 40.5196 20.1339 40.5145 20.1383C40.4996 20.151 40.4855 20.1636 40.4728 20.1763L40.4616 20.1876C40.4227 20.224 40.3813 20.2578 40.3379 20.2887C39.6515 20.919 38.886 21.5604 38.1093 22.191C38.0658 22.222 38.0245 22.2558 37.9856 22.2922H37.9744C37.9407 22.3259 37.8957 22.3596 37.8616 22.3934C37.6368 22.5623 37.4116 22.7422 37.1977 22.9112C35.2395 24.4081 33.2473 25.7247 31.2326 26.8166C30.4334 27.2557 29.6005 27.6607 28.8017 28.0545C28.3963 28.2347 28.0137 28.4262 27.6195 28.6285C26.3141 29.1801 24.9975 29.6867 23.8607 30.1258L21.9247 30.7107L20.7991 31.0262L20.3266 31.1498L20.1689 31.1948L19.9999 31.2397L19.9887 31.251V31.2513C19.8791 31.2753 19.7693 31.2988 19.6598 31.322C19.6046 31.3337 19.5499 31.3453 19.4951 31.3565C19.4444 31.3674 19.3932 31.3779 19.3425 31.3884C19.3359 31.3899 19.3294 31.3913 19.3229 31.3924C19.2159 31.4145 19.109 31.4366 19.0024 31.458C18.6608 31.5273 18.3209 31.595 17.9827 31.6611C17.8474 31.6876 17.7128 31.714 17.5787 31.7405C17.5116 31.7536 17.4445 31.767 17.3778 31.78C17.3213 31.7913 17.2763 31.8025 17.2201 31.8138C17.1628 31.8196 17.1062 31.8309 17.0511 31.8475C16.8375 31.8816 16.6348 31.9265 16.4321 31.9603C16.2972 31.994 16.1736 32.0052 16.0496 32.0389C15.3178 32.1742 14.5639 32.2754 13.8322 32.3765C13.2582 32.4668 12.6841 32.5455 12.1101 32.6467C11.5259 32.7479 10.9294 32.8378 10.3453 32.9052H10.3449C10.3445 32.9056 10.3442 32.9056 10.3435 32.9056C10.2981 32.9056 10.2194 31.2959 10.2644 31.2847C10.2658 31.2843 10.2669 31.284 10.2684 31.2836C12.1467 30.7437 13.991 30.1026 15.3969 29.5967L16.1058 29.3266L16.2635 29.2704L16.4097 29.2142L18.6045 28.3812L18.7619 28.3247L18.9084 28.2685L19.0433 28.2235L20.8216 27.4921L22.6223 26.7941L23.2979 26.5127C24.2432 26.1189 25.211 25.7135 26.1789 25.3422L29.6567 23.7554C31.8853 22.6635 34.0012 21.5042 35.926 20.3C35.9734 20.274 36.0186 20.2439 36.0609 20.2101C36.0721 20.2101 36.0837 20.1988 36.0949 20.1988C36.1287 20.1647 36.1736 20.1535 36.2074 20.1198C37.1077 19.5686 37.9294 19.0171 38.717 18.4768C38.7623 18.443 38.8073 18.4089 38.841 18.3865C38.8469 18.3861 38.8524 18.3836 38.8565 18.3794C38.8606 18.3753 38.8631 18.3698 38.8635 18.364C38.9052 18.3444 38.9432 18.3177 38.9759 18.2853C40.2367 17.4186 41.4522 16.4845 42.6115 15.528C42.9828 15.235 43.3429 14.9427 43.7033 14.6272L43.7048 14.6258C43.7428 14.5859 43.7836 14.5488 43.827 14.5148H43.8382C43.872 14.4811 43.9169 14.4474 43.9506 14.4137C44.0409 14.335 44.131 14.2562 44.2208 14.1772L44.277 14.121L44.401 14.0195L44.4235 13.997C44.4514 13.972 44.4928 13.9357 44.5214 13.9096C44.5226 13.9089 44.5237 13.908 44.5247 13.9071C46.4375 12.2042 48.3015 10.4715 50.1169 8.70898Z" fill="white"/>
<path d="M47.6315 41.4764C47.6221 42.8402 47.5427 44.0937 47.4285 45.2186C47.4285 45.2193 47.4281 45.2204 47.4281 45.2211C47.0345 48.0367 46.0073 50.7262 44.4238 53.0873C45.5617 50.6955 46.0353 48.4897 46.1455 46.5483V46.5468C46.1499 46.4714 46.1536 46.3963 46.1568 46.3216V46.0965C46.1568 45.3988 46.1455 44.7573 46.1231 44.138V43.9019C46.1231 43.8454 46.1118 43.7891 46.1118 43.7217C46.1133 43.7005 46.1102 43.6792 46.1027 43.6593C46.1022 43.6576 46.1014 43.6559 46.1006 43.6543C46.0328 42.4047 45.9203 41.2679 45.763 40.1652C45.505 38.3085 45.0984 36.4755 44.5471 34.6839C44.5924 34.6389 44.6375 34.5939 44.6824 34.549C44.7273 34.5036 44.7611 34.4699 44.806 34.425C45.2114 33.9862 45.8079 33.3672 46.382 32.7141C46.472 32.6166 46.5621 32.519 46.6521 32.4215C47.1131 34.4582 47.413 36.528 47.5489 38.6117C47.6138 39.6118 47.6381 40.5684 47.6315 41.4764Z" fill="white"/>
<defs>
<linearGradient id="paint0_linear" x1="-29.5345" y1="29.5345" x2="29.5345" y2="88.6034" gradientUnits="userSpaceOnUse">
<stop stop-color="#1DE9B6"/>
<stop offset="1" stop-color="#03A9F4"/>
</linearGradient>
</defs>
</svg>
