<svg width="95" height="100" viewBox="0 0 95 100" fill="none" xmlns="http://www.w3.org/2000/svg">
<g opacity="0.5">
<path d="M5.50815 91.4232C6.43344 94.6331 9.13518 96.8801 11.9534 98.7889C12.347 99.0555 12.7406 99.316 13.1343 99.5703C13.137 99.5714 13.1398 99.5739 13.1425 99.5751C13.1614 99.5873 13.1804 99.5995 13.198 99.6117C13.2793 99.6641 13.3606 99.7165 13.4412 99.7683L13.3969 99.7882C13.3969 99.7882 13.3534 99.8113 13.401 99.7919C13.4152 99.786 13.43 99.7807 13.4441 99.7747C15.0813 99.1144 16.7476 98.4054 18.0023 97.1684C19.3039 95.8839 20.0645 93.8691 19.3597 92.1816C19.2671 91.9606 19.1501 91.7505 19.0109 91.5554C18.9537 91.4736 18.8921 91.3953 18.828 91.3185C18.4393 90.844 17.9311 90.4816 17.3559 90.2686C16.7807 90.0556 16.1591 89.9997 15.5551 90.1066C14.951 90.2134 14.3864 90.4793 13.9192 90.8767C13.4519 91.2741 13.099 91.7888 12.8966 92.3679C12.6896 90.4401 14.2792 88.8253 15.8089 87.6338C17.3394 86.4429 19.0784 85.146 19.3743 83.2289C19.5395 82.1623 19.1686 81.1286 18.4929 80.2988C18.472 80.2736 18.4511 80.2484 18.4296 80.2239C17.6071 79.2574 16.4502 78.6368 15.1902 78.486C12.8434 78.2421 10.5639 79.4843 8.85906 81.1159C6.11511 83.7411 4.45627 87.7734 5.50815 91.4232Z" fill="#F2F2F2"/>
<path d="M9.91893 87.2247C9.46854 87.9254 9.12275 88.6881 8.89247 89.4886C8.69774 90.2041 8.61106 90.9447 8.63533 91.6858C8.69815 93.2109 9.12628 94.6985 9.88371 96.0237C10.4543 97.029 11.1496 97.9581 11.9532 98.7891C12.3467 99.0557 12.7403 99.3161 13.1341 99.5704C13.1368 99.5716 13.1395 99.5741 13.1422 99.5753C13.1611 99.5874 13.1801 99.5996 13.1978 99.6119C13.279 99.6643 13.3603 99.7167 13.4409 99.7685C13.4409 99.7685 13.3532 99.8115 13.4008 99.7921C13.4149 99.7861 13.4297 99.7808 13.4439 99.7749C13.2971 98.5718 13.4409 97.3511 13.8631 96.215C14.2853 95.079 14.9736 94.0607 15.8704 93.2454C16.7694 92.4426 17.8454 91.8636 19.0106 91.5556C18.9535 91.4738 18.8919 91.3955 18.8278 91.3186C18.3777 91.4448 17.9397 91.6106 17.5189 91.814C16.0145 92.5364 14.7826 93.724 14.0057 95.201C13.3086 96.5422 13.0085 98.0545 13.1408 99.5602C13.0735 99.4993 13.0062 99.437 12.9409 99.3753C11.6967 98.2154 10.5917 96.884 9.84387 95.3475C9.19507 94.0463 8.87619 92.6055 8.91533 91.152C8.97636 89.5671 9.60782 88.0992 10.5221 86.8212C11.5241 85.4578 12.7079 84.2378 14.0405 83.1951C15.3835 82.1195 16.853 81.2122 18.4164 80.4935C18.4516 80.4771 18.4792 80.4477 18.4934 80.4115C18.5076 80.3753 18.5073 80.335 18.4927 80.2989C18.4822 80.2666 18.4595 80.2397 18.4293 80.224C18.4138 80.2173 18.397 80.2142 18.3801 80.2149C18.3632 80.2157 18.3467 80.2202 18.3318 80.2282C18.1388 80.317 17.9471 80.4071 17.757 80.5011C16.1732 81.2839 14.6929 82.2604 13.3499 83.4081C12.0527 84.5141 10.8314 85.7777 9.91893 87.2247Z" fill="white"/>
<path d="M37.1109 42.4904C39.7565 41.0442 40.6907 37.6575 39.1976 34.9261C37.7044 32.1947 34.3494 31.1528 31.7038 32.599C29.0582 34.0452 28.124 37.4318 29.6171 40.1632C31.1103 42.8947 34.4654 43.9366 37.1109 42.4904Z" fill="#2F2E41"/>
<path d="M34.4075 43.4911C36.8919 43.4911 38.9059 41.4771 38.9059 38.9927C38.9059 36.5084 36.8919 34.4944 34.4075 34.4944C31.9232 34.4944 29.9092 36.5084 29.9092 38.9927C29.9092 41.4771 31.9232 43.4911 34.4075 43.4911Z" fill="#FFB8B8"/>
<path d="M31.9955 45.8735L31.417 47.5098L32.2679 52.4345L35.7745 55.3481L38.5591 51.0422L37.2184 46.9683L36.2128 45.8338C36.2227 45.7318 36.2114 45.6289 36.1796 45.5315C36.1478 45.4341 36.0962 45.3444 36.0281 45.2678C35.96 45.1913 35.8768 45.1297 35.7837 45.0869C35.6906 45.044 35.5897 45.0209 35.4873 45.0189L33.2912 44.9761C33.0083 44.9706 32.7309 45.0543 32.4983 45.2154C32.2657 45.3765 32.0898 45.6068 31.9955 45.8735Z" fill="#CCCCCC"/>
<path d="M41.3142 97.7466L43.5596 97.7463L43.8697 89.0854L41.3135 89.0858L41.3142 97.7466Z" fill="#FFB8B8"/>
<path d="M47.8901 99.8311L40.8332 99.8317L40.833 97.1052L45.1634 97.1048C45.8865 97.1047 46.58 97.3919 47.0914 97.9032C47.6027 98.4145 47.8901 99.1079 47.8901 99.831L47.8901 99.8311Z" fill="#2F2E41"/>
<path d="M25.5847 97.7466L27.8301 97.7463L28.8979 89.0854L25.584 89.0858L25.5847 97.7466Z" fill="#FFB8B8"/>
<path d="M32.1606 99.8311L25.1037 99.8317L25.1035 97.1052L29.4339 97.1048C30.157 97.1047 30.8505 97.3919 31.3619 97.9032C31.8733 98.4145 32.1606 99.1079 32.1606 99.831L32.1606 99.8311Z" fill="#2F2E41"/>
<path d="M45.3276 36.9242C45.558 37.0635 45.755 37.2517 45.9048 37.4754C46.0546 37.6991 46.1535 37.953 46.1946 38.2191C46.2356 38.4852 46.2179 38.7571 46.1425 39.0155C46.0671 39.274 45.936 39.5128 45.7584 39.7152L47.6155 43.4919L45.5957 45.1802L43.0479 39.8099C42.7278 39.489 42.5366 39.0617 42.5104 38.6092C42.4843 38.1566 42.625 37.7102 42.906 37.3545C43.187 36.9988 43.5887 36.7585 44.035 36.6792C44.4814 36.5999 44.9412 36.687 45.3276 36.9242H45.3276Z" fill="#FFB8B8"/>
<path d="M31.94 66.4981C30.8454 66.4839 29.7526 66.4033 28.6677 66.2568C28.4821 66.2334 28.3036 66.1704 28.1444 66.0722C27.9852 65.974 27.8488 65.8427 27.7446 65.6873C27.6404 65.5319 27.5708 65.356 27.5404 65.1714C27.5099 64.9868 27.5195 64.7978 27.5683 64.6172L29.999 55.6171L28.0415 50.1254C27.8306 49.5323 27.8542 48.8811 28.1076 48.3049C28.3609 47.7287 28.8248 47.271 29.4044 47.0255L32.0932 45.8887L32.9013 50.8911L34.8265 53.3187C34.8905 53.3993 34.9733 53.4629 35.0677 53.5038C35.162 53.5448 35.265 53.5619 35.3676 53.5536C35.4701 53.5453 35.569 53.5118 35.6555 53.4562C35.7421 53.4005 35.8136 53.3244 35.8637 53.2346L37.3257 50.614L36.1315 45.7986L37.912 46.0092C38.4868 46.0791 39.0304 46.309 39.4809 46.6728C39.9314 47.0366 40.2706 47.5197 40.46 48.0669C41.0072 49.6581 41.0549 51.3786 40.5967 52.9978L39.8589 55.619L41.1545 63.993C41.1899 64.2211 41.1786 64.4541 41.1214 64.6778C41.0641 64.9015 40.962 65.1112 40.8213 65.2943C40.6805 65.4774 40.5041 65.63 40.3027 65.7429C40.1012 65.8558 39.879 65.9266 39.6494 65.951C38.8215 66.0463 37.9879 66.0812 37.155 66.0554C36.3991 66.0232 35.8683 65.5623 35.6198 64.7225C35.6063 64.6734 35.5771 64.63 35.5366 64.599C35.4962 64.568 35.4467 64.551 35.3957 64.5508C35.3447 64.5505 35.2951 64.5669 35.2543 64.5975C35.2135 64.6281 35.1839 64.6712 35.1699 64.7202C35.1011 64.9641 35.0254 65.2356 34.9428 65.5349C34.7427 66.2613 33.4891 66.4981 31.94 66.4981Z" fill="#2F2E41"/>
<path d="M39.7526 50.2525C39.5294 50.2531 39.3082 50.2095 39.102 50.124C38.8598 50.0237 38.6459 49.8653 38.4793 49.6629C38.3126 49.4605 38.1983 49.2202 38.1462 48.9632C38.0678 48.5556 38.1224 48.1336 38.302 47.7594C38.4817 47.3852 38.7769 47.0787 39.144 46.885L44.3907 44.0364L44.1037 42.9017C44.064 42.7277 44.0763 42.5458 44.1389 42.3787C44.2016 42.2116 44.312 42.0665 44.4563 41.9615L45.8092 40.9565C45.912 40.8777 46.0311 40.8228 46.1579 40.7961C46.2846 40.7693 46.4158 40.7713 46.5417 40.8018C46.6527 40.8297 46.756 40.8821 46.8441 40.9551C46.9322 41.0281 47.0028 41.1199 47.0508 41.2238L47.7536 42.7413C48.3097 43.9419 47.8343 45.4206 46.6477 46.1808L40.7631 49.9504C40.462 50.1455 40.1114 50.2504 39.7526 50.2525Z" fill="#2F2E41"/>
<path d="M28.6989 93.7204C28.6806 93.7204 28.6623 93.7198 28.6438 93.7186L25.785 93.6038C25.6742 93.5969 25.5658 93.5676 25.4666 93.5178C25.3673 93.4679 25.2791 93.3985 25.2073 93.3137C25.1355 93.2289 25.0816 93.1305 25.0489 93.0243C25.0161 92.9182 25.0051 92.8065 25.0166 92.696L27.9181 64.7819L35.5327 62.0129L40.0169 64.5505L44.9227 91.598C44.9612 91.805 44.9191 92.0189 44.8049 92.1958C44.6908 92.3727 44.5132 92.4992 44.3088 92.5494L44.2969 92.5524L41.3705 92.4805C41.1688 92.5261 40.9573 92.4945 40.7778 92.3918C40.5982 92.2892 40.4637 92.123 40.4007 91.926L34.1683 70.0554C34.1496 69.9983 34.1127 69.949 34.0632 69.9148C34.0138 69.8807 33.9545 69.8637 33.8945 69.8665C33.8345 69.8693 33.777 69.8917 33.7309 69.9302C33.6848 69.9688 33.6527 70.0214 33.6393 70.0799L29.5019 93.075C29.4617 93.258 29.3602 93.4218 29.2141 93.5392C29.0681 93.6566 28.8863 93.7206 28.6989 93.7204Z" fill="#2F2E41"/>
<path d="M30.4788 36.1529C29.7632 37.0897 30.3078 38.6844 31.4469 38.9878C32.5861 39.2912 33.8517 38.1787 33.6969 37.01C33.4511 38.2361 34.5005 39.5193 35.7463 39.6283C36.992 39.7373 38.2033 38.7612 38.4759 37.5408C38.7484 36.3203 38.1402 34.9868 37.1046 34.2857C36.0691 33.5845 34.6824 33.4934 33.5108 33.9306C32.3147 34.3779 31.2655 35.147 30.4788 36.1529Z" fill="#2F2E41"/>
<path d="M35.9013 32.1543C35.235 30.756 34.5504 29.3308 33.4734 28.2174C32.3965 27.1041 30.8386 26.3373 29.312 26.5998C27.7854 26.8624 26.4708 28.4031 26.8089 29.9147C26.9806 30.6826 26.3232 31.4434 25.5653 31.6549C24.8075 31.8664 23.9998 31.6686 23.2506 31.4282C22.5014 31.1879 21.7424 30.9009 20.9563 30.9347C19.3801 31.0026 18.0623 32.4945 18.0069 34.0712C17.9516 35.6479 19.0241 37.1488 20.4631 37.7956C21.9021 38.4424 23.6234 38.2975 25.0427 37.6087C26.4621 36.9198 27.597 35.7323 28.4269 34.3905C29.6532 32.4079 32.7348 31.9188 34.5147 33.4245C34.7053 33.5741 34.9453 33.6465 35.1868 33.6271C35.4284 33.6077 35.6537 33.4981 35.8181 33.32C36.1328 32.9527 36.0872 32.3331 35.9013 32.1543Z" fill="#2F2E41"/>
<path d="M69.515 24.2956L68.0143 22.9419C62.6852 18.0491 59.167 14.8735 59.167 10.9176C59.167 7.69014 61.6504 5.19165 64.8584 5.19165C65.7467 5.19638 66.6234 5.3944 67.4275 5.77195C68.2316 6.1495 68.9439 6.69754 69.515 7.37801C70.086 6.69752 70.7983 6.14948 71.6025 5.77193C72.4066 5.39437 73.2832 5.19637 74.1716 5.19165C77.3795 5.19165 79.863 7.69014 79.863 10.9176C79.863 14.8735 76.3447 18.0492 71.0156 22.9419L69.515 24.2956Z" fill="url(#paint0_linear)"/>
<path d="M44.8098 33.6054C44.6692 33.5564 44.5475 33.4646 44.4617 33.3429C44.376 33.2212 44.3304 33.0757 44.3316 32.9268V1.64835C44.3321 1.21133 44.5059 0.79236 44.8149 0.483343C45.1239 0.174325 45.5429 0.000499768 45.9799 0H93.0495C93.4865 0.000499768 93.9055 0.174325 94.2145 0.483343C94.5235 0.79236 94.6973 1.21133 94.6978 1.64835V28.022C94.6973 28.459 94.5235 28.878 94.2145 29.187C93.9055 29.496 93.4865 29.6698 93.0495 29.6703H48.6474L45.6098 33.3831C45.5431 33.4658 45.4587 33.5326 45.3629 33.5785C45.2671 33.6244 45.1623 33.6483 45.056 33.6485C44.9721 33.6484 44.8888 33.6338 44.8098 33.6054ZM45.9799 0.3663C45.64 0.366682 45.3141 0.501877 45.0738 0.742225C44.8334 0.982574 44.6982 1.30845 44.6979 1.64835V32.9268C44.6979 32.9998 44.7205 33.0711 44.7626 33.1309C44.8046 33.1906 44.8642 33.2359 44.933 33.2604C45.0018 33.285 45.0766 33.2877 45.147 33.2681C45.2174 33.2486 45.28 33.2077 45.3263 33.1511L48.4739 29.304H93.0495C93.3894 29.3036 93.7153 29.1684 93.9556 28.9281C94.196 28.6877 94.3312 28.3619 94.3315 28.022V1.64835C94.3312 1.30845 94.196 0.982574 93.9556 0.742225C93.7153 0.501877 93.3894 0.366682 93.0495 0.3663H45.9799Z" fill="#3F3D56"/>
<path d="M30.9299 62.1526L30.6118 61.4133C29.4965 58.7569 28.7511 57.0229 29.4086 55.5913C29.6472 55.0469 30.0922 54.6196 30.6459 54.4034C31.1995 54.1871 31.8164 54.1996 32.3608 54.4382C32.3806 54.4469 32.4004 54.4559 32.42 54.4652C32.7406 54.6145 33.025 54.8319 33.2532 55.1022C33.4815 55.3724 33.6482 55.6892 33.7417 56.0303C34.0615 55.879 34.4103 55.799 34.7641 55.7961C35.1178 55.7931 35.468 55.8671 35.7903 56.0131C36.0591 56.1328 36.3017 56.3044 36.5043 56.5179C36.7068 56.7314 36.8653 56.9827 36.9707 57.2575C37.0762 57.5323 37.1264 57.8251 37.1187 58.1193C37.1109 58.4135 37.0453 58.7033 36.9255 58.9722C36.9167 58.992 36.9076 59.0116 36.8982 59.0312C36.2407 60.4628 34.4397 61.0272 31.698 61.9121L30.9299 62.1526Z" fill="url(#paint1_linear)"/>
<path d="M32.1556 58.5207C32.0699 58.2655 31.9293 58.0321 31.7437 57.8371C31.5581 57.642 31.332 57.49 31.0813 57.3918C30.8306 57.2936 30.5614 57.2516 30.2927 57.2687C30.024 57.2858 29.7623 57.3616 29.5261 57.4907L26.2341 55.0178L25.4395 57.28L28.8416 60.115C29.0848 60.4975 29.46 60.7775 29.8959 60.9018C30.3318 61.0262 30.7982 60.9864 31.2067 60.7899C31.6152 60.5933 31.9374 60.2538 32.1123 59.8356C32.2872 59.4174 32.3026 58.9495 32.1556 58.5207H32.1556Z" fill="#FFB8B8"/>
<path d="M27.4359 59.3009C27.2909 59.3009 27.1488 59.2597 27.0263 59.1821L25.6126 58.2886C24.4941 57.5817 24.0913 56.0817 24.6757 54.7993L27.5737 48.4401C27.69 48.1735 27.8691 47.9391 28.0957 47.7567C28.3223 47.5744 28.5896 47.4496 28.8749 47.393C29.1328 47.3459 29.3984 47.3628 29.6482 47.4424C29.898 47.5221 30.1245 47.6619 30.3075 47.8496C30.5946 48.1494 30.7777 48.5336 30.8298 48.9454C30.8819 49.3572 30.8002 49.7748 30.5968 50.1367L27.7349 55.3762L28.5916 56.1735C28.7194 56.2982 28.8078 56.4576 28.8458 56.632C28.8838 56.8064 28.8698 56.9881 28.8056 57.1546L28.2143 58.7329C28.1707 58.8549 28.1003 58.9655 28.0084 59.0568C27.9164 59.1481 27.8052 59.2176 27.6829 59.2603C27.6033 59.2872 27.5199 59.3009 27.4359 59.3009Z" fill="#2F2E41"/>
<path d="M57.6923 100H0.18315C0.134576 100 0.0879934 99.9808 0.0536461 99.9464C0.0192988 99.9121 0 99.8655 0 99.8169C0 99.7684 0.0192988 99.7218 0.0536461 99.6874C0.0879934 99.6531 0.134576 99.6338 0.18315 99.6338H57.6923C57.7409 99.6338 57.7874 99.6531 57.8218 99.6874C57.8561 99.7218 57.8754 99.7684 57.8754 99.8169C57.8754 99.8655 57.8561 99.9121 57.8218 99.9464C57.7874 99.9808 57.7409 100 57.6923 100Z" fill="#CCCCCC"/>
</g>
<defs>
<linearGradient id="paint0_linear" x1="49.1466" y1="14.4413" x2="67.5867" y2="34.418" gradientUnits="userSpaceOnUse">
<stop stop-color="#1DE9B6"/>
<stop offset="1" stop-color="#03A9F4"/>
</linearGradient>
<linearGradient id="paint1_linear" x1="25.3094" y1="58.0761" x2="32.9619" y2="65.7813" gradientUnits="userSpaceOnUse">
<stop stop-color="#1DE9B6"/>
<stop offset="1" stop-color="#03A9F4"/>
</linearGradient>
</defs>
</svg>
