<svg width="321" height="653" viewBox="0 0 321 653" fill="none" xmlns="http://www.w3.org/2000/svg">
<g filter="url(#filter0_ii)">
<path d="M2.21382 73.675C2.21382 47.8864 2.21382 34.992 7.23263 25.1421C11.6473 16.4778 18.6916 9.4335 27.3559 5.01883C37.2058 1.46086e-05 50.1002 1.43833e-05 75.8889 1.39326e-05L245.111 1.09755e-05C270.9 1.05248e-05 283.794 1.02995e-05 293.644 5.01882C302.308 9.43349 309.353 16.4778 313.767 25.142C318.786 34.992 318.786 47.8864 318.786 73.675L318.786 166.92L320.114 166.92C320.604 166.92 321 167.316 321 167.806L321 243.074C321 243.564 320.604 243.96 320.114 243.96L318.786 243.96L318.786 575.852C318.786 601.64 318.786 614.535 313.767 624.385C309.353 633.049 302.308 640.093 293.644 644.508C283.794 649.527 270.9 649.527 245.111 649.527L75.8888 649.527C50.1002 649.527 37.2058 649.527 27.3559 644.508C18.6916 640.093 11.6473 633.049 7.23262 624.385C2.21381 614.535 2.21381 601.64 2.21381 575.852L2.21382 259.457L0.885543 259.457C0.396486 259.457 2.59905e-05 259.06 2.59991e-05 258.571L2.68347e-05 210.753C2.68432e-05 210.264 0.396486 209.868 0.885544 209.868L2.21382 209.868L2.21382 198.799L0.885544 198.799C0.396487 198.799 2.70505e-05 198.402 2.70591e-05 197.913L2.78947e-05 150.095C2.79032e-05 149.606 0.396487 149.21 0.885545 149.21L2.21382 149.21L2.21382 128.4L0.885545 128.4C0.396488 128.4 2.82807e-05 128.004 2.82893e-05 127.514L2.87071e-05 103.606C2.87156e-05 103.116 0.396488 102.72 0.885546 102.72L2.21382 102.72L2.21382 73.675Z" fill="white"/>
</g>
<g filter="url(#filter1_i)">
<path fill-rule="evenodd" clip-rule="evenodd" d="M10.4371 26.9917C5.75607 36.1787 5.75607 48.2052 5.75607 72.258L5.75607 577.269C5.75607 601.321 5.75607 613.348 10.4371 622.535C14.5546 630.616 21.1248 637.186 29.2059 641.304C38.3928 645.985 50.4193 645.985 74.4722 645.985L246.528 645.985C270.581 645.985 282.608 645.985 291.795 641.304C299.876 637.186 306.446 630.616 310.563 622.535C315.244 613.348 315.244 601.321 315.244 577.269L315.244 72.2581C315.244 48.2052 315.244 36.1787 310.563 26.9917C306.446 18.9106 299.876 12.3405 291.795 8.22297C282.608 3.54196 270.581 3.54196 246.528 3.54196L74.4722 3.54196C50.4193 3.54196 38.3928 3.54196 29.2059 8.22297C21.1248 12.3405 14.5546 18.9106 10.4371 26.9917ZM17.7106 64.1113C17.7106 47.2495 17.7106 38.8186 20.9921 32.3782C23.8786 26.7131 28.4845 22.1072 34.1496 19.2207C40.5899 15.9392 49.0209 15.9392 65.8827 15.9392L80.6807 15.9392C81.4136 15.9392 81.7801 15.9392 82.0735 16.046C82.5654 16.2251 82.953 16.6126 83.132 17.1045C83.2388 17.398 83.2388 17.7644 83.2388 18.4974C83.2388 24.3609 83.2388 27.2926 84.0933 29.6402C85.5257 33.5757 88.6258 36.6758 92.5613 38.1082C94.9088 38.9626 97.8406 38.9626 103.704 38.9626L217.296 38.9626C223.16 38.9626 226.092 38.9626 228.439 38.1082C232.375 36.6758 235.475 33.5757 236.907 29.6402C237.762 27.2926 237.762 24.3609 237.762 18.4974C237.762 17.7644 237.762 17.398 237.868 17.1045C238.047 16.6126 238.435 16.2251 238.927 16.046C239.22 15.9392 239.587 15.9392 240.32 15.9392L255.118 15.9392C271.98 15.9392 280.41 15.9392 286.851 19.2207C292.516 22.1072 297.122 26.7131 300.008 32.3782C303.29 38.8186 303.29 47.2495 303.29 64.1113L303.29 585.415C303.29 602.277 303.29 610.708 300.008 617.148C297.122 622.813 292.516 627.419 286.851 630.306C280.41 633.587 271.98 633.587 255.118 633.587L65.8827 633.587C49.0209 633.587 40.5899 633.587 34.1496 630.306C28.4845 627.419 23.8786 622.813 20.9921 617.148C17.7106 610.708 17.7106 602.277 17.7106 585.415L17.7106 64.1113Z" fill="white"/>
</g>
<g filter="url(#filter2_dii)">
<path d="M143.454 24.3518C143.454 22.6401 144.841 21.2525 146.553 21.2525L174.89 21.2525C176.601 21.2525 177.989 22.6401 177.989 24.3518C177.989 26.0635 176.601 27.4511 174.89 27.4511L146.553 27.4511C144.841 27.4511 143.454 26.0635 143.454 24.3518Z" fill="#F2F2F2"/>
<path d="M146.553 21.6772L174.89 21.6772C176.367 21.6772 177.564 22.8747 177.564 24.3518C177.564 25.8289 176.367 27.0263 174.89 27.0263L146.553 27.0263C145.076 27.0263 143.879 25.8289 143.879 24.3518C143.879 22.8747 145.076 21.6772 146.553 21.6772Z" stroke="white" stroke-width="0.849553"/>
</g>
<g filter="url(#filter3_dii)">
<path d="M185.073 24.3518C185.073 20.9284 187.848 18.1532 191.271 18.1532C194.695 18.1532 197.47 20.9284 197.47 24.3518C197.47 27.7752 194.695 30.5504 191.271 30.5504C187.848 30.5504 185.073 27.7752 185.073 24.3518Z" fill="#F2F2F2"/>
</g>
<g filter="url(#filter4_i)">
<path d="M194.371 24.3518C194.371 22.6401 192.983 21.2525 191.272 21.2525C189.56 21.2525 188.172 22.6401 188.172 24.3518C188.172 26.0635 189.56 27.4511 191.272 27.4511C192.983 27.4511 194.371 26.0635 194.371 24.3518Z" fill="url(#paint0_radial)"/>
<path d="M194.371 24.3518C194.371 22.6401 192.983 21.2525 191.272 21.2525C189.56 21.2525 188.172 22.6401 188.172 24.3518C188.172 26.0635 189.56 27.4511 191.272 27.4511C192.983 27.4511 194.371 26.0635 194.371 24.3518Z" fill="url(#paint1_radial)" fill-opacity="0.17"/>
<path d="M194.371 24.3518C194.371 22.6401 192.983 21.2525 191.272 21.2525C189.56 21.2525 188.172 22.6401 188.172 24.3518C188.172 26.0635 189.56 27.4511 191.272 27.4511C192.983 27.4511 194.371 26.0635 194.371 24.3518Z" fill="url(#paint2_radial)" fill-opacity="0.23"/>
</g>
<g style="mix-blend-mode:overlay">
<rect width="3.98483" height="4.87034" transform="matrix(1 8.5481e-07 8.54812e-07 1 248.831 0)" fill="url(#paint3_linear)"/>
</g>
<g style="mix-blend-mode:overlay">
<rect width="3.98483" height="4.87034" transform="matrix(-1 1.05754e-06 1.23238e-06 -1 72.17 649.527)" fill="url(#paint4_linear)"/>
</g>
<g style="mix-blend-mode:overlay">
<rect width="3.98483" height="4.87034" transform="matrix(1.10465e-06 1 -1 -1.19207e-06 318.786 66.8567)" fill="url(#paint5_linear)"/>
</g>
<g style="mix-blend-mode:overlay">
<rect width="4.42759" height="4.87034" transform="matrix(1.5641e-06 -1 1 -1.30184e-06 2.65656 582.67)" fill="url(#paint6_linear)"/>
</g>
<g style="mix-blend-mode:overlay">
<rect width="3.98483" height="4.87034" transform="matrix(1.19889e-06 1 1 1.11146e-06 2.21387 66.8567)" fill="url(#paint7_linear)"/>
</g>
<g style="mix-blend-mode:overlay">
<rect width="4.42759" height="4.87034" transform="matrix(1.47344e-06 -1 -1 1.38603e-06 318.343 582.67)" fill="url(#paint8_linear)"/>
</g>
<path d="M20.992 32.3785C17.7104 38.8188 17.7104 47.2498 17.7104 64.1116L17.7104 585.416C17.7104 602.277 17.7104 610.708 20.992 617.149C23.8785 622.814 28.4844 627.42 34.1495 630.306C40.5898 633.588 49.0207 633.588 65.8826 633.588L255.118 633.588C271.979 633.588 280.41 633.588 286.851 630.306C292.516 627.42 297.122 622.814 300.008 617.149C303.29 610.708 303.29 602.277 303.29 585.416L303.29 64.1116C303.29 47.2498 303.29 38.8188 300.008 32.3785C297.122 26.7134 292.516 22.1075 286.851 19.221C280.41 15.9395 271.979 15.9395 255.118 15.9395L240.32 15.9395C239.587 15.9395 239.22 15.9395 238.927 16.0463C238.435 16.2253 238.047 16.6128 237.868 17.1048C237.761 17.3982 237.761 17.7647 237.761 18.4976C237.761 24.3611 237.761 27.2929 236.907 29.6405C235.475 33.5759 232.374 36.6761 228.439 38.1084C226.091 38.9629 223.16 38.9629 217.296 38.9629L103.704 38.9629C97.8405 38.9629 94.9087 38.9629 92.5612 38.1084C88.6257 36.6761 85.5256 33.5759 84.0932 29.6405C83.2387 27.2929 83.2387 24.3611 83.2387 18.4976C83.2387 17.7647 83.2387 17.3982 83.1319 17.1048C82.9529 16.6128 82.5653 16.2253 82.0734 16.0463C81.78 15.9395 81.4135 15.9395 80.6805 15.9395L65.8826 15.9395C49.0208 15.9395 40.5898 15.9395 34.1495 19.221C28.4844 22.1075 23.8785 26.7134 20.992 32.3785Z" fill="white"/>
<defs>
<filter id="filter0_ii" x="3.05176e-05" y="-1.69909" width="321" height="654.624" filterUnits="userSpaceOnUse" color-interpolation-filters="sRGB">
<feFlood flood-opacity="0" result="BackgroundImageFix"/>
<feBlend mode="normal" in="SourceGraphic" in2="BackgroundImageFix" result="shape"/>
<feColorMatrix in="SourceAlpha" type="matrix" values="0 0 0 0 0 0 0 0 0 0 0 0 0 0 0 0 0 0 127 0" result="hardAlpha"/>
<feOffset dy="3.39821"/>
<feGaussianBlur stdDeviation="1.69911"/>
<feComposite in2="hardAlpha" operator="arithmetic" k2="-1" k3="1"/>
<feColorMatrix type="matrix" values="0 0 0 0 1 0 0 0 0 1 0 0 0 0 1 0 0 0 0.5 0"/>
<feBlend mode="normal" in2="shape" result="effect1_innerShadow"/>
<feColorMatrix in="SourceAlpha" type="matrix" values="0 0 0 0 0 0 0 0 0 0 0 0 0 0 0 0 0 0 127 0" result="hardAlpha"/>
<feOffset dy="-5.94687"/>
<feGaussianBlur stdDeviation="0.849553"/>
<feComposite in2="hardAlpha" operator="arithmetic" k2="-1" k3="1"/>
<feColorMatrix type="matrix" values="0 0 0 0 0 0 0 0 0 0 0 0 0 0 0 0 0 0 0.15 0"/>
<feBlend mode="normal" in2="effect1_innerShadow" result="effect2_innerShadow"/>
</filter>
<filter id="filter1_i" x="5.75607" y="3.54196" width="309.488" height="644.142" filterUnits="userSpaceOnUse" color-interpolation-filters="sRGB">
<feFlood flood-opacity="0" result="BackgroundImageFix"/>
<feBlend mode="normal" in="SourceGraphic" in2="BackgroundImageFix" result="shape"/>
<feColorMatrix in="SourceAlpha" type="matrix" values="0 0 0 0 0 0 0 0 0 0 0 0 0 0 0 0 0 0 127 0" result="hardAlpha"/>
<feOffset dy="1.69911"/>
<feGaussianBlur stdDeviation="1.69911"/>
<feComposite in2="hardAlpha" operator="arithmetic" k2="-1" k3="1"/>
<feColorMatrix type="matrix" values="0 0 0 0 0 0 0 0 0 0 0 0 0 0 0 0 0 0 0.15 0"/>
<feBlend mode="normal" in2="shape" result="effect1_innerShadow"/>
</filter>
<filter id="filter2_dii" x="138.781" y="18.279" width="41.3316" height="14.2694" filterUnits="userSpaceOnUse" color-interpolation-filters="sRGB">
<feFlood flood-opacity="0" result="BackgroundImageFix"/>
<feColorMatrix in="SourceAlpha" type="matrix" values="0 0 0 0 0 0 0 0 0 0 0 0 0 0 0 0 0 0 127 0"/>
<feOffset dx="-1.27433" dy="1.69911"/>
<feGaussianBlur stdDeviation="1.69911"/>
<feColorMatrix type="matrix" values="0 0 0 0 0 0 0 0 0 0 0 0 0 0 0 0 0 0 0.1 0"/>
<feBlend mode="normal" in2="BackgroundImageFix" result="effect1_dropShadow"/>
<feBlend mode="normal" in="SourceGraphic" in2="effect1_dropShadow" result="shape"/>
<feColorMatrix in="SourceAlpha" type="matrix" values="0 0 0 0 0 0 0 0 0 0 0 0 0 0 0 0 0 0 127 0" result="hardAlpha"/>
<feOffset dx="2.12388" dy="-2.97344"/>
<feGaussianBlur stdDeviation="1.69911"/>
<feComposite in2="hardAlpha" operator="arithmetic" k2="-1" k3="1"/>
<feColorMatrix type="matrix" values="0 0 0 0 1 0 0 0 0 1 0 0 0 0 1 0 0 0 1 0"/>
<feBlend mode="normal" in2="shape" result="effect2_innerShadow"/>
<feColorMatrix in="SourceAlpha" type="matrix" values="0 0 0 0 0 0 0 0 0 0 0 0 0 0 0 0 0 0 127 0" result="hardAlpha"/>
<feOffset dx="-1.69911" dy="1.69911"/>
<feGaussianBlur stdDeviation="1.27433"/>
<feComposite in2="hardAlpha" operator="arithmetic" k2="-1" k3="1"/>
<feColorMatrix type="matrix" values="0 0 0 0 0 0 0 0 0 0 0 0 0 0 0 0 0 0 0.1 0"/>
<feBlend mode="normal" in2="effect2_innerShadow" result="effect3_innerShadow"/>
</filter>
<filter id="filter3_dii" x="180.4" y="15.1798" width="19.1937" height="20.468" filterUnits="userSpaceOnUse" color-interpolation-filters="sRGB">
<feFlood flood-opacity="0" result="BackgroundImageFix"/>
<feColorMatrix in="SourceAlpha" type="matrix" values="0 0 0 0 0 0 0 0 0 0 0 0 0 0 0 0 0 0 127 0"/>
<feOffset dx="-1.27433" dy="1.69911"/>
<feGaussianBlur stdDeviation="1.69911"/>
<feColorMatrix type="matrix" values="0 0 0 0 0 0 0 0 0 0 0 0 0 0 0 0 0 0 0.1 0"/>
<feBlend mode="normal" in2="BackgroundImageFix" result="effect1_dropShadow"/>
<feBlend mode="normal" in="SourceGraphic" in2="effect1_dropShadow" result="shape"/>
<feColorMatrix in="SourceAlpha" type="matrix" values="0 0 0 0 0 0 0 0 0 0 0 0 0 0 0 0 0 0 127 0" result="hardAlpha"/>
<feOffset dx="2.12388" dy="-2.97344"/>
<feGaussianBlur stdDeviation="1.69911"/>
<feComposite in2="hardAlpha" operator="arithmetic" k2="-1" k3="1"/>
<feColorMatrix type="matrix" values="0 0 0 0 1 0 0 0 0 1 0 0 0 0 1 0 0 0 1 0"/>
<feBlend mode="normal" in2="shape" result="effect2_innerShadow"/>
<feColorMatrix in="SourceAlpha" type="matrix" values="0 0 0 0 0 0 0 0 0 0 0 0 0 0 0 0 0 0 127 0" result="hardAlpha"/>
<feOffset dx="-1.69911" dy="1.69911"/>
<feGaussianBlur stdDeviation="1.27433"/>
<feComposite in2="hardAlpha" operator="arithmetic" k2="-1" k3="1"/>
<feColorMatrix type="matrix" values="0 0 0 0 0 0 0 0 0 0 0 0 0 0 0 0 0 0 0.1 0"/>
<feBlend mode="normal" in2="effect2_innerShadow" result="effect3_innerShadow"/>
</filter>
<filter id="filter4_i" x="186.473" y="21.2525" width="7.89773" height="8.74728" filterUnits="userSpaceOnUse" color-interpolation-filters="sRGB">
<feFlood flood-opacity="0" result="BackgroundImageFix"/>
<feBlend mode="normal" in="SourceGraphic" in2="BackgroundImageFix" result="shape"/>
<feColorMatrix in="SourceAlpha" type="matrix" values="0 0 0 0 0 0 0 0 0 0 0 0 0 0 0 0 0 0 127 0" result="hardAlpha"/>
<feOffset dx="-1.69911" dy="2.54866"/>
<feGaussianBlur stdDeviation="1.27433"/>
<feComposite in2="hardAlpha" operator="arithmetic" k2="-1" k3="1"/>
<feColorMatrix type="matrix" values="0 0 0 0 1 0 0 0 0 1 0 0 0 0 1 0 0 0 0.65 0"/>
<feBlend mode="normal" in2="shape" result="effect1_innerShadow"/>
</filter>
<radialGradient id="paint0_radial" cx="0" cy="0" r="1" gradientUnits="userSpaceOnUse" gradientTransform="translate(189.058 26.787) rotate(-41.6335) scale(5.33151)">
<stop stop-color="#C4D9FD"/>
<stop offset="1" stop-color="#CCD3E0" stop-opacity="0"/>
</radialGradient>
<radialGradient id="paint1_radial" cx="0" cy="0" r="1" gradientUnits="userSpaceOnUse" gradientTransform="translate(192.379 24.5732) rotate(118.61) scale(2.77387)">
<stop offset="0.146834" stop-color="#EE62C7"/>
<stop offset="1" stop-color="#B36B16" stop-opacity="0"/>
</radialGradient>
<radialGradient id="paint2_radial" cx="0" cy="0" r="1" gradientUnits="userSpaceOnUse" gradientTransform="translate(191.936 21.9166) rotate(107.65) scale(5.11094)">
<stop stop-color="#6BDCD5"/>
<stop offset="1" stop-color="#15368A" stop-opacity="0"/>
</radialGradient>
<linearGradient id="paint3_linear" x1="1.99241" y1="0" x2="1.99241" y2="4.87034" gradientUnits="userSpaceOnUse">
<stop offset="0.71828" stop-color="white"/>
<stop offset="0.792202" stop-color="#272727" stop-opacity="0.3"/>
<stop offset="1" stop-opacity="0"/>
</linearGradient>
<linearGradient id="paint4_linear" x1="1.99241" y1="0" x2="1.99241" y2="4.87034" gradientUnits="userSpaceOnUse">
<stop offset="0.71828"/>
<stop offset="0.792202" stop-color="#272727" stop-opacity="0.3"/>
<stop offset="1" stop-opacity="0"/>
</linearGradient>
<linearGradient id="paint5_linear" x1="1.99241" y1="0" x2="1.99241" y2="4.87034" gradientUnits="userSpaceOnUse">
<stop offset="0.71828" stop-color="white"/>
<stop offset="0.792202" stop-color="#272727" stop-opacity="0.3"/>
<stop offset="1" stop-opacity="0"/>
</linearGradient>
<linearGradient id="paint6_linear" x1="2.21379" y1="0" x2="2.21379" y2="4.87034" gradientUnits="userSpaceOnUse">
<stop offset="0.71828"/>
<stop offset="0.792202" stop-color="#272727" stop-opacity="0.3"/>
<stop offset="1" stop-opacity="0"/>
</linearGradient>
<linearGradient id="paint7_linear" x1="1.99241" y1="0" x2="1.99241" y2="4.87034" gradientUnits="userSpaceOnUse">
<stop offset="0.71828" stop-color="white"/>
<stop offset="0.792202" stop-color="#272727" stop-opacity="0.3"/>
<stop offset="1" stop-opacity="0"/>
</linearGradient>
<linearGradient id="paint8_linear" x1="2.21379" y1="0" x2="2.21379" y2="4.87034" gradientUnits="userSpaceOnUse">
<stop offset="0.71828"/>
<stop offset="0.792202" stop-color="#272727" stop-opacity="0.3"/>
<stop offset="1" stop-opacity="0"/>
</linearGradient>
</defs>
</svg>
