<svg width="288" height="624" viewBox="0 0 288 624" fill="none" xmlns="http://www.w3.org/2000/svg">
<g filter="url(#filter0_i)">
<path fill-rule="evenodd" clip-rule="evenodd" d="M52.1833 2.41675C18.729 2.41675 3.38696 19.673 3.38696 55.5044V568.605C3.38696 604.436 18.729 621.692 52.1833 621.692H234.341C266.705 621.692 283.138 603.219 283.138 568.605V55.5044C283.138 19.673 267.796 2.41675 234.341 2.41675H52.1833Z" fill="#879A94"/>
</g>
<path d="M52.1833 1.38444C35.2883 1.38444 22.7594 5.74447 14.4769 14.8283C6.21254 23.8923 2.35466 37.4671 2.35466 55.5044V568.605C2.35466 586.642 6.21254 600.217 14.4769 609.281C22.7594 618.365 35.2883 622.725 52.1833 622.725H234.341C250.719 622.725 263.234 618.045 271.639 608.825C280.028 599.621 284.17 586.059 284.17 568.605V55.5044C284.17 37.4671 280.312 23.8923 272.048 14.8283C263.765 5.74447 251.236 1.38444 234.341 1.38444H52.1833Z" stroke="#62726E" stroke-width="2.06462"/>
<path fill-rule="evenodd" clip-rule="evenodd" d="M52.4015 5.77686C20.7332 5.77686 6.47485 21.4024 6.47485 55.703V568.406C6.47485 602.706 20.7332 618.332 52.4015 618.332H234.563C265.133 618.332 280.489 601.498 280.489 568.406V55.703C280.489 21.4024 266.231 5.77686 234.563 5.77686H52.4015Z" fill="url(#paint0_linear)"/>
<g filter="url(#filter1_dd)">
<path fill-rule="evenodd" clip-rule="evenodd" d="M52.2496 8.65723H234.714C264.801 8.65723 277.841 22.8252 277.841 55.4259V567.723C277.841 599.121 263.697 614.491 234.714 614.491H52.2496C22.1619 614.491 9.12183 600.323 9.12183 567.723V55.4259C9.12183 22.8252 22.1619 8.65723 52.2496 8.65723Z" fill="url(#paint1_linear)"/>
</g>
<path d="M52.2424 12.9778C24.6053 12.9778 13.5347 24.9968 13.5347 54.9829V567.686C13.5347 597.672 24.6053 609.691 52.2424 609.691H234.722C261.253 609.691 273.429 596.47 273.429 567.686V54.9829C273.429 24.9968 262.359 12.9778 234.722 12.9778H52.2424Z" fill="black"/>
<g filter="url(#filter2_i)">
<path fill-rule="evenodd" clip-rule="evenodd" d="M277.401 55.4556C277.401 32.9924 271.221 19.2824 257.553 12.9299C257.444 13.863 258.466 15.0386 260.021 16.8283C264.281 21.732 272.546 31.2458 272.546 53.0118V570.044C272.546 591.632 264.82 600.783 260.591 605.792C259.303 607.318 258.34 608.459 258.018 609.451C271.011 602.639 277.401 588.771 277.401 567.646V55.4556ZM9.56348 567.527C9.56348 590.013 15.7432 603.736 29.4117 610.095C29.5202 609.161 28.4988 607.984 26.944 606.193C22.6837 601.284 14.4182 591.761 14.4182 569.973V52.424C14.4182 30.8146 22.1445 21.654 26.3733 16.6401C27.6615 15.1128 28.6251 13.9703 28.947 12.9779C15.9541 19.7963 9.56348 33.6782 9.56348 54.8242V567.527Z" fill="white" fill-opacity="0.78"/>
</g>
<rect opacity="0.45" x="2.06177" y="558.805" width="4.41247" height="4.32218" fill="black"/>
<rect opacity="0.45" x="2.06177" y="60.5044" width="4.41247" height="4.32218" fill="black"/>
<rect opacity="0.45" x="280.046" y="558.805" width="4.41247" height="4.32218" fill="black"/>
<rect opacity="0.45" x="280.046" y="60.5044" width="4.41247" height="4.32218" fill="black"/>
<path opacity="0.447803" fill-rule="evenodd" clip-rule="evenodd" d="M57.6589 617.853H61.6302V622.653H57.6589V617.853Z" fill="black"/>
<path opacity="0.447803" fill-rule="evenodd" clip-rule="evenodd" d="M224.885 1H228.856V5.80059H224.885V1Z" fill="black"/>
<g filter="url(#filter3_iii)">
<path fill-rule="evenodd" clip-rule="evenodd" d="M1.40016 162.575C0.944918 162.704 0.399019 163.033 0.10753 163.501C0.0474906 163.597 0 163.902 0 163.99C0 168.412 0 181.88 0 204.395C0 204.489 0.0668447 204.965 0.107773 205.08C0.343654 205.744 0.753502 205.905 1.40016 206.288H2.20025C2.20025 205.078 2.21372 163.758 2.20025 162.575H1.40016Z" fill="#89A098"/>
</g>
<g filter="url(#filter4_iii)">
<path fill-rule="evenodd" clip-rule="evenodd" d="M1.40016 219.774C0.944918 219.903 0.399019 220.232 0.10753 220.7C0.0474906 220.796 0 221.101 0 221.189C0 225.611 0 239.08 0 261.595C0 261.689 0.0668447 262.164 0.107773 262.279C0.343654 262.943 0.753502 263.104 1.40016 263.488H2.20025C2.20025 262.278 2.21372 220.957 2.20025 219.774H1.40016Z" fill="#89A098"/>
</g>
<g filter="url(#filter5_iii)">
<path fill-rule="evenodd" clip-rule="evenodd" d="M1.40016 118.862C0.626871 118.862 0 119.605 0 120.522V140.919C0 141.836 0.626871 142.579 1.40016 142.579H2.20025C2.20025 141.331 2.21372 120.081 2.20025 118.862H1.40016Z" fill="#89A098"/>
</g>
<g filter="url(#filter6_iii)">
<path fill-rule="evenodd" clip-rule="evenodd" d="M285.694 186.06C286.467 186.06 287.094 188.282 287.094 191.024V252.013C287.094 254.755 286.467 256.977 285.694 256.977H284.894C284.894 253.247 284.88 189.706 284.894 186.06H285.694Z" fill="#89A098"/>
</g>
<path fill-rule="evenodd" clip-rule="evenodd" d="M173.168 30.2524C175.361 30.2524 177.139 28.318 177.139 25.9319C177.139 23.5457 175.361 21.6113 173.168 21.6113C170.974 21.6113 169.196 23.5457 169.196 25.9319C169.196 28.318 170.974 30.2524 173.168 30.2524Z" fill="url(#paint2_linear)"/>
<g filter="url(#filter7_i)">
<path fill-rule="evenodd" clip-rule="evenodd" d="M173.137 27.7181C174.266 27.7181 175.181 26.7676 175.181 25.5952C175.181 24.4227 174.266 23.4722 173.137 23.4722C172.008 23.4722 171.093 24.4227 171.093 25.5952C171.093 26.7676 172.008 27.7181 173.137 27.7181Z" fill="url(#paint3_radial)"/>
</g>
<path d="M174.854 25.5952C174.854 26.5989 174.074 27.3913 173.137 27.3913C172.2 27.3913 171.42 26.5989 171.42 25.5952C171.42 24.5914 172.2 23.799 173.137 23.799C174.074 23.799 174.854 24.5914 174.854 25.5952Z" stroke="black" stroke-width="0.653671"/>
<g filter="url(#filter8_diiii)">
<path fill-rule="evenodd" clip-rule="evenodd" d="M173.136 27.5158C174.06 27.5158 174.809 26.7464 174.809 25.7972C174.809 24.8481 174.06 24.0786 173.136 24.0786C172.212 24.0786 171.464 24.8481 171.464 25.7972C171.464 26.7464 172.212 27.5158 173.136 27.5158Z" fill="url(#paint4_radial)"/>
</g>
<path opacity="0.772913" fill-rule="evenodd" clip-rule="evenodd" d="M173.136 26.1005C173.547 26.1005 173.88 25.7383 173.88 25.2915C173.88 24.8446 173.547 24.4824 173.136 24.4824C172.726 24.4824 172.393 24.8446 172.393 25.2915C172.393 25.7383 172.726 26.1005 173.136 26.1005Z" fill="url(#paint5_radial)"/>
<path opacity="0.283465" fill-rule="evenodd" clip-rule="evenodd" d="M174.064 27.9204C174.475 27.9204 174.808 27.5581 174.808 27.1113C174.808 26.6645 174.475 26.3022 174.064 26.3022C173.654 26.3022 173.321 26.6645 173.321 27.1113C173.321 27.5581 173.654 27.9204 174.064 27.9204Z" fill="url(#paint6_radial)"/>
<g filter="url(#filter9_di)">
<path fill-rule="evenodd" clip-rule="evenodd" d="M173.137 24.3761C173.544 24.3761 173.93 24.574 173.875 24.4292C173.819 24.2843 173.544 24.0779 173.137 24.0779C172.73 24.0779 172.465 24.2843 172.4 24.4292C172.335 24.574 172.73 24.3761 173.137 24.3761Z" fill="#68B9A3" fill-opacity="0.16999"/>
</g>
<g opacity="0.755422" filter="url(#filter10_di)">
<path fill-rule="evenodd" clip-rule="evenodd" d="M173.136 26.722C173.444 26.722 173.693 26.6506 173.693 26.8144C173.693 26.9781 173.444 27.1108 173.136 27.1108C172.828 27.1108 172.578 26.9781 172.578 26.8144C172.578 26.6506 172.828 26.722 173.136 26.722Z" fill="#52735A" fill-opacity="0.20419"/>
</g>
<g filter="url(#filter11_d)">
<path fill-rule="evenodd" clip-rule="evenodd" d="M173.136 26.3021C173.547 26.3021 173.88 25.9852 173.88 25.5943C173.88 25.2034 173.547 24.8865 173.136 24.8865C172.726 24.8865 172.393 25.2034 172.393 25.5943C172.393 25.9852 172.726 26.3021 173.136 26.3021Z" fill="white" fill-opacity="0.570171" style="mix-blend-mode:overlay"/>
</g>
<g filter="url(#filter12_d)">
<path fill-rule="evenodd" clip-rule="evenodd" d="M173.229 26.3021C173.588 26.3021 173.879 25.9852 173.879 25.5943C173.879 25.2034 173.588 24.8865 173.229 24.8865C172.869 24.8865 172.578 25.2034 172.578 25.5943C172.578 25.9852 172.869 26.3021 173.229 26.3021Z" fill="black" fill-opacity="0.570171" style="mix-blend-mode:overlay"/>
</g>
<g filter="url(#filter13_ii)">
<path fill-rule="evenodd" clip-rule="evenodd" d="M173.136 26.3025C173.444 26.3025 173.693 26.0309 173.693 25.6958C173.693 25.3607 173.444 25.0891 173.136 25.0891C172.828 25.0891 172.578 25.3607 172.578 25.6958C172.578 26.0309 172.828 26.3025 173.136 26.3025Z" fill="url(#paint7_radial)"/>
</g>
<g opacity="0.391966" filter="url(#filter14_f)">
<path fill-rule="evenodd" clip-rule="evenodd" d="M173.136 25.9779C173.341 25.9779 173.507 25.7987 173.507 25.9779C173.507 26.157 173.341 26.3022 173.136 26.3022C172.93 26.3022 172.764 26.157 172.764 25.9779C172.764 25.7987 172.93 25.9779 173.136 25.9779Z" fill="#A2B9A7"/>
</g>
<g opacity="0.755422" filter="url(#filter15_di)">
<path fill-rule="evenodd" clip-rule="evenodd" d="M173.136 25.9054C173.239 25.9054 173.322 25.8696 173.322 25.9515C173.322 26.0334 173.239 26.0999 173.136 26.0999C173.033 26.0999 172.95 26.0334 172.95 25.9515C172.95 25.8696 173.033 25.9054 173.136 25.9054Z" fill="#527073"/>
</g>
<g opacity="0.980352" filter="url(#filter16_di)">
<path fill-rule="evenodd" clip-rule="evenodd" d="M173.043 25.4505C173.196 25.4505 173.34 25.5621 173.319 25.424C173.299 25.2859 173.196 25.0891 173.043 25.0891C172.891 25.0891 172.791 25.2859 172.767 25.424C172.742 25.5621 172.891 25.4505 173.043 25.4505Z" fill="#E4D3F2" fill-opacity="0.526183"/>
</g>
<g opacity="0.657241" filter="url(#filter17_f)">
<path fill-rule="evenodd" clip-rule="evenodd" d="M173.043 26.9085C173.299 26.9085 173.507 26.7275 173.507 26.5042C173.507 26.2809 173.299 26.0999 173.043 26.0999C172.786 26.0999 172.578 26.2809 172.578 26.5042C172.578 26.7275 172.786 26.9085 173.043 26.9085Z" fill="#76DB82"/>
</g>
<path opacity="0.170243" fill-rule="evenodd" clip-rule="evenodd" d="M172.115 26.3035C172.782 26.3035 173.323 25.7151 173.323 24.9893C173.323 24.2634 172.782 23.675 172.115 23.675C171.448 23.675 170.907 24.2634 170.907 24.9893C170.907 25.7151 171.448 26.3035 172.115 26.3035Z" fill="url(#paint8_radial)"/>
<g opacity="0.801364">
<g filter="url(#filter18_d)">
<rect x="125.612" y="23.5391" width="34.8798" height="4.93436" rx="2.46718" fill="#151414"/>
</g>
<mask id="mask0" mask-type="alpha" maskUnits="userSpaceOnUse" x="125" y="23" width="36" height="6">
<rect x="125.612" y="23.5391" width="34.8798" height="4.93436" rx="2.46718" fill="white"/>
</mask>
<g mask="url(#mask0)">
<path opacity="0.05" d="M104.529 19.7576L117.012 33.3388M106.841 19.7576L119.324 33.3388M109.153 19.7576L121.636 33.3388M111.464 19.7576L123.947 33.3388M113.776 19.7576L126.259 33.3388M128.571 33.3388L116.088 19.7576L103.604 33.3388M130.883 33.3388L118.399 19.7576L105.916 33.3388M133.194 33.3388L120.711 19.7576L108.228 33.3388M135.506 33.3388L123.023 19.7576L110.54 33.3388M137.818 33.3388L125.334 19.7576L112.851 33.3388M140.129 33.3388L127.646 19.7576L115.163 33.3388M142.441 33.3388L129.958 19.7576L117.475 33.3388M144.753 33.3388L132.27 19.7576L119.786 33.3388M147.065 33.3388L134.581 19.7576L122.098 33.3388M149.376 33.3388L136.893 19.7576L124.41 33.3388M151.688 33.3388L139.205 19.7576L126.722 33.3388M154 33.3388L141.516 19.7576L129.033 33.3388M156.311 33.3388L143.828 19.7576L131.345 33.3388M158.623 33.3388L146.14 19.7576L133.657 33.3388M160.935 33.3388L148.452 19.7576L135.968 33.3388M163.246 33.3388L150.763 19.7576L138.28 33.3388M165.558 33.3388L153.075 19.7576L140.592 33.3388M167.87 33.3388L155.387 19.7576L142.903 33.3388M166.945 19.7576L154.462 33.3388M164.633 19.7576L152.15 33.3388M162.322 19.7576L149.839 33.3388M160.01 19.7576L147.527 33.3388M157.698 19.7576L145.215 33.3388" stroke="white" stroke-width="0.688205"/>
</g>
</g>
<defs>
<filter id="filter0_i" x="1.32227" y="0.352051" width="283.88" height="623.405" filterUnits="userSpaceOnUse" color-interpolation-filters="sRGB">
<feFlood flood-opacity="0" result="BackgroundImageFix"/>
<feBlend mode="normal" in="SourceGraphic" in2="BackgroundImageFix" result="shape"/>
<feColorMatrix in="SourceAlpha" type="matrix" values="0 0 0 0 0 0 0 0 0 0 0 0 0 0 0 0 0 0 127 0" result="hardAlpha"/>
<feOffset/>
<feGaussianBlur stdDeviation="1.33333"/>
<feComposite in2="hardAlpha" operator="arithmetic" k2="-1" k3="1"/>
<feColorMatrix type="matrix" values="0 0 0 0 0 0 0 0 0 0 0 0 0 0 0 0 0 0 0.5 0"/>
<feBlend mode="normal" in2="shape" result="effect1_innerShadow"/>
</filter>
<filter id="filter1_dd" x="9.12183" y="7.32389" width="268.72" height="608.501" filterUnits="userSpaceOnUse" color-interpolation-filters="sRGB">
<feFlood flood-opacity="0" result="BackgroundImageFix"/>
<feColorMatrix in="SourceAlpha" type="matrix" values="0 0 0 0 0 0 0 0 0 0 0 0 0 0 0 0 0 0 127 0"/>
<feOffset dy="1.33333"/>
<feColorMatrix type="matrix" values="0 0 0 0 0 0 0 0 0 0 0 0 0 0 0 0 0 0 0.5 0"/>
<feBlend mode="normal" in2="BackgroundImageFix" result="effect1_dropShadow"/>
<feColorMatrix in="SourceAlpha" type="matrix" values="0 0 0 0 0 0 0 0 0 0 0 0 0 0 0 0 0 0 127 0"/>
<feOffset dy="-1.33333"/>
<feColorMatrix type="matrix" values="0 0 0 0 0 0 0 0 0 0 0 0 0 0 0 0 0 0 0.5 0"/>
<feBlend mode="normal" in2="effect1_dropShadow" result="effect2_dropShadow"/>
<feBlend mode="normal" in="SourceGraphic" in2="effect2_dropShadow" result="shape"/>
</filter>
<filter id="filter2_i" x="9.56348" y="12.9299" width="271.838" height="597.165" filterUnits="userSpaceOnUse" color-interpolation-filters="sRGB">
<feFlood flood-opacity="0" result="BackgroundImageFix"/>
<feBlend mode="normal" in="SourceGraphic" in2="BackgroundImageFix" result="shape"/>
<feColorMatrix in="SourceAlpha" type="matrix" values="0 0 0 0 0 0 0 0 0 0 0 0 0 0 0 0 0 0 127 0" result="hardAlpha"/>
<feOffset dx="4"/>
<feGaussianBlur stdDeviation="2.83333"/>
<feComposite in2="hardAlpha" operator="arithmetic" k2="-1" k3="1"/>
<feColorMatrix type="matrix" values="0 0 0 0 0 0 0 0 0 0 0 0 0 0 0 0 0 0 0.6 0"/>
<feBlend mode="normal" in2="shape" result="effect1_innerShadow"/>
</filter>
<filter id="filter3_iii" x="0" y="161.242" width="2.20624" height="46.3799" filterUnits="userSpaceOnUse" color-interpolation-filters="sRGB">
<feFlood flood-opacity="0" result="BackgroundImageFix"/>
<feBlend mode="normal" in="SourceGraphic" in2="BackgroundImageFix" result="shape"/>
<feColorMatrix in="SourceAlpha" type="matrix" values="0 0 0 0 0 0 0 0 0 0 0 0 0 0 0 0 0 0 127 0" result="hardAlpha"/>
<feOffset dx="1.33333"/>
<feComposite in2="hardAlpha" operator="arithmetic" k2="-1" k3="1"/>
<feColorMatrix type="matrix" values="0 0 0 0 1 0 0 0 0 1 0 0 0 0 1 0 0 0 0.644843 0"/>
<feBlend mode="normal" in2="shape" result="effect1_innerShadow"/>
<feColorMatrix in="SourceAlpha" type="matrix" values="0 0 0 0 0 0 0 0 0 0 0 0 0 0 0 0 0 0 127 0" result="hardAlpha"/>
<feOffset dy="2.66667"/>
<feGaussianBlur stdDeviation="0.666667"/>
<feComposite in2="hardAlpha" operator="arithmetic" k2="-1" k3="1"/>
<feColorMatrix type="matrix" values="0 0 0 0 0.384314 0 0 0 0 0.388235 0 0 0 0 0.388235 0 0 0 1 0"/>
<feBlend mode="normal" in2="effect1_innerShadow" result="effect2_innerShadow"/>
<feColorMatrix in="SourceAlpha" type="matrix" values="0 0 0 0 0 0 0 0 0 0 0 0 0 0 0 0 0 0 127 0" result="hardAlpha"/>
<feOffset dy="-2.66667"/>
<feGaussianBlur stdDeviation="0.666667"/>
<feComposite in2="hardAlpha" operator="arithmetic" k2="-1" k3="1"/>
<feColorMatrix type="matrix" values="0 0 0 0 0.384314 0 0 0 0 0.388235 0 0 0 0 0.388235 0 0 0 1 0"/>
<feBlend mode="normal" in2="effect2_innerShadow" result="effect3_innerShadow"/>
</filter>
<filter id="filter4_iii" x="0" y="218.441" width="2.20624" height="46.3799" filterUnits="userSpaceOnUse" color-interpolation-filters="sRGB">
<feFlood flood-opacity="0" result="BackgroundImageFix"/>
<feBlend mode="normal" in="SourceGraphic" in2="BackgroundImageFix" result="shape"/>
<feColorMatrix in="SourceAlpha" type="matrix" values="0 0 0 0 0 0 0 0 0 0 0 0 0 0 0 0 0 0 127 0" result="hardAlpha"/>
<feOffset dx="1.33333"/>
<feComposite in2="hardAlpha" operator="arithmetic" k2="-1" k3="1"/>
<feColorMatrix type="matrix" values="0 0 0 0 1 0 0 0 0 1 0 0 0 0 1 0 0 0 0.644843 0"/>
<feBlend mode="normal" in2="shape" result="effect1_innerShadow"/>
<feColorMatrix in="SourceAlpha" type="matrix" values="0 0 0 0 0 0 0 0 0 0 0 0 0 0 0 0 0 0 127 0" result="hardAlpha"/>
<feOffset dy="2.66667"/>
<feGaussianBlur stdDeviation="0.666667"/>
<feComposite in2="hardAlpha" operator="arithmetic" k2="-1" k3="1"/>
<feColorMatrix type="matrix" values="0 0 0 0 0.384314 0 0 0 0 0.388235 0 0 0 0 0.388235 0 0 0 1 0"/>
<feBlend mode="normal" in2="effect1_innerShadow" result="effect2_innerShadow"/>
<feColorMatrix in="SourceAlpha" type="matrix" values="0 0 0 0 0 0 0 0 0 0 0 0 0 0 0 0 0 0 127 0" result="hardAlpha"/>
<feOffset dy="-2.66667"/>
<feGaussianBlur stdDeviation="0.666667"/>
<feComposite in2="hardAlpha" operator="arithmetic" k2="-1" k3="1"/>
<feColorMatrix type="matrix" values="0 0 0 0 0.384314 0 0 0 0 0.388235 0 0 0 0 0.388235 0 0 0 1 0"/>
<feBlend mode="normal" in2="effect2_innerShadow" result="effect3_innerShadow"/>
</filter>
<filter id="filter5_iii" x="0" y="117.529" width="2.20624" height="26.3834" filterUnits="userSpaceOnUse" color-interpolation-filters="sRGB">
<feFlood flood-opacity="0" result="BackgroundImageFix"/>
<feBlend mode="normal" in="SourceGraphic" in2="BackgroundImageFix" result="shape"/>
<feColorMatrix in="SourceAlpha" type="matrix" values="0 0 0 0 0 0 0 0 0 0 0 0 0 0 0 0 0 0 127 0" result="hardAlpha"/>
<feOffset dx="1.33333"/>
<feComposite in2="hardAlpha" operator="arithmetic" k2="-1" k3="1"/>
<feColorMatrix type="matrix" values="0 0 0 0 1 0 0 0 0 1 0 0 0 0 1 0 0 0 0.644843 0"/>
<feBlend mode="normal" in2="shape" result="effect1_innerShadow"/>
<feColorMatrix in="SourceAlpha" type="matrix" values="0 0 0 0 0 0 0 0 0 0 0 0 0 0 0 0 0 0 127 0" result="hardAlpha"/>
<feOffset dy="2.66667"/>
<feGaussianBlur stdDeviation="0.666667"/>
<feComposite in2="hardAlpha" operator="arithmetic" k2="-1" k3="1"/>
<feColorMatrix type="matrix" values="0 0 0 0 0.384314 0 0 0 0 0.388235 0 0 0 0 0.388235 0 0 0 1 0"/>
<feBlend mode="normal" in2="effect1_innerShadow" result="effect2_innerShadow"/>
<feColorMatrix in="SourceAlpha" type="matrix" values="0 0 0 0 0 0 0 0 0 0 0 0 0 0 0 0 0 0 127 0" result="hardAlpha"/>
<feOffset dy="-2.66667"/>
<feGaussianBlur stdDeviation="0.666667"/>
<feComposite in2="hardAlpha" operator="arithmetic" k2="-1" k3="1"/>
<feColorMatrix type="matrix" values="0 0 0 0 0.384314 0 0 0 0 0.388235 0 0 0 0 0.388235 0 0 0 1 0"/>
<feBlend mode="normal" in2="effect2_innerShadow" result="effect3_innerShadow"/>
</filter>
<filter id="filter6_iii" x="284.887" y="184.726" width="2.20624" height="73.5844" filterUnits="userSpaceOnUse" color-interpolation-filters="sRGB">
<feFlood flood-opacity="0" result="BackgroundImageFix"/>
<feBlend mode="normal" in="SourceGraphic" in2="BackgroundImageFix" result="shape"/>
<feColorMatrix in="SourceAlpha" type="matrix" values="0 0 0 0 0 0 0 0 0 0 0 0 0 0 0 0 0 0 127 0" result="hardAlpha"/>
<feOffset dx="1.33333"/>
<feComposite in2="hardAlpha" operator="arithmetic" k2="-1" k3="1"/>
<feColorMatrix type="matrix" values="0 0 0 0 1 0 0 0 0 1 0 0 0 0 1 0 0 0 0.644843 0"/>
<feBlend mode="normal" in2="shape" result="effect1_innerShadow"/>
<feColorMatrix in="SourceAlpha" type="matrix" values="0 0 0 0 0 0 0 0 0 0 0 0 0 0 0 0 0 0 127 0" result="hardAlpha"/>
<feOffset dy="2.66667"/>
<feGaussianBlur stdDeviation="0.666667"/>
<feComposite in2="hardAlpha" operator="arithmetic" k2="-1" k3="1"/>
<feColorMatrix type="matrix" values="0 0 0 0 0.384314 0 0 0 0 0.388235 0 0 0 0 0.388235 0 0 0 1 0"/>
<feBlend mode="normal" in2="effect1_innerShadow" result="effect2_innerShadow"/>
<feColorMatrix in="SourceAlpha" type="matrix" values="0 0 0 0 0 0 0 0 0 0 0 0 0 0 0 0 0 0 127 0" result="hardAlpha"/>
<feOffset dy="-2.66667"/>
<feGaussianBlur stdDeviation="0.666667"/>
<feComposite in2="hardAlpha" operator="arithmetic" k2="-1" k3="1"/>
<feColorMatrix type="matrix" values="0 0 0 0 0.384314 0 0 0 0 0.388235 0 0 0 0 0.388235 0 0 0 1 0"/>
<feBlend mode="normal" in2="effect2_innerShadow" result="effect3_innerShadow"/>
</filter>
<filter id="filter7_i" x="171.093" y="23.4722" width="4.08853" height="6.24597" filterUnits="userSpaceOnUse" color-interpolation-filters="sRGB">
<feFlood flood-opacity="0" result="BackgroundImageFix"/>
<feBlend mode="normal" in="SourceGraphic" in2="BackgroundImageFix" result="shape"/>
<feColorMatrix in="SourceAlpha" type="matrix" values="0 0 0 0 0 0 0 0 0 0 0 0 0 0 0 0 0 0 127 0" result="hardAlpha"/>
<feOffset dy="2.33333"/>
<feGaussianBlur stdDeviation="1"/>
<feComposite in2="hardAlpha" operator="arithmetic" k2="-1" k3="1"/>
<feColorMatrix type="matrix" values="0 0 0 0 0 0 0 0 0 0 0 0 0 0 0 0 0 0 0.792969 0"/>
<feBlend mode="normal" in2="shape" result="effect1_innerShadow"/>
</filter>
<filter id="filter8_diiii" x="168.797" y="22.7453" width="8.6785" height="8.77055" filterUnits="userSpaceOnUse" color-interpolation-filters="sRGB">
<feFlood flood-opacity="0" result="BackgroundImageFix"/>
<feColorMatrix in="SourceAlpha" type="matrix" values="0 0 0 0 0 0 0 0 0 0 0 0 0 0 0 0 0 0 127 0"/>
<feOffset dy="1.33333"/>
<feGaussianBlur stdDeviation="1.33333"/>
<feColorMatrix type="matrix" values="0 0 0 0 0 0 0 0 0 0 0 0 0 0 0 0 0 0 0.558707 0"/>
<feBlend mode="normal" in2="BackgroundImageFix" result="effect1_dropShadow"/>
<feBlend mode="normal" in="SourceGraphic" in2="effect1_dropShadow" result="shape"/>
<feColorMatrix in="SourceAlpha" type="matrix" values="0 0 0 0 0 0 0 0 0 0 0 0 0 0 0 0 0 0 127 0" result="hardAlpha"/>
<feOffset dy="2"/>
<feGaussianBlur stdDeviation="2.33333"/>
<feComposite in2="hardAlpha" operator="arithmetic" k2="-1" k3="1"/>
<feColorMatrix type="matrix" values="0 0 0 0 0 0 0 0 0 0 0 0 0 0 0 0 0 0 0.5 0"/>
<feBlend mode="normal" in2="shape" result="effect2_innerShadow"/>
<feColorMatrix in="SourceAlpha" type="matrix" values="0 0 0 0 0 0 0 0 0 0 0 0 0 0 0 0 0 0 127 0" result="hardAlpha"/>
<feOffset/>
<feGaussianBlur stdDeviation="1"/>
<feComposite in2="hardAlpha" operator="arithmetic" k2="-1" k3="1"/>
<feColorMatrix type="matrix" values="0 0 0 0 0.159339 0 0 0 0 0.154934 0 0 0 0 0.535213 0 0 0 0.68266 0"/>
<feBlend mode="normal" in2="effect2_innerShadow" result="effect3_innerShadow"/>
<feColorMatrix in="SourceAlpha" type="matrix" values="0 0 0 0 0 0 0 0 0 0 0 0 0 0 0 0 0 0 127 0" result="hardAlpha"/>
<feOffset dy="-0.666667"/>
<feGaussianBlur stdDeviation="0.666667"/>
<feComposite in2="hardAlpha" operator="arithmetic" k2="-1" k3="1"/>
<feColorMatrix type="matrix" values="0 0 0 0 1 0 0 0 0 1 0 0 0 0 1 0 0 0 0.28275 0"/>
<feBlend mode="normal" in2="effect3_innerShadow" result="effect4_innerShadow"/>
<feColorMatrix in="SourceAlpha" type="matrix" values="0 0 0 0 0 0 0 0 0 0 0 0 0 0 0 0 0 0 127 0" result="hardAlpha"/>
<feOffset dy="1.33333"/>
<feGaussianBlur stdDeviation="0.666667"/>
<feComposite in2="hardAlpha" operator="arithmetic" k2="-1" k3="1"/>
<feColorMatrix type="matrix" values="0 0 0 0 0.013651 0 0 0 0 0.102693 0 0 0 0 0.720731 0 0 0 0.609621 0"/>
<feBlend mode="normal" in2="effect4_innerShadow" result="effect5_innerShadow"/>
</filter>
<filter id="filter9_di" x="169.726" y="22.7445" width="6.82007" height="5.73765" filterUnits="userSpaceOnUse" color-interpolation-filters="sRGB">
<feFlood flood-opacity="0" result="BackgroundImageFix"/>
<feColorMatrix in="SourceAlpha" type="matrix" values="0 0 0 0 0 0 0 0 0 0 0 0 0 0 0 0 0 0 127 0"/>
<feOffset dy="1.33333"/>
<feGaussianBlur stdDeviation="1.33333"/>
<feColorMatrix type="matrix" values="0 0 0 0 0 0 0 0 0 0 0 0 0 0 0 0 0 0 0.311736 0"/>
<feBlend mode="normal" in2="BackgroundImageFix" result="effect1_dropShadow"/>
<feBlend mode="normal" in="SourceGraphic" in2="effect1_dropShadow" result="shape"/>
<feColorMatrix in="SourceAlpha" type="matrix" values="0 0 0 0 0 0 0 0 0 0 0 0 0 0 0 0 0 0 127 0" result="hardAlpha"/>
<feOffset dy="0.666667"/>
<feGaussianBlur stdDeviation="0.666667"/>
<feComposite in2="hardAlpha" operator="arithmetic" k2="-1" k3="1"/>
<feColorMatrix type="matrix" values="0 0 0 0 1 0 0 0 0 1 0 0 0 0 1 0 0 0 0.5 0"/>
<feBlend mode="normal" in2="shape" result="effect2_innerShadow"/>
</filter>
<filter id="filter10_di" x="169.911" y="25.3732" width="6.44839" height="5.73765" filterUnits="userSpaceOnUse" color-interpolation-filters="sRGB">
<feFlood flood-opacity="0" result="BackgroundImageFix"/>
<feColorMatrix in="SourceAlpha" type="matrix" values="0 0 0 0 0 0 0 0 0 0 0 0 0 0 0 0 0 0 127 0"/>
<feOffset dy="1.33333"/>
<feGaussianBlur stdDeviation="1.33333"/>
<feColorMatrix type="matrix" values="0 0 0 0 0 0 0 0 0 0 0 0 0 0 0 0 0 0 0.311736 0"/>
<feBlend mode="normal" in2="BackgroundImageFix" result="effect1_dropShadow"/>
<feBlend mode="normal" in="SourceGraphic" in2="effect1_dropShadow" result="shape"/>
<feColorMatrix in="SourceAlpha" type="matrix" values="0 0 0 0 0 0 0 0 0 0 0 0 0 0 0 0 0 0 127 0" result="hardAlpha"/>
<feOffset/>
<feGaussianBlur stdDeviation="0.666667"/>
<feComposite in2="hardAlpha" operator="arithmetic" k2="-1" k3="1"/>
<feColorMatrix type="matrix" values="0 0 0 0 1 0 0 0 0 1 0 0 0 0 1 0 0 0 0.5 0"/>
<feBlend mode="normal" in2="shape" result="effect2_innerShadow"/>
</filter>
<filter id="filter11_d" x="168.393" y="20.8865" width="9.48674" height="9.41562" filterUnits="userSpaceOnUse" color-interpolation-filters="sRGB">
<feFlood flood-opacity="0" result="BackgroundImageFix"/>
<feColorMatrix in="SourceAlpha" type="matrix" values="0 0 0 0 0 0 0 0 0 0 0 0 0 0 0 0 0 0 127 0"/>
<feOffset/>
<feGaussianBlur stdDeviation="2"/>
<feColorMatrix type="matrix" values="0 0 0 0 0 0 0 0 0 0 0 0 0 0 0 0 0 0 0.5 0"/>
<feBlend mode="normal" in2="BackgroundImageFix" result="effect1_dropShadow"/>
<feBlend mode="normal" in="SourceGraphic" in2="effect1_dropShadow" result="shape"/>
</filter>
<filter id="filter12_d" x="168.578" y="20.8865" width="9.3009" height="9.41562" filterUnits="userSpaceOnUse" color-interpolation-filters="sRGB">
<feFlood flood-opacity="0" result="BackgroundImageFix"/>
<feColorMatrix in="SourceAlpha" type="matrix" values="0 0 0 0 0 0 0 0 0 0 0 0 0 0 0 0 0 0 127 0"/>
<feOffset/>
<feGaussianBlur stdDeviation="2"/>
<feColorMatrix type="matrix" values="0 0 0 0 0 0 0 0 0 0 0 0 0 0 0 0 0 0 0.5 0"/>
<feBlend mode="normal" in2="BackgroundImageFix" result="effect1_dropShadow"/>
<feBlend mode="normal" in="SourceGraphic" in2="effect1_dropShadow" result="shape"/>
</filter>
<filter id="filter13_ii" x="172.578" y="25.0891" width="1.11505" height="3.21339" filterUnits="userSpaceOnUse" color-interpolation-filters="sRGB">
<feFlood flood-opacity="0" result="BackgroundImageFix"/>
<feBlend mode="normal" in="SourceGraphic" in2="BackgroundImageFix" result="shape"/>
<feColorMatrix in="SourceAlpha" type="matrix" values="0 0 0 0 0 0 0 0 0 0 0 0 0 0 0 0 0 0 127 0" result="hardAlpha"/>
<feOffset dy="2"/>
<feGaussianBlur stdDeviation="2.33333"/>
<feComposite in2="hardAlpha" operator="arithmetic" k2="-1" k3="1"/>
<feColorMatrix type="matrix" values="0 0 0 0 0 0 0 0 0 0 0 0 0 0 0 0 0 0 0.5 0"/>
<feBlend mode="normal" in2="shape" result="effect1_innerShadow"/>
<feColorMatrix in="SourceAlpha" type="matrix" values="0 0 0 0 0 0 0 0 0 0 0 0 0 0 0 0 0 0 127 0" result="hardAlpha"/>
<feOffset dy="1.33333"/>
<feGaussianBlur stdDeviation="0.666667"/>
<feComposite in2="hardAlpha" operator="arithmetic" k2="-1" k3="1"/>
<feColorMatrix type="matrix" values="0 0 0 0 0.176471 0 0 0 0 0.329412 0 0 0 0 0.317647 0 0 0 0.254642 0"/>
<feBlend mode="normal" in2="effect1_innerShadow" result="effect2_innerShadow"/>
</filter>
<filter id="filter14_f" x="169.21" y="22.3445" width="7.85045" height="7.51146" filterUnits="userSpaceOnUse" color-interpolation-filters="sRGB">
<feFlood flood-opacity="0" result="BackgroundImageFix"/>
<feBlend mode="normal" in="SourceGraphic" in2="BackgroundImageFix" result="shape"/>
<feGaussianBlur stdDeviation="1.77686" result="effect1_foregroundBlur"/>
</filter>
<filter id="filter15_di" x="170.95" y="25.231" width="4.37196" height="4.20226" filterUnits="userSpaceOnUse" color-interpolation-filters="sRGB">
<feFlood flood-opacity="0" result="BackgroundImageFix"/>
<feColorMatrix in="SourceAlpha" type="matrix" values="0 0 0 0 0 0 0 0 0 0 0 0 0 0 0 0 0 0 127 0"/>
<feOffset dy="1.33333"/>
<feGaussianBlur stdDeviation="1"/>
<feColorMatrix type="matrix" values="0 0 0 0 0 0 0 0 0 0 0 0 0 0 0 0 0 0 0.311736 0"/>
<feBlend mode="normal" in2="BackgroundImageFix" result="effect1_dropShadow"/>
<feBlend mode="normal" in="SourceGraphic" in2="effect1_dropShadow" result="shape"/>
<feColorMatrix in="SourceAlpha" type="matrix" values="0 0 0 0 0 0 0 0 0 0 0 0 0 0 0 0 0 0 127 0" result="hardAlpha"/>
<feOffset/>
<feGaussianBlur stdDeviation="0.666667"/>
<feComposite in2="hardAlpha" operator="arithmetic" k2="-1" k3="1"/>
<feColorMatrix type="matrix" values="0 0 0 0 1 0 0 0 0 1 0 0 0 0 1 0 0 0 0.5 0"/>
<feBlend mode="normal" in2="shape" result="effect2_innerShadow"/>
</filter>
<filter id="filter16_di" x="171.431" y="25.0891" width="3.22391" height="3.07068" filterUnits="userSpaceOnUse" color-interpolation-filters="sRGB">
<feFlood flood-opacity="0" result="BackgroundImageFix"/>
<feColorMatrix in="SourceAlpha" type="matrix" values="0 0 0 0 0 0 0 0 0 0 0 0 0 0 0 0 0 0 127 0"/>
<feOffset dy="1.33333"/>
<feGaussianBlur stdDeviation="0.666667"/>
<feColorMatrix type="matrix" values="0 0 0 0 0 0 0 0 0 0 0 0 0 0 0 0 0 0 0.311736 0"/>
<feBlend mode="normal" in2="BackgroundImageFix" result="effect1_dropShadow"/>
<feBlend mode="normal" in="SourceGraphic" in2="effect1_dropShadow" result="shape"/>
<feColorMatrix in="SourceAlpha" type="matrix" values="0 0 0 0 0 0 0 0 0 0 0 0 0 0 0 0 0 0 127 0" result="hardAlpha"/>
<feOffset dy="0.666667"/>
<feGaussianBlur stdDeviation="0.666667"/>
<feComposite in2="hardAlpha" operator="arithmetic" k2="-1" k3="1"/>
<feColorMatrix type="matrix" values="0 0 0 0 1 0 0 0 0 1 0 0 0 0 1 0 0 0 0.5 0"/>
<feBlend mode="normal" in2="shape" result="effect2_innerShadow"/>
</filter>
<filter id="filter17_f" x="164.348" y="17.8698" width="17.3893" height="17.2687" filterUnits="userSpaceOnUse" color-interpolation-filters="sRGB">
<feFlood flood-opacity="0" result="BackgroundImageFix"/>
<feBlend mode="normal" in="SourceGraphic" in2="BackgroundImageFix" result="shape"/>
<feGaussianBlur stdDeviation="4.11502" result="effect1_foregroundBlur"/>
</filter>
<filter id="filter18_d" x="124.278" y="23.5391" width="37.5465" height="7.60103" filterUnits="userSpaceOnUse" color-interpolation-filters="sRGB">
<feFlood flood-opacity="0" result="BackgroundImageFix"/>
<feColorMatrix in="SourceAlpha" type="matrix" values="0 0 0 0 0 0 0 0 0 0 0 0 0 0 0 0 0 0 127 0"/>
<feOffset dy="1.33333"/>
<feGaussianBlur stdDeviation="0.666667"/>
<feColorMatrix type="matrix" values="0 0 0 0 1 0 0 0 0 1 0 0 0 0 1 0 0 0 0.217589 0"/>
<feBlend mode="normal" in2="BackgroundImageFix" result="effect1_dropShadow"/>
<feBlend mode="normal" in="SourceGraphic" in2="effect1_dropShadow" result="shape"/>
</filter>
<linearGradient id="paint0_linear" x1="6.47485" y1="5.77686" x2="6.47485" y2="618.332" gradientUnits="userSpaceOnUse">
<stop stop-color="#5F5F5F"/>
<stop offset="0.0101238" stop-color="#222222"/>
<stop offset="1" stop-color="#252525"/>
</linearGradient>
<linearGradient id="paint1_linear" x1="9.12183" y1="8.65723" x2="9.12183" y2="614.491" gradientUnits="userSpaceOnUse">
<stop stop-color="#6D6D6D"/>
<stop offset="0.0161168"/>
<stop offset="0.984697"/>
<stop offset="1" stop-color="#5C5C5C"/>
</linearGradient>
<linearGradient id="paint2_linear" x1="177.139" y1="30.2524" x2="177.139" y2="21.6113" gradientUnits="userSpaceOnUse">
<stop stop-color="#1F1F1F"/>
<stop offset="1" stop-color="#0F0F0F"/>
</linearGradient>
<radialGradient id="paint3_radial" cx="0" cy="0" r="1" gradientUnits="userSpaceOnUse" gradientTransform="translate(172.405 27.3911) rotate(103.319) scale(3.29846 2.67633)">
<stop stop-color="#154882"/>
<stop offset="1"/>
</radialGradient>
<radialGradient id="paint4_radial" cx="0" cy="0" r="1" gradientUnits="userSpaceOnUse" gradientTransform="translate(173.136 24.5911) rotate(90) scale(3.12568 4.97386)">
<stop stop-color="#376CAB"/>
<stop offset="0.377337" stop-color="#151515"/>
<stop offset="0.536693"/>
<stop offset="1" stop-color="#0D7BB9"/>
</radialGradient>
<radialGradient id="paint5_radial" cx="0" cy="0" r="1" gradientUnits="userSpaceOnUse" gradientTransform="translate(173.136 25.0798) rotate(90) scale(0.814472 0.748347)">
<stop stop-color="#694B8D"/>
<stop offset="1" stop-opacity="0.01"/>
</radialGradient>
<radialGradient id="paint6_radial" cx="0" cy="0" r="1" gradientUnits="userSpaceOnUse" gradientTransform="translate(174.064 26.8996) rotate(90) scale(0.814472 0.748347)">
<stop stop-color="#80C2C8"/>
<stop offset="1" stop-opacity="0.01"/>
</radialGradient>
<radialGradient id="paint7_radial" cx="0" cy="0" r="1" gradientUnits="userSpaceOnUse" gradientTransform="translate(173.136 25.2419) rotate(90) scale(1.26201 1.99927)">
<stop stop-color="#61737F"/>
<stop offset="0.387832"/>
<stop offset="1" stop-color="#227EB1"/>
</radialGradient>
<radialGradient id="paint8_radial" cx="0" cy="0" r="1" gradientUnits="userSpaceOnUse" gradientTransform="translate(172.89 26.3035) rotate(90) scale(1.32303 1.21606)">
<stop stop-color="white"/>
<stop offset="1" stop-opacity="0.01"/>
</radialGradient>
</defs>
</svg>
