<svg width="21" height="20" viewBox="0 0 21 20" fill="none" xmlns="http://www.w3.org/2000/svg">
<path d="M19.5736 9.25614L1.23732 0.0880238C1.09361 0.0161514 0.932182 -0.0126464 0.772481 0.00509822C0.61278 0.0228428 0.461612 0.0863731 0.33718 0.188039C0.218348 0.287632 0.129653 0.418398 0.0810643 0.565636C0.0324758 0.712873 0.025921 0.870746 0.0621368 1.0215L2.27082 9.16446H11.6973V10.8314H2.27082L0.0287982 18.9493C-0.00518508 19.0752 -0.00915198 19.2074 0.0172166 19.3351C0.0435852 19.4628 0.0995537 19.5825 0.180621 19.6847C0.261689 19.7868 0.365594 19.8685 0.483981 19.9232C0.602369 19.9779 0.731936 20.004 0.862263 19.9995C0.992736 19.9987 1.1212 19.9673 1.23732 19.9078L19.5736 10.7397C19.7101 10.6698 19.8246 10.5635 19.9047 10.4326C19.9847 10.3017 20.027 10.1513 20.027 9.99792C20.027 9.84453 19.9847 9.69411 19.9047 9.56322C19.8246 9.43234 19.7101 9.32608 19.5736 9.25614Z" fill="white"/>
</svg>
