<svg width="121" height="120" viewBox="0 0 121 120" fill="none" xmlns="http://www.w3.org/2000/svg">
<g filter="url(#filter0_ddd)">
<rect x="20.532" y="10.0002" width="79.6752" height="79.6752" rx="39.8376" fill="#0F1021"/>
</g>
<path d="M80.3231 44.7357C79.9482 44.7707 79.5734 44.7907 79.196 44.7932C75.0776 44.7932 71.2367 42.7165 68.9801 39.2728V58.0729C68.9801 65.7474 62.7575 71.97 55.0855 71.97C47.4111 71.97 41.1885 65.7474 41.1885 58.0729C41.1885 50.3984 47.4111 44.1759 55.0855 44.1759C55.3754 44.1759 55.6578 44.2034 55.9452 44.2209V51.0682C55.6578 51.0332 55.3779 50.9832 55.0855 50.9832C51.1671 50.9832 47.9933 54.157 47.9933 58.0729C47.9933 61.9914 51.1671 65.1651 55.0855 65.1651C59.0015 65.1651 62.4626 62.0814 62.4626 58.1629L62.5301 26.2305H69.08C69.6998 32.1057 74.4354 36.6939 80.3256 37.1262V44.7357" fill="white"/>
<defs>
<filter id="filter0_ddd" x="0.531982" y="0.000244141" width="119.675" height="119.675" filterUnits="userSpaceOnUse" color-interpolation-filters="sRGB">
<feFlood flood-opacity="0" result="BackgroundImageFix"/>
<feColorMatrix in="SourceAlpha" type="matrix" values="0 0 0 0 0 0 0 0 0 0 0 0 0 0 0 0 0 0 127 0"/>
<feOffset/>
<feGaussianBlur stdDeviation="0.5"/>
<feColorMatrix type="matrix" values="0 0 0 0 0 0 0 0 0 0 0 0 0 0 0 0 0 0 0.04 0"/>
<feBlend mode="normal" in2="BackgroundImageFix" result="effect1_dropShadow"/>
<feColorMatrix in="SourceAlpha" type="matrix" values="0 0 0 0 0 0 0 0 0 0 0 0 0 0 0 0 0 0 127 0"/>
<feOffset dy="2"/>
<feGaussianBlur stdDeviation="3"/>
<feColorMatrix type="matrix" values="0 0 0 0 0 0 0 0 0 0 0 0 0 0 0 0 0 0 0.04 0"/>
<feBlend mode="normal" in2="effect1_dropShadow" result="effect2_dropShadow"/>
<feColorMatrix in="SourceAlpha" type="matrix" values="0 0 0 0 0 0 0 0 0 0 0 0 0 0 0 0 0 0 127 0"/>
<feOffset dy="10"/>
<feGaussianBlur stdDeviation="10"/>
<feColorMatrix type="matrix" values="0 0 0 0 0 0 0 0 0 0 0 0 0 0 0 0 0 0 0.04 0"/>
<feBlend mode="normal" in2="effect2_dropShadow" result="effect3_dropShadow"/>
<feBlend mode="normal" in="SourceGraphic" in2="effect3_dropShadow" result="shape"/>
</filter>
</defs>
</svg>
