<svg width="16" height="19" viewBox="0 0 16 19" fill="none" xmlns="http://www.w3.org/2000/svg">
<path d="M8.57584 0.390188C9.55746 0.375 10.5334 0.384 11.5083 0.375C11.5674 1.52312 11.9803 2.69262 12.8207 3.50435C13.6594 4.33634 14.8458 4.71717 16.0001 4.84599V7.86621C14.9184 7.83077 13.8316 7.60576 12.8499 7.13999C12.4224 6.94648 12.0242 6.69728 11.6343 6.44245C11.6293 8.63407 11.6433 10.8229 11.6203 13.0055C11.5618 14.054 11.2158 15.0975 10.606 15.9616C9.62496 17.4 7.92218 18.3377 6.17328 18.367C5.10053 18.4283 4.02891 18.1358 3.1148 17.5969C1.59991 16.7036 0.533913 15.0683 0.378655 13.3132C0.359098 12.9415 0.356095 12.5691 0.369654 12.1971C0.504661 10.77 1.21064 9.40473 2.30645 8.47599C3.54851 7.39425 5.28842 6.87897 6.9175 7.18386C6.93269 8.29486 6.88825 9.40473 6.88825 10.5157C6.14403 10.275 5.27435 10.3425 4.62407 10.7942C4.1483 11.1076 3.78877 11.5687 3.60083 12.1066C3.44557 12.4868 3.49001 12.9093 3.49901 13.3132C3.67733 14.544 4.86089 15.5785 6.12434 15.4666C6.96194 15.4576 7.76467 14.9715 8.2012 14.2599C8.34239 14.0107 8.50046 13.7559 8.5089 13.4628C8.58259 12.1212 8.55334 10.7852 8.56234 9.44355C8.56853 6.41995 8.55334 3.40479 8.5764 0.390751L8.57584 0.390188Z" fill="white"/>
</svg>
