<svg width="81" height="80" viewBox="0 0 81 80" fill="none" xmlns="http://www.w3.org/2000/svg">
<path d="M40.5 80C62.5914 80 80.5 62.0914 80.5 40C80.5 17.9086 62.5914 0 40.5 0C18.4086 0 0.5 17.9086 0.5 40C0.5 62.0914 18.4086 80 40.5 80Z" fill="#0A0101"/>
<path d="M57.1565 30.9826C55.1488 30.9859 53.195 30.3331 51.5926 29.1236C50.4594 28.2728 49.5378 27.172 48.8993 25.907C48.2609 24.6419 47.923 23.2466 47.9118 21.8296H41.9438V38.1367V47.0691C41.9478 48.2135 41.5888 49.3297 40.9185 50.2573C40.2482 51.1848 39.301 51.876 38.2132 52.2314C37.1253 52.5868 35.9528 52.5881 34.8642 52.2352C33.7755 51.8822 32.8268 51.1932 32.1544 50.2672C31.482 49.3411 31.1205 48.2257 31.1219 47.0813C31.1233 45.9369 31.4875 44.8224 32.1622 43.898C32.8369 42.9736 33.7873 42.2869 34.8768 41.9366C35.9663 41.5864 37.1388 41.5906 38.2258 41.9486V35.8845C37.6559 35.8001 37.0805 35.7578 36.5044 35.7578C34.88 35.7519 33.2729 36.0919 31.7901 36.7552C30.3072 37.4185 28.9825 38.3898 27.9041 39.6047C25.9865 41.7542 24.9695 44.5591 25.0639 47.438C25.1582 50.317 26.3567 53.0493 28.4109 55.0686C28.751 55.4043 29.1114 55.7187 29.4901 56.0101C31.5007 57.5564 33.968 58.3908 36.5044 58.3825C37.0805 58.3825 37.6559 58.3402 38.2258 58.2558C40.6356 57.901 42.8686 56.7841 44.5979 55.0686C45.6557 54.0315 46.4967 52.7945 47.0719 51.4294C47.6472 50.0643 47.9453 48.5985 47.9489 47.1171L47.9183 33.7787C50.5696 35.8225 53.8242 36.9289 57.1718 36.9243V30.9804H57.1543L57.1565 30.9826Z" fill="white"/>
</svg>
