<svg width="16" height="18" viewBox="0 0 16 18" fill="none" xmlns="http://www.w3.org/2000/svg">
<path d="M8.53727 0.0151883C9.51888 0 10.4949 0.00900048 11.4697 0C11.5288 1.14812 11.9417 2.31762 12.7821 3.12935C13.6209 3.96134 14.8072 4.34217 15.9615 4.47099V7.49121C14.8798 7.45577 13.793 7.23076 12.8114 6.76499C12.3838 6.57148 11.9856 6.32228 11.5957 6.06745C11.5907 8.25907 11.6047 10.4479 11.5817 12.6305C11.5232 13.679 11.1772 14.7225 10.5674 15.5866C9.58639 17.025 7.88361 17.9627 6.1347 17.992C5.06196 18.0533 3.99034 17.7608 3.07623 17.2219C1.56133 16.3286 0.495339 14.6933 0.34008 12.9382C0.320524 12.5665 0.317521 12.1941 0.33108 11.8221C0.466087 10.395 1.17206 9.02973 2.26787 8.10099C3.50994 7.01925 5.24984 6.50397 6.87893 6.80886C6.89412 7.91986 6.84968 9.02973 6.84968 10.1407C6.10545 9.89997 5.23578 9.96747 4.58549 10.4192C4.10973 10.7326 3.75019 11.1937 3.56225 11.7316C3.40699 12.1118 3.45143 12.5343 3.46043 12.9382C3.63876 14.169 4.82232 15.2035 6.08576 15.0916C6.92337 15.0826 7.7261 14.5965 8.16262 13.8849C8.30382 13.6357 8.46189 13.3809 8.47033 13.0878C8.54402 11.7462 8.51477 10.4102 8.52377 9.06855C8.52996 6.04495 8.51477 3.02979 8.53783 0.0157508L8.53727 0.0151883Z" fill="white"/>
</svg>
