<svg width="81" height="80" viewBox="0 0 81 80" fill="none" xmlns="http://www.w3.org/2000/svg">
<path d="M40.5 80C62.5914 80 80.5 62.0914 80.5 40C80.5 17.9086 62.5914 0 40.5 0C18.4086 0 0.5 17.9086 0.5 40C0.5 62.0914 18.4086 80 40.5 80Z" fill="#40C9FA"/>
<path d="M56.8663 29.8509C55.635 30.388 54.3328 30.7448 52.9998 30.9104C54.4052 30.0758 55.4554 28.7544 55.951 27.1968C54.6355 27.9769 53.1963 28.5266 51.6956 28.822C50.7758 27.8394 49.5817 27.1562 48.2685 26.8612C46.9553 26.5661 45.5838 26.6729 44.3321 27.1677C43.0804 27.6624 42.0064 28.5222 41.2498 29.6354C40.4932 30.7485 40.0889 32.0635 40.0895 33.4094C40.0841 33.9233 40.1362 34.4362 40.2446 34.9386C37.5755 34.8067 34.9641 34.1135 32.5811 32.9041C30.198 31.6947 28.0968 29.9963 26.4146 27.9198C25.5511 29.3959 25.2836 31.1459 25.6669 32.8125C26.0501 34.4791 27.0552 35.9366 28.4768 36.8871C27.4145 36.8593 26.3744 36.5761 25.4447 36.0614V36.1356C25.4468 37.685 25.9824 39.1863 26.9615 40.3871C27.9407 41.5878 29.3035 42.4146 30.8207 42.7284C30.2468 42.8787 29.6555 42.9522 29.0622 42.9469C28.6356 42.9547 28.2094 42.9166 27.7909 42.8333C28.2245 44.1647 29.0603 45.329 30.1831 46.1658C31.3059 47.0026 32.6604 47.4708 34.0603 47.5059C31.6855 49.3631 28.7566 50.3707 25.7418 50.3675C25.2052 50.3711 24.6689 50.3405 24.1362 50.2758C27.0213 52.1225 30.3499 53.1593 33.7733 53.2773C37.1967 53.3954 40.5889 52.5906 43.5943 50.947C46.5998 49.3035 49.1078 46.8818 50.8556 43.9358C52.6033 40.9897 53.5265 37.6279 53.5284 34.2024C53.5284 33.9053 53.5284 33.6191 53.5044 33.3286C54.8269 32.3831 55.9661 31.2046 56.8663 29.8509Z" fill="white"/>
</svg>
