<svg width="78" height="78" viewBox="0 0 78 78" fill="none" xmlns="http://www.w3.org/2000/svg">
<path d="M45.4119 38.3318L36.4279 34.1398C35.6439 33.7758 34.9999 34.1838 34.9999 35.0518V42.9478C34.9999 43.8158 35.6439 44.2238 36.4279 43.8598L45.4079 39.6678C46.1959 39.2998 46.1959 38.6998 45.4119 38.3318ZM38.9999 0.599792C17.7919 0.599792 0.599854 17.7918 0.599854 38.9998C0.599854 60.2078 17.7919 77.3998 38.9999 77.3998C60.2079 77.3998 77.3999 60.2078 77.3999 38.9998C77.3999 17.7918 60.2079 0.599792 38.9999 0.599792ZM38.9999 54.5998C19.3439 54.5998 18.9999 52.8278 18.9999 38.9998C18.9999 25.1718 19.3439 23.3998 38.9999 23.3998C58.6559 23.3998 58.9999 25.1718 58.9999 38.9998C58.9999 52.8278 58.6559 54.5998 38.9999 54.5998Z" fill="#FF5F5A"/>
</svg>
