<svg width="139" height="120" viewBox="0 0 139 120" fill="none" xmlns="http://www.w3.org/2000/svg">
<g opacity="0.5">
<path d="M13.7162 111.098C12.4545 115.313 14.4126 119.622 14.4126 119.622C14.4126 119.622 18.4164 117.098 19.6781 112.883C20.9398 108.668 18.9816 104.359 18.9816 104.359C18.9816 104.359 14.9779 106.884 13.7162 111.098Z" fill="#F2F2F2"/>
<path d="M15.6319 111.212C16.6938 115.482 14.535 119.694 14.535 119.694C14.535 119.694 10.6544 116.984 9.59256 112.714C8.53067 108.445 10.6895 104.233 10.6895 104.233C10.6895 104.233 14.57 106.943 15.6319 111.212Z" fill="#F2F2F2"/>
<path d="M78.7374 115.452L79.5404 113.386L71.9547 109.305L70.7695 112.354L78.7374 115.452Z" fill="#FFB8B8"/>
<path d="M83.0405 110.062C82.7 109.93 82.3368 109.866 81.9716 109.874C81.6063 109.882 81.2462 109.961 80.9119 110.109C80.5775 110.256 80.2754 110.467 80.0229 110.731C79.7703 110.995 79.5723 111.307 79.4401 111.647L78.8983 113.04L78.0631 115.189L77.8589 115.716L80.5356 116.758L83.1246 110.096L83.0405 110.062Z" fill="#2F2E41"/>
<path d="M78.0631 111.476L77.7137 112.402L76.842 114.714L76.8211 114.772C74.6002 115.057 72.1655 114.498 69.9136 113.629C69.0126 113.281 68.1302 112.887 67.2698 112.449C65.9963 111.805 64.8561 111.126 63.9464 110.545C62.5768 109.666 61.7299 109.006 61.7299 109.006C61.7299 109.006 61.5062 109.209 61.1014 109.555C60.5587 110.02 59.6917 110.745 58.5934 111.598C58.1744 111.926 57.7246 112.269 57.2439 112.627C53.7003 115.255 49.1528 108.242 49.1528 108.242C49.1528 108.242 50.4318 107.427 50.7659 107.269C51.8418 106.76 54.3693 105.559 56.5499 104.492C57.6734 103.941 58.7034 103.425 59.3949 103.058C61.8438 101.754 64.8879 104.221 64.8879 104.221L78.0631 111.476Z" fill="#2F2E41"/>
<path opacity="0.14" d="M78.0631 111.476L77.7137 112.402L76.842 114.714L76.8211 114.772C74.6002 115.057 72.1655 114.498 69.9136 113.629C69.0126 113.281 68.1302 112.887 67.2698 112.449C65.9963 111.805 64.8561 111.126 63.9464 110.545C62.5768 109.666 61.7299 109.006 61.7299 109.006C61.7299 109.006 61.5062 109.209 61.1014 109.555C60.5587 110.02 59.6917 110.745 58.5934 111.598C58.1744 111.926 57.7246 112.269 57.2439 112.627C53.7003 115.255 49.1528 108.242 49.1528 108.242C49.1528 108.242 50.4318 107.427 50.7659 107.269C51.8418 106.76 54.3693 105.559 56.5499 104.492C57.6734 103.941 58.7034 103.425 59.3949 103.058C61.8438 101.754 64.8879 104.221 64.8879 104.221L78.0631 111.476Z" fill="black"/>
<path d="M33.1881 62.3021C50.3924 62.3021 64.3392 48.3553 64.3392 31.151C64.3392 13.9468 50.3924 0 33.1881 0C15.9839 0 2.03711 13.9468 2.03711 31.151C2.03711 48.3553 15.9839 62.3021 33.1881 62.3021Z" fill="url(#paint0_linear)"/>
<path opacity="0.2" d="M10.1868 10.3445C7.28113 17.1414 6.88696 24.7501 9.07474 31.8109C11.2625 38.8717 15.8897 44.9245 22.1294 48.8878C28.3691 52.851 35.8148 54.4664 43.1359 53.4453C50.457 52.4242 57.1765 48.8332 62.0937 43.3138C60.3186 47.4665 57.662 51.1836 54.3078 54.2075C50.9536 57.2315 46.9821 59.4901 42.6684 60.8269C38.3546 62.1636 33.8019 62.5465 29.3255 61.949C24.8491 61.3515 20.5561 59.7879 16.744 57.3666C12.9318 54.9453 9.69172 51.7241 7.24809 47.9262C4.80446 44.1284 3.21574 39.8446 2.59202 35.3718C1.96829 30.899 2.32447 26.344 3.63587 22.0226C4.94728 17.7011 7.18255 13.7163 10.1868 10.3445Z" fill="black"/>
<path d="M33.2734 31.1509H33.3591L34.8996 119.469H31.6475L33.2734 31.1509Z" fill="#3F3D56"/>
<path d="M28.4784 71.2055L27.7607 72.5686L32.9101 75.2796L33.6277 73.9166L28.4784 71.2055Z" fill="#3F3D56"/>
<path d="M138.299 119.821H0.180783C0.132836 119.821 0.0868534 119.802 0.05295 119.768C0.0190466 119.734 0 119.688 0 119.64C0 119.592 0.0190466 119.546 0.05295 119.512C0.0868534 119.478 0.132836 119.459 0.180783 119.459H138.299C138.347 119.459 138.393 119.478 138.427 119.512C138.461 119.546 138.48 119.592 138.48 119.64C138.48 119.688 138.461 119.734 138.427 119.768C138.393 119.802 138.347 119.821 138.299 119.821Z" fill="#3F3D56"/>
<path d="M42.6188 92.0324H32.1333C31.9177 92.0322 31.7109 91.9464 31.5584 91.7939C31.4059 91.6413 31.3201 91.4346 31.3198 91.2189V86.6993C31.3198 85.0931 31.9579 83.5527 33.0937 82.4169C34.2294 81.2811 35.7698 80.6431 37.3761 80.6431C38.9823 80.6431 40.5227 81.2811 41.6585 82.4169C42.7942 83.5527 43.4323 85.0931 43.4323 86.6993V91.2189C43.432 91.4346 43.3463 91.6413 43.1937 91.7939C43.0412 91.9464 42.8344 92.0322 42.6188 92.0324Z" fill="#2F2E41"/>
<path d="M52.5907 97.7093C52.3466 97.7521 52.1148 97.848 51.9118 97.9901C51.7088 98.1322 51.5394 98.3171 51.4155 98.5318C51.2917 98.7464 51.2164 98.9856 51.195 99.2325C51.1736 99.4794 51.2066 99.728 51.2917 99.9608L48.4404 102.583L49.6115 104.705L53.5859 100.945C53.9675 100.776 54.2739 100.473 54.447 100.093C54.6202 99.7137 54.648 99.2837 54.5254 98.8849C54.4027 98.4861 54.138 98.1462 53.7814 97.9295C53.4248 97.7128 53.0011 97.6345 52.5907 97.7093Z" fill="#FFB8B8"/>
<path d="M44.0115 109.632C43.8827 109.632 43.7537 109.627 43.6245 109.616C42.8554 109.551 42.1151 109.293 41.4733 108.864C40.8315 108.436 40.309 107.851 39.9551 107.165L35.3872 98.373C35.0878 97.7969 35.0221 97.1276 35.2037 96.5043C35.3853 95.881 35.8002 95.3517 36.3621 95.0265C36.924 94.7014 37.5896 94.6053 38.2205 94.7584C38.8514 94.9115 39.399 95.3019 39.7494 95.8484L43.9636 105.304L49.6979 100.645L53.0181 101.937L47.411 108.128C46.9799 108.601 46.455 108.979 45.8697 109.238C45.2844 109.497 44.6515 109.631 44.0115 109.632Z" fill="#CCCCCC"/>
<path d="M60.9083 96.0473L55.828 90.967C55.6503 90.7893 55.4093 90.6895 55.158 90.6895C54.9066 90.6895 54.6656 90.7893 54.4879 90.967L49.9177 95.5372C49.74 95.7149 49.6401 95.9559 49.6401 96.2073C49.6401 96.4586 49.74 96.6996 49.9177 96.8774L54.6644 101.624C54.8337 101.793 55.0608 101.892 55.3 101.901C55.5392 101.91 55.7729 101.828 55.954 101.671L60.8578 97.4345C60.952 97.3531 61.0292 97.254 61.085 97.1428C61.1409 97.0316 61.1743 96.9105 61.1834 96.7864C61.1925 96.6623 61.177 96.5376 61.1379 96.4195C61.0987 96.3013 61.0367 96.1921 60.9554 96.0979C60.9403 96.0805 60.9246 96.0636 60.9083 96.0473Z" fill="#3F3D56"/>
<path d="M60.1888 96.9381L54.9595 91.709L50.644 96.0245L55.6704 101.051L60.1888 96.9381Z" fill="#F2F2F2"/>
<path d="M55.3305 98.4601C56.5033 98.4601 57.454 97.5094 57.454 96.3366C57.454 95.1638 56.5033 94.2131 55.3305 94.2131C54.1578 94.2131 53.207 95.1638 53.207 96.3366C53.207 97.5094 54.1578 98.4601 55.3305 98.4601Z" fill="url(#paint1_linear)"/>
<path opacity="0.1" d="M56.2755 98.1466C56.6307 97.8128 56.8603 97.367 56.9257 96.884C56.9911 96.4009 56.8883 95.9101 56.6346 95.4939C56.3809 95.0777 55.9918 94.7614 55.5325 94.5982C55.0732 94.435 54.5718 94.4347 54.1123 94.5975C54.3605 94.4236 54.6431 94.3049 54.941 94.2494C55.2389 94.1938 55.5452 94.2027 55.8394 94.2753C56.1336 94.3479 56.4088 94.4827 56.6466 94.6706C56.8844 94.8584 57.0792 95.095 57.218 95.3644C57.3568 95.6338 57.4363 95.9297 57.4512 96.2324C57.4661 96.5351 57.416 96.8374 57.3044 97.1191C57.1927 97.4008 57.0221 97.6554 56.8039 97.8657C56.5857 98.076 56.325 98.2371 56.0394 98.3383C56.1225 98.2801 56.2014 98.216 56.2755 98.1466Z" fill="black"/>
<path d="M54.2866 95.9147C54.0334 96.1527 54.02 97.0092 54.4066 97.4207C54.7933 97.8323 55.4336 97.6429 55.6868 97.405C55.9401 97.167 55.7103 96.9706 55.3237 96.5591C54.937 96.1476 54.5398 95.6768 54.2866 95.9147Z" fill="#F2F2F2"/>
<path d="M56.4422 97.0005C56.7897 97.0005 57.0713 96.7189 57.0713 96.3714C57.0713 96.0239 56.7897 95.7422 56.4422 95.7422C56.0947 95.7422 55.813 96.0239 55.813 96.3714C55.813 96.7189 56.0947 97.0005 56.4422 97.0005Z" fill="#2F2E41"/>
<path d="M55.3113 95.7969C55.6588 95.7969 55.9405 95.5152 55.9405 95.1678C55.9405 94.8203 55.6588 94.5386 55.3113 94.5386C54.9638 94.5386 54.6821 94.8203 54.6821 95.1678C54.6821 95.5152 54.9638 95.7969 55.3113 95.7969Z" fill="#2F2E41"/>
<path d="M56.442 96.5287C56.5288 96.5287 56.5993 96.4583 56.5993 96.3714C56.5993 96.2845 56.5288 96.2141 56.442 96.2141C56.3551 96.2141 56.2847 96.2845 56.2847 96.3714C56.2847 96.4583 56.3551 96.5287 56.442 96.5287Z" fill="#F2F2F2"/>
<path d="M56.5098 96.0626C56.5532 96.0626 56.5884 96.0274 56.5884 95.9839C56.5884 95.9405 56.5532 95.9053 56.5098 95.9053C56.4664 95.9053 56.4312 95.9405 56.4312 95.9839C56.4312 96.0274 56.4664 96.0626 56.5098 96.0626Z" fill="#F2F2F2"/>
<path d="M55.3789 94.859C55.4224 94.859 55.4576 94.8237 55.4576 94.7803C55.4576 94.7369 55.4224 94.7017 55.3789 94.7017C55.3355 94.7017 55.3003 94.7369 55.3003 94.7803C55.3003 94.8237 55.3355 94.859 55.3789 94.859Z" fill="#F2F2F2"/>
<path d="M55.3111 95.3251C55.398 95.3251 55.4684 95.2547 55.4684 95.1678C55.4684 95.0809 55.398 95.0105 55.3111 95.0105C55.2242 95.0105 55.1538 95.0809 55.1538 95.1678C55.1538 95.2547 55.2242 95.3251 55.3111 95.3251Z" fill="#F2F2F2"/>
<path d="M78.0964 118.357L79.0558 116.359L71.8062 111.708L70.3901 114.656L78.0964 118.357Z" fill="#FFB8B8"/>
<path d="M82.8008 113.314C82.4716 113.156 82.1144 113.064 81.7496 113.044C81.3848 113.024 81.0197 113.076 80.675 113.197C80.3303 113.318 80.0128 113.506 79.7408 113.75C79.4687 113.993 79.2473 114.288 79.0894 114.618L78.4422 115.965L77.4443 118.044L77.2002 118.553L79.789 119.797L82.8822 113.354L82.8008 113.314Z" fill="#2F2E41"/>
<path d="M77.7296 114.341L77.3102 115.238L76.2635 117.476L76.2382 117.532C74.0019 117.646 71.6174 116.901 69.4389 115.862C68.5673 115.446 67.7177 114.986 66.8935 114.482C65.6733 113.743 64.5885 112.978 63.7262 112.329C62.4282 111.348 61.6345 110.624 61.6345 110.624C61.6345 110.624 61.3959 110.809 60.9657 111.123C60.389 111.545 59.4688 112.201 58.3081 112.967C57.8652 113.262 57.3904 113.569 56.8836 113.889C53.1486 116.238 47.8372 119.098 43.3194 119.701C35.3848 120.763 37.2523 110.174 37.2523 110.174L43.5671 106.895L46.2481 107.439L49.2328 108.043L50.2904 108.258C50.2904 108.258 50.4911 108.182 50.8364 108.05C51.9482 107.625 54.5605 106.622 56.8167 105.725C57.9791 105.262 59.0457 104.827 59.7634 104.514C62.3052 103.402 65.1508 106.096 65.1508 106.096L77.7296 114.341Z" fill="#2F2E41"/>
<path d="M25.6974 119.954C25.9389 119.899 26.1654 119.791 26.3608 119.639C26.5562 119.486 26.7159 119.293 26.8284 119.072C26.941 118.851 27.0038 118.609 27.0124 118.361C27.021 118.113 26.9752 117.867 26.8783 117.639L29.5901 114.872L28.3109 112.814L24.5362 116.775C24.1639 116.963 23.8735 117.281 23.7203 117.67C23.567 118.058 23.5614 118.488 23.7045 118.88C23.8476 119.272 24.1296 119.598 24.4969 119.796C24.8642 119.994 25.2913 120.05 25.6974 119.954L25.6974 119.954Z" fill="#FFB8B8"/>
<path d="M38.8606 92.2342C41.1956 92.2342 43.0885 90.3414 43.0885 88.0064C43.0885 85.6714 41.1956 83.7786 38.8606 83.7786C36.5257 83.7786 34.6328 85.6714 34.6328 88.0064C34.6328 90.3414 36.5257 92.2342 38.8606 92.2342Z" fill="#FFB8B8"/>
<path d="M33.3604 99.7423L37.0432 110.184L37.0211 110.22C36.5089 111.067 36.3415 111.75 36.537 112.195C36.5886 112.309 36.664 112.409 36.7582 112.491C36.8525 112.572 36.9632 112.632 37.0827 112.666L45.7981 106.574L45.4929 104.133L45.5099 104.106C46.3523 102.758 46.625 101.537 46.3207 100.478C45.9258 99.103 44.671 98.4789 44.6584 98.4728L44.628 98.4488L40.2811 93.1582L34.4703 94.1905L33.3604 99.7423Z" fill="#CCCCCC"/>
<path d="M27.7597 118.069L25.2925 115.033L31.2401 105.214L34.0131 96.643L34.0991 96.6707L34.0131 96.643C34.1646 96.1747 34.4147 95.7444 34.7466 95.3809C35.0784 95.0175 35.4843 94.7295 35.9369 94.5362C36.3895 94.3429 36.8783 94.2489 37.3703 94.2605C37.8624 94.2721 38.3462 94.389 38.7892 94.6034C39.2322 94.8178 39.6241 95.1246 39.9384 95.5033C40.2528 95.8819 40.4824 96.3236 40.6116 96.7985C40.7409 97.2733 40.7668 97.7704 40.6878 98.2561C40.6087 98.7419 40.4264 99.205 40.1531 99.6144L35.0624 107.241L27.7597 118.069Z" fill="#CCCCCC"/>
<path d="M44.8653 87.1512H38.4537L38.388 86.2307L38.0592 87.1512H37.072L36.9417 85.3267L36.2902 87.1512H34.3799V87.0608C34.3813 85.7906 34.8865 84.5729 35.7846 83.6748C36.6827 82.7767 37.9004 82.2715 39.1706 82.27H40.0745C41.3447 82.2715 42.5624 82.7767 43.4605 83.6748C44.3587 84.5729 44.8639 85.7906 44.8653 87.0608V87.1512Z" fill="#2F2E41"/>
<path d="M38.4013 92.8761C38.353 92.8761 38.3049 92.8718 38.2573 92.8634L33.5625 92.0351V84.2759H38.7306L38.6027 84.4251C36.8225 86.5012 38.1636 89.8678 39.1215 91.6897C39.1921 91.8232 39.2236 91.9739 39.2124 92.1244C39.2011 92.275 39.1475 92.4192 39.0578 92.5407C38.9827 92.6445 38.8841 92.7291 38.7699 92.7874C38.6558 92.8457 38.5295 92.8761 38.4013 92.8761Z" fill="#2F2E41"/>
<path d="M106.326 79.3076C117.708 79.3076 126.935 70.0806 126.935 58.6984C126.935 47.3162 117.708 38.0891 106.326 38.0891C94.9434 38.0891 85.7163 47.3162 85.7163 58.6984C85.7163 70.0806 94.9434 79.3076 106.326 79.3076Z" fill="#3F3D56"/>
<path d="M101.056 50.6877V68.2221C101.052 68.3033 101.069 68.3842 101.107 68.4563C101.145 68.5283 101.201 68.5889 101.271 68.6315C101.34 68.6741 101.419 68.6973 101.501 68.6984C101.582 68.6996 101.662 68.6788 101.733 68.6382L115.632 59.871C115.7 59.8256 115.756 59.7642 115.794 59.6921C115.833 59.62 115.853 59.5395 115.853 59.4578C115.853 59.376 115.833 59.2955 115.794 59.2235C115.756 59.1514 115.7 59.0899 115.632 59.0446L101.733 50.2774C101.663 50.2356 101.583 50.2136 101.502 50.2139C101.42 50.2141 101.34 50.2365 101.271 50.2788C101.201 50.321 101.145 50.3814 101.107 50.4534C101.069 50.5255 101.052 50.6065 101.056 50.6877Z" fill="#F2F2F2"/>
</g>
<defs>
<linearGradient id="paint0_linear" x1="-28.1278" y1="30.1649" x2="32.202" y2="90.4947" gradientUnits="userSpaceOnUse">
<stop stop-color="#1DE9B6"/>
<stop offset="1" stop-color="#03A9F4"/>
</linearGradient>
<linearGradient id="paint1_linear" x1="51.1508" y1="96.2694" x2="55.2633" y2="100.382" gradientUnits="userSpaceOnUse">
<stop stop-color="#1DE9B6"/>
<stop offset="1" stop-color="#03A9F4"/>
</linearGradient>
</defs>
</svg>
