<svg width="116" height="101" viewBox="0 0 116 101" fill="none" xmlns="http://www.w3.org/2000/svg">
<path d="M11.4301 93.5195C10.3787 97.0317 12.0105 100.623 12.0105 100.623C12.0105 100.623 15.3469 98.519 16.3984 95.0068C17.4498 91.4946 15.818 87.9038 15.818 87.9038C15.818 87.9038 12.4815 90.0073 11.4301 93.5195Z" fill="#F2F2F2"/>
<path d="M13.0265 93.6145C13.9114 97.1723 12.1123 100.682 12.1123 100.682C12.1123 100.682 8.87858 98.4241 7.99367 94.8663C7.10877 91.3085 8.90778 87.7985 8.90778 87.7985C8.90778 87.7985 12.1415 90.0567 13.0265 93.6145Z" fill="#F2F2F2"/>
<path d="M65.6145 97.1473L66.2837 95.4258L59.9623 92.0251L58.9746 94.5659L65.6145 97.1473Z" fill="#FFB8B8"/>
<path d="M69.2002 92.6565C68.9165 92.546 68.6138 92.4926 68.3094 92.4992C68.0051 92.5058 67.705 92.5723 67.4263 92.695C67.1477 92.8176 66.896 92.994 66.6855 93.214C66.4751 93.434 66.3101 93.6933 66.1999 93.9771L65.7484 95.1376L65.0524 96.9288L64.8822 97.3681L67.1128 98.2357L69.2703 92.6843L69.2002 92.6565Z" fill="#2F2E41"/>
<path d="M65.0527 93.8343L64.7616 94.6062L64.0352 96.5327L64.0177 96.5809C62.167 96.8187 60.1381 96.3525 58.2615 95.6283C57.5107 95.3387 56.7753 95.0106 56.0583 94.6452C54.997 94.109 54.0468 93.543 53.2888 93.059C52.1475 92.3265 51.4417 91.7765 51.4417 91.7765C51.4417 91.7765 51.2553 91.9449 50.9179 92.2338C50.4657 92.6207 49.7432 93.2249 48.8279 93.9361C48.4788 94.2093 48.1039 94.495 47.7034 94.7934C44.7504 96.9837 40.9608 91.1391 40.9608 91.1391C40.9608 91.1391 42.0266 90.4606 42.305 90.3288C43.2016 89.9046 45.3079 88.9037 47.1251 88.0143C48.0613 87.5553 48.9196 87.125 49.4959 86.8192C51.5366 85.7327 54.0734 87.7886 54.0734 87.7886L65.0527 93.8343Z" fill="#2F2E41"/>
<path opacity="0.14" d="M65.0527 93.8343L64.7616 94.6062L64.0352 96.5327L64.0177 96.5809C62.167 96.8187 60.1381 96.3525 58.2615 95.6283C57.5107 95.3387 56.7753 95.0106 56.0583 94.6452C54.997 94.109 54.0468 93.543 53.2888 93.059C52.1475 92.3265 51.4417 91.7765 51.4417 91.7765C51.4417 91.7765 51.2553 91.9449 50.9179 92.2338C50.4657 92.6207 49.7432 93.2249 48.8279 93.9361C48.4788 94.2093 48.1039 94.495 47.7034 94.7934C44.7504 96.9837 40.9608 91.1391 40.9608 91.1391C40.9608 91.1391 42.0266 90.4606 42.305 90.3288C43.2016 89.9046 45.3079 88.9037 47.1251 88.0143C48.0613 87.5553 48.9196 87.125 49.4959 86.8192C51.5366 85.7327 54.0734 87.7886 54.0734 87.7886L65.0527 93.8343Z" fill="black"/>
<path d="M27.6566 52.8561C41.9934 52.8561 53.6158 41.2338 53.6158 26.8969C53.6158 12.5601 41.9934 0.937744 27.6566 0.937744C13.3197 0.937744 1.69739 12.5601 1.69739 26.8969C1.69739 41.2338 13.3197 52.8561 27.6566 52.8561Z" fill="url(#paint0_linear)"/>
<path opacity="0.2" d="M8.48919 9.55823C6.06777 15.2223 5.7393 21.5629 7.56245 27.4469C9.38559 33.3309 13.2416 38.3749 18.4413 41.6776C23.6411 44.9803 29.8458 46.3265 35.9467 45.4756C42.0477 44.6247 47.6473 41.6321 51.7449 37.0327C50.2657 40.4932 48.0518 43.5908 45.2567 46.1108C42.4615 48.6308 39.1519 50.5129 35.5571 51.6269C31.9624 52.7408 28.1684 53.0599 24.4381 52.562C20.7077 52.0641 17.1302 50.7611 13.9535 48.7433C10.7767 46.7255 8.0766 44.0412 6.04024 40.8763C4.00388 37.7115 2.67995 34.1417 2.16018 30.4143C1.6404 26.687 1.93722 22.8912 3.03006 19.29C4.1229 15.6887 5.98562 12.3681 8.48919 9.55823Z" fill="black"/>
<path d="M27.728 26.8969H27.7994L29.0831 100.495H26.373L27.728 26.8969Z" fill="#3F3D56"/>
<path d="M23.7318 60.2756L23.1338 61.4115L27.4249 63.6707L28.023 62.5348L23.7318 60.2756Z" fill="#3F3D56"/>
<path d="M115.249 100.788H0.150653C0.110697 100.788 0.0723778 100.772 0.044125 100.744C0.0158722 100.716 0 100.678 0 100.638C0 100.598 0.0158722 100.559 0.044125 100.531C0.0723778 100.503 0.110697 100.487 0.150653 100.487H115.249C115.289 100.487 115.327 100.503 115.356 100.531C115.384 100.559 115.4 100.598 115.4 100.638C115.4 100.678 115.384 100.716 115.356 100.744C115.327 100.772 115.289 100.788 115.249 100.788Z" fill="#3F3D56"/>
<path d="M35.5158 77.6314H26.7779C26.5982 77.6312 26.4259 77.5597 26.2988 77.4326C26.1717 77.3055 26.1002 77.1332 26.1 76.9534V73.1871C26.1 71.8486 26.6317 70.5649 27.5782 69.6185C28.5246 68.672 29.8083 68.1403 31.1468 68.1403C32.4853 68.1403 33.769 68.672 34.7155 69.6185C35.662 70.5649 36.1937 71.8486 36.1937 73.1871V76.9534C36.1935 77.1332 36.122 77.3055 35.9949 77.4326C35.8678 77.5597 35.6955 77.6312 35.5158 77.6314Z" fill="#2F2E41"/>
<path d="M43.8254 82.3621C43.6219 82.3979 43.4288 82.4777 43.2596 82.5962C43.0904 82.7146 42.9493 82.8687 42.8461 83.0475C42.7429 83.2264 42.6801 83.4258 42.6623 83.6315C42.6445 83.8373 42.672 84.0444 42.7428 84.2384L40.3668 86.4237L41.3427 88.1915L44.6547 85.0583C44.9727 84.9176 45.228 84.6652 45.3723 84.3488C45.5166 84.0325 45.5398 83.6742 45.4376 83.3418C45.3354 83.0095 45.1148 82.7262 44.8176 82.5456C44.5205 82.3651 44.1674 82.2998 43.8254 82.3621Z" fill="#FFB8B8"/>
<path d="M36.676 92.2979C36.5687 92.2979 36.4612 92.2933 36.3536 92.284C35.7126 92.2305 35.0958 92.0151 34.5609 91.6579C34.026 91.3007 33.5907 90.8134 33.2957 90.2419L29.4891 82.9152C29.2397 82.4352 29.1849 81.8774 29.3362 81.358C29.4876 80.8386 29.8333 80.3975 30.3015 80.1265C30.7698 79.8555 31.3245 79.7755 31.8502 79.903C32.376 80.0306 32.8323 80.3559 33.1243 80.8114L36.6362 88.6911L41.4147 84.8085L44.1816 85.8855L39.5089 91.0441C39.1497 91.4384 38.7123 91.7536 38.2245 91.9694C37.7368 92.1853 37.2094 92.2972 36.676 92.2979Z" fill="#CCCCCC"/>
<path d="M50.7569 80.9772L46.5233 76.7436C46.3752 76.5955 46.1743 76.5123 45.9649 76.5123C45.7554 76.5123 45.5546 76.5955 45.4065 76.7436L41.598 80.5521C41.4499 80.7002 41.3667 80.9011 41.3667 81.1105C41.3667 81.32 41.4499 81.5208 41.598 81.6689L45.5536 85.6245C45.6947 85.7656 45.8839 85.848 46.0832 85.8553C46.2826 85.8626 46.4773 85.7941 46.6283 85.6637L50.7147 82.1332C50.7932 82.0654 50.8576 81.9828 50.9041 81.8901C50.9507 81.7975 50.9785 81.6965 50.9861 81.5931C50.9936 81.4897 50.9807 81.3858 50.9481 81.2873C50.9155 81.1889 50.8638 81.0978 50.796 81.0194C50.7835 81.0048 50.7704 80.9908 50.7569 80.9772Z" fill="#3F3D56"/>
<path d="M50.1576 81.7197L45.7998 77.3621L42.2036 80.9583L46.3922 85.1467L50.1576 81.7197Z" fill="#F2F2F2"/>
<path d="M46.1087 82.9879C47.086 82.9879 47.8783 82.1956 47.8783 81.2183C47.8783 80.241 47.086 79.4487 46.1087 79.4487C45.1314 79.4487 44.3391 80.241 44.3391 81.2183C44.3391 82.1956 45.1314 82.9879 46.1087 82.9879Z" fill="#AC9C8B"/>
<path opacity="0.1" d="M46.8964 82.7265C47.1924 82.4484 47.3837 82.0769 47.4382 81.6743C47.4927 81.2718 47.4071 80.8628 47.1957 80.516C46.9843 80.1691 46.66 79.9056 46.2773 79.7695C45.8945 79.6335 45.4766 79.6333 45.0938 79.7689C45.3006 79.6241 45.5361 79.5252 45.7843 79.4789C46.0325 79.4326 46.2878 79.4399 46.533 79.5005C46.7781 79.561 47.0075 79.6733 47.2057 79.8298C47.4038 79.9864 47.5662 80.1835 47.6818 80.408C47.7975 80.6325 47.8637 80.8791 47.8761 81.1314C47.8886 81.3836 47.8468 81.6355 47.7538 81.8703C47.6608 82.1051 47.5186 82.3172 47.3367 82.4924C47.1549 82.6677 46.9377 82.802 46.6997 82.8863C46.7689 82.8378 46.8347 82.7844 46.8964 82.7265Z" fill="black"/>
<path d="M45.2386 80.8667C45.0276 81.065 45.0164 81.7788 45.3387 82.1217C45.6609 82.4646 46.1945 82.3068 46.4055 82.1086C46.6165 81.9103 46.4251 81.7466 46.1029 81.4036C45.7806 81.0607 45.4497 80.6684 45.2386 80.8667Z" fill="#F2F2F2"/>
<path d="M47.0352 81.7715C47.3247 81.7715 47.5595 81.5368 47.5595 81.2472C47.5595 80.9576 47.3247 80.7229 47.0352 80.7229C46.7456 80.7229 46.5109 80.9576 46.5109 81.2472C46.5109 81.5368 46.7456 81.7715 47.0352 81.7715Z" fill="#2F2E41"/>
<path d="M46.0927 80.7685C46.3822 80.7685 46.617 80.5337 46.617 80.2442C46.617 79.9546 46.3822 79.7198 46.0927 79.7198C45.8031 79.7198 45.5684 79.9546 45.5684 80.2442C45.5684 80.5337 45.8031 80.7685 46.0927 80.7685Z" fill="#2F2E41"/>
<path d="M47.0351 81.3782C47.1075 81.3782 47.1662 81.3196 47.1662 81.2472C47.1662 81.1748 47.1075 81.1161 47.0351 81.1161C46.9627 81.1161 46.9041 81.1748 46.9041 81.2472C46.9041 81.3196 46.9627 81.3782 47.0351 81.3782Z" fill="#F2F2F2"/>
<path d="M47.0915 80.99C47.1277 80.99 47.1571 80.9606 47.1571 80.9244C47.1571 80.8882 47.1277 80.8589 47.0915 80.8589C47.0553 80.8589 47.026 80.8882 47.026 80.9244C47.026 80.9606 47.0553 80.99 47.0915 80.99Z" fill="#F2F2F2"/>
<path d="M46.149 79.9869C46.1852 79.9869 46.2146 79.9576 46.2146 79.9214C46.2146 79.8852 46.1852 79.8558 46.149 79.8558C46.1128 79.8558 46.0835 79.8852 46.0835 79.9214C46.0835 79.9576 46.1128 79.9869 46.149 79.9869Z" fill="#F2F2F2"/>
<path d="M46.0926 80.3752C46.165 80.3752 46.2237 80.3165 46.2237 80.2441C46.2237 80.1717 46.165 80.113 46.0926 80.113C46.0202 80.113 45.9615 80.1717 45.9615 80.2441C45.9615 80.3165 46.0202 80.3752 46.0926 80.3752Z" fill="#F2F2F2"/>
<path d="M65.0803 99.5685L65.8798 97.9036L59.8385 94.0273L58.6584 96.4846L65.0803 99.5685Z" fill="#FFB8B8"/>
<path d="M69.0007 95.3665C68.7263 95.2346 68.4286 95.158 68.1247 95.1412C67.8207 95.1244 67.5164 95.1677 67.2291 95.2686C66.9419 95.3695 66.6774 95.526 66.4506 95.7291C66.2239 95.9323 66.0395 96.1782 65.9078 96.4527L65.3685 97.575L64.5369 99.3075L64.3335 99.7324L66.4908 100.769L69.0685 95.3996L69.0007 95.3665Z" fill="#2F2E41"/>
<path d="M64.7749 96.2221L64.4254 96.9694L63.5531 98.8345L63.532 98.8812C61.6685 98.9761 59.6814 98.3554 57.866 97.4891C57.1396 97.1427 56.4316 96.759 55.7448 96.3397C54.7279 95.7235 53.824 95.0862 53.1054 94.5454C52.0237 93.7273 51.3623 93.1247 51.3623 93.1247C51.3623 93.1247 51.1635 93.2784 50.8049 93.5405C50.3243 93.8915 49.5575 94.4384 48.5903 95.0772C48.2212 95.3228 47.8255 95.5789 47.4032 95.8455C44.2907 97.8025 39.8645 100.186 36.0997 100.689C29.4876 101.573 31.0438 92.7496 31.0438 92.7496L36.3061 90.0168L38.5403 90.4702L41.0276 90.9734L41.9089 91.1527C41.9089 91.1527 42.0761 91.0894 42.3638 90.9794C43.2903 90.6254 45.4673 89.7893 47.3474 89.042C48.3161 88.6564 49.205 88.2933 49.8031 88.0327C51.9212 87.1062 54.2925 89.3509 54.2925 89.3509L64.7749 96.2221Z" fill="#2F2E41"/>
<path d="M21.4145 100.9C21.6158 100.853 21.8045 100.764 21.9674 100.637C22.1302 100.51 22.2633 100.349 22.3571 100.165C22.4509 99.9806 22.5032 99.7783 22.5104 99.5719C22.5176 99.3655 22.4794 99.16 22.3986 98.97L24.6584 96.6647L23.5925 94.9497L20.4469 98.25C20.1366 98.4069 19.8947 98.6722 19.7669 98.9956C19.6392 99.319 19.6345 99.678 19.7538 100.005C19.8731 100.331 20.108 100.603 20.4141 100.768C20.7202 100.933 21.0761 100.98 21.4145 100.9L21.4145 100.9Z" fill="#FFB8B8"/>
<path d="M32.384 77.7996C34.3298 77.7996 35.9072 76.2222 35.9072 74.2764C35.9072 72.3306 34.3298 70.7532 32.384 70.7532C30.4382 70.7532 28.8608 72.3306 28.8608 74.2764C28.8608 76.2222 30.4382 77.7996 32.384 77.7996Z" fill="#FFB8B8"/>
<path d="M27.8004 84.0563L30.8695 92.7574L30.8511 92.7878C30.4242 93.4935 30.2847 94.0627 30.4477 94.4339C30.4906 94.5283 30.5535 94.6122 30.632 94.68C30.7105 94.7477 30.8028 94.7976 30.9024 94.8262L38.1652 89.7497L37.9109 87.7151L37.925 87.6924C38.627 86.5692 38.8543 85.552 38.6007 84.6692C38.2717 83.5236 37.2259 83.0035 37.2154 82.9984L37.1901 82.9784L33.5677 78.5696L28.7254 79.4299L27.8004 84.0563Z" fill="#CCCCCC"/>
<path d="M23.1332 99.3288L21.0771 96.7983L26.0335 88.6164L28.3443 81.4736L28.416 81.4968L28.3443 81.4736C28.4706 81.0834 28.679 80.7248 28.9555 80.4219C29.2321 80.1191 29.5704 79.879 29.9475 79.718C30.3247 79.5569 30.732 79.4786 31.142 79.4882C31.552 79.4979 31.9552 79.5953 32.3244 79.774C32.6936 79.9526 33.0201 80.2084 33.2821 80.5239C33.5441 80.8394 33.7354 81.2075 33.8431 81.6032C33.9508 81.9989 33.9725 82.4132 33.9065 82.8179C33.8406 83.2227 33.6887 83.6087 33.461 83.9498L29.2187 90.3057L23.1332 99.3288Z" fill="#CCCCCC"/>
<path d="M37.3876 73.5638H32.0446L31.9898 72.7967L31.7159 73.5638H30.8932L30.7846 72.0435L30.2417 73.5638H28.6498V73.4885C28.651 72.4301 29.072 71.4153 29.8204 70.6669C30.5688 69.9184 31.5836 69.4974 32.642 69.4962H33.3953C34.4538 69.4974 35.4686 69.9184 36.217 70.6669C36.9654 71.4153 37.3864 72.4301 37.3876 73.4885V73.5638Z" fill="#2F2E41"/>
<path d="M32.0009 78.3344C31.9606 78.3343 31.9205 78.3308 31.8809 78.3238L27.9685 77.6335V71.1675H32.2753L32.1686 71.2918C30.6851 73.0219 31.8028 75.8274 32.601 77.3457C32.6599 77.4569 32.6861 77.5825 32.6767 77.7079C32.6673 77.8334 32.6227 77.9536 32.548 78.0548C32.4854 78.1414 32.4031 78.2118 32.308 78.2604C32.2129 78.309 32.1077 78.3344 32.0009 78.3344Z" fill="#2F2E41"/>
<path d="M88.6047 67.0274C98.0898 67.0274 105.779 59.3381 105.779 49.853C105.779 40.3678 98.0898 32.6786 88.6047 32.6786C79.1195 32.6786 71.4303 40.3678 71.4303 49.853C71.4303 59.3381 79.1195 67.0274 88.6047 67.0274Z" fill="#3F3D56"/>
<path d="M84.2136 43.1773V57.7893C84.2098 57.857 84.2244 57.9244 84.2558 57.9845C84.2872 58.0445 84.3343 58.095 84.392 58.1305C84.4497 58.166 84.516 58.1853 84.5838 58.1863C84.6515 58.1873 84.7183 58.1699 84.777 58.1361L96.3597 50.8301C96.4164 50.7923 96.4628 50.7411 96.495 50.681C96.5271 50.6209 96.5439 50.5539 96.5439 50.4857C96.5439 50.4176 96.5271 50.3505 96.495 50.2905C96.4628 50.2304 96.4164 50.1792 96.3597 50.1414L84.777 42.8354C84.7189 42.8006 84.6523 42.7823 84.5845 42.7825C84.5167 42.7827 84.4502 42.8014 84.3922 42.8365C84.3343 42.8717 84.287 42.922 84.2555 42.9821C84.224 43.0421 84.2095 43.1097 84.2136 43.1773Z" fill="#F2F2F2"/>
<defs>
<linearGradient id="paint0_linear" x1="-23.44" y1="26.0752" x2="26.8348" y2="76.35" gradientUnits="userSpaceOnUse">
<stop stop-color="#1DE9B6"/>
<stop offset="1" stop-color="#03A9F4"/>
</linearGradient>
</defs>
</svg>
