<svg width="116" height="100" viewBox="0 0 116 100" fill="none" xmlns="http://www.w3.org/2000/svg">
<path d="M11.4301 92.5818C10.3787 96.094 12.0105 99.6848 12.0105 99.6848C12.0105 99.6848 15.3469 97.5813 16.3984 94.0691C17.4498 90.5569 15.818 86.9661 15.818 86.9661C15.818 86.9661 12.4815 89.0696 11.4301 92.5818Z" fill="#F2F2F2"/>
<path d="M13.0265 92.6768C13.9114 96.2346 12.1123 99.7446 12.1123 99.7446C12.1123 99.7446 8.87858 97.4863 7.99367 93.9286C7.10877 90.3708 8.90778 86.8607 8.90778 86.8607C8.90778 86.8607 12.1415 89.119 13.0265 92.6768Z" fill="#F2F2F2"/>
<path d="M65.6145 96.2096L66.2837 94.4881L59.9623 91.0874L58.9746 93.6282L65.6145 96.2096Z" fill="#FFB8B8"/>
<path d="M69.2002 91.7187C68.9165 91.6083 68.6138 91.5549 68.3094 91.5615C68.0051 91.5681 67.705 91.6346 67.4263 91.7572C67.1477 91.8799 66.896 92.0562 66.6855 92.2762C66.4751 92.4962 66.3101 92.7555 66.1999 93.0394L65.7484 94.1998L65.0524 95.9911L64.8822 96.4303L67.1128 97.298L69.2703 91.7466L69.2002 91.7187Z" fill="#2F2E41"/>
<path d="M65.0527 92.8965L64.7616 93.6684L64.0352 95.595L64.0177 95.6432C62.167 95.881 60.1381 95.4148 58.2615 94.6906C57.5107 94.401 56.7753 94.0728 56.0583 93.7074C54.997 93.1712 54.0468 92.6053 53.2888 92.1212C52.1475 91.3887 51.4417 90.8387 51.4417 90.8387C51.4417 90.8387 51.2553 91.0072 50.9179 91.2961C50.4657 91.683 49.7432 92.2872 48.8279 92.9984C48.4788 93.2715 48.1039 93.5573 47.7034 93.8556C44.7504 96.0459 40.9608 90.2014 40.9608 90.2014C40.9608 90.2014 42.0266 89.5228 42.305 89.3911C43.2016 88.9669 45.3079 87.966 47.1251 87.0765C48.0613 86.6176 48.9196 86.1873 49.4959 85.8815C51.5366 84.795 54.0734 86.8509 54.0734 86.8509L65.0527 92.8965Z" fill="#2F2E41"/>
<path opacity="0.14" d="M65.0527 92.8965L64.7616 93.6684L64.0352 95.595L64.0177 95.6432C62.167 95.881 60.1381 95.4148 58.2615 94.6906C57.5107 94.401 56.7753 94.0728 56.0583 93.7074C54.997 93.1712 54.0468 92.6053 53.2888 92.1212C52.1475 91.3887 51.4417 90.8387 51.4417 90.8387C51.4417 90.8387 51.2553 91.0072 50.9179 91.2961C50.4657 91.683 49.7432 92.2872 48.8279 92.9984C48.4788 93.2715 48.1039 93.5573 47.7034 93.8556C44.7504 96.0459 40.9608 90.2014 40.9608 90.2014C40.9608 90.2014 42.0266 89.5228 42.305 89.3911C43.2016 88.9669 45.3079 87.966 47.1251 87.0765C48.0613 86.6176 48.9196 86.1873 49.4959 85.8815C51.5366 84.795 54.0734 86.8509 54.0734 86.8509L65.0527 92.8965Z" fill="black"/>
<path d="M27.6566 51.9184C41.9934 51.9184 53.6158 40.2961 53.6158 25.9592C53.6158 11.6223 41.9934 0 27.6566 0C13.3197 0 1.69739 11.6223 1.69739 25.9592C1.69739 40.2961 13.3197 51.9184 27.6566 51.9184Z" fill="#C6E0F6"/>
<path opacity="0.2" d="M8.48919 8.62048C6.06777 14.2846 5.7393 20.6252 7.56245 26.5092C9.38559 32.3932 13.2416 37.4372 18.4413 40.7399C23.6411 44.0426 29.8458 45.3888 35.9467 44.5378C42.0477 43.6869 47.6473 40.6944 51.7449 36.0949C50.2657 39.5555 48.0518 42.653 45.2567 45.173C42.4615 47.693 39.1519 49.5752 35.5571 50.6891C31.9624 51.8031 28.1684 52.1221 24.4381 51.6242C20.7077 51.1263 17.1302 49.8233 13.9535 47.8056C10.7767 45.7878 8.0766 43.1035 6.04024 39.9386C4.00388 36.7737 2.67995 33.2039 2.16018 29.4766C1.6404 25.7492 1.93722 21.9535 3.03006 18.3522C4.1229 14.751 5.98562 11.4304 8.48919 8.62048Z" fill="black"/>
<path d="M27.728 25.9591H27.7994L29.0831 99.5577H26.373L27.728 25.9591Z" fill="#3F3D56"/>
<path d="M23.7318 59.3379L23.1338 60.4738L27.4249 62.733L28.023 61.5971L23.7318 59.3379Z" fill="#3F3D56"/>
<path d="M115.249 99.8506H0.150653C0.110697 99.8506 0.0723778 99.8347 0.044125 99.8065C0.0158722 99.7782 0 99.7399 0 99.7C0 99.66 0.0158722 99.6217 0.044125 99.5934C0.0723778 99.5652 0.110697 99.5493 0.150653 99.5493H115.249C115.289 99.5493 115.327 99.5652 115.356 99.5934C115.384 99.6217 115.4 99.66 115.4 99.7C115.4 99.7399 115.384 99.7782 115.356 99.8065C115.327 99.8347 115.289 99.8506 115.249 99.8506Z" fill="#3F3D56"/>
<path d="M35.5158 76.6936H26.7779C26.5982 76.6934 26.4259 76.6219 26.2988 76.4948C26.1717 76.3677 26.1002 76.1954 26.1 76.0157V72.2494C26.1 70.9109 26.6317 69.6272 27.5782 68.6807C28.5246 67.7342 29.8083 67.2025 31.1468 67.2025C32.4853 67.2025 33.769 67.7342 34.7155 68.6807C35.662 69.6272 36.1937 70.9109 36.1937 72.2494V76.0157C36.1935 76.1954 36.122 76.3677 35.9949 76.4948C35.8678 76.6219 35.6955 76.6934 35.5158 76.6936Z" fill="#2F2E41"/>
<path d="M43.8254 81.4244C43.6219 81.4601 43.4288 81.54 43.2596 81.6584C43.0904 81.7768 42.9493 81.9309 42.8461 82.1098C42.7429 82.2887 42.6801 82.488 42.6623 82.6938C42.6445 82.8995 42.672 83.1067 42.7428 83.3007L40.3668 85.486L41.3427 87.2538L44.6547 84.1206C44.9727 83.9799 45.228 83.7274 45.3723 83.4111C45.5166 83.0947 45.5398 82.7364 45.4376 82.4041C45.3354 82.0718 45.1148 81.7885 44.8176 81.6079C44.5205 81.4273 44.1674 81.362 43.8254 81.4244Z" fill="#FFB8B8"/>
<path d="M36.676 91.3602C36.5687 91.3602 36.4612 91.3555 36.3536 91.3463C35.7126 91.2928 35.0958 91.0773 34.5609 90.7201C34.026 90.3629 33.5907 89.8757 33.2957 89.3041L29.4891 81.9775C29.2397 81.4974 29.1849 80.9397 29.3362 80.4202C29.4876 79.9008 29.8333 79.4597 30.3015 79.1887C30.7698 78.9178 31.3245 78.8377 31.8502 78.9653C32.376 79.0929 32.8323 79.4182 33.1243 79.8736L36.6362 87.7533L41.4147 83.8707L44.1816 84.9478L39.5089 90.1064C39.1497 90.5007 38.7123 90.8158 38.2245 91.0317C37.7368 91.2476 37.2094 91.3594 36.676 91.3602Z" fill="#CCCCCC"/>
<path d="M50.7569 80.0395L46.5233 75.8059C46.3752 75.6578 46.1743 75.5746 45.9649 75.5746C45.7554 75.5746 45.5546 75.6578 45.4065 75.8059L41.598 79.6144C41.4499 79.7625 41.3667 79.9633 41.3667 80.1728C41.3667 80.3822 41.4499 80.5831 41.598 80.7312L45.5536 84.6868C45.6947 84.8278 45.8839 84.9103 46.0832 84.9176C46.2826 84.9248 46.4773 84.8564 46.6283 84.7259L50.7147 81.1955C50.7932 81.1277 50.8576 81.0451 50.9041 80.9524C50.9507 80.8597 50.9785 80.7588 50.9861 80.6554C50.9936 80.5519 50.9807 80.448 50.9481 80.3496C50.9155 80.2511 50.8638 80.1601 50.796 80.0816C50.7835 80.0671 50.7704 80.0531 50.7569 80.0395Z" fill="#3F3D56"/>
<path d="M50.1576 80.7819L45.7998 76.4243L42.2036 80.0205L46.3922 84.209L50.1576 80.7819Z" fill="#F2F2F2"/>
<path d="M46.1087 82.0501C47.086 82.0501 47.8783 81.2579 47.8783 80.2806C47.8783 79.3032 47.086 78.511 46.1087 78.511C45.1314 78.511 44.3391 79.3032 44.3391 80.2806C44.3391 81.2579 45.1314 82.0501 46.1087 82.0501Z" fill="#AC9C8B"/>
<path opacity="0.1" d="M46.8964 81.7888C47.1924 81.5106 47.3837 81.1391 47.4382 80.7366C47.4927 80.3341 47.4071 79.9251 47.1957 79.5782C46.9843 79.2314 46.66 78.9678 46.2773 78.8318C45.8945 78.6958 45.4766 78.6955 45.0938 78.8312C45.3006 78.6863 45.5361 78.5874 45.7843 78.5411C46.0325 78.4948 46.2878 78.5022 46.533 78.5627C46.7781 78.6233 47.0075 78.7356 47.2057 78.8921C47.4038 79.0486 47.5662 79.2458 47.6818 79.4703C47.7975 79.6948 47.8637 79.9414 47.8761 80.1936C47.8886 80.4458 47.8468 80.6978 47.7538 80.9326C47.6608 81.1673 47.5186 81.3795 47.3367 81.5547C47.1549 81.7299 46.9377 81.8642 46.6997 81.9486C46.7689 81.9 46.8347 81.8466 46.8964 81.7888Z" fill="black"/>
<path d="M45.2386 79.929C45.0276 80.1272 45.0164 80.841 45.3387 81.184C45.6609 81.5269 46.1945 81.3691 46.4055 81.1708C46.6165 80.9725 46.4251 80.8088 46.1029 80.4659C45.7806 80.123 45.4497 79.7307 45.2386 79.929Z" fill="#F2F2F2"/>
<path d="M47.0352 80.8338C47.3247 80.8338 47.5595 80.599 47.5595 80.3095C47.5595 80.0199 47.3247 79.7852 47.0352 79.7852C46.7456 79.7852 46.5109 80.0199 46.5109 80.3095C46.5109 80.599 46.7456 80.8338 47.0352 80.8338Z" fill="#2F2E41"/>
<path d="M46.0927 79.8307C46.3822 79.8307 46.617 79.596 46.617 79.3064C46.617 79.0168 46.3822 78.7821 46.0927 78.7821C45.8031 78.7821 45.5684 79.0168 45.5684 79.3064C45.5684 79.596 45.8031 79.8307 46.0927 79.8307Z" fill="#2F2E41"/>
<path d="M47.0351 80.4405C47.1075 80.4405 47.1662 80.3818 47.1662 80.3094C47.1662 80.237 47.1075 80.1783 47.0351 80.1783C46.9627 80.1783 46.9041 80.237 46.9041 80.3094C46.9041 80.3818 46.9627 80.4405 47.0351 80.4405Z" fill="#F2F2F2"/>
<path d="M47.0915 80.0522C47.1277 80.0522 47.1571 80.0229 47.1571 79.9867C47.1571 79.9505 47.1277 79.9211 47.0915 79.9211C47.0553 79.9211 47.026 79.9505 47.026 79.9867C47.026 80.0229 47.0553 80.0522 47.0915 80.0522Z" fill="#F2F2F2"/>
<path d="M46.149 79.0492C46.1852 79.0492 46.2146 79.0198 46.2146 78.9836C46.2146 78.9474 46.1852 78.9181 46.149 78.9181C46.1128 78.9181 46.0835 78.9474 46.0835 78.9836C46.0835 79.0198 46.1128 79.0492 46.149 79.0492Z" fill="#F2F2F2"/>
<path d="M46.0926 79.4375C46.165 79.4375 46.2237 79.3788 46.2237 79.3064C46.2237 79.234 46.165 79.1753 46.0926 79.1753C46.0202 79.1753 45.9615 79.234 45.9615 79.3064C45.9615 79.3788 46.0202 79.4375 46.0926 79.4375Z" fill="#F2F2F2"/>
<path d="M65.0803 98.6308L65.8798 96.9659L59.8385 93.0896L58.6584 95.5469L65.0803 98.6308Z" fill="#FFB8B8"/>
<path d="M69.0007 94.4287C68.7263 94.2968 68.4286 94.2203 68.1247 94.2035C67.8207 94.1867 67.5164 94.23 67.2291 94.3308C66.9419 94.4317 66.6774 94.5882 66.4506 94.7914C66.2239 94.9946 66.0395 95.2404 65.9078 95.5149L65.3685 96.6373L64.5369 98.3698L64.3335 98.7946L66.4908 99.8311L69.0685 94.4619L69.0007 94.4287Z" fill="#2F2E41"/>
<path d="M64.7749 95.2844L64.4254 96.0316L63.5531 97.8967L63.532 97.9434C61.6685 98.0383 59.6814 97.4176 57.866 96.5514C57.1396 96.205 56.4316 95.8213 55.7448 95.4019C54.7279 94.7857 53.824 94.1485 53.1054 93.6076C52.0237 92.7896 51.3623 92.187 51.3623 92.187C51.3623 92.187 51.1635 92.3406 50.8049 92.6028C50.3243 92.9538 49.5575 93.5007 48.5903 94.1394C48.2212 94.385 47.8255 94.6411 47.4032 94.9078C44.2907 96.8647 39.8645 99.2481 36.0997 99.7512C29.4876 100.636 31.0438 91.8119 31.0438 91.8119L36.3061 89.079L38.5403 89.5325L41.0276 90.0357L41.9089 90.2149C41.9089 90.2149 42.0761 90.1517 42.3638 90.0417C43.2903 89.6877 45.4673 88.8515 47.3474 88.1043C48.3161 87.7186 49.205 87.3555 49.8031 87.0949C51.9212 86.1684 54.2925 88.4131 54.2925 88.4131L64.7749 95.2844Z" fill="#2F2E41"/>
<path d="M21.4145 99.9619C21.6158 99.9157 21.8045 99.826 21.9674 99.699C22.1302 99.572 22.2633 99.4108 22.3571 99.2268C22.4509 99.0428 22.5032 98.8405 22.5104 98.6341C22.5176 98.4277 22.4794 98.2223 22.3986 98.0322L24.6584 95.727L23.5925 94.012L20.4469 97.3123C20.1366 97.4692 19.8947 97.7345 19.7669 98.0579C19.6392 98.3813 19.6345 98.7403 19.7538 99.0669C19.8731 99.3935 20.108 99.665 20.4141 99.83C20.7202 99.9949 21.0761 100.042 21.4145 99.9619L21.4145 99.9619Z" fill="#FFB8B8"/>
<path d="M32.384 76.8618C34.3298 76.8618 35.9072 75.2844 35.9072 73.3386C35.9072 71.3928 34.3298 69.8154 32.384 69.8154C30.4382 69.8154 28.8608 71.3928 28.8608 73.3386C28.8608 75.2844 30.4382 76.8618 32.384 76.8618Z" fill="#FFB8B8"/>
<path d="M27.8004 83.1186L30.8695 91.8196L30.8511 91.8501C30.4242 92.5558 30.2847 93.125 30.4477 93.4962C30.4906 93.5905 30.5535 93.6745 30.632 93.7422C30.7105 93.8099 30.8028 93.8598 30.9024 93.8885L38.1652 88.812L37.9109 86.7773L37.925 86.7546C38.627 85.6314 38.8543 84.6142 38.6007 83.7314C38.2717 82.5859 37.2259 82.0658 37.2154 82.0606L37.1901 82.0407L33.5677 77.6318L28.7254 78.4921L27.8004 83.1186Z" fill="#CCCCCC"/>
<path d="M23.1332 98.3911L21.0771 95.8606L26.0335 87.6787L28.3443 80.5359L28.416 80.559L28.3443 80.5359C28.4706 80.1457 28.679 79.787 28.9555 79.4842C29.2321 79.1813 29.5704 78.9413 29.9475 78.7802C30.3247 78.6192 30.732 78.5408 31.142 78.5505C31.552 78.5601 31.9552 78.6576 32.3244 78.8362C32.6936 79.0149 33.0201 79.2706 33.2821 79.5862C33.5441 79.9017 33.7354 80.2697 33.8431 80.6655C33.9508 81.0612 33.9725 81.4754 33.9065 81.8802C33.8406 82.285 33.6887 82.671 33.461 83.0121L29.2187 89.368L23.1332 98.3911Z" fill="#CCCCCC"/>
<path d="M37.3876 72.6261H32.0446L31.9898 71.859L31.7159 72.6261H30.8932L30.7846 71.1057L30.2417 72.6261H28.6498V72.5508C28.651 71.4923 29.072 70.4776 29.8204 69.7291C30.5688 68.9807 31.5836 68.5597 32.642 68.5585H33.3953C34.4538 68.5597 35.4686 68.9807 36.217 69.7291C36.9654 70.4775 37.3864 71.4923 37.3876 72.5508V72.6261Z" fill="#2F2E41"/>
<path d="M32.0009 77.3966C31.9606 77.3966 31.9205 77.393 31.8809 77.386L27.9685 76.6957V70.2297H32.2753L32.1686 70.3541C30.6851 72.0842 31.8028 74.8897 32.601 76.408C32.6599 76.5192 32.6861 76.6447 32.6767 76.7702C32.6673 76.8956 32.6227 77.0159 32.548 77.1171C32.4854 77.2036 32.4031 77.2741 32.308 77.3227C32.2129 77.3713 32.1077 77.3966 32.0009 77.3966Z" fill="#2F2E41"/>
<path d="M88.6047 66.0896C98.0898 66.0896 105.779 58.4004 105.779 48.9152C105.779 39.4301 98.0898 31.7408 88.6047 31.7408C79.1195 31.7408 71.4303 39.4301 71.4303 48.9152C71.4303 58.4004 79.1195 66.0896 88.6047 66.0896Z" fill="#3F3D56"/>
<path d="M84.2136 42.2396V56.8516C84.2098 56.9192 84.2244 56.9867 84.2558 57.0467C84.2872 57.1068 84.3343 57.1572 84.392 57.1928C84.4497 57.2283 84.516 57.2475 84.5838 57.2485C84.6515 57.2495 84.7183 57.2322 84.777 57.1983L96.3597 49.8923C96.4164 49.8545 96.4628 49.8033 96.495 49.7433C96.5271 49.6832 96.5439 49.6161 96.5439 49.548C96.5439 49.4799 96.5271 49.4128 96.495 49.3527C96.4628 49.2927 96.4164 49.2414 96.3597 49.2036L84.777 41.8977C84.7189 41.8628 84.6523 41.8445 84.5845 41.8447C84.5167 41.8449 84.4502 41.8636 84.3922 41.8988C84.3343 41.934 84.287 41.9843 84.2555 42.0444C84.224 42.1044 84.2095 42.1719 84.2136 42.2396Z" fill="#F2F2F2"/>
</svg>
