<svg width="80" height="80" viewBox="0 0 80 80" fill="none" xmlns="http://www.w3.org/2000/svg">
<path d="M46.4119 39.3318L37.4279 35.1398C36.6439 34.7758 35.9999 35.1838 35.9999 36.0518V43.9478C35.9999 44.8158 36.6439 45.2238 37.4279 44.8598L46.4079 40.6678C47.1959 40.2998 47.1959 39.6998 46.4119 39.3318ZM39.9999 1.59979C18.7919 1.59979 1.59985 18.7918 1.59985 39.9998C1.59985 61.2078 18.7919 78.3998 39.9999 78.3998C61.2079 78.3998 78.3999 61.2078 78.3999 39.9998C78.3999 18.7918 61.2079 1.59979 39.9999 1.59979ZM39.9999 55.5998C20.3439 55.5998 19.9999 53.8278 19.9999 39.9998C19.9999 26.1718 20.3439 24.3998 39.9999 24.3998C59.6559 24.3998 59.9999 26.1718 59.9999 39.9998C59.9999 53.8278 59.6559 55.5998 39.9999 55.5998Z" fill="#FF5F5A"/>
</svg>
