<svg width="120" height="120" viewBox="0 0 120 120" fill="none" xmlns="http://www.w3.org/2000/svg">
<g filter="url(#filter0_ddd)">
<rect x="20.0425" y="10.0002" width="79.6752" height="79.6752" rx="39.8376" fill="url(#paint0_linear)"/>
</g>
<path d="M67.4662 50.6625L56.8596 55.9084C56.4438 56.1347 55.0316 55.8341 55.0316 55.3606V44.5875C55.0316 44.1088 56.4562 43.8084 56.872 44.0471L67.0257 49.5718C67.4517 49.8136 67.8972 50.428 67.4662 50.6625ZM81.3783 44.3332C81.3783 39.2254 77.2361 35.0832 72.1272 35.0832H48.4739C43.3651 35.0832 39.2236 39.2254 39.2236 44.3332V55.3401C39.2236 60.45 43.3651 64.5925 48.4739 64.5925H72.1272C77.2361 64.5925 81.3783 60.45 81.3783 55.3401V44.3332Z" fill="white"/>
<defs>
<filter id="filter0_ddd" x="0.0424805" y="0.000244141" width="119.675" height="119.675" filterUnits="userSpaceOnUse" color-interpolation-filters="sRGB">
<feFlood flood-opacity="0" result="BackgroundImageFix"/>
<feColorMatrix in="SourceAlpha" type="matrix" values="0 0 0 0 0 0 0 0 0 0 0 0 0 0 0 0 0 0 127 0"/>
<feOffset/>
<feGaussianBlur stdDeviation="0.5"/>
<feColorMatrix type="matrix" values="0 0 0 0 0 0 0 0 0 0 0 0 0 0 0 0 0 0 0.04 0"/>
<feBlend mode="normal" in2="BackgroundImageFix" result="effect1_dropShadow"/>
<feColorMatrix in="SourceAlpha" type="matrix" values="0 0 0 0 0 0 0 0 0 0 0 0 0 0 0 0 0 0 127 0"/>
<feOffset dy="2"/>
<feGaussianBlur stdDeviation="3"/>
<feColorMatrix type="matrix" values="0 0 0 0 0 0 0 0 0 0 0 0 0 0 0 0 0 0 0.04 0"/>
<feBlend mode="normal" in2="effect1_dropShadow" result="effect2_dropShadow"/>
<feColorMatrix in="SourceAlpha" type="matrix" values="0 0 0 0 0 0 0 0 0 0 0 0 0 0 0 0 0 0 127 0"/>
<feOffset dy="10"/>
<feGaussianBlur stdDeviation="10"/>
<feColorMatrix type="matrix" values="0 0 0 0 0 0 0 0 0 0 0 0 0 0 0 0 0 0 0.04 0"/>
<feBlend mode="normal" in2="effect2_dropShadow" result="effect3_dropShadow"/>
<feBlend mode="normal" in="SourceGraphic" in2="effect3_dropShadow" result="shape"/>
</filter>
<linearGradient id="paint0_linear" x1="93.596" y1="83.5528" x2="26.1631" y2="16.1218" gradientUnits="userSpaceOnUse">
<stop stop-color="#EF2F36"/>
<stop offset="1" stop-color="#90191E"/>
</linearGradient>
</defs>
</svg>
